<?xml version="1.0" encoding="utf-8"?>
<svg xmlns="http://www.w3.org/2000/svg" xmlns:xlink="http://www.w3.org/1999/xlink" width="600" height="400" viewBox="0 0 2400 1600">
<defs>
  <clipPath id="clip460">
    <rect x="0" y="0" width="2400" height="1600"/>
  </clipPath>
</defs>
<path clip-path="url(#clip460)" d="M0 1600 L2400 1600 L2400 0 L0 0  Z" fill="#ffffff" fill-rule="evenodd" fill-opacity="1"/>
<defs>
  <clipPath id="clip461">
    <rect x="193" y="123" width="2160" height="1364"/>
  </clipPath>
</defs>
<path clip-path="url(#clip460)" d="M193.936 1486.45 L2352.76 1486.45 L2352.76 123.472 L193.936 123.472  Z" fill="#ffffff" fill-rule="evenodd" fill-opacity="1"/>
<polyline clip-path="url(#clip461)" style="stroke:#000000; stroke-linecap:round; stroke-linejoin:round; stroke-width:2; stroke-opacity:0.1; fill:none" points="252.996,1486.45 252.996,123.472 "/>
<polyline clip-path="url(#clip461)" style="stroke:#000000; stroke-linecap:round; stroke-linejoin:round; stroke-width:2; stroke-opacity:0.1; fill:none" points="762.661,1486.45 762.661,123.472 "/>
<polyline clip-path="url(#clip461)" style="stroke:#000000; stroke-linecap:round; stroke-linejoin:round; stroke-width:2; stroke-opacity:0.1; fill:none" points="1272.33,1486.45 1272.33,123.472 "/>
<polyline clip-path="url(#clip461)" style="stroke:#000000; stroke-linecap:round; stroke-linejoin:round; stroke-width:2; stroke-opacity:0.1; fill:none" points="1781.99,1486.45 1781.99,123.472 "/>
<polyline clip-path="url(#clip461)" style="stroke:#000000; stroke-linecap:round; stroke-linejoin:round; stroke-width:2; stroke-opacity:0.1; fill:none" points="2291.66,1486.45 2291.66,123.472 "/>
<polyline clip-path="url(#clip461)" style="stroke:#000000; stroke-linecap:round; stroke-linejoin:round; stroke-width:2; stroke-opacity:0.1; fill:none" points="193.936,1483.19 2352.76,1483.19 "/>
<polyline clip-path="url(#clip461)" style="stroke:#000000; stroke-linecap:round; stroke-linejoin:round; stroke-width:2; stroke-opacity:0.1; fill:none" points="193.936,1126.23 2352.76,1126.23 "/>
<polyline clip-path="url(#clip461)" style="stroke:#000000; stroke-linecap:round; stroke-linejoin:round; stroke-width:2; stroke-opacity:0.1; fill:none" points="193.936,769.271 2352.76,769.271 "/>
<polyline clip-path="url(#clip461)" style="stroke:#000000; stroke-linecap:round; stroke-linejoin:round; stroke-width:2; stroke-opacity:0.1; fill:none" points="193.936,412.31 2352.76,412.31 "/>
<polyline clip-path="url(#clip460)" style="stroke:#000000; stroke-linecap:round; stroke-linejoin:round; stroke-width:4; stroke-opacity:1; fill:none" points="193.936,1486.45 2352.76,1486.45 "/>
<polyline clip-path="url(#clip460)" style="stroke:#000000; stroke-linecap:round; stroke-linejoin:round; stroke-width:4; stroke-opacity:1; fill:none" points="252.996,1486.45 252.996,1467.55 "/>
<polyline clip-path="url(#clip460)" style="stroke:#000000; stroke-linecap:round; stroke-linejoin:round; stroke-width:4; stroke-opacity:1; fill:none" points="762.661,1486.45 762.661,1467.55 "/>
<polyline clip-path="url(#clip460)" style="stroke:#000000; stroke-linecap:round; stroke-linejoin:round; stroke-width:4; stroke-opacity:1; fill:none" points="1272.33,1486.45 1272.33,1467.55 "/>
<polyline clip-path="url(#clip460)" style="stroke:#000000; stroke-linecap:round; stroke-linejoin:round; stroke-width:4; stroke-opacity:1; fill:none" points="1781.99,1486.45 1781.99,1467.55 "/>
<polyline clip-path="url(#clip460)" style="stroke:#000000; stroke-linecap:round; stroke-linejoin:round; stroke-width:4; stroke-opacity:1; fill:none" points="2291.66,1486.45 2291.66,1467.55 "/>
<path clip-path="url(#clip460)" d="M252.996 1517.37 Q249.385 1517.37 247.556 1520.93 Q245.751 1524.47 245.751 1531.6 Q245.751 1538.71 247.556 1542.27 Q249.385 1545.82 252.996 1545.82 Q256.63 1545.82 258.436 1542.27 Q260.264 1538.71 260.264 1531.6 Q260.264 1524.47 258.436 1520.93 Q256.63 1517.37 252.996 1517.37 M252.996 1513.66 Q258.806 1513.66 261.862 1518.27 Q264.94 1522.85 264.94 1531.6 Q264.94 1540.33 261.862 1544.94 Q258.806 1549.52 252.996 1549.52 Q247.186 1549.52 244.107 1544.94 Q241.052 1540.33 241.052 1531.6 Q241.052 1522.85 244.107 1518.27 Q247.186 1513.66 252.996 1513.66 Z" fill="#000000" fill-rule="nonzero" fill-opacity="1" /><path clip-path="url(#clip460)" d="M726.354 1544.91 L742.673 1544.91 L742.673 1548.85 L720.729 1548.85 L720.729 1544.91 Q723.391 1542.16 727.974 1537.53 Q732.58 1532.88 733.761 1531.53 Q736.006 1529.01 736.886 1527.27 Q737.789 1525.51 737.789 1523.82 Q737.789 1521.07 735.844 1519.33 Q733.923 1517.6 730.821 1517.6 Q728.622 1517.6 726.168 1518.36 Q723.738 1519.13 720.96 1520.68 L720.96 1515.95 Q723.784 1514.82 726.238 1514.24 Q728.692 1513.66 730.729 1513.66 Q736.099 1513.66 739.293 1516.35 Q742.488 1519.03 742.488 1523.52 Q742.488 1525.65 741.678 1527.57 Q740.891 1529.47 738.784 1532.07 Q738.205 1532.74 735.104 1535.95 Q732.002 1539.15 726.354 1544.91 Z" fill="#000000" fill-rule="nonzero" fill-opacity="1" /><path clip-path="url(#clip460)" d="M752.534 1514.29 L770.89 1514.29 L770.89 1518.22 L756.816 1518.22 L756.816 1526.7 Q757.835 1526.35 758.853 1526.19 Q759.872 1526 760.89 1526 Q766.677 1526 770.057 1529.17 Q773.437 1532.34 773.437 1537.76 Q773.437 1543.34 769.965 1546.44 Q766.492 1549.52 760.173 1549.52 Q757.997 1549.52 755.728 1549.15 Q753.483 1548.78 751.076 1548.04 L751.076 1543.34 Q753.159 1544.47 755.381 1545.03 Q757.603 1545.58 760.08 1545.58 Q764.085 1545.58 766.423 1543.48 Q768.761 1541.37 768.761 1537.76 Q768.761 1534.15 766.423 1532.04 Q764.085 1529.94 760.08 1529.94 Q758.205 1529.94 756.33 1530.35 Q754.478 1530.77 752.534 1531.65 L752.534 1514.29 Z" fill="#000000" fill-rule="nonzero" fill-opacity="1" /><path clip-path="url(#clip460)" d="M792.65 1517.37 Q789.038 1517.37 787.21 1520.93 Q785.404 1524.47 785.404 1531.6 Q785.404 1538.71 787.21 1542.27 Q789.038 1545.82 792.65 1545.82 Q796.284 1545.82 798.089 1542.27 Q799.918 1538.71 799.918 1531.6 Q799.918 1524.47 798.089 1520.93 Q796.284 1517.37 792.65 1517.37 M792.65 1513.66 Q798.46 1513.66 801.515 1518.27 Q804.594 1522.85 804.594 1531.6 Q804.594 1540.33 801.515 1544.94 Q798.46 1549.52 792.65 1549.52 Q786.839 1549.52 783.761 1544.94 Q780.705 1540.33 780.705 1531.6 Q780.705 1522.85 783.761 1518.27 Q786.839 1513.66 792.65 1513.66 Z" fill="#000000" fill-rule="nonzero" fill-opacity="1" /><path clip-path="url(#clip460)" d="M1231.94 1514.29 L1250.3 1514.29 L1250.3 1518.22 L1236.23 1518.22 L1236.23 1526.7 Q1237.25 1526.35 1238.26 1526.19 Q1239.28 1526 1240.3 1526 Q1246.09 1526 1249.47 1529.17 Q1252.85 1532.34 1252.85 1537.76 Q1252.85 1543.34 1249.38 1546.44 Q1245.9 1549.52 1239.58 1549.52 Q1237.41 1549.52 1235.14 1549.15 Q1232.89 1548.78 1230.49 1548.04 L1230.49 1543.34 Q1232.57 1544.47 1234.79 1545.03 Q1237.01 1545.58 1239.49 1545.58 Q1243.5 1545.58 1245.83 1543.48 Q1248.17 1541.37 1248.17 1537.76 Q1248.17 1534.15 1245.83 1532.04 Q1243.5 1529.94 1239.49 1529.94 Q1237.62 1529.94 1235.74 1530.35 Q1233.89 1530.77 1231.94 1531.65 L1231.94 1514.29 Z" fill="#000000" fill-rule="nonzero" fill-opacity="1" /><path clip-path="url(#clip460)" d="M1272.06 1517.37 Q1268.45 1517.37 1266.62 1520.93 Q1264.82 1524.47 1264.82 1531.6 Q1264.82 1538.71 1266.62 1542.27 Q1268.45 1545.82 1272.06 1545.82 Q1275.69 1545.82 1277.5 1542.27 Q1279.33 1538.71 1279.33 1531.6 Q1279.33 1524.47 1277.5 1520.93 Q1275.69 1517.37 1272.06 1517.37 M1272.06 1513.66 Q1277.87 1513.66 1280.93 1518.27 Q1284 1522.85 1284 1531.6 Q1284 1540.33 1280.93 1544.94 Q1277.87 1549.52 1272.06 1549.52 Q1266.25 1549.52 1263.17 1544.94 Q1260.12 1540.33 1260.12 1531.6 Q1260.12 1522.85 1263.17 1518.27 Q1266.25 1513.66 1272.06 1513.66 Z" fill="#000000" fill-rule="nonzero" fill-opacity="1" /><path clip-path="url(#clip460)" d="M1302.22 1517.37 Q1298.61 1517.37 1296.78 1520.93 Q1294.98 1524.47 1294.98 1531.6 Q1294.98 1538.71 1296.78 1542.27 Q1298.61 1545.82 1302.22 1545.82 Q1305.86 1545.82 1307.66 1542.27 Q1309.49 1538.71 1309.49 1531.6 Q1309.49 1524.47 1307.66 1520.93 Q1305.86 1517.37 1302.22 1517.37 M1302.22 1513.66 Q1308.03 1513.66 1311.09 1518.27 Q1314.17 1522.85 1314.17 1531.6 Q1314.17 1540.33 1311.09 1544.94 Q1308.03 1549.52 1302.22 1549.52 Q1296.41 1549.52 1293.33 1544.94 Q1290.28 1540.33 1290.28 1531.6 Q1290.28 1522.85 1293.33 1518.27 Q1296.41 1513.66 1302.22 1513.66 Z" fill="#000000" fill-rule="nonzero" fill-opacity="1" /><path clip-path="url(#clip460)" d="M1740.27 1514.29 L1762.49 1514.29 L1762.49 1516.28 L1749.94 1548.85 L1745.06 1548.85 L1756.86 1518.22 L1740.27 1518.22 L1740.27 1514.29 Z" fill="#000000" fill-rule="nonzero" fill-opacity="1" /><path clip-path="url(#clip460)" d="M1771.66 1514.29 L1790.01 1514.29 L1790.01 1518.22 L1775.94 1518.22 L1775.94 1526.7 Q1776.96 1526.35 1777.98 1526.19 Q1778.99 1526 1780.01 1526 Q1785.8 1526 1789.18 1529.17 Q1792.56 1532.34 1792.56 1537.76 Q1792.56 1543.34 1789.09 1546.44 Q1785.61 1549.52 1779.3 1549.52 Q1777.12 1549.52 1774.85 1549.15 Q1772.61 1548.78 1770.2 1548.04 L1770.2 1543.34 Q1772.28 1544.47 1774.5 1545.03 Q1776.73 1545.58 1779.2 1545.58 Q1783.21 1545.58 1785.55 1543.48 Q1787.88 1541.37 1787.88 1537.76 Q1787.88 1534.15 1785.55 1532.04 Q1783.21 1529.94 1779.2 1529.94 Q1777.33 1529.94 1775.45 1530.35 Q1773.6 1530.77 1771.66 1531.65 L1771.66 1514.29 Z" fill="#000000" fill-rule="nonzero" fill-opacity="1" /><path clip-path="url(#clip460)" d="M1811.77 1517.37 Q1808.16 1517.37 1806.33 1520.93 Q1804.53 1524.47 1804.53 1531.6 Q1804.53 1538.71 1806.33 1542.27 Q1808.16 1545.82 1811.77 1545.82 Q1815.41 1545.82 1817.21 1542.27 Q1819.04 1538.71 1819.04 1531.6 Q1819.04 1524.47 1817.21 1520.93 Q1815.41 1517.37 1811.77 1517.37 M1811.77 1513.66 Q1817.58 1513.66 1820.64 1518.27 Q1823.72 1522.85 1823.72 1531.6 Q1823.72 1540.33 1820.64 1544.94 Q1817.58 1549.52 1811.77 1549.52 Q1805.96 1549.52 1802.88 1544.94 Q1799.83 1540.33 1799.83 1531.6 Q1799.83 1522.85 1802.88 1518.27 Q1805.96 1513.66 1811.77 1513.66 Z" fill="#000000" fill-rule="nonzero" fill-opacity="1" /><path clip-path="url(#clip460)" d="M2236.18 1544.91 L2243.82 1544.91 L2243.82 1518.55 L2235.51 1520.21 L2235.51 1515.95 L2243.78 1514.29 L2248.45 1514.29 L2248.45 1544.91 L2256.09 1544.91 L2256.09 1548.85 L2236.18 1548.85 L2236.18 1544.91 Z" fill="#000000" fill-rule="nonzero" fill-opacity="1" /><path clip-path="url(#clip460)" d="M2275.53 1517.37 Q2271.92 1517.37 2270.09 1520.93 Q2268.29 1524.47 2268.29 1531.6 Q2268.29 1538.71 2270.09 1542.27 Q2271.92 1545.82 2275.53 1545.82 Q2279.17 1545.82 2280.97 1542.27 Q2282.8 1538.71 2282.8 1531.6 Q2282.8 1524.47 2280.97 1520.93 Q2279.17 1517.37 2275.53 1517.37 M2275.53 1513.66 Q2281.34 1513.66 2284.4 1518.27 Q2287.48 1522.85 2287.48 1531.6 Q2287.48 1540.33 2284.4 1544.94 Q2281.34 1549.52 2275.53 1549.52 Q2269.72 1549.52 2266.65 1544.94 Q2263.59 1540.33 2263.59 1531.6 Q2263.59 1522.85 2266.65 1518.27 Q2269.72 1513.66 2275.53 1513.66 Z" fill="#000000" fill-rule="nonzero" fill-opacity="1" /><path clip-path="url(#clip460)" d="M2305.7 1517.37 Q2302.09 1517.37 2300.26 1520.93 Q2298.45 1524.47 2298.45 1531.6 Q2298.45 1538.71 2300.26 1542.27 Q2302.09 1545.82 2305.7 1545.82 Q2309.33 1545.82 2311.14 1542.27 Q2312.96 1538.71 2312.96 1531.6 Q2312.96 1524.47 2311.14 1520.93 Q2309.33 1517.37 2305.7 1517.37 M2305.7 1513.66 Q2311.51 1513.66 2314.56 1518.27 Q2317.64 1522.85 2317.64 1531.6 Q2317.64 1540.33 2314.56 1544.94 Q2311.51 1549.52 2305.7 1549.52 Q2299.89 1549.52 2296.81 1544.94 Q2293.75 1540.33 2293.75 1531.6 Q2293.75 1522.85 2296.81 1518.27 Q2299.89 1513.66 2305.7 1513.66 Z" fill="#000000" fill-rule="nonzero" fill-opacity="1" /><path clip-path="url(#clip460)" d="M2335.86 1517.37 Q2332.25 1517.37 2330.42 1520.93 Q2328.61 1524.47 2328.61 1531.6 Q2328.61 1538.71 2330.42 1542.27 Q2332.25 1545.82 2335.86 1545.82 Q2339.49 1545.82 2341.3 1542.27 Q2343.13 1538.71 2343.13 1531.6 Q2343.13 1524.47 2341.3 1520.93 Q2339.49 1517.37 2335.86 1517.37 M2335.86 1513.66 Q2341.67 1513.66 2344.72 1518.27 Q2347.8 1522.85 2347.8 1531.6 Q2347.8 1540.33 2344.72 1544.94 Q2341.67 1549.52 2335.86 1549.52 Q2330.05 1549.52 2326.97 1544.94 Q2323.91 1540.33 2323.91 1531.6 Q2323.91 1522.85 2326.97 1518.27 Q2330.05 1513.66 2335.86 1513.66 Z" fill="#000000" fill-rule="nonzero" fill-opacity="1" /><polyline clip-path="url(#clip460)" style="stroke:#000000; stroke-linecap:round; stroke-linejoin:round; stroke-width:4; stroke-opacity:1; fill:none" points="193.936,1486.45 193.936,123.472 "/>
<polyline clip-path="url(#clip460)" style="stroke:#000000; stroke-linecap:round; stroke-linejoin:round; stroke-width:4; stroke-opacity:1; fill:none" points="193.936,1483.19 212.834,1483.19 "/>
<polyline clip-path="url(#clip460)" style="stroke:#000000; stroke-linecap:round; stroke-linejoin:round; stroke-width:4; stroke-opacity:1; fill:none" points="193.936,1126.23 212.834,1126.23 "/>
<polyline clip-path="url(#clip460)" style="stroke:#000000; stroke-linecap:round; stroke-linejoin:round; stroke-width:4; stroke-opacity:1; fill:none" points="193.936,769.271 212.834,769.271 "/>
<polyline clip-path="url(#clip460)" style="stroke:#000000; stroke-linecap:round; stroke-linejoin:round; stroke-width:4; stroke-opacity:1; fill:none" points="193.936,412.31 212.834,412.31 "/>
<path clip-path="url(#clip460)" d="M50.9921 1483.64 L80.6679 1483.64 L80.6679 1487.58 L50.9921 1487.58 L50.9921 1483.64 Z" fill="#000000" fill-rule="nonzero" fill-opacity="1" /><path clip-path="url(#clip460)" d="M91.5706 1496.54 L99.2095 1496.54 L99.2095 1470.17 L90.8993 1471.84 L90.8993 1467.58 L99.1632 1465.91 L103.839 1465.91 L103.839 1496.54 L111.478 1496.54 L111.478 1500.47 L91.5706 1500.47 L91.5706 1496.54 Z" fill="#000000" fill-rule="nonzero" fill-opacity="1" /><path clip-path="url(#clip460)" d="M120.922 1494.59 L125.807 1494.59 L125.807 1500.47 L120.922 1500.47 L120.922 1494.59 Z" fill="#000000" fill-rule="nonzero" fill-opacity="1" /><path clip-path="url(#clip460)" d="M145.992 1468.99 Q142.381 1468.99 140.552 1472.56 Q138.746 1476.1 138.746 1483.23 Q138.746 1490.33 140.552 1493.9 Q142.381 1497.44 145.992 1497.44 Q149.626 1497.44 151.431 1493.9 Q153.26 1490.33 153.26 1483.23 Q153.26 1476.1 151.431 1472.56 Q149.626 1468.99 145.992 1468.99 M145.992 1465.29 Q151.802 1465.29 154.857 1469.89 Q157.936 1474.48 157.936 1483.23 Q157.936 1491.95 154.857 1496.56 Q151.802 1501.14 145.992 1501.14 Q140.181 1501.14 137.103 1496.56 Q134.047 1491.95 134.047 1483.23 Q134.047 1474.48 137.103 1469.89 Q140.181 1465.29 145.992 1465.29 Z" fill="#000000" fill-rule="nonzero" fill-opacity="1" /><path clip-path="url(#clip460)" d="M51.9875 1126.68 L81.6633 1126.68 L81.6633 1130.62 L51.9875 1130.62 L51.9875 1126.68 Z" fill="#000000" fill-rule="nonzero" fill-opacity="1" /><path clip-path="url(#clip460)" d="M101.756 1112.03 Q98.1447 1112.03 96.316 1115.6 Q94.5104 1119.14 94.5104 1126.27 Q94.5104 1133.37 96.316 1136.94 Q98.1447 1140.48 101.756 1140.48 Q105.39 1140.48 107.196 1136.94 Q109.024 1133.37 109.024 1126.27 Q109.024 1119.14 107.196 1115.6 Q105.39 1112.03 101.756 1112.03 M101.756 1108.33 Q107.566 1108.33 110.621 1112.93 Q113.7 1117.52 113.7 1126.27 Q113.7 1134.99 110.621 1139.6 Q107.566 1144.18 101.756 1144.18 Q95.9456 1144.18 92.8669 1139.6 Q89.8114 1134.99 89.8114 1126.27 Q89.8114 1117.52 92.8669 1112.93 Q95.9456 1108.33 101.756 1108.33 Z" fill="#000000" fill-rule="nonzero" fill-opacity="1" /><path clip-path="url(#clip460)" d="M121.918 1137.63 L126.802 1137.63 L126.802 1143.51 L121.918 1143.51 L121.918 1137.63 Z" fill="#000000" fill-rule="nonzero" fill-opacity="1" /><path clip-path="url(#clip460)" d="M137.033 1108.95 L155.39 1108.95 L155.39 1112.89 L141.316 1112.89 L141.316 1121.36 Q142.334 1121.01 143.353 1120.85 Q144.371 1120.67 145.39 1120.67 Q151.177 1120.67 154.556 1123.84 Q157.936 1127.01 157.936 1132.42 Q157.936 1138 154.464 1141.1 Q150.992 1144.18 144.672 1144.18 Q142.496 1144.18 140.228 1143.81 Q137.982 1143.44 135.575 1142.7 L135.575 1138 Q137.658 1139.14 139.881 1139.69 Q142.103 1140.25 144.58 1140.25 Q148.584 1140.25 150.922 1138.14 Q153.26 1136.04 153.26 1132.42 Q153.26 1128.81 150.922 1126.71 Q148.584 1124.6 144.58 1124.6 Q142.705 1124.6 140.83 1125.02 Q138.978 1125.43 137.033 1126.31 L137.033 1108.95 Z" fill="#000000" fill-rule="nonzero" fill-opacity="1" /><path clip-path="url(#clip460)" d="M100.76 755.07 Q97.1493 755.07 95.3206 758.635 Q93.515 762.176 93.515 769.306 Q93.515 776.412 95.3206 779.977 Q97.1493 783.519 100.76 783.519 Q104.395 783.519 106.2 779.977 Q108.029 776.412 108.029 769.306 Q108.029 762.176 106.2 758.635 Q104.395 755.07 100.76 755.07 M100.76 751.366 Q106.571 751.366 109.626 755.973 Q112.705 760.556 112.705 769.306 Q112.705 778.033 109.626 782.639 Q106.571 787.222 100.76 787.222 Q94.9502 787.222 91.8715 782.639 Q88.816 778.033 88.816 769.306 Q88.816 760.556 91.8715 755.973 Q94.9502 751.366 100.76 751.366 Z" fill="#000000" fill-rule="nonzero" fill-opacity="1" /><path clip-path="url(#clip460)" d="M120.922 780.672 L125.807 780.672 L125.807 786.551 L120.922 786.551 L120.922 780.672 Z" fill="#000000" fill-rule="nonzero" fill-opacity="1" /><path clip-path="url(#clip460)" d="M145.992 755.07 Q142.381 755.07 140.552 758.635 Q138.746 762.176 138.746 769.306 Q138.746 776.412 140.552 779.977 Q142.381 783.519 145.992 783.519 Q149.626 783.519 151.431 779.977 Q153.26 776.412 153.26 769.306 Q153.26 762.176 151.431 758.635 Q149.626 755.07 145.992 755.07 M145.992 751.366 Q151.802 751.366 154.857 755.973 Q157.936 760.556 157.936 769.306 Q157.936 778.033 154.857 782.639 Q151.802 787.222 145.992 787.222 Q140.181 787.222 137.103 782.639 Q134.047 778.033 134.047 769.306 Q134.047 760.556 137.103 755.973 Q140.181 751.366 145.992 751.366 Z" fill="#000000" fill-rule="nonzero" fill-opacity="1" /><path clip-path="url(#clip460)" d="M101.756 398.109 Q98.1447 398.109 96.316 401.674 Q94.5104 405.215 94.5104 412.345 Q94.5104 419.451 96.316 423.016 Q98.1447 426.558 101.756 426.558 Q105.39 426.558 107.196 423.016 Q109.024 419.451 109.024 412.345 Q109.024 405.215 107.196 401.674 Q105.39 398.109 101.756 398.109 M101.756 394.405 Q107.566 394.405 110.621 399.012 Q113.7 403.595 113.7 412.345 Q113.7 421.072 110.621 425.678 Q107.566 430.261 101.756 430.261 Q95.9456 430.261 92.8669 425.678 Q89.8114 421.072 89.8114 412.345 Q89.8114 403.595 92.8669 399.012 Q95.9456 394.405 101.756 394.405 Z" fill="#000000" fill-rule="nonzero" fill-opacity="1" /><path clip-path="url(#clip460)" d="M121.918 423.71 L126.802 423.71 L126.802 429.59 L121.918 429.59 L121.918 423.71 Z" fill="#000000" fill-rule="nonzero" fill-opacity="1" /><path clip-path="url(#clip460)" d="M137.033 395.03 L155.39 395.03 L155.39 398.965 L141.316 398.965 L141.316 407.437 Q142.334 407.09 143.353 406.928 Q144.371 406.743 145.39 406.743 Q151.177 406.743 154.556 409.914 Q157.936 413.086 157.936 418.502 Q157.936 424.081 154.464 427.183 Q150.992 430.261 144.672 430.261 Q142.496 430.261 140.228 429.891 Q137.982 429.521 135.575 428.78 L135.575 424.081 Q137.658 425.215 139.881 425.771 Q142.103 426.326 144.58 426.326 Q148.584 426.326 150.922 424.22 Q153.26 422.113 153.26 418.502 Q153.26 414.891 150.922 412.785 Q148.584 410.678 144.58 410.678 Q142.705 410.678 140.83 411.095 Q138.978 411.511 137.033 412.391 L137.033 395.03 Z" fill="#000000" fill-rule="nonzero" fill-opacity="1" /><path clip-path="url(#clip460)" d="M1204.28 16.7545 L1204.28 25.383 Q1200.15 21.5346 1195.45 19.6307 Q1190.79 17.7268 1185.52 17.7268 Q1175.15 17.7268 1169.64 24.0867 Q1164.13 30.4061 1164.13 42.3968 Q1164.13 54.3469 1169.64 60.7069 Q1175.15 67.0263 1185.52 67.0263 Q1190.79 67.0263 1195.45 65.1223 Q1200.15 63.2184 1204.28 59.3701 L1204.28 67.9175 Q1199.98 70.8341 1195.16 72.2924 Q1190.38 73.7508 1185.04 73.7508 Q1171.3 73.7508 1163.4 65.3654 Q1155.51 56.9395 1155.51 42.3968 Q1155.51 27.8135 1163.4 19.4281 Q1171.3 11.0023 1185.04 11.0023 Q1190.46 11.0023 1195.24 12.4606 Q1200.07 13.8784 1204.28 16.7545 Z" fill="#000000" fill-rule="nonzero" fill-opacity="1" /><path clip-path="url(#clip460)" d="M1215.82 54.671 L1215.82 27.2059 L1223.28 27.2059 L1223.28 54.3874 Q1223.28 60.8284 1225.79 64.0691 Q1228.3 67.2693 1233.32 67.2693 Q1239.36 67.2693 1242.84 63.421 Q1246.37 59.5726 1246.37 52.9291 L1246.37 27.2059 L1253.82 27.2059 L1253.82 72.576 L1246.37 72.576 L1246.37 65.6084 Q1243.65 69.7404 1240.05 71.7658 Q1236.48 73.7508 1231.74 73.7508 Q1223.92 73.7508 1219.87 68.8897 Q1215.82 64.0286 1215.82 54.671 M1234.58 26.1121 L1234.58 26.1121 Z" fill="#000000" fill-rule="nonzero" fill-opacity="1" /><path clip-path="url(#clip460)" d="M1295.46 34.1734 Q1294.21 33.4443 1292.71 33.1202 Q1291.25 32.7556 1289.47 32.7556 Q1283.15 32.7556 1279.75 36.8875 Q1276.38 40.9789 1276.38 48.6757 L1276.38 72.576 L1268.89 72.576 L1268.89 27.2059 L1276.38 27.2059 L1276.38 34.2544 Q1278.73 30.1225 1282.5 28.1376 Q1286.27 26.1121 1291.66 26.1121 Q1292.43 26.1121 1293.36 26.2337 Q1294.29 26.3147 1295.42 26.5172 L1295.46 34.1734 Z" fill="#000000" fill-rule="nonzero" fill-opacity="1" /><path clip-path="url(#clip460)" d="M1297.93 27.2059 L1305.83 27.2059 L1320.01 65.2844 L1334.19 27.2059 L1342.09 27.2059 L1325.08 72.576 L1314.95 72.576 L1297.93 27.2059 Z" fill="#000000" fill-rule="nonzero" fill-opacity="1" /><path clip-path="url(#clip460)" d="M1391.19 48.0275 L1391.19 51.6733 L1356.92 51.6733 Q1357.4 59.3701 1361.53 63.421 Q1365.71 67.4314 1373.12 67.4314 Q1377.41 67.4314 1381.42 66.3781 Q1385.47 65.3249 1389.44 63.2184 L1389.44 70.267 Q1385.43 71.9684 1381.22 72.8596 Q1377.01 73.7508 1372.67 73.7508 Q1361.82 73.7508 1355.46 67.4314 Q1349.14 61.1119 1349.14 50.3365 Q1349.14 39.1965 1355.13 32.6746 Q1361.17 26.1121 1371.38 26.1121 Q1380.53 26.1121 1385.84 32.0264 Q1391.19 37.9003 1391.19 48.0275 M1383.73 45.84 Q1383.65 39.7232 1380.29 36.0774 Q1376.97 32.4315 1371.46 32.4315 Q1365.22 32.4315 1361.45 35.9558 Q1357.73 39.4801 1357.16 45.8805 L1383.73 45.84 Z" fill="#000000" fill-rule="nonzero" fill-opacity="1" /><polyline clip-path="url(#clip461)" style="stroke:#009af9; stroke-linecap:round; stroke-linejoin:round; stroke-width:4; stroke-opacity:1; fill:none" points="255.035,769.271 257.073,769.249 259.112,769.181 261.151,769.069 263.189,768.913 265.228,768.712 267.267,768.467 269.305,768.179 271.344,767.848 273.383,767.475 275.421,767.061 277.46,766.606 279.499,766.111 281.537,765.578 283.576,765.007 285.615,764.4 287.653,763.758 289.692,763.081 291.731,762.372 293.769,761.632 295.808,760.863 297.847,760.065 299.885,759.241 301.924,758.392 303.963,757.521 306.001,756.628 308.04,755.716 310.079,754.787 312.117,753.842 314.156,752.884 316.195,751.915 318.233,750.936 320.272,749.95 322.31,748.96 324.349,747.966 326.388,746.973 328.426,745.98 330.465,744.992 332.504,744.01 334.542,743.036 336.581,742.074 338.62,741.124 340.658,740.19 342.697,739.273 344.736,738.376 346.774,737.501 348.813,736.651 350.852,735.828 352.89,735.033 354.929,734.27 356.968,733.539 359.006,732.845 361.045,732.187 363.084,731.569 365.122,730.993 367.161,730.461 369.2,729.974 371.238,729.534 373.277,729.143 375.316,728.804 377.354,728.517 379.393,728.284 381.432,728.107 383.47,727.987 385.509,727.927 387.548,727.926 389.586,727.986 391.625,728.11 393.664,728.297 395.702,728.548 397.741,728.865 399.78,729.249 401.818,729.7 403.857,730.218 405.896,730.805 407.934,731.461 409.973,732.186 412.012,732.981 414.05,733.846 416.089,734.78 418.128,735.783 420.166,736.857 422.205,737.999 424.244,739.211 426.282,740.491 428.321,741.839 430.36,743.254 432.398,744.735 434.437,746.282 436.476,747.894 438.514,749.569 440.553,751.307 442.592,753.105 444.63,754.963 446.669,756.879 448.707,758.851 450.746,760.878 452.785,762.958 454.823,765.089 456.862,767.269 458.901,769.496 460.939,771.767 462.978,774.081 465.017,776.436 467.055,778.827 469.094,781.254 471.133,783.714 473.171,786.203 475.21,788.719 477.249,791.26 479.287,793.821 481.326,796.402 483.365,798.998 485.403,801.606 487.442,804.223 489.481,806.846 491.519,809.472 493.558,812.098 495.597,814.72 497.635,817.335 499.674,819.939 501.713,822.529 503.751,825.103 505.79,827.655 507.829,830.184 509.867,832.685 511.906,835.154 513.945,837.59 515.983,839.987 518.022,842.343 520.061,844.654 522.099,846.916 524.138,849.127 526.177,851.283 528.215,853.381 530.254,855.417 532.293,857.388 534.331,859.291 536.37,861.122 538.409,862.879 540.447,864.559 542.486,866.158 544.525,867.673 546.563,869.102 548.602,870.442 550.641,871.691 552.679,872.844 554.718,873.901 556.757,874.858 558.795,875.714 560.834,876.465 562.873,877.111 564.911,877.648 566.95,878.075 568.989,878.389 571.027,878.59 573.066,878.676 575.104,878.645 577.143,878.496 579.182,878.227 581.22,877.838 583.259,877.327 585.298,876.694 587.336,875.938 589.375,875.058 591.414,874.055 593.452,872.927 595.491,871.675 597.53,870.299 599.568,868.798 601.607,867.174 603.646,865.426 605.684,863.556 607.723,861.563 609.762,859.449 611.8,857.215 613.839,854.862 615.878,852.392 617.916,849.805 619.955,847.104 621.994,844.29 624.032,841.366 626.071,838.333 628.11,835.194 630.148,831.951 632.187,828.606 634.226,825.162 636.264,821.623 638.303,817.99 640.342,814.267 642.38,810.457 644.419,806.564 646.458,802.591 648.496,798.541 650.535,794.418 652.574,790.226 654.612,785.97 656.651,781.651 658.69,777.276 660.728,772.849 662.767,768.372 664.806,763.852 666.844,759.292 668.883,754.697 670.922,750.072 672.96,745.421 674.999,740.75 677.038,736.062 679.076,731.364 681.115,726.66 683.154,721.954 685.192,717.253 687.231,712.561 689.27,707.884 691.308,703.226 693.347,698.593 695.385,693.99 697.424,689.422 699.463,684.894 701.501,680.413 703.54,675.982 705.579,671.607 707.617,667.293 709.656,663.046 711.695,658.87 713.733,654.771 715.772,650.754 717.811,646.823 719.849,642.984 721.888,639.242 723.927,635.601 725.965,632.065 728.004,628.641 730.043,625.331 732.081,622.142 734.12,619.076 736.159,616.139 738.197,613.335 740.236,610.667 742.275,608.14 744.313,605.757 746.352,603.523 748.391,601.44 750.429,599.512 752.468,597.743 754.507,596.135 756.545,594.692 758.584,593.416 760.623,592.31 762.661,591.376 764.7,590.617 766.739,590.036 768.777,589.633 770.816,589.412 772.855,589.372 774.893,589.517 776.932,589.846 778.971,590.362 781.009,591.065 783.048,591.956 785.087,593.035 787.125,594.302 789.164,595.758 791.203,597.403 793.241,599.236 795.28,601.256 797.319,603.463 799.357,605.856 801.396,608.434 803.435,611.195 805.473,614.138 807.512,617.262 809.551,620.563 811.589,624.041 813.628,627.692 815.667,631.514 817.705,635.504 819.744,639.66 821.782,643.978 823.821,648.454 825.86,653.086 827.898,657.87 829.937,662.8 831.976,667.875 834.014,673.088 836.053,678.436 838.092,683.915 840.13,689.518 842.169,695.242 844.208,701.08 846.246,707.029 848.285,713.082 850.324,719.234 852.362,725.479 854.401,731.811 856.44,738.225 858.478,744.714 860.517,751.271 862.556,757.892 864.594,764.568 866.633,771.294 868.672,778.063 870.71,784.868 872.749,791.702 874.788,798.559 876.826,805.432 878.865,812.313 880.904,819.195 882.942,826.072 884.981,832.936 887.02,839.781 889.058,846.598 891.097,853.381 893.136,860.122 895.174,866.814 897.213,873.451 899.252,880.024 901.29,886.527 903.329,892.953 905.368,899.294 907.406,905.543 909.445,911.694 911.484,917.739 913.522,923.671 915.561,929.484 917.6,935.171 919.638,940.726 921.677,946.142 923.716,951.412 925.754,956.53 927.793,961.49 929.832,966.286 931.87,970.912 933.909,975.363 935.948,979.632 937.986,983.714 940.025,987.604 942.064,991.298 944.102,994.788 946.141,998.073 948.179,1001.15 950.218,1004 952.257,1006.64 954.295,1009.05 956.334,1011.24 958.373,1013.19 960.411,1014.91 962.45,1016.39 964.489,1017.63 966.527,1018.63 968.566,1019.38 970.605,1019.88 972.643,1020.14 974.682,1020.14 976.721,1019.89 978.759,1019.39 980.798,1018.63 982.837,1017.61 984.875,1016.34 986.914,1014.82 988.953,1013.03 990.991,1011 993.03,1008.7 995.069,1006.16 997.107,1003.36 999.146,1000.31 1001.18,997.01 1003.22,993.464 1005.26,989.672 1007.3,985.638 1009.34,981.365 1011.38,976.855 1013.42,972.112 1015.46,967.139 1017.49,961.94 1019.53,956.52 1021.57,950.882 1023.61,945.032 1025.65,938.974 1027.69,932.713 1029.73,926.255 1031.76,919.604 1033.8,912.768 1035.84,905.751 1037.88,898.561 1039.92,891.203 1041.96,883.684 1044,876.011 1046.04,868.191 1048.07,860.232 1050.11,852.139 1052.15,843.923 1054.19,835.588 1056.23,827.145 1058.27,818.601 1060.31,809.963 1062.34,801.241 1064.38,792.442 1066.42,783.576 1068.46,774.651 1070.5,765.675 1072.54,756.659 1074.58,747.609 1076.62,738.537 1078.65,729.45 1080.69,720.358 1082.73,711.27 1084.77,702.195 1086.81,693.143 1088.85,684.123 1090.89,675.144 1092.92,666.215 1094.96,657.346 1097,648.547 1099.04,639.826 1101.08,631.192 1103.12,622.655 1105.16,614.224 1107.2,605.908 1109.23,597.716 1111.27,589.657 1113.31,581.74 1115.35,573.972 1117.39,566.364 1119.43,558.923 1121.47,551.657 1123.5,544.576 1125.54,537.686 1127.58,530.996 1129.62,524.513 1131.66,518.246 1133.7,512.2 1135.74,506.384 1137.77,500.805 1139.81,495.469 1141.85,490.382 1143.89,485.551 1145.93,480.982 1147.97,476.681 1150.01,472.654 1152.05,468.905 1154.08,465.44 1156.12,462.263 1158.16,459.379 1160.2,456.793 1162.24,454.508 1164.28,452.527 1166.32,450.855 1168.35,449.494 1170.39,448.447 1172.43,447.717 1174.47,447.305 1176.51,447.214 1178.55,447.444 1180.59,447.998 1182.63,448.875 1184.66,450.077 1186.7,451.604 1188.74,453.456 1190.78,455.631 1192.82,458.13 1194.86,460.951 1196.9,464.092 1198.93,467.553 1200.97,471.33 1203.01,475.422 1205.05,479.825 1207.09,484.537 1209.13,489.554 1211.17,494.872 1213.21,500.487 1215.24,506.395 1217.28,512.59 1219.32,519.069 1221.36,525.826 1223.4,532.854 1225.44,540.149 1227.48,547.703 1229.51,555.51 1231.55,563.564 1233.59,571.858 1235.63,580.383 1237.67,589.132 1239.71,598.098 1241.75,607.273 1243.79,616.647 1245.82,626.212 1247.86,635.96 1249.9,645.881 1251.94,655.967 1253.98,666.206 1256.02,676.591 1258.06,687.111 1260.09,697.755 1262.13,708.515 1264.17,719.378 1266.21,730.336 1268.25,741.377 1270.29,752.49 1272.33,763.664 1274.37,774.889 1276.4,786.154 1278.44,797.446 1280.48,808.756 1282.52,820.071 1284.56,831.38 1286.6,842.673 1288.64,853.936 1290.67,865.16 1292.71,876.332 1294.75,887.441 1296.79,898.476 1298.83,909.426 1300.87,920.278 1302.91,931.021 1304.95,941.646 1306.98,952.139 1309.02,962.491 1311.06,972.689 1313.1,982.725 1315.14,992.585 1317.18,1002.26 1319.22,1011.74 1321.25,1021.02 1323.29,1030.08 1325.33,1038.91 1327.37,1047.51 1329.41,1055.86 1331.45,1063.96 1333.49,1071.8 1335.53,1079.36 1337.56,1086.64 1339.6,1093.64 1341.64,1100.33 1343.68,1106.72 1345.72,1112.8 1347.76,1118.56 1349.8,1123.99 1351.83,1129.09 1353.87,1133.85 1355.91,1138.26 1357.95,1142.32 1359.99,1146.02 1362.03,1149.36 1364.07,1152.34 1366.11,1154.94 1368.14,1157.17 1370.18,1159.02 1372.22,1160.48 1374.26,1161.57 1376.3,1162.26 1378.34,1162.57 1380.38,1162.48 1382.41,1162.01 1384.45,1161.13 1386.49,1159.87 1388.53,1158.21 1390.57,1156.16 1392.61,1153.71 1394.65,1150.87 1396.68,1147.64 1398.72,1144.03 1400.76,1140.02 1402.8,1135.63 1404.84,1130.87 1406.88,1125.72 1408.92,1120.2 1410.96,1114.31 1412.99,1108.06 1415.03,1101.44 1417.07,1094.47 1419.11,1087.16 1421.15,1079.5 1423.19,1071.5 1425.23,1063.18 1427.26,1054.53 1429.3,1045.57 1431.34,1036.3 1433.38,1026.74 1435.42,1016.88 1437.46,1006.75 1439.5,996.337 1441.54,985.667 1443.57,974.745 1445.61,963.58 1447.65,952.183 1449.69,940.565 1451.73,928.737 1453.77,916.709 1455.81,904.493 1457.84,892.102 1459.88,879.545 1461.92,866.837 1463.96,853.988 1466,841.011 1468.04,827.919 1470.08,814.725 1472.12,801.441 1474.15,788.08 1476.19,774.656 1478.23,761.181 1480.27,747.67 1482.31,734.135 1484.35,720.59 1486.39,707.048 1488.42,693.524 1490.46,680.03 1492.5,666.581 1494.54,653.189 1496.58,639.869 1498.62,626.634 1500.66,613.498 1502.7,600.473 1504.73,587.574 1506.77,574.814 1508.81,562.206 1510.85,549.763 1512.89,537.498 1514.93,525.424 1516.97,513.553 1519,501.899 1521.04,490.474 1523.08,479.289 1525.12,468.357 1527.16,457.689 1529.2,447.297 1531.24,437.193 1533.28,427.386 1535.31,417.889 1537.35,408.712 1539.39,399.864 1541.43,391.355 1543.47,383.196 1545.51,375.395 1547.55,367.962 1549.58,360.904 1551.62,354.231 1553.66,347.95 1555.7,342.069 1557.74,336.594 1559.78,331.533 1561.82,326.891 1563.86,322.675 1565.89,318.891 1567.93,315.543 1569.97,312.637 1572.01,310.175 1574.05,308.163 1576.09,306.604 1578.13,305.5 1580.16,304.854 1582.2,304.669 1584.24,304.945 1586.28,305.684 1588.32,306.887 1590.36,308.553 1592.4,310.683 1594.44,313.276 1596.47,316.33 1598.51,319.845 1600.55,323.817 1602.59,328.245 1604.63,333.124 1606.67,338.453 1608.71,344.226 1610.74,350.439 1612.78,357.088 1614.82,364.167 1616.86,371.67 1618.9,379.591 1620.94,387.924 1622.98,396.661 1625.02,405.794 1627.05,415.317 1629.09,425.219 1631.13,435.494 1633.17,446.131 1635.21,457.121 1637.25,468.454 1639.29,480.119 1641.32,492.107 1643.36,504.406 1645.4,517.004 1647.44,529.89 1649.48,543.052 1651.52,556.478 1653.56,570.154 1655.59,584.068 1657.63,598.208 1659.67,612.558 1661.71,627.106 1663.75,641.838 1665.79,656.739 1667.83,671.795 1669.87,686.991 1671.9,702.314 1673.94,717.747 1675.98,733.275 1678.02,748.884 1680.06,764.559 1682.1,780.282 1684.14,796.04 1686.17,811.816 1688.21,827.595 1690.25,843.361 1692.29,859.098 1694.33,874.79 1696.37,890.422 1698.41,905.978 1700.45,921.442 1702.48,936.798 1704.52,952.031 1706.56,967.126 1708.6,982.066 1710.64,996.836 1712.68,1011.42 1714.72,1025.81 1716.75,1039.98 1718.79,1053.92 1720.83,1067.62 1722.87,1081.06 1724.91,1094.22 1726.95,1107.1 1728.99,1119.68 1731.03,1131.95 1733.06,1143.89 1735.1,1155.49 1737.14,1166.74 1739.18,1177.62 1741.22,1188.13 1743.26,1198.25 1745.3,1207.97 1747.33,1217.29 1749.37,1226.18 1751.41,1234.64 1753.45,1242.67 1755.49,1250.24 1757.53,1257.36 1759.57,1264.01 1761.61,1270.19 1763.64,1275.89 1765.68,1281.09 1767.72,1285.81 1769.76,1290.02 1771.8,1293.73 1773.84,1296.93 1775.88,1299.61 1777.91,1301.77 1779.95,1303.41 1781.99,1304.52 1784.03,1305.1 1786.07,1305.15 1788.11,1304.67 1790.15,1303.66 1792.19,1302.11 1794.22,1300.03 1796.26,1297.41 1798.3,1294.26 1800.34,1290.59 1802.38,1286.38 1804.42,1281.65 1806.46,1276.4 1808.49,1270.64 1810.53,1264.35 1812.57,1257.56 1814.61,1250.27 1816.65,1242.48 1818.69,1234.2 1820.73,1225.44 1822.77,1216.2 1824.8,1206.49 1826.84,1196.32 1828.88,1185.7 1830.92,1174.64 1832.96,1163.15 1835,1151.24 1837.04,1138.92 1839.07,1126.19 1841.11,1113.08 1843.15,1099.6 1845.19,1085.75 1847.23,1071.56 1849.27,1057.02 1851.31,1042.17 1853.35,1027 1855.38,1011.54 1857.42,995.799 1859.46,979.793 1861.5,963.537 1863.54,947.047 1865.58,930.339 1867.62,913.428 1869.65,896.332 1871.69,879.065 1873.73,861.647 1875.77,844.092 1877.81,826.419 1879.85,808.645 1881.89,790.787 1883.92,772.862 1885.96,754.89 1888,736.886 1890.04,718.87 1892.08,700.859 1894.12,682.871 1896.16,664.923 1898.2,647.035 1900.23,629.224 1902.27,611.508 1904.31,593.904 1906.35,576.431 1908.39,559.107 1910.43,541.948 1912.47,524.973 1914.5,508.198 1916.54,491.642 1918.58,475.32 1920.62,459.251 1922.66,443.45 1924.7,427.934 1926.74,412.718 1928.78,397.82 1930.81,383.254 1932.85,369.037 1934.89,355.182 1936.93,341.704 1938.97,328.618 1941.01,315.939 1943.05,303.678 1945.08,291.851 1947.12,280.468 1949.16,269.544 1951.2,259.09 1953.24,249.117 1955.28,239.636 1957.32,230.659 1959.36,222.195 1961.39,214.253 1963.43,206.844 1965.47,199.976 1967.51,193.656 1969.55,187.893 1971.59,182.694 1973.63,178.064 1975.66,174.011 1977.7,170.538 1979.74,167.652 1981.78,165.357 1983.82,163.655 1985.86,162.551 1987.9,162.047 1989.94,162.144 1991.97,162.844 1994.01,164.148 1996.05,166.056 1998.09,168.567 2000.13,171.68 2002.17,175.394 2004.21,179.706 2006.24,184.614 2008.28,190.113 2010.32,196.2 2012.36,202.87 2014.4,210.118 2016.44,217.938 2018.48,226.323 2020.52,235.266 2022.55,244.76 2024.59,254.797 2026.63,265.368 2028.67,276.463 2030.71,288.073 2032.75,300.187 2034.79,312.795 2036.82,325.885 2038.86,339.445 2040.9,353.462 2042.94,367.925 2044.98,382.818 2047.02,398.129 2049.06,413.844 2051.1,429.947 2053.13,446.423 2055.17,463.258 2057.21,480.434 2059.25,497.936 2061.29,515.746 2063.33,533.849 2065.37,552.226 2067.4,570.86 2069.44,589.733 2071.48,608.826 2073.52,628.122 2075.56,647.601 2077.6,667.244 2079.64,687.033 2081.68,706.948 2083.71,726.969 2085.75,747.076 2087.79,767.251 2089.83,787.472 2091.87,807.721 2093.91,827.976 2095.95,848.218 2097.98,868.426 2100.02,888.581 2102.06,908.662 2104.1,928.649 2106.14,948.522 2108.18,968.261 2110.22,987.846 2112.26,1007.26 2114.29,1026.47 2116.33,1045.48 2118.37,1064.25 2120.41,1082.77 2122.45,1101.02 2124.49,1118.98 2126.53,1136.64 2128.56,1153.96 2130.6,1170.94 2132.64,1187.57 2134.68,1203.81 2136.72,1219.65 2138.76,1235.09 2140.8,1250.09 2142.83,1264.65 2144.87,1278.75 2146.91,1292.38 2148.95,1305.52 2150.99,1318.15 2153.03,1330.26 2155.07,1341.85 2157.11,1352.89 2159.14,1363.37 2161.18,1373.29 2163.22,1382.63 2165.26,1391.38 2167.3,1399.53 2169.34,1407.08 2171.38,1414.01 2173.41,1420.31 2175.45,1425.98 2177.49,1431.01 2179.53,1435.4 2181.57,1439.13 2183.61,1442.21 2185.65,1444.63 2187.69,1446.38 2189.72,1447.46 2191.76,1447.87 2193.8,1447.61 2195.84,1446.68 2197.88,1445.07 2199.92,1442.79 2201.96,1439.84 2203.99,1436.21 2206.03,1431.92 2208.07,1426.96 2210.11,1421.33 2212.15,1415.05 2214.19,1408.11 2216.23,1400.53 2218.27,1392.3 2220.3,1383.44 2222.34,1373.95 2224.38,1363.84 2226.42,1353.12 2228.46,1341.8 2230.5,1329.89 2232.54,1317.39 2234.57,1304.33 2236.61,1290.71 2238.65,1276.54 2240.69,1261.84 2242.73,1246.63 2244.77,1230.9 2246.81,1214.69 2248.85,1198.01 2250.88,1180.86 2252.92,1163.27 2254.96,1145.25 2257,1126.83 2259.04,1108.01 2261.08,1088.81 2263.12,1069.26 2265.15,1049.38 2267.19,1029.17 2269.23,1008.67 2271.27,987.888 2273.31,966.847 2275.35,945.567 2277.39,924.069 2279.43,902.375 2281.46,880.505 2283.5,858.48 2285.54,836.322 2287.58,814.054 2289.62,791.696 2291.66,769.271 "/>
</svg>
