<?xml version="1.0" encoding="UTF-8" standalone="no"?>
<svg xmlns:svg="http://www.w3.org/2000/svg" xmlns="http://www.w3.org/2000/svg" version="1.0" width="625" height="584" >
<g transform="translate(1 1)">
<path d="M 213.27708,407.68141 L 213.27708,312.91607 L 298.83665,261.47203 L 383.31318,311.29152 L 383.31318,407.1399 L 298.83665,454.79333 L 213.27708,407.68141 z M 298.83665,262.01354 L 271.21932,337.2843 L 214.90163,406.05686 L 298.29513,377.3565 L 381.68863,407.1399 L 326.45398,337.82582 L 298.83665,262.01354 z M 272.30235,337.2843 L 298.29513,376.81499 L 325.91246,337.2843 L 272.30235,337.2843 z M 214.36011,313.9991 L 270.13629,336.74278 M 325.37094,336.74278 L 382.23015,312.37455 M 298.83665,377.3565 L 298.83665,452.62726 M 9.50837,571.15925 L 613.71473,571.54216 L 298.29513,10.20849 L 9.50837,571.15925 z M 10.90861,570.39343 L 213.8186,314.54062 L 298.29513,11.29152 L 384.93773,312.37455 L 614.03195,571.66793 L 297.2121,454.25181 L 10.90861,570.39343 z M 298.2259,12.00612 L 298.2259,262.42914 M 383.23188,405.6374 L 611.44612,569.5228 M 10.27772,569.5228 L 213.21992,407.93486"  style="fill:none;stroke:black;stroke-width:2" /> 
<g transform="translate(154.25181,171.94134)" style="fill:blue;stroke:black;stroke-width:2"> 
<circle r="10" cx="143.90794" cy="90.072206"/> 
<circle r="10" cx="229.60289" cy="140.16245"/> 
<circle r="10" cx="172.92419" cy="165.88447"/> 
<circle r="10" cx="116.24548" cy="165.88447"/> 
<circle r="10" cx="59.566787" cy="140.16245"/> 
<circle r="10" cx="143.90794" cy="205.84116"/> 
<circle r="10" cx="143.90794" cy="283.61011"/> 
<circle r="10" cx="59.566787" cy="235.74"/> 
<circle r="10" cx="229.60289" cy="235.74"/> 
<circle r="10" cx="-143.50181" cy="398.46571"/> 
<circle r="10" cx="458.70758" cy="398.46571"/> 
<circle r="10" cx="143.90794" cy="-161.19134"/>
</g></g></svg>