<?xml version="1.0" encoding="utf-8"?>
<svg xmlns="http://www.w3.org/2000/svg" xmlns:xlink="http://www.w3.org/1999/xlink" width="600" height="400" viewBox="0 0 2400 1600">
<defs>
  <clipPath id="clip050">
    <rect x="0" y="0" width="2400" height="1600"/>
  </clipPath>
</defs>
<path clip-path="url(#clip050)" d="M0 1600 L2400 1600 L2400 0 L0 0  Z" fill="#ffffff" fill-rule="evenodd" fill-opacity="1"/>
<defs>
  <clipPath id="clip051">
    <rect x="654" y="123" width="1301" height="1301"/>
  </clipPath>
</defs>
<path clip-path="url(#clip050)" d="M654.628 1423.18 L1954.34 1423.18 L1954.34 123.472 L654.628 123.472  Z" fill="#ffffff" fill-rule="evenodd" fill-opacity="1"/>
<polyline clip-path="url(#clip051)" style="stroke:#000000; stroke-linecap:round; stroke-linejoin:round; stroke-width:2; stroke-opacity:0.1; fill:none" points="861.845,1423.18 861.845,123.472 "/>
<polyline clip-path="url(#clip051)" style="stroke:#000000; stroke-linecap:round; stroke-linejoin:round; stroke-width:2; stroke-opacity:0.1; fill:none" points="1089.1,1423.18 1089.1,123.472 "/>
<polyline clip-path="url(#clip051)" style="stroke:#000000; stroke-linecap:round; stroke-linejoin:round; stroke-width:2; stroke-opacity:0.1; fill:none" points="1316.36,1423.18 1316.36,123.472 "/>
<polyline clip-path="url(#clip051)" style="stroke:#000000; stroke-linecap:round; stroke-linejoin:round; stroke-width:2; stroke-opacity:0.1; fill:none" points="1543.62,1423.18 1543.62,123.472 "/>
<polyline clip-path="url(#clip051)" style="stroke:#000000; stroke-linecap:round; stroke-linejoin:round; stroke-width:2; stroke-opacity:0.1; fill:none" points="1770.88,1423.18 1770.88,123.472 "/>
<polyline clip-path="url(#clip051)" style="stroke:#000000; stroke-linecap:round; stroke-linejoin:round; stroke-width:2; stroke-opacity:0.1; fill:none" points="654.628,1215.96 1954.34,1215.96 "/>
<polyline clip-path="url(#clip051)" style="stroke:#000000; stroke-linecap:round; stroke-linejoin:round; stroke-width:2; stroke-opacity:0.1; fill:none" points="654.628,988.705 1954.34,988.705 "/>
<polyline clip-path="url(#clip051)" style="stroke:#000000; stroke-linecap:round; stroke-linejoin:round; stroke-width:2; stroke-opacity:0.1; fill:none" points="654.628,761.446 1954.34,761.446 "/>
<polyline clip-path="url(#clip051)" style="stroke:#000000; stroke-linecap:round; stroke-linejoin:round; stroke-width:2; stroke-opacity:0.1; fill:none" points="654.628,534.188 1954.34,534.188 "/>
<polyline clip-path="url(#clip051)" style="stroke:#000000; stroke-linecap:round; stroke-linejoin:round; stroke-width:2; stroke-opacity:0.1; fill:none" points="654.628,306.929 1954.34,306.929 "/>
<polyline clip-path="url(#clip050)" style="stroke:#000000; stroke-linecap:round; stroke-linejoin:round; stroke-width:4; stroke-opacity:1; fill:none" points="654.628,1423.18 1954.34,1423.18 "/>
<polyline clip-path="url(#clip050)" style="stroke:#000000; stroke-linecap:round; stroke-linejoin:round; stroke-width:4; stroke-opacity:1; fill:none" points="861.845,1423.18 861.845,1404.28 "/>
<polyline clip-path="url(#clip050)" style="stroke:#000000; stroke-linecap:round; stroke-linejoin:round; stroke-width:4; stroke-opacity:1; fill:none" points="1089.1,1423.18 1089.1,1404.28 "/>
<polyline clip-path="url(#clip050)" style="stroke:#000000; stroke-linecap:round; stroke-linejoin:round; stroke-width:4; stroke-opacity:1; fill:none" points="1316.36,1423.18 1316.36,1404.28 "/>
<polyline clip-path="url(#clip050)" style="stroke:#000000; stroke-linecap:round; stroke-linejoin:round; stroke-width:4; stroke-opacity:1; fill:none" points="1543.62,1423.18 1543.62,1404.28 "/>
<polyline clip-path="url(#clip050)" style="stroke:#000000; stroke-linecap:round; stroke-linejoin:round; stroke-width:4; stroke-opacity:1; fill:none" points="1770.88,1423.18 1770.88,1404.28 "/>
<path clip-path="url(#clip050)" d="M808.871 1468.75 L838.546 1468.75 L838.546 1472.69 L808.871 1472.69 L808.871 1468.75 Z" fill="#000000" fill-rule="nonzero" fill-opacity="1" /><path clip-path="url(#clip050)" d="M858.639 1454.1 Q855.028 1454.1 853.199 1457.66 Q851.394 1461.2 851.394 1468.33 Q851.394 1475.44 853.199 1479.01 Q855.028 1482.55 858.639 1482.55 Q862.273 1482.55 864.079 1479.01 Q865.907 1475.44 865.907 1468.33 Q865.907 1461.2 864.079 1457.66 Q862.273 1454.1 858.639 1454.1 M858.639 1450.39 Q864.449 1450.39 867.505 1455 Q870.583 1459.58 870.583 1468.33 Q870.583 1477.06 867.505 1481.67 Q864.449 1486.25 858.639 1486.25 Q852.829 1486.25 849.75 1481.67 Q846.695 1477.06 846.695 1468.33 Q846.695 1459.58 849.75 1455 Q852.829 1450.39 858.639 1450.39 Z" fill="#000000" fill-rule="nonzero" fill-opacity="1" /><path clip-path="url(#clip050)" d="M878.801 1479.7 L883.685 1479.7 L883.685 1485.58 L878.801 1485.58 L878.801 1479.7 Z" fill="#000000" fill-rule="nonzero" fill-opacity="1" /><path clip-path="url(#clip050)" d="M893.917 1451.02 L912.273 1451.02 L912.273 1454.96 L898.199 1454.96 L898.199 1463.43 Q899.217 1463.08 900.236 1462.92 Q901.254 1462.73 902.273 1462.73 Q908.06 1462.73 911.44 1465.9 Q914.819 1469.08 914.819 1474.49 Q914.819 1480.07 911.347 1483.17 Q907.875 1486.25 901.555 1486.25 Q899.38 1486.25 897.111 1485.88 Q894.866 1485.51 892.458 1484.77 L892.458 1480.07 Q894.542 1481.2 896.764 1481.76 Q898.986 1482.32 901.463 1482.32 Q905.467 1482.32 907.805 1480.21 Q910.143 1478.1 910.143 1474.49 Q910.143 1470.88 907.805 1468.77 Q905.467 1466.67 901.463 1466.67 Q899.588 1466.67 897.713 1467.08 Q895.861 1467.5 893.917 1468.38 L893.917 1451.02 Z" fill="#000000" fill-rule="nonzero" fill-opacity="1" /><path clip-path="url(#clip050)" d="M1066.49 1454.1 Q1062.88 1454.1 1061.05 1457.66 Q1059.24 1461.2 1059.24 1468.33 Q1059.24 1475.44 1061.05 1479.01 Q1062.88 1482.55 1066.49 1482.55 Q1070.12 1482.55 1071.93 1479.01 Q1073.76 1475.44 1073.76 1468.33 Q1073.76 1461.2 1071.93 1457.66 Q1070.12 1454.1 1066.49 1454.1 M1066.49 1450.39 Q1072.3 1450.39 1075.35 1455 Q1078.43 1459.58 1078.43 1468.33 Q1078.43 1477.06 1075.35 1481.67 Q1072.3 1486.25 1066.49 1486.25 Q1060.68 1486.25 1057.6 1481.67 Q1054.54 1477.06 1054.54 1468.33 Q1054.54 1459.58 1057.6 1455 Q1060.68 1450.39 1066.49 1450.39 Z" fill="#000000" fill-rule="nonzero" fill-opacity="1" /><path clip-path="url(#clip050)" d="M1086.65 1479.7 L1091.53 1479.7 L1091.53 1485.58 L1086.65 1485.58 L1086.65 1479.7 Z" fill="#000000" fill-rule="nonzero" fill-opacity="1" /><path clip-path="url(#clip050)" d="M1111.72 1454.1 Q1108.11 1454.1 1106.28 1457.66 Q1104.47 1461.2 1104.47 1468.33 Q1104.47 1475.44 1106.28 1479.01 Q1108.11 1482.55 1111.72 1482.55 Q1115.35 1482.55 1117.16 1479.01 Q1118.99 1475.44 1118.99 1468.33 Q1118.99 1461.2 1117.16 1457.66 Q1115.35 1454.1 1111.72 1454.1 M1111.72 1450.39 Q1117.53 1450.39 1120.58 1455 Q1123.66 1459.58 1123.66 1468.33 Q1123.66 1477.06 1120.58 1481.67 Q1117.53 1486.25 1111.72 1486.25 Q1105.91 1486.25 1102.83 1481.67 Q1099.77 1477.06 1099.77 1468.33 Q1099.77 1459.58 1102.83 1455 Q1105.91 1450.39 1111.72 1450.39 Z" fill="#000000" fill-rule="nonzero" fill-opacity="1" /><path clip-path="url(#clip050)" d="M1294.24 1454.1 Q1290.63 1454.1 1288.8 1457.66 Q1287 1461.2 1287 1468.33 Q1287 1475.44 1288.8 1479.01 Q1290.63 1482.55 1294.24 1482.55 Q1297.88 1482.55 1299.68 1479.01 Q1301.51 1475.44 1301.51 1468.33 Q1301.51 1461.2 1299.68 1457.66 Q1297.88 1454.1 1294.24 1454.1 M1294.24 1450.39 Q1300.05 1450.39 1303.11 1455 Q1306.19 1459.58 1306.19 1468.33 Q1306.19 1477.06 1303.11 1481.67 Q1300.05 1486.25 1294.24 1486.25 Q1288.43 1486.25 1285.36 1481.67 Q1282.3 1477.06 1282.3 1468.33 Q1282.3 1459.58 1285.36 1455 Q1288.43 1450.39 1294.24 1450.39 Z" fill="#000000" fill-rule="nonzero" fill-opacity="1" /><path clip-path="url(#clip050)" d="M1314.41 1479.7 L1319.29 1479.7 L1319.29 1485.58 L1314.41 1485.58 L1314.41 1479.7 Z" fill="#000000" fill-rule="nonzero" fill-opacity="1" /><path clip-path="url(#clip050)" d="M1329.52 1451.02 L1347.88 1451.02 L1347.88 1454.96 L1333.8 1454.96 L1333.8 1463.43 Q1334.82 1463.08 1335.84 1462.92 Q1336.86 1462.73 1337.88 1462.73 Q1343.67 1462.73 1347.04 1465.9 Q1350.42 1469.08 1350.42 1474.49 Q1350.42 1480.07 1346.95 1483.17 Q1343.48 1486.25 1337.16 1486.25 Q1334.98 1486.25 1332.72 1485.88 Q1330.47 1485.51 1328.06 1484.77 L1328.06 1480.07 Q1330.15 1481.2 1332.37 1481.76 Q1334.59 1482.32 1337.07 1482.32 Q1341.07 1482.32 1343.41 1480.21 Q1345.75 1478.1 1345.75 1474.49 Q1345.75 1470.88 1343.41 1468.77 Q1341.07 1466.67 1337.07 1466.67 Q1335.19 1466.67 1333.32 1467.08 Q1331.47 1467.5 1329.52 1468.38 L1329.52 1451.02 Z" fill="#000000" fill-rule="nonzero" fill-opacity="1" /><path clip-path="url(#clip050)" d="M1510.77 1481.64 L1518.41 1481.64 L1518.41 1455.28 L1510.1 1456.95 L1510.1 1452.69 L1518.37 1451.02 L1523.04 1451.02 L1523.04 1481.64 L1530.68 1481.64 L1530.68 1485.58 L1510.77 1485.58 L1510.77 1481.64 Z" fill="#000000" fill-rule="nonzero" fill-opacity="1" /><path clip-path="url(#clip050)" d="M1540.13 1479.7 L1545.01 1479.7 L1545.01 1485.58 L1540.13 1485.58 L1540.13 1479.7 Z" fill="#000000" fill-rule="nonzero" fill-opacity="1" /><path clip-path="url(#clip050)" d="M1565.19 1454.1 Q1561.58 1454.1 1559.75 1457.66 Q1557.95 1461.2 1557.95 1468.33 Q1557.95 1475.44 1559.75 1479.01 Q1561.58 1482.55 1565.19 1482.55 Q1568.83 1482.55 1570.63 1479.01 Q1572.46 1475.44 1572.46 1468.33 Q1572.46 1461.2 1570.63 1457.66 Q1568.83 1454.1 1565.19 1454.1 M1565.19 1450.39 Q1571 1450.39 1574.06 1455 Q1577.14 1459.58 1577.14 1468.33 Q1577.14 1477.06 1574.06 1481.67 Q1571 1486.25 1565.19 1486.25 Q1559.38 1486.25 1556.31 1481.67 Q1553.25 1477.06 1553.25 1468.33 Q1553.25 1459.58 1556.31 1455 Q1559.38 1450.39 1565.19 1450.39 Z" fill="#000000" fill-rule="nonzero" fill-opacity="1" /><path clip-path="url(#clip050)" d="M1738.53 1481.64 L1746.17 1481.64 L1746.17 1455.28 L1737.86 1456.95 L1737.86 1452.69 L1746.12 1451.02 L1750.8 1451.02 L1750.8 1481.64 L1758.44 1481.64 L1758.44 1485.58 L1738.53 1485.58 L1738.53 1481.64 Z" fill="#000000" fill-rule="nonzero" fill-opacity="1" /><path clip-path="url(#clip050)" d="M1767.88 1479.7 L1772.77 1479.7 L1772.77 1485.58 L1767.88 1485.58 L1767.88 1479.7 Z" fill="#000000" fill-rule="nonzero" fill-opacity="1" /><path clip-path="url(#clip050)" d="M1783 1451.02 L1801.35 1451.02 L1801.35 1454.96 L1787.28 1454.96 L1787.28 1463.43 Q1788.3 1463.08 1789.32 1462.92 Q1790.34 1462.73 1791.35 1462.73 Q1797.14 1462.73 1800.52 1465.9 Q1803.9 1469.08 1803.9 1474.49 Q1803.9 1480.07 1800.43 1483.17 Q1796.96 1486.25 1790.64 1486.25 Q1788.46 1486.25 1786.19 1485.88 Q1783.95 1485.51 1781.54 1484.77 L1781.54 1480.07 Q1783.62 1481.2 1785.84 1481.76 Q1788.07 1482.32 1790.54 1482.32 Q1794.55 1482.32 1796.89 1480.21 Q1799.22 1478.1 1799.22 1474.49 Q1799.22 1470.88 1796.89 1468.77 Q1794.55 1466.67 1790.54 1466.67 Q1788.67 1466.67 1786.79 1467.08 Q1784.94 1467.5 1783 1468.38 L1783 1451.02 Z" fill="#000000" fill-rule="nonzero" fill-opacity="1" /><path clip-path="url(#clip050)" d="M1259.44 1550.25 Q1259.44 1543.79 1256.77 1540.13 Q1254.13 1536.44 1249.48 1536.44 Q1244.84 1536.44 1242.16 1540.13 Q1239.52 1543.79 1239.52 1550.25 Q1239.52 1556.71 1242.16 1560.4 Q1244.84 1564.07 1249.48 1564.07 Q1254.13 1564.07 1256.77 1560.4 Q1259.44 1556.71 1259.44 1550.25 M1239.52 1537.81 Q1241.37 1534.62 1244.17 1533.1 Q1247 1531.54 1250.91 1531.54 Q1257.41 1531.54 1261.45 1536.69 Q1265.52 1541.85 1265.52 1550.25 Q1265.52 1558.65 1261.45 1563.81 Q1257.41 1568.97 1250.91 1568.97 Q1247 1568.97 1244.17 1567.44 Q1241.37 1565.88 1239.52 1562.7 L1239.52 1568.04 L1233.63 1568.04 L1233.63 1518.52 L1239.52 1518.52 L1239.52 1537.81 Z" fill="#000000" fill-rule="nonzero" fill-opacity="1" /><path clip-path="url(#clip050)" d="M1275.23 1532.4 L1281.09 1532.4 L1281.09 1568.04 L1275.23 1568.04 L1275.23 1532.4 M1275.23 1518.52 L1281.09 1518.52 L1281.09 1525.93 L1275.23 1525.93 L1275.23 1518.52 Z" fill="#000000" fill-rule="nonzero" fill-opacity="1" /><path clip-path="url(#clip050)" d="M1314 1537.87 Q1313.01 1537.3 1311.83 1537.04 Q1310.69 1536.76 1309.29 1536.76 Q1304.32 1536.76 1301.65 1540 Q1299.01 1543.22 1299.01 1549.27 L1299.01 1568.04 L1293.12 1568.04 L1293.12 1532.4 L1299.01 1532.4 L1299.01 1537.93 Q1300.85 1534.69 1303.81 1533.13 Q1306.77 1531.54 1311.01 1531.54 Q1311.61 1531.54 1312.34 1531.63 Q1313.08 1531.7 1313.97 1531.85 L1314 1537.87 Z" fill="#000000" fill-rule="nonzero" fill-opacity="1" /><path clip-path="url(#clip050)" d="M1325.93 1522.27 L1325.93 1532.4 L1338 1532.4 L1338 1536.95 L1325.93 1536.95 L1325.93 1556.3 Q1325.93 1560.66 1327.11 1561.9 Q1328.32 1563.14 1331.98 1563.14 L1338 1563.14 L1338 1568.04 L1331.98 1568.04 Q1325.2 1568.04 1322.62 1565.53 Q1320.05 1562.98 1320.05 1556.3 L1320.05 1536.95 L1315.75 1536.95 L1315.75 1532.4 L1320.05 1532.4 L1320.05 1522.27 L1325.93 1522.27 Z" fill="#000000" fill-rule="nonzero" fill-opacity="1" /><path clip-path="url(#clip050)" d="M1375.33 1546.53 L1375.33 1568.04 L1369.48 1568.04 L1369.48 1546.72 Q1369.48 1541.66 1367.5 1539.14 Q1365.53 1536.63 1361.58 1536.63 Q1356.84 1536.63 1354.1 1539.65 Q1351.37 1542.68 1351.37 1547.9 L1351.37 1568.04 L1345.48 1568.04 L1345.48 1518.52 L1351.37 1518.52 L1351.37 1537.93 Q1353.47 1534.72 1356.3 1533.13 Q1359.16 1531.54 1362.89 1531.54 Q1369.03 1531.54 1372.18 1535.36 Q1375.33 1539.14 1375.33 1546.53 Z" fill="#000000" fill-rule="nonzero" fill-opacity="1" /><polyline clip-path="url(#clip050)" style="stroke:#000000; stroke-linecap:round; stroke-linejoin:round; stroke-width:4; stroke-opacity:1; fill:none" points="654.628,1423.18 654.628,123.472 "/>
<polyline clip-path="url(#clip050)" style="stroke:#000000; stroke-linecap:round; stroke-linejoin:round; stroke-width:4; stroke-opacity:1; fill:none" points="654.628,1215.96 666.344,1215.96 "/>
<polyline clip-path="url(#clip050)" style="stroke:#000000; stroke-linecap:round; stroke-linejoin:round; stroke-width:4; stroke-opacity:1; fill:none" points="654.628,988.705 666.344,988.705 "/>
<polyline clip-path="url(#clip050)" style="stroke:#000000; stroke-linecap:round; stroke-linejoin:round; stroke-width:4; stroke-opacity:1; fill:none" points="654.628,761.446 666.344,761.446 "/>
<polyline clip-path="url(#clip050)" style="stroke:#000000; stroke-linecap:round; stroke-linejoin:round; stroke-width:4; stroke-opacity:1; fill:none" points="654.628,534.188 666.344,534.188 "/>
<polyline clip-path="url(#clip050)" style="stroke:#000000; stroke-linecap:round; stroke-linejoin:round; stroke-width:4; stroke-opacity:1; fill:none" points="654.628,306.929 666.344,306.929 "/>
<path clip-path="url(#clip050)" d="M512.68 1216.41 L542.356 1216.41 L542.356 1220.35 L512.68 1220.35 L512.68 1216.41 Z" fill="#000000" fill-rule="nonzero" fill-opacity="1" /><path clip-path="url(#clip050)" d="M562.448 1201.76 Q558.837 1201.76 557.008 1205.33 Q555.203 1208.87 555.203 1216 Q555.203 1223.1 557.008 1226.67 Q558.837 1230.21 562.448 1230.21 Q566.082 1230.21 567.888 1226.67 Q569.717 1223.1 569.717 1216 Q569.717 1208.87 567.888 1205.33 Q566.082 1201.76 562.448 1201.76 M562.448 1198.06 Q568.258 1198.06 571.314 1202.66 Q574.393 1207.25 574.393 1216 Q574.393 1224.72 571.314 1229.33 Q568.258 1233.91 562.448 1233.91 Q556.638 1233.91 553.559 1229.33 Q550.504 1224.72 550.504 1216 Q550.504 1207.25 553.559 1202.66 Q556.638 1198.06 562.448 1198.06 Z" fill="#000000" fill-rule="nonzero" fill-opacity="1" /><path clip-path="url(#clip050)" d="M582.61 1227.36 L587.494 1227.36 L587.494 1233.24 L582.61 1233.24 L582.61 1227.36 Z" fill="#000000" fill-rule="nonzero" fill-opacity="1" /><path clip-path="url(#clip050)" d="M597.726 1198.68 L616.082 1198.68 L616.082 1202.62 L602.008 1202.62 L602.008 1211.09 Q603.027 1210.74 604.045 1210.58 Q605.064 1210.4 606.082 1210.4 Q611.869 1210.4 615.249 1213.57 Q618.628 1216.74 618.628 1222.16 Q618.628 1227.73 615.156 1230.84 Q611.684 1233.91 605.365 1233.91 Q603.189 1233.91 600.92 1233.54 Q598.675 1233.17 596.267 1232.43 L596.267 1227.73 Q598.351 1228.87 600.573 1229.42 Q602.795 1229.98 605.272 1229.98 Q609.277 1229.98 611.615 1227.87 Q613.953 1225.77 613.953 1222.16 Q613.953 1218.54 611.615 1216.44 Q609.277 1214.33 605.272 1214.33 Q603.397 1214.33 601.522 1214.75 Q599.67 1215.16 597.726 1216.04 L597.726 1198.68 Z" fill="#000000" fill-rule="nonzero" fill-opacity="1" /><path clip-path="url(#clip050)" d="M561.453 974.503 Q557.842 974.503 556.013 978.068 Q554.207 981.61 554.207 988.739 Q554.207 995.846 556.013 999.411 Q557.842 1002.95 561.453 1002.95 Q565.087 1002.95 566.893 999.411 Q568.721 995.846 568.721 988.739 Q568.721 981.61 566.893 978.068 Q565.087 974.503 561.453 974.503 M561.453 970.8 Q567.263 970.8 570.319 975.406 Q573.397 979.989 573.397 988.739 Q573.397 997.466 570.319 1002.07 Q567.263 1006.66 561.453 1006.66 Q555.643 1006.66 552.564 1002.07 Q549.508 997.466 549.508 988.739 Q549.508 979.989 552.564 975.406 Q555.643 970.8 561.453 970.8 Z" fill="#000000" fill-rule="nonzero" fill-opacity="1" /><path clip-path="url(#clip050)" d="M581.615 1000.11 L586.499 1000.11 L586.499 1005.98 L581.615 1005.98 L581.615 1000.11 Z" fill="#000000" fill-rule="nonzero" fill-opacity="1" /><path clip-path="url(#clip050)" d="M606.684 974.503 Q603.073 974.503 601.244 978.068 Q599.439 981.61 599.439 988.739 Q599.439 995.846 601.244 999.411 Q603.073 1002.95 606.684 1002.95 Q610.318 1002.95 612.124 999.411 Q613.953 995.846 613.953 988.739 Q613.953 981.61 612.124 978.068 Q610.318 974.503 606.684 974.503 M606.684 970.8 Q612.494 970.8 615.55 975.406 Q618.628 979.989 618.628 988.739 Q618.628 997.466 615.55 1002.07 Q612.494 1006.66 606.684 1006.66 Q600.874 1006.66 597.795 1002.07 Q594.74 997.466 594.74 988.739 Q594.74 979.989 597.795 975.406 Q600.874 970.8 606.684 970.8 Z" fill="#000000" fill-rule="nonzero" fill-opacity="1" /><path clip-path="url(#clip050)" d="M562.448 747.245 Q558.837 747.245 557.008 750.81 Q555.203 754.351 555.203 761.481 Q555.203 768.587 557.008 772.152 Q558.837 775.694 562.448 775.694 Q566.082 775.694 567.888 772.152 Q569.717 768.587 569.717 761.481 Q569.717 754.351 567.888 750.81 Q566.082 747.245 562.448 747.245 M562.448 743.541 Q568.258 743.541 571.314 748.148 Q574.393 752.731 574.393 761.481 Q574.393 770.208 571.314 774.814 Q568.258 779.397 562.448 779.397 Q556.638 779.397 553.559 774.814 Q550.504 770.208 550.504 761.481 Q550.504 752.731 553.559 748.148 Q556.638 743.541 562.448 743.541 Z" fill="#000000" fill-rule="nonzero" fill-opacity="1" /><path clip-path="url(#clip050)" d="M582.61 772.847 L587.494 772.847 L587.494 778.726 L582.61 778.726 L582.61 772.847 Z" fill="#000000" fill-rule="nonzero" fill-opacity="1" /><path clip-path="url(#clip050)" d="M597.726 744.166 L616.082 744.166 L616.082 748.101 L602.008 748.101 L602.008 756.573 Q603.027 756.226 604.045 756.064 Q605.064 755.879 606.082 755.879 Q611.869 755.879 615.249 759.05 Q618.628 762.222 618.628 767.638 Q618.628 773.217 615.156 776.319 Q611.684 779.397 605.365 779.397 Q603.189 779.397 600.92 779.027 Q598.675 778.657 596.267 777.916 L596.267 773.217 Q598.351 774.351 600.573 774.907 Q602.795 775.462 605.272 775.462 Q609.277 775.462 611.615 773.356 Q613.953 771.249 613.953 767.638 Q613.953 764.027 611.615 761.921 Q609.277 759.814 605.272 759.814 Q603.397 759.814 601.522 760.231 Q599.67 760.648 597.726 761.527 L597.726 744.166 Z" fill="#000000" fill-rule="nonzero" fill-opacity="1" /><path clip-path="url(#clip050)" d="M552.263 547.532 L559.902 547.532 L559.902 521.167 L551.592 522.833 L551.592 518.574 L559.856 516.908 L564.531 516.908 L564.531 547.532 L572.17 547.532 L572.17 551.468 L552.263 551.468 L552.263 547.532 Z" fill="#000000" fill-rule="nonzero" fill-opacity="1" /><path clip-path="url(#clip050)" d="M581.615 545.588 L586.499 545.588 L586.499 551.468 L581.615 551.468 L581.615 545.588 Z" fill="#000000" fill-rule="nonzero" fill-opacity="1" /><path clip-path="url(#clip050)" d="M606.684 519.986 Q603.073 519.986 601.244 523.551 Q599.439 527.093 599.439 534.222 Q599.439 541.329 601.244 544.894 Q603.073 548.435 606.684 548.435 Q610.318 548.435 612.124 544.894 Q613.953 541.329 613.953 534.222 Q613.953 527.093 612.124 523.551 Q610.318 519.986 606.684 519.986 M606.684 516.283 Q612.494 516.283 615.55 520.889 Q618.628 525.472 618.628 534.222 Q618.628 542.949 615.55 547.556 Q612.494 552.139 606.684 552.139 Q600.874 552.139 597.795 547.556 Q594.74 542.949 594.74 534.222 Q594.74 525.472 597.795 520.889 Q600.874 516.283 606.684 516.283 Z" fill="#000000" fill-rule="nonzero" fill-opacity="1" /><path clip-path="url(#clip050)" d="M553.258 320.274 L560.897 320.274 L560.897 293.908 L552.587 295.575 L552.587 291.316 L560.851 289.649 L565.527 289.649 L565.527 320.274 L573.166 320.274 L573.166 324.209 L553.258 324.209 L553.258 320.274 Z" fill="#000000" fill-rule="nonzero" fill-opacity="1" /><path clip-path="url(#clip050)" d="M582.61 318.329 L587.494 318.329 L587.494 324.209 L582.61 324.209 L582.61 318.329 Z" fill="#000000" fill-rule="nonzero" fill-opacity="1" /><path clip-path="url(#clip050)" d="M597.726 289.649 L616.082 289.649 L616.082 293.584 L602.008 293.584 L602.008 302.056 Q603.027 301.709 604.045 301.547 Q605.064 301.362 606.082 301.362 Q611.869 301.362 615.249 304.533 Q618.628 307.704 618.628 313.121 Q618.628 318.7 615.156 321.802 Q611.684 324.88 605.365 324.88 Q603.189 324.88 600.92 324.51 Q598.675 324.14 596.267 323.399 L596.267 318.7 Q598.351 319.834 600.573 320.39 Q602.795 320.945 605.272 320.945 Q609.277 320.945 611.615 318.839 Q613.953 316.732 613.953 313.121 Q613.953 309.51 611.615 307.404 Q609.277 305.297 605.272 305.297 Q603.397 305.297 601.522 305.714 Q599.67 306.13 597.726 307.01 L597.726 289.649 Z" fill="#000000" fill-rule="nonzero" fill-opacity="1" /><path clip-path="url(#clip050)" d="M457.077 951.359 L475.983 951.359 L475.983 957.247 L426.776 957.247 L426.776 951.359 L432.187 951.359 Q429.004 949.513 427.476 946.712 Q425.917 943.879 425.917 939.964 Q425.917 933.471 431.073 929.429 Q436.229 925.355 444.632 925.355 Q453.035 925.355 458.191 929.429 Q463.347 933.471 463.347 939.964 Q463.347 943.879 461.819 946.712 Q460.26 949.513 457.077 951.359 M444.632 931.434 Q438.171 931.434 434.51 934.108 Q430.818 936.75 430.818 941.397 Q430.818 946.044 434.51 948.717 Q438.171 951.359 444.632 951.359 Q451.093 951.359 454.785 948.717 Q458.445 946.044 458.445 941.397 Q458.445 936.75 454.785 934.108 Q451.093 931.434 444.632 931.434 Z" fill="#000000" fill-rule="nonzero" fill-opacity="1" /><path clip-path="url(#clip050)" d="M443.136 885.156 L446 885.156 L446 912.082 Q452.048 911.701 455.231 908.454 Q458.382 905.176 458.382 899.351 Q458.382 895.977 457.554 892.826 Q456.727 889.643 455.072 886.524 L460.61 886.524 Q461.946 889.675 462.647 892.985 Q463.347 896.296 463.347 899.701 Q463.347 908.231 458.382 913.228 Q453.416 918.194 444.95 918.194 Q436.197 918.194 431.073 913.483 Q425.917 908.74 425.917 900.72 Q425.917 893.526 430.564 889.357 Q435.179 885.156 443.136 885.156 M441.417 891.012 Q436.611 891.076 433.746 893.717 Q430.882 896.327 430.882 900.656 Q430.882 905.558 433.651 908.518 Q436.42 911.446 441.449 911.892 L441.417 891.012 Z" fill="#000000" fill-rule="nonzero" fill-opacity="1" /><path clip-path="url(#clip050)" d="M432.25 854.887 Q431.678 855.873 431.423 857.051 Q431.136 858.197 431.136 859.597 Q431.136 864.562 434.383 867.236 Q437.598 869.878 443.645 869.878 L462.424 869.878 L462.424 875.766 L426.776 875.766 L426.776 869.878 L432.314 869.878 Q429.068 868.032 427.508 865.072 Q425.917 862.112 425.917 857.878 Q425.917 857.274 426.012 856.542 Q426.076 855.81 426.235 854.918 L432.25 854.887 Z" fill="#000000" fill-rule="nonzero" fill-opacity="1" /><path clip-path="url(#clip050)" d="M427.826 826.018 L433.364 826.018 Q432.091 828.501 431.455 831.174 Q430.818 833.848 430.818 836.713 Q430.818 841.073 432.155 843.269 Q433.492 845.434 436.165 845.434 Q438.202 845.434 439.38 843.874 Q440.526 842.314 441.576 837.604 L442.022 835.599 Q443.359 829.36 445.809 826.75 Q448.228 824.108 452.589 824.108 Q457.554 824.108 460.451 828.055 Q463.347 831.97 463.347 838.845 Q463.347 841.71 462.774 844.829 Q462.233 847.916 461.119 851.354 L455.072 851.354 Q456.758 848.107 457.618 844.956 Q458.445 841.805 458.445 838.718 Q458.445 834.58 457.045 832.352 Q455.613 830.124 453.035 830.124 Q450.647 830.124 449.374 831.747 Q448.101 833.339 446.923 838.781 L446.446 840.818 Q445.3 846.261 442.945 848.68 Q440.558 851.099 436.42 851.099 Q431.391 851.099 428.654 847.534 Q425.917 843.969 425.917 837.413 Q425.917 834.166 426.394 831.302 Q426.871 828.437 427.826 826.018 Z" fill="#000000" fill-rule="nonzero" fill-opacity="1" /><path clip-path="url(#clip050)" d="M426.776 814.783 L426.776 808.926 L462.424 808.926 L462.424 814.783 L426.776 814.783 M412.899 814.783 L412.899 808.926 L420.315 808.926 L420.315 814.783 L412.899 814.783 Z" fill="#000000" fill-rule="nonzero" fill-opacity="1" /><path clip-path="url(#clip050)" d="M427.826 773.947 L433.364 773.947 Q432.091 776.429 431.455 779.103 Q430.818 781.776 430.818 784.641 Q430.818 789.002 432.155 791.198 Q433.492 793.362 436.165 793.362 Q438.202 793.362 439.38 791.802 Q440.526 790.243 441.576 785.532 L442.022 783.527 Q443.359 777.289 445.809 774.679 Q448.228 772.037 452.589 772.037 Q457.554 772.037 460.451 775.984 Q463.347 779.899 463.347 786.774 Q463.347 789.638 462.774 792.757 Q462.233 795.845 461.119 799.282 L455.072 799.282 Q456.758 796.036 457.618 792.885 Q458.445 789.734 458.445 786.646 Q458.445 782.509 457.045 780.281 Q455.613 778.053 453.035 778.053 Q450.647 778.053 449.374 779.676 Q448.101 781.267 446.923 786.71 L446.446 788.747 Q445.3 794.19 442.945 796.609 Q440.558 799.028 436.42 799.028 Q431.391 799.028 428.654 795.463 Q425.917 791.898 425.917 785.341 Q425.917 782.095 426.394 779.23 Q426.871 776.366 427.826 773.947 Z" fill="#000000" fill-rule="nonzero" fill-opacity="1" /><path clip-path="url(#clip050)" d="M416.654 756.918 L426.776 756.918 L426.776 744.855 L431.327 744.855 L431.327 756.918 L450.679 756.918 Q455.04 756.918 456.281 755.741 Q457.522 754.531 457.522 750.871 L457.522 744.855 L462.424 744.855 L462.424 750.871 Q462.424 757.65 459.909 760.229 Q457.363 762.807 450.679 762.807 L431.327 762.807 L431.327 767.104 L426.776 767.104 L426.776 762.807 L416.654 762.807 L416.654 756.918 Z" fill="#000000" fill-rule="nonzero" fill-opacity="1" /><path clip-path="url(#clip050)" d="M443.136 706.661 L446 706.661 L446 733.588 Q452.048 733.206 455.231 729.96 Q458.382 726.681 458.382 720.857 Q458.382 717.483 457.554 714.332 Q456.727 711.149 455.072 708.03 L460.61 708.03 Q461.946 711.181 462.647 714.491 Q463.347 717.801 463.347 721.207 Q463.347 729.737 458.382 734.734 Q453.416 739.699 444.95 739.699 Q436.197 739.699 431.073 734.989 Q425.917 730.246 425.917 722.225 Q425.917 715.032 430.564 710.862 Q435.179 706.661 443.136 706.661 M441.417 712.518 Q436.611 712.581 433.746 715.223 Q430.882 717.833 430.882 722.162 Q430.882 727.063 433.651 730.023 Q436.42 732.951 441.449 733.397 L441.417 712.518 Z" fill="#000000" fill-rule="nonzero" fill-opacity="1" /><path clip-path="url(#clip050)" d="M440.908 667.417 L462.424 667.417 L462.424 673.273 L441.099 673.273 Q436.038 673.273 433.524 675.246 Q431.009 677.22 431.009 681.166 Q431.009 685.909 434.033 688.646 Q437.057 691.383 442.276 691.383 L462.424 691.383 L462.424 697.272 L426.776 697.272 L426.776 691.383 L432.314 691.383 Q429.099 689.283 427.508 686.45 Q425.917 683.585 425.917 679.861 Q425.917 673.719 429.736 670.568 Q433.524 667.417 440.908 667.417 Z" fill="#000000" fill-rule="nonzero" fill-opacity="1" /><path clip-path="url(#clip050)" d="M428.145 630.082 L433.619 630.082 Q432.25 632.564 431.582 635.079 Q430.882 637.561 430.882 640.108 Q430.882 645.805 434.51 648.956 Q438.107 652.107 444.632 652.107 Q451.157 652.107 454.785 648.956 Q458.382 645.805 458.382 640.108 Q458.382 637.561 457.713 635.079 Q457.013 632.564 455.644 630.082 L461.055 630.082 Q462.201 632.532 462.774 635.174 Q463.347 637.784 463.347 640.744 Q463.347 648.797 458.286 653.539 Q453.225 658.282 444.632 658.282 Q435.911 658.282 430.914 653.507 Q425.917 648.701 425.917 640.362 Q425.917 637.657 426.49 635.079 Q427.031 632.501 428.145 630.082 Z" fill="#000000" fill-rule="nonzero" fill-opacity="1" /><path clip-path="url(#clip050)" d="M443.136 589.405 L446 589.405 L446 616.332 Q452.048 615.95 455.231 612.703 Q458.382 609.425 458.382 603.6 Q458.382 600.227 457.554 597.075 Q456.727 593.893 455.072 590.773 L460.61 590.773 Q461.946 593.924 462.647 597.235 Q463.347 600.545 463.347 603.95 Q463.347 612.48 458.382 617.478 Q453.416 622.443 444.95 622.443 Q436.197 622.443 431.073 617.732 Q425.917 612.99 425.917 604.969 Q425.917 597.776 430.564 593.606 Q435.179 589.405 443.136 589.405 M441.417 595.261 Q436.611 595.325 433.746 597.967 Q430.882 600.577 430.882 604.905 Q430.882 609.807 433.651 612.767 Q436.42 615.695 441.449 616.141 L441.417 595.261 Z" fill="#000000" fill-rule="nonzero" fill-opacity="1" /><path clip-path="url(#clip050)" d="M891.715 18.8205 L891.715 41.5461 L902.005 41.5461 Q907.716 41.5461 910.836 38.5889 Q913.955 35.6318 913.955 30.163 Q913.955 24.7348 910.836 21.7777 Q907.716 18.8205 902.005 18.8205 L891.715 18.8205 M883.533 12.096 L902.005 12.096 Q912.172 12.096 917.358 16.714 Q922.583 21.2916 922.583 30.163 Q922.583 39.1155 917.358 43.6931 Q912.172 48.2706 902.005 48.2706 L891.715 48.2706 L891.715 72.576 L883.533 72.576 L883.533 12.096 Z" fill="#000000" fill-rule="nonzero" fill-opacity="1" /><path clip-path="url(#clip050)" d="M969.088 48.0275 L969.088 51.6733 L934.817 51.6733 Q935.303 59.3701 939.435 63.421 Q943.607 67.4314 951.021 67.4314 Q955.315 67.4314 959.325 66.3781 Q963.376 65.3249 967.346 63.2184 L967.346 70.267 Q963.335 71.9684 959.122 72.8596 Q954.91 73.7508 950.575 73.7508 Q939.719 73.7508 933.359 67.4314 Q927.039 61.1119 927.039 50.3365 Q927.039 39.1965 933.035 32.6746 Q939.07 26.1121 949.279 26.1121 Q958.434 26.1121 963.74 32.0264 Q969.088 37.9003 969.088 48.0275 M961.634 45.84 Q961.553 39.7232 958.191 36.0774 Q954.869 32.4315 949.36 32.4315 Q943.121 32.4315 939.354 35.9558 Q935.627 39.4801 935.06 45.8805 L961.634 45.84 Z" fill="#000000" fill-rule="nonzero" fill-opacity="1" /><path clip-path="url(#clip050)" d="M1007.61 34.1734 Q1006.36 33.4443 1004.86 33.1202 Q1003.4 32.7556 1001.62 32.7556 Q995.297 32.7556 991.894 36.8875 Q988.532 40.9789 988.532 48.6757 L988.532 72.576 L981.038 72.576 L981.038 27.2059 L988.532 27.2059 L988.532 34.2544 Q990.882 30.1225 994.649 28.1376 Q998.416 26.1121 1003.8 26.1121 Q1004.57 26.1121 1005.51 26.2337 Q1006.44 26.3147 1007.57 26.5172 L1007.61 34.1734 Z" fill="#000000" fill-rule="nonzero" fill-opacity="1" /><path clip-path="url(#clip050)" d="M1044.35 28.5427 L1044.35 35.5912 Q1041.19 33.9709 1037.79 33.1607 Q1034.39 32.3505 1030.74 32.3505 Q1025.19 32.3505 1022.4 34.0519 Q1019.64 35.7533 1019.64 39.156 Q1019.64 41.7486 1021.63 43.2475 Q1023.61 44.7058 1029.61 46.0426 L1032.16 46.6097 Q1040.1 48.3111 1043.42 51.4303 Q1046.78 54.509 1046.78 60.0587 Q1046.78 66.3781 1041.76 70.0644 Q1036.78 73.7508 1028.03 73.7508 Q1024.38 73.7508 1020.41 73.0216 Q1016.48 72.3329 1012.11 70.9151 L1012.11 63.2184 Q1016.24 65.3654 1020.25 66.4591 Q1024.26 67.5124 1028.19 67.5124 Q1033.46 67.5124 1036.29 65.73 Q1039.13 63.9071 1039.13 60.6258 Q1039.13 57.5877 1037.06 55.9673 Q1035.04 54.3469 1028.11 52.8481 L1025.52 52.2405 Q1018.59 50.7821 1015.51 47.7845 Q1012.43 44.7463 1012.43 39.4801 Q1012.43 33.0797 1016.97 29.5959 Q1021.51 26.1121 1029.85 26.1121 Q1033.98 26.1121 1037.63 26.7198 Q1041.27 27.3274 1044.35 28.5427 Z" fill="#000000" fill-rule="nonzero" fill-opacity="1" /><path clip-path="url(#clip050)" d="M1058.65 27.2059 L1066.11 27.2059 L1066.11 72.576 L1058.65 72.576 L1058.65 27.2059 M1058.65 9.54393 L1066.11 9.54393 L1066.11 18.9825 L1058.65 18.9825 L1058.65 9.54393 Z" fill="#000000" fill-rule="nonzero" fill-opacity="1" /><path clip-path="url(#clip050)" d="M1110.63 28.5427 L1110.63 35.5912 Q1107.47 33.9709 1104.06 33.1607 Q1100.66 32.3505 1097.02 32.3505 Q1091.47 32.3505 1088.67 34.0519 Q1085.92 35.7533 1085.92 39.156 Q1085.92 41.7486 1087.9 43.2475 Q1089.89 44.7058 1095.88 46.0426 L1098.43 46.6097 Q1106.37 48.3111 1109.69 51.4303 Q1113.06 54.509 1113.06 60.0587 Q1113.06 66.3781 1108.03 70.0644 Q1103.05 73.7508 1094.3 73.7508 Q1090.66 73.7508 1086.69 73.0216 Q1082.76 72.3329 1078.38 70.9151 L1078.38 63.2184 Q1082.51 65.3654 1086.52 66.4591 Q1090.53 67.5124 1094.46 67.5124 Q1099.73 67.5124 1102.56 65.73 Q1105.4 63.9071 1105.4 60.6258 Q1105.4 57.5877 1103.33 55.9673 Q1101.31 54.3469 1094.38 52.8481 L1091.79 52.2405 Q1084.86 50.7821 1081.78 47.7845 Q1078.71 44.7463 1078.71 39.4801 Q1078.71 33.0797 1083.24 29.5959 Q1087.78 26.1121 1096.12 26.1121 Q1100.26 26.1121 1103.9 26.7198 Q1107.55 27.3274 1110.63 28.5427 Z" fill="#000000" fill-rule="nonzero" fill-opacity="1" /><path clip-path="url(#clip050)" d="M1132.3 14.324 L1132.3 27.2059 L1147.65 27.2059 L1147.65 32.9987 L1132.3 32.9987 L1132.3 57.6282 Q1132.3 63.1779 1133.8 64.7578 Q1135.34 66.3376 1140 66.3376 L1147.65 66.3376 L1147.65 72.576 L1140 72.576 Q1131.37 72.576 1128.09 69.3758 Q1124.8 66.1351 1124.8 57.6282 L1124.8 32.9987 L1119.34 32.9987 L1119.34 27.2059 L1124.8 27.2059 L1124.8 14.324 L1132.3 14.324 Z" fill="#000000" fill-rule="nonzero" fill-opacity="1" /><path clip-path="url(#clip050)" d="M1196.26 48.0275 L1196.26 51.6733 L1161.99 51.6733 Q1162.48 59.3701 1166.61 63.421 Q1170.78 67.4314 1178.2 67.4314 Q1182.49 67.4314 1186.5 66.3781 Q1190.55 65.3249 1194.52 63.2184 L1194.52 70.267 Q1190.51 71.9684 1186.3 72.8596 Q1182.08 73.7508 1177.75 73.7508 Q1166.89 73.7508 1160.53 67.4314 Q1154.21 61.1119 1154.21 50.3365 Q1154.21 39.1965 1160.21 32.6746 Q1166.25 26.1121 1176.45 26.1121 Q1185.61 26.1121 1190.92 32.0264 Q1196.26 37.9003 1196.26 48.0275 M1188.81 45.84 Q1188.73 39.7232 1185.37 36.0774 Q1182.04 32.4315 1176.53 32.4315 Q1170.3 32.4315 1166.53 35.9558 Q1162.8 39.4801 1162.23 45.8805 L1188.81 45.84 Z" fill="#000000" fill-rule="nonzero" fill-opacity="1" /><path clip-path="url(#clip050)" d="M1246.21 45.1919 L1246.21 72.576 L1238.76 72.576 L1238.76 45.4349 Q1238.76 38.994 1236.24 35.7938 Q1233.73 32.5936 1228.71 32.5936 Q1222.67 32.5936 1219.19 36.4419 Q1215.71 40.2903 1215.71 46.9338 L1215.71 72.576 L1208.21 72.576 L1208.21 27.2059 L1215.71 27.2059 L1215.71 34.2544 Q1218.38 30.163 1221.99 28.1376 Q1225.63 26.1121 1230.37 26.1121 Q1238.19 26.1121 1242.2 30.9732 Q1246.21 35.7938 1246.21 45.1919 Z" fill="#000000" fill-rule="nonzero" fill-opacity="1" /><path clip-path="url(#clip050)" d="M1293.73 28.9478 L1293.73 35.9153 Q1290.57 34.1734 1287.37 33.3227 Q1284.21 32.4315 1280.97 32.4315 Q1273.72 32.4315 1269.71 37.0496 Q1265.69 41.6271 1265.69 49.9314 Q1265.69 58.2358 1269.71 62.8538 Q1273.72 67.4314 1280.97 67.4314 Q1284.21 67.4314 1287.37 66.5807 Q1290.57 65.6895 1293.73 63.9476 L1293.73 70.8341 Q1290.61 72.2924 1287.25 73.0216 Q1283.92 73.7508 1280.16 73.7508 Q1269.91 73.7508 1263.87 67.3098 Q1257.84 60.8689 1257.84 49.9314 Q1257.84 38.832 1263.91 32.472 Q1270.03 26.1121 1280.64 26.1121 Q1284.09 26.1121 1287.37 26.8413 Q1290.65 27.5299 1293.73 28.9478 Z" fill="#000000" fill-rule="nonzero" fill-opacity="1" /><path clip-path="url(#clip050)" d="M1345.5 48.0275 L1345.5 51.6733 L1311.23 51.6733 Q1311.71 59.3701 1315.85 63.421 Q1320.02 67.4314 1327.43 67.4314 Q1331.72 67.4314 1335.74 66.3781 Q1339.79 65.3249 1343.76 63.2184 L1343.76 70.267 Q1339.75 71.9684 1335.53 72.8596 Q1331.32 73.7508 1326.99 73.7508 Q1316.13 73.7508 1309.77 67.4314 Q1303.45 61.1119 1303.45 50.3365 Q1303.45 39.1965 1309.44 32.6746 Q1315.48 26.1121 1325.69 26.1121 Q1334.84 26.1121 1340.15 32.0264 Q1345.5 37.9003 1345.5 48.0275 M1338.04 45.84 Q1337.96 39.7232 1334.6 36.0774 Q1331.28 32.4315 1325.77 32.4315 Q1319.53 32.4315 1315.76 35.9558 Q1312.04 39.4801 1311.47 45.8805 L1338.04 45.84 Z" fill="#000000" fill-rule="nonzero" fill-opacity="1" /><path clip-path="url(#clip050)" d="M1392.61 18.8205 L1392.61 65.8515 L1402.49 65.8515 Q1415.01 65.8515 1420.8 60.1802 Q1426.64 54.509 1426.64 42.2752 Q1426.64 30.1225 1420.8 24.4918 Q1415.01 18.8205 1402.49 18.8205 L1392.61 18.8205 M1384.43 12.096 L1401.24 12.096 Q1418.82 12.096 1427.04 19.4281 Q1435.27 26.7198 1435.27 42.2752 Q1435.27 57.9117 1427 65.2439 Q1418.74 72.576 1401.24 72.576 L1384.43 72.576 L1384.43 12.096 Z" fill="#000000" fill-rule="nonzero" fill-opacity="1" /><path clip-path="url(#clip050)" d="M1447.99 27.2059 L1455.44 27.2059 L1455.44 72.576 L1447.99 72.576 L1447.99 27.2059 M1447.99 9.54393 L1455.44 9.54393 L1455.44 18.9825 L1447.99 18.9825 L1447.99 9.54393 Z" fill="#000000" fill-rule="nonzero" fill-opacity="1" /><path clip-path="url(#clip050)" d="M1491.65 49.7694 Q1482.62 49.7694 1479.14 51.8354 Q1475.65 53.9013 1475.65 58.8839 Q1475.65 62.8538 1478.25 65.2034 Q1480.88 67.5124 1485.38 67.5124 Q1491.57 67.5124 1495.3 63.1374 Q1499.07 58.7219 1499.07 51.4303 L1499.07 49.7694 L1491.65 49.7694 M1506.52 46.6907 L1506.52 72.576 L1499.07 72.576 L1499.07 65.6895 Q1496.52 69.8214 1492.71 71.8063 Q1488.9 73.7508 1483.39 73.7508 Q1476.42 73.7508 1472.29 69.8619 Q1468.2 65.9325 1468.2 59.3701 Q1468.2 51.7138 1473.3 47.825 Q1478.45 43.9361 1488.62 43.9361 L1499.07 43.9361 L1499.07 43.2069 Q1499.07 38.0623 1495.66 35.2672 Q1492.3 32.4315 1486.19 32.4315 Q1482.3 32.4315 1478.61 33.3632 Q1474.92 34.295 1471.52 36.1584 L1471.52 29.2718 Q1475.61 27.692 1479.46 26.9223 Q1483.31 26.1121 1486.96 26.1121 Q1496.8 26.1121 1501.66 31.2163 Q1506.52 36.3204 1506.52 46.6907 Z" fill="#000000" fill-rule="nonzero" fill-opacity="1" /><path clip-path="url(#clip050)" d="M1551.73 49.3643 Q1551.73 41.2625 1548.37 36.8065 Q1545.05 32.3505 1539.01 32.3505 Q1533.01 32.3505 1529.65 36.8065 Q1526.33 41.2625 1526.33 49.3643 Q1526.33 57.4256 1529.65 61.8816 Q1533.01 66.3376 1539.01 66.3376 Q1545.05 66.3376 1548.37 61.8816 Q1551.73 57.4256 1551.73 49.3643 M1559.18 66.9452 Q1559.18 78.5308 1554.04 84.1616 Q1548.89 89.8329 1538.28 89.8329 Q1534.35 89.8329 1530.87 89.2252 Q1527.38 88.6581 1524.1 87.4428 L1524.1 80.1917 Q1527.38 81.9741 1530.58 82.8248 Q1533.78 83.6755 1537.11 83.6755 Q1544.44 83.6755 1548.08 79.8271 Q1551.73 76.0193 1551.73 68.282 L1551.73 64.5957 Q1549.42 68.6061 1545.81 70.5911 Q1542.21 72.576 1537.19 72.576 Q1528.84 72.576 1523.74 66.2161 Q1518.63 59.8562 1518.63 49.3643 Q1518.63 38.832 1523.74 32.472 Q1528.84 26.1121 1537.19 26.1121 Q1542.21 26.1121 1545.81 28.0971 Q1549.42 30.082 1551.73 34.0924 L1551.73 27.2059 L1559.18 27.2059 L1559.18 66.9452 Z" fill="#000000" fill-rule="nonzero" fill-opacity="1" /><path clip-path="url(#clip050)" d="M1600.83 34.1734 Q1599.57 33.4443 1598.07 33.1202 Q1596.61 32.7556 1594.83 32.7556 Q1588.51 32.7556 1585.11 36.8875 Q1581.75 40.9789 1581.75 48.6757 L1581.75 72.576 L1574.25 72.576 L1574.25 27.2059 L1581.75 27.2059 L1581.75 34.2544 Q1584.1 30.1225 1587.86 28.1376 Q1591.63 26.1121 1597.02 26.1121 Q1597.79 26.1121 1598.72 26.2337 Q1599.65 26.3147 1600.79 26.5172 L1600.83 34.1734 Z" fill="#000000" fill-rule="nonzero" fill-opacity="1" /><path clip-path="url(#clip050)" d="M1629.26 49.7694 Q1620.23 49.7694 1616.75 51.8354 Q1613.26 53.9013 1613.26 58.8839 Q1613.26 62.8538 1615.86 65.2034 Q1618.49 67.5124 1622.98 67.5124 Q1629.18 67.5124 1632.91 63.1374 Q1636.68 58.7219 1636.68 51.4303 L1636.68 49.7694 L1629.26 49.7694 M1644.13 46.6907 L1644.13 72.576 L1636.68 72.576 L1636.68 65.6895 Q1634.12 69.8214 1630.32 71.8063 Q1626.51 73.7508 1621 73.7508 Q1614.03 73.7508 1609.9 69.8619 Q1605.81 65.9325 1605.81 59.3701 Q1605.81 51.7138 1610.91 47.825 Q1616.06 43.9361 1626.23 43.9361 L1636.68 43.9361 L1636.68 43.2069 Q1636.68 38.0623 1633.27 35.2672 Q1629.91 32.4315 1623.79 32.4315 Q1619.91 32.4315 1616.22 33.3632 Q1612.53 34.295 1609.13 36.1584 L1609.13 29.2718 Q1613.22 27.692 1617.07 26.9223 Q1620.92 26.1121 1624.56 26.1121 Q1634.41 26.1121 1639.27 31.2163 Q1644.13 36.3204 1644.13 46.6907 Z" fill="#000000" fill-rule="nonzero" fill-opacity="1" /><path clip-path="url(#clip050)" d="M1694.81 35.9153 Q1697.6 30.8922 1701.49 28.5022 Q1705.38 26.1121 1710.65 26.1121 Q1717.74 26.1121 1721.58 31.0947 Q1725.43 36.0368 1725.43 45.1919 L1725.43 72.576 L1717.94 72.576 L1717.94 45.4349 Q1717.94 38.913 1715.63 35.7533 Q1713.32 32.5936 1708.58 32.5936 Q1702.79 32.5936 1699.43 36.4419 Q1696.06 40.2903 1696.06 46.9338 L1696.06 72.576 L1688.57 72.576 L1688.57 45.4349 Q1688.57 38.8725 1686.26 35.7533 Q1683.95 32.5936 1679.13 32.5936 Q1673.42 32.5936 1670.06 36.4824 Q1666.69 40.3308 1666.69 46.9338 L1666.69 72.576 L1659.2 72.576 L1659.2 27.2059 L1666.69 27.2059 L1666.69 34.2544 Q1669.25 30.082 1672.81 28.0971 Q1676.38 26.1121 1681.28 26.1121 Q1686.22 26.1121 1689.66 28.6237 Q1693.15 31.1352 1694.81 35.9153 Z" fill="#000000" fill-rule="nonzero" fill-opacity="1" /><polyline clip-path="url(#clip051)" style="stroke:#000000; stroke-linecap:round; stroke-linejoin:round; stroke-width:4; stroke-opacity:1; fill:none" points="-645.079,988.705 3254.04,988.705 "/>
<polyline clip-path="url(#clip051)" style="stroke:#808080; stroke-linecap:round; stroke-linejoin:round; stroke-width:4; stroke-opacity:1; fill:none" stroke-dasharray="2, 4" points="-645.079,182.55 3254.04,182.55 "/>
<circle clip-path="url(#clip051)" cx="1218.9" cy="988.552" r="14.4" fill="#009af9" fill-rule="evenodd" fill-opacity="0.5" stroke="none"/>
<circle clip-path="url(#clip051)" cx="1358.93" cy="988.043" r="14.4" fill="#009af9" fill-rule="evenodd" fill-opacity="0.5" stroke="none"/>
<circle clip-path="url(#clip051)" cx="939.454" cy="985.406" r="14.4" fill="#009af9" fill-rule="evenodd" fill-opacity="0.5" stroke="none"/>
<circle clip-path="url(#clip051)" cx="1280.82" cy="984.638" r="14.4" fill="#009af9" fill-rule="evenodd" fill-opacity="0.5" stroke="none"/>
<circle clip-path="url(#clip051)" cx="1087.57" cy="979.165" r="14.4" fill="#009af9" fill-rule="evenodd" fill-opacity="0.5" stroke="none"/>
<circle clip-path="url(#clip051)" cx="1160.62" cy="978.355" r="14.4" fill="#009af9" fill-rule="evenodd" fill-opacity="0.5" stroke="none"/>
<circle clip-path="url(#clip051)" cx="1782.59" cy="978.268" r="14.4" fill="#009af9" fill-rule="evenodd" fill-opacity="0.5" stroke="none"/>
<circle clip-path="url(#clip051)" cx="1580.99" cy="976.917" r="14.4" fill="#009af9" fill-rule="evenodd" fill-opacity="0.5" stroke="none"/>
<circle clip-path="url(#clip051)" cx="1355.93" cy="976.567" r="14.4" fill="#009af9" fill-rule="evenodd" fill-opacity="0.5" stroke="none"/>
<circle clip-path="url(#clip051)" cx="1404.24" cy="972.804" r="14.4" fill="#009af9" fill-rule="evenodd" fill-opacity="0.5" stroke="none"/>
<circle clip-path="url(#clip051)" cx="1235.8" cy="969.956" r="14.4" fill="#009af9" fill-rule="evenodd" fill-opacity="0.5" stroke="none"/>
<circle clip-path="url(#clip051)" cx="1190.93" cy="969.882" r="14.4" fill="#009af9" fill-rule="evenodd" fill-opacity="0.5" stroke="none"/>
<circle clip-path="url(#clip051)" cx="1075.5" cy="969.807" r="14.4" fill="#009af9" fill-rule="evenodd" fill-opacity="0.5" stroke="none"/>
<circle clip-path="url(#clip051)" cx="1425.73" cy="969.232" r="14.4" fill="#009af9" fill-rule="evenodd" fill-opacity="0.5" stroke="none"/>
<circle clip-path="url(#clip051)" cx="1324.05" cy="969.064" r="14.4" fill="#009af9" fill-rule="evenodd" fill-opacity="0.5" stroke="none"/>
<circle clip-path="url(#clip051)" cx="1347.38" cy="966.237" r="14.4" fill="#009af9" fill-rule="evenodd" fill-opacity="0.5" stroke="none"/>
<circle clip-path="url(#clip051)" cx="1281.35" cy="965.494" r="14.4" fill="#009af9" fill-rule="evenodd" fill-opacity="0.5" stroke="none"/>
<circle clip-path="url(#clip051)" cx="1221.08" cy="965.227" r="14.4" fill="#009af9" fill-rule="evenodd" fill-opacity="0.5" stroke="none"/>
<circle clip-path="url(#clip051)" cx="790.888" cy="962.948" r="14.4" fill="#009af9" fill-rule="evenodd" fill-opacity="0.5" stroke="none"/>
<circle clip-path="url(#clip051)" cx="1743.16" cy="961.74" r="14.4" fill="#009af9" fill-rule="evenodd" fill-opacity="0.5" stroke="none"/>
<circle clip-path="url(#clip051)" cx="1420.36" cy="960.561" r="14.4" fill="#009af9" fill-rule="evenodd" fill-opacity="0.5" stroke="none"/>
<circle clip-path="url(#clip051)" cx="1240.38" cy="959.058" r="14.4" fill="#009af9" fill-rule="evenodd" fill-opacity="0.5" stroke="none"/>
<circle clip-path="url(#clip051)" cx="1055.97" cy="958.805" r="14.4" fill="#009af9" fill-rule="evenodd" fill-opacity="0.5" stroke="none"/>
<circle clip-path="url(#clip051)" cx="1574.96" cy="958.294" r="14.4" fill="#009af9" fill-rule="evenodd" fill-opacity="0.5" stroke="none"/>
<circle clip-path="url(#clip051)" cx="1387.12" cy="958" r="14.4" fill="#009af9" fill-rule="evenodd" fill-opacity="0.5" stroke="none"/>
<circle clip-path="url(#clip051)" cx="1080.77" cy="957.187" r="14.4" fill="#009af9" fill-rule="evenodd" fill-opacity="0.5" stroke="none"/>
<circle clip-path="url(#clip051)" cx="1238.05" cy="956.404" r="14.4" fill="#009af9" fill-rule="evenodd" fill-opacity="0.5" stroke="none"/>
<circle clip-path="url(#clip051)" cx="1253.08" cy="956.274" r="14.4" fill="#009af9" fill-rule="evenodd" fill-opacity="0.5" stroke="none"/>
<circle clip-path="url(#clip051)" cx="1029.11" cy="956.159" r="14.4" fill="#009af9" fill-rule="evenodd" fill-opacity="0.5" stroke="none"/>
<circle clip-path="url(#clip051)" cx="1555.98" cy="955.191" r="14.4" fill="#009af9" fill-rule="evenodd" fill-opacity="0.5" stroke="none"/>
<circle clip-path="url(#clip051)" cx="1160.38" cy="955.053" r="14.4" fill="#009af9" fill-rule="evenodd" fill-opacity="0.5" stroke="none"/>
<circle clip-path="url(#clip051)" cx="1662.51" cy="953.359" r="14.4" fill="#009af9" fill-rule="evenodd" fill-opacity="0.5" stroke="none"/>
<circle clip-path="url(#clip051)" cx="1559.88" cy="952.382" r="14.4" fill="#009af9" fill-rule="evenodd" fill-opacity="0.5" stroke="none"/>
<circle clip-path="url(#clip051)" cx="1137.45" cy="951.193" r="14.4" fill="#009af9" fill-rule="evenodd" fill-opacity="0.5" stroke="none"/>
<circle clip-path="url(#clip051)" cx="1201.96" cy="949.692" r="14.4" fill="#009af9" fill-rule="evenodd" fill-opacity="0.5" stroke="none"/>
<circle clip-path="url(#clip051)" cx="1030.04" cy="949.146" r="14.4" fill="#009af9" fill-rule="evenodd" fill-opacity="0.5" stroke="none"/>
<circle clip-path="url(#clip051)" cx="1202.41" cy="948.132" r="14.4" fill="#009af9" fill-rule="evenodd" fill-opacity="0.5" stroke="none"/>
<circle clip-path="url(#clip051)" cx="1329.81" cy="947.572" r="14.4" fill="#009af9" fill-rule="evenodd" fill-opacity="0.5" stroke="none"/>
<circle clip-path="url(#clip051)" cx="1311.2" cy="946.378" r="14.4" fill="#009af9" fill-rule="evenodd" fill-opacity="0.5" stroke="none"/>
<circle clip-path="url(#clip051)" cx="1468.28" cy="946.064" r="14.4" fill="#009af9" fill-rule="evenodd" fill-opacity="0.5" stroke="none"/>
<circle clip-path="url(#clip051)" cx="1027.55" cy="945.572" r="14.4" fill="#009af9" fill-rule="evenodd" fill-opacity="0.5" stroke="none"/>
<circle clip-path="url(#clip051)" cx="1156.55" cy="945.329" r="14.4" fill="#009af9" fill-rule="evenodd" fill-opacity="0.5" stroke="none"/>
<circle clip-path="url(#clip051)" cx="1241.7" cy="943.296" r="14.4" fill="#009af9" fill-rule="evenodd" fill-opacity="0.5" stroke="none"/>
<circle clip-path="url(#clip051)" cx="1178.75" cy="942.042" r="14.4" fill="#009af9" fill-rule="evenodd" fill-opacity="0.5" stroke="none"/>
<circle clip-path="url(#clip051)" cx="1131.18" cy="941.742" r="14.4" fill="#009af9" fill-rule="evenodd" fill-opacity="0.5" stroke="none"/>
<circle clip-path="url(#clip051)" cx="1684.06" cy="940.008" r="14.4" fill="#009af9" fill-rule="evenodd" fill-opacity="0.5" stroke="none"/>
<circle clip-path="url(#clip051)" cx="1119.78" cy="938.914" r="14.4" fill="#009af9" fill-rule="evenodd" fill-opacity="0.5" stroke="none"/>
<circle clip-path="url(#clip051)" cx="1338.44" cy="938.564" r="14.4" fill="#009af9" fill-rule="evenodd" fill-opacity="0.5" stroke="none"/>
<circle clip-path="url(#clip051)" cx="981.218" cy="937.776" r="14.4" fill="#009af9" fill-rule="evenodd" fill-opacity="0.5" stroke="none"/>
<circle clip-path="url(#clip051)" cx="1366.73" cy="936.407" r="14.4" fill="#009af9" fill-rule="evenodd" fill-opacity="0.5" stroke="none"/>
<circle clip-path="url(#clip051)" cx="1766.26" cy="935.12" r="14.4" fill="#009af9" fill-rule="evenodd" fill-opacity="0.5" stroke="none"/>
<circle clip-path="url(#clip051)" cx="1319.01" cy="933.12" r="14.4" fill="#009af9" fill-rule="evenodd" fill-opacity="0.5" stroke="none"/>
<circle clip-path="url(#clip051)" cx="1348" cy="932.956" r="14.4" fill="#009af9" fill-rule="evenodd" fill-opacity="0.5" stroke="none"/>
<circle clip-path="url(#clip051)" cx="1660.52" cy="931.441" r="14.4" fill="#009af9" fill-rule="evenodd" fill-opacity="0.5" stroke="none"/>
<circle clip-path="url(#clip051)" cx="1295.14" cy="931.285" r="14.4" fill="#009af9" fill-rule="evenodd" fill-opacity="0.5" stroke="none"/>
<circle clip-path="url(#clip051)" cx="1201.98" cy="931.028" r="14.4" fill="#009af9" fill-rule="evenodd" fill-opacity="0.5" stroke="none"/>
<circle clip-path="url(#clip051)" cx="1446.09" cy="929.762" r="14.4" fill="#009af9" fill-rule="evenodd" fill-opacity="0.5" stroke="none"/>
<circle clip-path="url(#clip051)" cx="1335.94" cy="926.817" r="14.4" fill="#009af9" fill-rule="evenodd" fill-opacity="0.5" stroke="none"/>
<circle clip-path="url(#clip051)" cx="1097.4" cy="926.534" r="14.4" fill="#009af9" fill-rule="evenodd" fill-opacity="0.5" stroke="none"/>
<circle clip-path="url(#clip051)" cx="1457.18" cy="924.341" r="14.4" fill="#009af9" fill-rule="evenodd" fill-opacity="0.5" stroke="none"/>
<circle clip-path="url(#clip051)" cx="1265.46" cy="922.472" r="14.4" fill="#009af9" fill-rule="evenodd" fill-opacity="0.5" stroke="none"/>
<circle clip-path="url(#clip051)" cx="1193.78" cy="922.349" r="14.4" fill="#009af9" fill-rule="evenodd" fill-opacity="0.5" stroke="none"/>
<circle clip-path="url(#clip051)" cx="1345.03" cy="916.688" r="14.4" fill="#009af9" fill-rule="evenodd" fill-opacity="0.5" stroke="none"/>
<circle clip-path="url(#clip051)" cx="1142.57" cy="915.865" r="14.4" fill="#009af9" fill-rule="evenodd" fill-opacity="0.5" stroke="none"/>
<circle clip-path="url(#clip051)" cx="1359.71" cy="914.433" r="14.4" fill="#009af9" fill-rule="evenodd" fill-opacity="0.5" stroke="none"/>
<circle clip-path="url(#clip051)" cx="1191.18" cy="914.228" r="14.4" fill="#009af9" fill-rule="evenodd" fill-opacity="0.5" stroke="none"/>
<circle clip-path="url(#clip051)" cx="1023.63" cy="912.896" r="14.4" fill="#009af9" fill-rule="evenodd" fill-opacity="0.5" stroke="none"/>
<circle clip-path="url(#clip051)" cx="1234.1" cy="910.714" r="14.4" fill="#009af9" fill-rule="evenodd" fill-opacity="0.5" stroke="none"/>
<circle clip-path="url(#clip051)" cx="1336.35" cy="910.149" r="14.4" fill="#009af9" fill-rule="evenodd" fill-opacity="0.5" stroke="none"/>
<circle clip-path="url(#clip051)" cx="1425.29" cy="905.269" r="14.4" fill="#009af9" fill-rule="evenodd" fill-opacity="0.5" stroke="none"/>
<circle clip-path="url(#clip051)" cx="1201.18" cy="904.756" r="14.4" fill="#009af9" fill-rule="evenodd" fill-opacity="0.5" stroke="none"/>
<circle clip-path="url(#clip051)" cx="995.477" cy="904.205" r="14.4" fill="#009af9" fill-rule="evenodd" fill-opacity="0.5" stroke="none"/>
<circle clip-path="url(#clip051)" cx="754.085" cy="903.609" r="14.4" fill="#009af9" fill-rule="evenodd" fill-opacity="0.5" stroke="none"/>
<circle clip-path="url(#clip051)" cx="1075.39" cy="903.576" r="14.4" fill="#009af9" fill-rule="evenodd" fill-opacity="0.5" stroke="none"/>
<circle clip-path="url(#clip051)" cx="1301.36" cy="896.549" r="14.4" fill="#009af9" fill-rule="evenodd" fill-opacity="0.5" stroke="none"/>
<circle clip-path="url(#clip051)" cx="1339.23" cy="896.026" r="14.4" fill="#009af9" fill-rule="evenodd" fill-opacity="0.5" stroke="none"/>
<circle clip-path="url(#clip051)" cx="1203.27" cy="894.314" r="14.4" fill="#009af9" fill-rule="evenodd" fill-opacity="0.5" stroke="none"/>
<circle clip-path="url(#clip051)" cx="1353.37" cy="893.898" r="14.4" fill="#009af9" fill-rule="evenodd" fill-opacity="0.5" stroke="none"/>
<circle clip-path="url(#clip051)" cx="1061.48" cy="893.276" r="14.4" fill="#009af9" fill-rule="evenodd" fill-opacity="0.5" stroke="none"/>
<circle clip-path="url(#clip051)" cx="1061.85" cy="892.652" r="14.4" fill="#009af9" fill-rule="evenodd" fill-opacity="0.5" stroke="none"/>
<circle clip-path="url(#clip051)" cx="1225.2" cy="891.007" r="14.4" fill="#009af9" fill-rule="evenodd" fill-opacity="0.5" stroke="none"/>
<circle clip-path="url(#clip051)" cx="1314.94" cy="890.467" r="14.4" fill="#009af9" fill-rule="evenodd" fill-opacity="0.5" stroke="none"/>
<circle clip-path="url(#clip051)" cx="947.166" cy="890.326" r="14.4" fill="#009af9" fill-rule="evenodd" fill-opacity="0.5" stroke="none"/>
<circle clip-path="url(#clip051)" cx="1483.89" cy="889.954" r="14.4" fill="#009af9" fill-rule="evenodd" fill-opacity="0.5" stroke="none"/>
<circle clip-path="url(#clip051)" cx="1341.88" cy="888.215" r="14.4" fill="#009af9" fill-rule="evenodd" fill-opacity="0.5" stroke="none"/>
<circle clip-path="url(#clip051)" cx="1290.03" cy="887.925" r="14.4" fill="#009af9" fill-rule="evenodd" fill-opacity="0.5" stroke="none"/>
<circle clip-path="url(#clip051)" cx="1016.64" cy="887.801" r="14.4" fill="#009af9" fill-rule="evenodd" fill-opacity="0.5" stroke="none"/>
<circle clip-path="url(#clip051)" cx="1519.48" cy="885.957" r="14.4" fill="#009af9" fill-rule="evenodd" fill-opacity="0.5" stroke="none"/>
<circle clip-path="url(#clip051)" cx="871.244" cy="881.8" r="14.4" fill="#009af9" fill-rule="evenodd" fill-opacity="0.5" stroke="none"/>
<circle clip-path="url(#clip051)" cx="1427.85" cy="878.217" r="14.4" fill="#009af9" fill-rule="evenodd" fill-opacity="0.5" stroke="none"/>
<circle clip-path="url(#clip051)" cx="1388.28" cy="876.689" r="14.4" fill="#009af9" fill-rule="evenodd" fill-opacity="0.5" stroke="none"/>
<circle clip-path="url(#clip051)" cx="1554.11" cy="874.522" r="14.4" fill="#009af9" fill-rule="evenodd" fill-opacity="0.5" stroke="none"/>
<circle clip-path="url(#clip051)" cx="1308.84" cy="873.194" r="14.4" fill="#009af9" fill-rule="evenodd" fill-opacity="0.5" stroke="none"/>
<circle clip-path="url(#clip051)" cx="1349.34" cy="871.997" r="14.4" fill="#009af9" fill-rule="evenodd" fill-opacity="0.5" stroke="none"/>
<circle clip-path="url(#clip051)" cx="1043.8" cy="870.851" r="14.4" fill="#009af9" fill-rule="evenodd" fill-opacity="0.5" stroke="none"/>
<circle clip-path="url(#clip051)" cx="1082.51" cy="870.367" r="14.4" fill="#009af9" fill-rule="evenodd" fill-opacity="0.5" stroke="none"/>
<circle clip-path="url(#clip051)" cx="1021.31" cy="869.505" r="14.4" fill="#009af9" fill-rule="evenodd" fill-opacity="0.5" stroke="none"/>
<circle clip-path="url(#clip051)" cx="1375.22" cy="868.432" r="14.4" fill="#009af9" fill-rule="evenodd" fill-opacity="0.5" stroke="none"/>
<circle clip-path="url(#clip051)" cx="1745.02" cy="868.258" r="14.4" fill="#009af9" fill-rule="evenodd" fill-opacity="0.5" stroke="none"/>
<circle clip-path="url(#clip051)" cx="971.754" cy="868.01" r="14.4" fill="#009af9" fill-rule="evenodd" fill-opacity="0.5" stroke="none"/>
<circle clip-path="url(#clip051)" cx="1527.27" cy="867.61" r="14.4" fill="#009af9" fill-rule="evenodd" fill-opacity="0.5" stroke="none"/>
<circle clip-path="url(#clip051)" cx="1299.49" cy="864.349" r="14.4" fill="#009af9" fill-rule="evenodd" fill-opacity="0.5" stroke="none"/>
<circle clip-path="url(#clip051)" cx="786.39" cy="862.388" r="14.4" fill="#009af9" fill-rule="evenodd" fill-opacity="0.5" stroke="none"/>
<circle clip-path="url(#clip051)" cx="1134.09" cy="862.083" r="14.4" fill="#009af9" fill-rule="evenodd" fill-opacity="0.5" stroke="none"/>
<circle clip-path="url(#clip051)" cx="1160.04" cy="861.734" r="14.4" fill="#009af9" fill-rule="evenodd" fill-opacity="0.5" stroke="none"/>
<circle clip-path="url(#clip051)" cx="1205.15" cy="860.229" r="14.4" fill="#009af9" fill-rule="evenodd" fill-opacity="0.5" stroke="none"/>
<circle clip-path="url(#clip051)" cx="1287.65" cy="855.979" r="14.4" fill="#009af9" fill-rule="evenodd" fill-opacity="0.5" stroke="none"/>
<circle clip-path="url(#clip051)" cx="1329.23" cy="853.152" r="14.4" fill="#009af9" fill-rule="evenodd" fill-opacity="0.5" stroke="none"/>
<circle clip-path="url(#clip051)" cx="1078.02" cy="851.703" r="14.4" fill="#009af9" fill-rule="evenodd" fill-opacity="0.5" stroke="none"/>
<circle clip-path="url(#clip051)" cx="1106.71" cy="848.605" r="14.4" fill="#009af9" fill-rule="evenodd" fill-opacity="0.5" stroke="none"/>
<circle clip-path="url(#clip051)" cx="1037.01" cy="848.178" r="14.4" fill="#009af9" fill-rule="evenodd" fill-opacity="0.5" stroke="none"/>
<circle clip-path="url(#clip051)" cx="1237.76" cy="847.621" r="14.4" fill="#009af9" fill-rule="evenodd" fill-opacity="0.5" stroke="none"/>
<circle clip-path="url(#clip051)" cx="1169.67" cy="846.635" r="14.4" fill="#009af9" fill-rule="evenodd" fill-opacity="0.5" stroke="none"/>
<circle clip-path="url(#clip051)" cx="1070.97" cy="841.495" r="14.4" fill="#009af9" fill-rule="evenodd" fill-opacity="0.5" stroke="none"/>
<circle clip-path="url(#clip051)" cx="1076.24" cy="839.977" r="14.4" fill="#009af9" fill-rule="evenodd" fill-opacity="0.5" stroke="none"/>
<circle clip-path="url(#clip051)" cx="1488.17" cy="839.972" r="14.4" fill="#009af9" fill-rule="evenodd" fill-opacity="0.5" stroke="none"/>
<circle clip-path="url(#clip051)" cx="1154.77" cy="838.705" r="14.4" fill="#009af9" fill-rule="evenodd" fill-opacity="0.5" stroke="none"/>
<circle clip-path="url(#clip051)" cx="1231.6" cy="837.982" r="14.4" fill="#009af9" fill-rule="evenodd" fill-opacity="0.5" stroke="none"/>
<circle clip-path="url(#clip051)" cx="1202.54" cy="837.382" r="14.4" fill="#009af9" fill-rule="evenodd" fill-opacity="0.5" stroke="none"/>
<circle clip-path="url(#clip051)" cx="1430.54" cy="834.392" r="14.4" fill="#009af9" fill-rule="evenodd" fill-opacity="0.5" stroke="none"/>
<circle clip-path="url(#clip051)" cx="930.286" cy="834.14" r="14.4" fill="#009af9" fill-rule="evenodd" fill-opacity="0.5" stroke="none"/>
<circle clip-path="url(#clip051)" cx="1138.86" cy="829.822" r="14.4" fill="#009af9" fill-rule="evenodd" fill-opacity="0.5" stroke="none"/>
<circle clip-path="url(#clip051)" cx="1244.52" cy="828.933" r="14.4" fill="#009af9" fill-rule="evenodd" fill-opacity="0.5" stroke="none"/>
<circle clip-path="url(#clip051)" cx="1159.24" cy="828.62" r="14.4" fill="#009af9" fill-rule="evenodd" fill-opacity="0.5" stroke="none"/>
<circle clip-path="url(#clip051)" cx="1150.19" cy="827.321" r="14.4" fill="#009af9" fill-rule="evenodd" fill-opacity="0.5" stroke="none"/>
<circle clip-path="url(#clip051)" cx="1175.83" cy="826.749" r="14.4" fill="#009af9" fill-rule="evenodd" fill-opacity="0.5" stroke="none"/>
<circle clip-path="url(#clip051)" cx="1603.14" cy="825.75" r="14.4" fill="#009af9" fill-rule="evenodd" fill-opacity="0.5" stroke="none"/>
<circle clip-path="url(#clip051)" cx="853.735" cy="824.84" r="14.4" fill="#009af9" fill-rule="evenodd" fill-opacity="0.5" stroke="none"/>
<circle clip-path="url(#clip051)" cx="1026.64" cy="824.479" r="14.4" fill="#009af9" fill-rule="evenodd" fill-opacity="0.5" stroke="none"/>
<circle clip-path="url(#clip051)" cx="1621.18" cy="823.457" r="14.4" fill="#009af9" fill-rule="evenodd" fill-opacity="0.5" stroke="none"/>
<circle clip-path="url(#clip051)" cx="1325.21" cy="819.444" r="14.4" fill="#009af9" fill-rule="evenodd" fill-opacity="0.5" stroke="none"/>
<circle clip-path="url(#clip051)" cx="1006.85" cy="817.952" r="14.4" fill="#009af9" fill-rule="evenodd" fill-opacity="0.5" stroke="none"/>
<circle clip-path="url(#clip051)" cx="1653.9" cy="816.356" r="14.4" fill="#009af9" fill-rule="evenodd" fill-opacity="0.5" stroke="none"/>
<circle clip-path="url(#clip051)" cx="893.529" cy="814.632" r="14.4" fill="#009af9" fill-rule="evenodd" fill-opacity="0.5" stroke="none"/>
<circle clip-path="url(#clip051)" cx="1482.57" cy="814.498" r="14.4" fill="#009af9" fill-rule="evenodd" fill-opacity="0.5" stroke="none"/>
<circle clip-path="url(#clip051)" cx="1383" cy="814.463" r="14.4" fill="#009af9" fill-rule="evenodd" fill-opacity="0.5" stroke="none"/>
<circle clip-path="url(#clip051)" cx="1223.65" cy="812.953" r="14.4" fill="#009af9" fill-rule="evenodd" fill-opacity="0.5" stroke="none"/>
<circle clip-path="url(#clip051)" cx="1279.29" cy="812.832" r="14.4" fill="#009af9" fill-rule="evenodd" fill-opacity="0.5" stroke="none"/>
<circle clip-path="url(#clip051)" cx="1139.97" cy="811.241" r="14.4" fill="#009af9" fill-rule="evenodd" fill-opacity="0.5" stroke="none"/>
<circle clip-path="url(#clip051)" cx="1133.61" cy="809.848" r="14.4" fill="#009af9" fill-rule="evenodd" fill-opacity="0.5" stroke="none"/>
<circle clip-path="url(#clip051)" cx="1350.53" cy="809.781" r="14.4" fill="#009af9" fill-rule="evenodd" fill-opacity="0.5" stroke="none"/>
<circle clip-path="url(#clip051)" cx="896.184" cy="809.672" r="14.4" fill="#009af9" fill-rule="evenodd" fill-opacity="0.5" stroke="none"/>
<circle clip-path="url(#clip051)" cx="1361.32" cy="809.298" r="14.4" fill="#009af9" fill-rule="evenodd" fill-opacity="0.5" stroke="none"/>
<circle clip-path="url(#clip051)" cx="1531.06" cy="808.207" r="14.4" fill="#009af9" fill-rule="evenodd" fill-opacity="0.5" stroke="none"/>
<circle clip-path="url(#clip051)" cx="1169.79" cy="808.057" r="14.4" fill="#009af9" fill-rule="evenodd" fill-opacity="0.5" stroke="none"/>
<circle clip-path="url(#clip051)" cx="1006.75" cy="806.578" r="14.4" fill="#009af9" fill-rule="evenodd" fill-opacity="0.5" stroke="none"/>
<circle clip-path="url(#clip051)" cx="1047.22" cy="806.024" r="14.4" fill="#009af9" fill-rule="evenodd" fill-opacity="0.5" stroke="none"/>
<circle clip-path="url(#clip051)" cx="1112.79" cy="804.287" r="14.4" fill="#009af9" fill-rule="evenodd" fill-opacity="0.5" stroke="none"/>
<circle clip-path="url(#clip051)" cx="1423.57" cy="804.019" r="14.4" fill="#009af9" fill-rule="evenodd" fill-opacity="0.5" stroke="none"/>
<circle clip-path="url(#clip051)" cx="785.681" cy="803.286" r="14.4" fill="#009af9" fill-rule="evenodd" fill-opacity="0.5" stroke="none"/>
<circle clip-path="url(#clip051)" cx="1170.91" cy="801.361" r="14.4" fill="#009af9" fill-rule="evenodd" fill-opacity="0.5" stroke="none"/>
<circle clip-path="url(#clip051)" cx="1349.12" cy="801.111" r="14.4" fill="#009af9" fill-rule="evenodd" fill-opacity="0.5" stroke="none"/>
<circle clip-path="url(#clip051)" cx="1192.04" cy="799.221" r="14.4" fill="#009af9" fill-rule="evenodd" fill-opacity="0.5" stroke="none"/>
<circle clip-path="url(#clip051)" cx="1142.74" cy="798.744" r="14.4" fill="#009af9" fill-rule="evenodd" fill-opacity="0.5" stroke="none"/>
<circle clip-path="url(#clip051)" cx="1169.43" cy="797.874" r="14.4" fill="#009af9" fill-rule="evenodd" fill-opacity="0.5" stroke="none"/>
<circle clip-path="url(#clip051)" cx="951.623" cy="794.976" r="14.4" fill="#009af9" fill-rule="evenodd" fill-opacity="0.5" stroke="none"/>
<circle clip-path="url(#clip051)" cx="1120.82" cy="794.396" r="14.4" fill="#009af9" fill-rule="evenodd" fill-opacity="0.5" stroke="none"/>
<circle clip-path="url(#clip051)" cx="866.639" cy="792.631" r="14.4" fill="#009af9" fill-rule="evenodd" fill-opacity="0.5" stroke="none"/>
<circle clip-path="url(#clip051)" cx="1123.13" cy="792.212" r="14.4" fill="#009af9" fill-rule="evenodd" fill-opacity="0.5" stroke="none"/>
<circle clip-path="url(#clip051)" cx="1006.15" cy="789.67" r="14.4" fill="#009af9" fill-rule="evenodd" fill-opacity="0.5" stroke="none"/>
<circle clip-path="url(#clip051)" cx="992.784" cy="788.219" r="14.4" fill="#009af9" fill-rule="evenodd" fill-opacity="0.5" stroke="none"/>
<circle clip-path="url(#clip051)" cx="1311.55" cy="786.9" r="14.4" fill="#009af9" fill-rule="evenodd" fill-opacity="0.5" stroke="none"/>
<circle clip-path="url(#clip051)" cx="1110.35" cy="786.847" r="14.4" fill="#009af9" fill-rule="evenodd" fill-opacity="0.5" stroke="none"/>
<circle clip-path="url(#clip051)" cx="1167.07" cy="784.852" r="14.4" fill="#009af9" fill-rule="evenodd" fill-opacity="0.5" stroke="none"/>
<circle clip-path="url(#clip051)" cx="1373.66" cy="783.722" r="14.4" fill="#009af9" fill-rule="evenodd" fill-opacity="0.5" stroke="none"/>
<circle clip-path="url(#clip051)" cx="1284.43" cy="780.433" r="14.4" fill="#009af9" fill-rule="evenodd" fill-opacity="0.5" stroke="none"/>
<circle clip-path="url(#clip051)" cx="1074.1" cy="780.133" r="14.4" fill="#009af9" fill-rule="evenodd" fill-opacity="0.5" stroke="none"/>
<circle clip-path="url(#clip051)" cx="1193.71" cy="779.59" r="14.4" fill="#009af9" fill-rule="evenodd" fill-opacity="0.5" stroke="none"/>
<circle clip-path="url(#clip051)" cx="1165.21" cy="778.885" r="14.4" fill="#009af9" fill-rule="evenodd" fill-opacity="0.5" stroke="none"/>
<circle clip-path="url(#clip051)" cx="1114.73" cy="776.003" r="14.4" fill="#009af9" fill-rule="evenodd" fill-opacity="0.5" stroke="none"/>
<circle clip-path="url(#clip051)" cx="1277.03" cy="775.911" r="14.4" fill="#009af9" fill-rule="evenodd" fill-opacity="0.5" stroke="none"/>
<circle clip-path="url(#clip051)" cx="1261.6" cy="774.153" r="14.4" fill="#009af9" fill-rule="evenodd" fill-opacity="0.5" stroke="none"/>
<circle clip-path="url(#clip051)" cx="1316.97" cy="773.195" r="14.4" fill="#009af9" fill-rule="evenodd" fill-opacity="0.5" stroke="none"/>
<circle clip-path="url(#clip051)" cx="1018.33" cy="772.697" r="14.4" fill="#009af9" fill-rule="evenodd" fill-opacity="0.5" stroke="none"/>
<circle clip-path="url(#clip051)" cx="973.938" cy="772.131" r="14.4" fill="#009af9" fill-rule="evenodd" fill-opacity="0.5" stroke="none"/>
<circle clip-path="url(#clip051)" cx="1307.16" cy="769.275" r="14.4" fill="#009af9" fill-rule="evenodd" fill-opacity="0.5" stroke="none"/>
<circle clip-path="url(#clip051)" cx="1413.74" cy="767.527" r="14.4" fill="#009af9" fill-rule="evenodd" fill-opacity="0.5" stroke="none"/>
<circle clip-path="url(#clip051)" cx="1202.11" cy="766.68" r="14.4" fill="#009af9" fill-rule="evenodd" fill-opacity="0.5" stroke="none"/>
<circle clip-path="url(#clip051)" cx="904.411" cy="765.788" r="14.4" fill="#009af9" fill-rule="evenodd" fill-opacity="0.5" stroke="none"/>
<circle clip-path="url(#clip051)" cx="1158.99" cy="765.61" r="14.4" fill="#009af9" fill-rule="evenodd" fill-opacity="0.5" stroke="none"/>
<circle clip-path="url(#clip051)" cx="1144.87" cy="759.312" r="14.4" fill="#009af9" fill-rule="evenodd" fill-opacity="0.5" stroke="none"/>
<circle clip-path="url(#clip051)" cx="1247.84" cy="758.88" r="14.4" fill="#009af9" fill-rule="evenodd" fill-opacity="0.5" stroke="none"/>
<circle clip-path="url(#clip051)" cx="1412.31" cy="758.702" r="14.4" fill="#009af9" fill-rule="evenodd" fill-opacity="0.5" stroke="none"/>
<circle clip-path="url(#clip051)" cx="1137" cy="758.453" r="14.4" fill="#009af9" fill-rule="evenodd" fill-opacity="0.5" stroke="none"/>
<circle clip-path="url(#clip051)" cx="1160.18" cy="755.766" r="14.4" fill="#009af9" fill-rule="evenodd" fill-opacity="0.5" stroke="none"/>
<circle clip-path="url(#clip051)" cx="985.107" cy="755.152" r="14.4" fill="#009af9" fill-rule="evenodd" fill-opacity="0.5" stroke="none"/>
<circle clip-path="url(#clip051)" cx="1105.87" cy="754.384" r="14.4" fill="#009af9" fill-rule="evenodd" fill-opacity="0.5" stroke="none"/>
<circle clip-path="url(#clip051)" cx="1398.2" cy="753.289" r="14.4" fill="#009af9" fill-rule="evenodd" fill-opacity="0.5" stroke="none"/>
<circle clip-path="url(#clip051)" cx="1131.94" cy="751.243" r="14.4" fill="#009af9" fill-rule="evenodd" fill-opacity="0.5" stroke="none"/>
<circle clip-path="url(#clip051)" cx="779.82" cy="747.56" r="14.4" fill="#009af9" fill-rule="evenodd" fill-opacity="0.5" stroke="none"/>
<circle clip-path="url(#clip051)" cx="1301.86" cy="747.24" r="14.4" fill="#009af9" fill-rule="evenodd" fill-opacity="0.5" stroke="none"/>
<circle clip-path="url(#clip051)" cx="1339.04" cy="743.868" r="14.4" fill="#009af9" fill-rule="evenodd" fill-opacity="0.5" stroke="none"/>
<circle clip-path="url(#clip051)" cx="1239.54" cy="743.116" r="14.4" fill="#009af9" fill-rule="evenodd" fill-opacity="0.5" stroke="none"/>
<circle clip-path="url(#clip051)" cx="761.079" cy="739.103" r="14.4" fill="#009af9" fill-rule="evenodd" fill-opacity="0.5" stroke="none"/>
<circle clip-path="url(#clip051)" cx="1184.69" cy="738.729" r="14.4" fill="#009af9" fill-rule="evenodd" fill-opacity="0.5" stroke="none"/>
<circle clip-path="url(#clip051)" cx="1138.69" cy="732.134" r="14.4" fill="#009af9" fill-rule="evenodd" fill-opacity="0.5" stroke="none"/>
<circle clip-path="url(#clip051)" cx="969.303" cy="731.019" r="14.4" fill="#009af9" fill-rule="evenodd" fill-opacity="0.5" stroke="none"/>
<circle clip-path="url(#clip051)" cx="1370.43" cy="729.048" r="14.4" fill="#009af9" fill-rule="evenodd" fill-opacity="0.5" stroke="none"/>
<circle clip-path="url(#clip051)" cx="1078.1" cy="726.538" r="14.4" fill="#009af9" fill-rule="evenodd" fill-opacity="0.5" stroke="none"/>
<circle clip-path="url(#clip051)" cx="984.986" cy="726.044" r="14.4" fill="#009af9" fill-rule="evenodd" fill-opacity="0.5" stroke="none"/>
<circle clip-path="url(#clip051)" cx="1552.86" cy="725.691" r="14.4" fill="#009af9" fill-rule="evenodd" fill-opacity="0.5" stroke="none"/>
<circle clip-path="url(#clip051)" cx="960.916" cy="723.302" r="14.4" fill="#009af9" fill-rule="evenodd" fill-opacity="0.5" stroke="none"/>
<circle clip-path="url(#clip051)" cx="1205.55" cy="719.581" r="14.4" fill="#009af9" fill-rule="evenodd" fill-opacity="0.5" stroke="none"/>
<circle clip-path="url(#clip051)" cx="1277.36" cy="715.853" r="14.4" fill="#009af9" fill-rule="evenodd" fill-opacity="0.5" stroke="none"/>
<circle clip-path="url(#clip051)" cx="1143.01" cy="715.627" r="14.4" fill="#009af9" fill-rule="evenodd" fill-opacity="0.5" stroke="none"/>
<circle clip-path="url(#clip051)" cx="1563.98" cy="715.563" r="14.4" fill="#009af9" fill-rule="evenodd" fill-opacity="0.5" stroke="none"/>
<circle clip-path="url(#clip051)" cx="1260" cy="714.091" r="14.4" fill="#009af9" fill-rule="evenodd" fill-opacity="0.5" stroke="none"/>
<circle clip-path="url(#clip051)" cx="1130.93" cy="713.926" r="14.4" fill="#009af9" fill-rule="evenodd" fill-opacity="0.5" stroke="none"/>
<circle clip-path="url(#clip051)" cx="1392.04" cy="713.42" r="14.4" fill="#009af9" fill-rule="evenodd" fill-opacity="0.5" stroke="none"/>
<circle clip-path="url(#clip051)" cx="1260.75" cy="712.983" r="14.4" fill="#009af9" fill-rule="evenodd" fill-opacity="0.5" stroke="none"/>
<circle clip-path="url(#clip051)" cx="1273.26" cy="712.254" r="14.4" fill="#009af9" fill-rule="evenodd" fill-opacity="0.5" stroke="none"/>
<circle clip-path="url(#clip051)" cx="942.722" cy="711.092" r="14.4" fill="#009af9" fill-rule="evenodd" fill-opacity="0.5" stroke="none"/>
<circle clip-path="url(#clip051)" cx="944.709" cy="710.273" r="14.4" fill="#009af9" fill-rule="evenodd" fill-opacity="0.5" stroke="none"/>
<circle clip-path="url(#clip051)" cx="1388.88" cy="709.524" r="14.4" fill="#009af9" fill-rule="evenodd" fill-opacity="0.5" stroke="none"/>
<circle clip-path="url(#clip051)" cx="1103.68" cy="709.347" r="14.4" fill="#009af9" fill-rule="evenodd" fill-opacity="0.5" stroke="none"/>
<circle clip-path="url(#clip051)" cx="816.358" cy="709.307" r="14.4" fill="#009af9" fill-rule="evenodd" fill-opacity="0.5" stroke="none"/>
<circle clip-path="url(#clip051)" cx="1097.57" cy="706.071" r="14.4" fill="#009af9" fill-rule="evenodd" fill-opacity="0.5" stroke="none"/>
<circle clip-path="url(#clip051)" cx="835.468" cy="703.818" r="14.4" fill="#009af9" fill-rule="evenodd" fill-opacity="0.5" stroke="none"/>
<circle clip-path="url(#clip051)" cx="1405.59" cy="702.22" r="14.4" fill="#009af9" fill-rule="evenodd" fill-opacity="0.5" stroke="none"/>
<circle clip-path="url(#clip051)" cx="1170.65" cy="701.53" r="14.4" fill="#009af9" fill-rule="evenodd" fill-opacity="0.5" stroke="none"/>
<circle clip-path="url(#clip051)" cx="1111.43" cy="701.052" r="14.4" fill="#009af9" fill-rule="evenodd" fill-opacity="0.5" stroke="none"/>
<circle clip-path="url(#clip051)" cx="1382.37" cy="700.17" r="14.4" fill="#009af9" fill-rule="evenodd" fill-opacity="0.5" stroke="none"/>
<circle clip-path="url(#clip051)" cx="1305.86" cy="699.115" r="14.4" fill="#009af9" fill-rule="evenodd" fill-opacity="0.5" stroke="none"/>
<circle clip-path="url(#clip051)" cx="956.505" cy="697.975" r="14.4" fill="#009af9" fill-rule="evenodd" fill-opacity="0.5" stroke="none"/>
<circle clip-path="url(#clip051)" cx="1218.73" cy="695.039" r="14.4" fill="#009af9" fill-rule="evenodd" fill-opacity="0.5" stroke="none"/>
<circle clip-path="url(#clip051)" cx="787.074" cy="694.683" r="14.4" fill="#009af9" fill-rule="evenodd" fill-opacity="0.5" stroke="none"/>
<circle clip-path="url(#clip051)" cx="1508.67" cy="691.173" r="14.4" fill="#009af9" fill-rule="evenodd" fill-opacity="0.5" stroke="none"/>
<circle clip-path="url(#clip051)" cx="1406.63" cy="691.163" r="14.4" fill="#009af9" fill-rule="evenodd" fill-opacity="0.5" stroke="none"/>
<circle clip-path="url(#clip051)" cx="1071.3" cy="690.077" r="14.4" fill="#009af9" fill-rule="evenodd" fill-opacity="0.5" stroke="none"/>
<circle clip-path="url(#clip051)" cx="1200.26" cy="687.989" r="14.4" fill="#009af9" fill-rule="evenodd" fill-opacity="0.5" stroke="none"/>
<circle clip-path="url(#clip051)" cx="1284.78" cy="687.679" r="14.4" fill="#009af9" fill-rule="evenodd" fill-opacity="0.5" stroke="none"/>
<circle clip-path="url(#clip051)" cx="1217.89" cy="687.326" r="14.4" fill="#009af9" fill-rule="evenodd" fill-opacity="0.5" stroke="none"/>
<circle clip-path="url(#clip051)" cx="1339" cy="684.963" r="14.4" fill="#009af9" fill-rule="evenodd" fill-opacity="0.5" stroke="none"/>
<circle clip-path="url(#clip051)" cx="1412.13" cy="684.577" r="14.4" fill="#009af9" fill-rule="evenodd" fill-opacity="0.5" stroke="none"/>
<circle clip-path="url(#clip051)" cx="840.656" cy="684.309" r="14.4" fill="#009af9" fill-rule="evenodd" fill-opacity="0.5" stroke="none"/>
<circle clip-path="url(#clip051)" cx="1070.96" cy="684.129" r="14.4" fill="#009af9" fill-rule="evenodd" fill-opacity="0.5" stroke="none"/>
<circle clip-path="url(#clip051)" cx="1077.21" cy="684.071" r="14.4" fill="#009af9" fill-rule="evenodd" fill-opacity="0.5" stroke="none"/>
<circle clip-path="url(#clip051)" cx="1060.8" cy="681.06" r="14.4" fill="#009af9" fill-rule="evenodd" fill-opacity="0.5" stroke="none"/>
<circle clip-path="url(#clip051)" cx="1194.64" cy="679.366" r="14.4" fill="#009af9" fill-rule="evenodd" fill-opacity="0.5" stroke="none"/>
<circle clip-path="url(#clip051)" cx="1302.09" cy="677.422" r="14.4" fill="#009af9" fill-rule="evenodd" fill-opacity="0.5" stroke="none"/>
<circle clip-path="url(#clip051)" cx="1122.08" cy="676.571" r="14.4" fill="#009af9" fill-rule="evenodd" fill-opacity="0.5" stroke="none"/>
<circle clip-path="url(#clip051)" cx="1249.11" cy="676.46" r="14.4" fill="#009af9" fill-rule="evenodd" fill-opacity="0.5" stroke="none"/>
<circle clip-path="url(#clip051)" cx="1201.98" cy="676.42" r="14.4" fill="#009af9" fill-rule="evenodd" fill-opacity="0.5" stroke="none"/>
<circle clip-path="url(#clip051)" cx="1157.2" cy="675.906" r="14.4" fill="#009af9" fill-rule="evenodd" fill-opacity="0.5" stroke="none"/>
<circle clip-path="url(#clip051)" cx="757.033" cy="674.048" r="14.4" fill="#009af9" fill-rule="evenodd" fill-opacity="0.5" stroke="none"/>
<circle clip-path="url(#clip051)" cx="1015.39" cy="672.14" r="14.4" fill="#009af9" fill-rule="evenodd" fill-opacity="0.5" stroke="none"/>
<circle clip-path="url(#clip051)" cx="929.461" cy="672.122" r="14.4" fill="#009af9" fill-rule="evenodd" fill-opacity="0.5" stroke="none"/>
<circle clip-path="url(#clip051)" cx="1503.44" cy="672.031" r="14.4" fill="#009af9" fill-rule="evenodd" fill-opacity="0.5" stroke="none"/>
<circle clip-path="url(#clip051)" cx="778.129" cy="671.707" r="14.4" fill="#009af9" fill-rule="evenodd" fill-opacity="0.5" stroke="none"/>
<circle clip-path="url(#clip051)" cx="1221.92" cy="668.253" r="14.4" fill="#009af9" fill-rule="evenodd" fill-opacity="0.5" stroke="none"/>
<circle clip-path="url(#clip051)" cx="1336.67" cy="668.001" r="14.4" fill="#009af9" fill-rule="evenodd" fill-opacity="0.5" stroke="none"/>
<circle clip-path="url(#clip051)" cx="1047.12" cy="667.799" r="14.4" fill="#009af9" fill-rule="evenodd" fill-opacity="0.5" stroke="none"/>
<circle clip-path="url(#clip051)" cx="994.636" cy="665.767" r="14.4" fill="#009af9" fill-rule="evenodd" fill-opacity="0.5" stroke="none"/>
<circle clip-path="url(#clip051)" cx="1314.99" cy="662.406" r="14.4" fill="#009af9" fill-rule="evenodd" fill-opacity="0.5" stroke="none"/>
<circle clip-path="url(#clip051)" cx="1043.44" cy="661.234" r="14.4" fill="#009af9" fill-rule="evenodd" fill-opacity="0.5" stroke="none"/>
<circle clip-path="url(#clip051)" cx="1061.12" cy="661.17" r="14.4" fill="#009af9" fill-rule="evenodd" fill-opacity="0.5" stroke="none"/>
<circle clip-path="url(#clip051)" cx="1398.84" cy="657.509" r="14.4" fill="#009af9" fill-rule="evenodd" fill-opacity="0.5" stroke="none"/>
<circle clip-path="url(#clip051)" cx="1067.01" cy="656.255" r="14.4" fill="#009af9" fill-rule="evenodd" fill-opacity="0.5" stroke="none"/>
<circle clip-path="url(#clip051)" cx="1168.32" cy="656.123" r="14.4" fill="#009af9" fill-rule="evenodd" fill-opacity="0.5" stroke="none"/>
<circle clip-path="url(#clip051)" cx="1163.93" cy="655.906" r="14.4" fill="#009af9" fill-rule="evenodd" fill-opacity="0.5" stroke="none"/>
<circle clip-path="url(#clip051)" cx="1232.94" cy="655.688" r="14.4" fill="#009af9" fill-rule="evenodd" fill-opacity="0.5" stroke="none"/>
<circle clip-path="url(#clip051)" cx="1279.89" cy="653.689" r="14.4" fill="#009af9" fill-rule="evenodd" fill-opacity="0.5" stroke="none"/>
<circle clip-path="url(#clip051)" cx="1307.27" cy="653.49" r="14.4" fill="#009af9" fill-rule="evenodd" fill-opacity="0.5" stroke="none"/>
<circle clip-path="url(#clip051)" cx="1126.38" cy="651.007" r="14.4" fill="#009af9" fill-rule="evenodd" fill-opacity="0.5" stroke="none"/>
<circle clip-path="url(#clip051)" cx="1051.04" cy="646.129" r="14.4" fill="#009af9" fill-rule="evenodd" fill-opacity="0.5" stroke="none"/>
<circle clip-path="url(#clip051)" cx="1101.62" cy="645.832" r="14.4" fill="#009af9" fill-rule="evenodd" fill-opacity="0.5" stroke="none"/>
<circle clip-path="url(#clip051)" cx="1244.56" cy="644.486" r="14.4" fill="#009af9" fill-rule="evenodd" fill-opacity="0.5" stroke="none"/>
<circle clip-path="url(#clip051)" cx="835.753" cy="643.622" r="14.4" fill="#009af9" fill-rule="evenodd" fill-opacity="0.5" stroke="none"/>
<circle clip-path="url(#clip051)" cx="1085.65" cy="642.732" r="14.4" fill="#009af9" fill-rule="evenodd" fill-opacity="0.5" stroke="none"/>
<circle clip-path="url(#clip051)" cx="912.263" cy="641.679" r="14.4" fill="#009af9" fill-rule="evenodd" fill-opacity="0.5" stroke="none"/>
<circle clip-path="url(#clip051)" cx="866.293" cy="640.064" r="14.4" fill="#009af9" fill-rule="evenodd" fill-opacity="0.5" stroke="none"/>
<circle clip-path="url(#clip051)" cx="1186.91" cy="639.745" r="14.4" fill="#009af9" fill-rule="evenodd" fill-opacity="0.5" stroke="none"/>
<circle clip-path="url(#clip051)" cx="1305.77" cy="638.522" r="14.4" fill="#009af9" fill-rule="evenodd" fill-opacity="0.5" stroke="none"/>
<circle clip-path="url(#clip051)" cx="1393.21" cy="635.821" r="14.4" fill="#009af9" fill-rule="evenodd" fill-opacity="0.5" stroke="none"/>
<circle clip-path="url(#clip051)" cx="728.581" cy="634.474" r="14.4" fill="#009af9" fill-rule="evenodd" fill-opacity="0.5" stroke="none"/>
<circle clip-path="url(#clip051)" cx="1290.47" cy="634.306" r="14.4" fill="#009af9" fill-rule="evenodd" fill-opacity="0.5" stroke="none"/>
<circle clip-path="url(#clip051)" cx="1389.35" cy="631.987" r="14.4" fill="#009af9" fill-rule="evenodd" fill-opacity="0.5" stroke="none"/>
<circle clip-path="url(#clip051)" cx="1108.71" cy="626.909" r="14.4" fill="#009af9" fill-rule="evenodd" fill-opacity="0.5" stroke="none"/>
<circle clip-path="url(#clip051)" cx="1057.45" cy="626.672" r="14.4" fill="#009af9" fill-rule="evenodd" fill-opacity="0.5" stroke="none"/>
<circle clip-path="url(#clip051)" cx="1226.03" cy="626.067" r="14.4" fill="#009af9" fill-rule="evenodd" fill-opacity="0.5" stroke="none"/>
<circle clip-path="url(#clip051)" cx="1120.55" cy="625.953" r="14.4" fill="#009af9" fill-rule="evenodd" fill-opacity="0.5" stroke="none"/>
<circle clip-path="url(#clip051)" cx="892.116" cy="623.422" r="14.4" fill="#009af9" fill-rule="evenodd" fill-opacity="0.5" stroke="none"/>
<circle clip-path="url(#clip051)" cx="1176.49" cy="623.331" r="14.4" fill="#009af9" fill-rule="evenodd" fill-opacity="0.5" stroke="none"/>
<circle clip-path="url(#clip051)" cx="1193.85" cy="623.013" r="14.4" fill="#009af9" fill-rule="evenodd" fill-opacity="0.5" stroke="none"/>
<circle clip-path="url(#clip051)" cx="1155.9" cy="622.757" r="14.4" fill="#009af9" fill-rule="evenodd" fill-opacity="0.5" stroke="none"/>
<circle clip-path="url(#clip051)" cx="723.919" cy="622.701" r="14.4" fill="#009af9" fill-rule="evenodd" fill-opacity="0.5" stroke="none"/>
<circle clip-path="url(#clip051)" cx="944.129" cy="621.99" r="14.4" fill="#009af9" fill-rule="evenodd" fill-opacity="0.5" stroke="none"/>
<circle clip-path="url(#clip051)" cx="1150.06" cy="621.02" r="14.4" fill="#009af9" fill-rule="evenodd" fill-opacity="0.5" stroke="none"/>
<circle clip-path="url(#clip051)" cx="1151.95" cy="620.933" r="14.4" fill="#009af9" fill-rule="evenodd" fill-opacity="0.5" stroke="none"/>
<circle clip-path="url(#clip051)" cx="995.801" cy="618.332" r="14.4" fill="#009af9" fill-rule="evenodd" fill-opacity="0.5" stroke="none"/>
<circle clip-path="url(#clip051)" cx="1091.4" cy="617.592" r="14.4" fill="#009af9" fill-rule="evenodd" fill-opacity="0.5" stroke="none"/>
<circle clip-path="url(#clip051)" cx="1140.14" cy="615.183" r="14.4" fill="#009af9" fill-rule="evenodd" fill-opacity="0.5" stroke="none"/>
<circle clip-path="url(#clip051)" cx="1023.32" cy="614.601" r="14.4" fill="#009af9" fill-rule="evenodd" fill-opacity="0.5" stroke="none"/>
<circle clip-path="url(#clip051)" cx="1163.11" cy="612.467" r="14.4" fill="#009af9" fill-rule="evenodd" fill-opacity="0.5" stroke="none"/>
<circle clip-path="url(#clip051)" cx="1265.13" cy="610.224" r="14.4" fill="#009af9" fill-rule="evenodd" fill-opacity="0.5" stroke="none"/>
<circle clip-path="url(#clip051)" cx="1390.3" cy="609.574" r="14.4" fill="#009af9" fill-rule="evenodd" fill-opacity="0.5" stroke="none"/>
<circle clip-path="url(#clip051)" cx="1292.71" cy="609.373" r="14.4" fill="#009af9" fill-rule="evenodd" fill-opacity="0.5" stroke="none"/>
<circle clip-path="url(#clip051)" cx="1119.33" cy="607.198" r="14.4" fill="#009af9" fill-rule="evenodd" fill-opacity="0.5" stroke="none"/>
<circle clip-path="url(#clip051)" cx="1200.87" cy="606.551" r="14.4" fill="#009af9" fill-rule="evenodd" fill-opacity="0.5" stroke="none"/>
<circle clip-path="url(#clip051)" cx="1105.77" cy="605.632" r="14.4" fill="#009af9" fill-rule="evenodd" fill-opacity="0.5" stroke="none"/>
<circle clip-path="url(#clip051)" cx="1083.47" cy="605.019" r="14.4" fill="#009af9" fill-rule="evenodd" fill-opacity="0.5" stroke="none"/>
<circle clip-path="url(#clip051)" cx="1143.88" cy="604.692" r="14.4" fill="#009af9" fill-rule="evenodd" fill-opacity="0.5" stroke="none"/>
<circle clip-path="url(#clip051)" cx="1457.87" cy="601.457" r="14.4" fill="#009af9" fill-rule="evenodd" fill-opacity="0.5" stroke="none"/>
<circle clip-path="url(#clip051)" cx="1150.85" cy="600.312" r="14.4" fill="#009af9" fill-rule="evenodd" fill-opacity="0.5" stroke="none"/>
<circle clip-path="url(#clip051)" cx="1153.13" cy="598.986" r="14.4" fill="#009af9" fill-rule="evenodd" fill-opacity="0.5" stroke="none"/>
<circle clip-path="url(#clip051)" cx="1017.14" cy="598.437" r="14.4" fill="#009af9" fill-rule="evenodd" fill-opacity="0.5" stroke="none"/>
<circle clip-path="url(#clip051)" cx="1084.92" cy="597.52" r="14.4" fill="#009af9" fill-rule="evenodd" fill-opacity="0.5" stroke="none"/>
<circle clip-path="url(#clip051)" cx="716.449" cy="597.147" r="14.4" fill="#009af9" fill-rule="evenodd" fill-opacity="0.5" stroke="none"/>
<circle clip-path="url(#clip051)" cx="949.888" cy="597.145" r="14.4" fill="#009af9" fill-rule="evenodd" fill-opacity="0.5" stroke="none"/>
<circle clip-path="url(#clip051)" cx="1207.08" cy="595.793" r="14.4" fill="#009af9" fill-rule="evenodd" fill-opacity="0.5" stroke="none"/>
<circle clip-path="url(#clip051)" cx="1107.39" cy="593.761" r="14.4" fill="#009af9" fill-rule="evenodd" fill-opacity="0.5" stroke="none"/>
<circle clip-path="url(#clip051)" cx="1069.61" cy="593.188" r="14.4" fill="#009af9" fill-rule="evenodd" fill-opacity="0.5" stroke="none"/>
<circle clip-path="url(#clip051)" cx="1217.92" cy="591.505" r="14.4" fill="#009af9" fill-rule="evenodd" fill-opacity="0.5" stroke="none"/>
<circle clip-path="url(#clip051)" cx="1127.71" cy="590.205" r="14.4" fill="#009af9" fill-rule="evenodd" fill-opacity="0.5" stroke="none"/>
<circle clip-path="url(#clip051)" cx="796.672" cy="589.212" r="14.4" fill="#009af9" fill-rule="evenodd" fill-opacity="0.5" stroke="none"/>
<circle clip-path="url(#clip051)" cx="1062.68" cy="588.58" r="14.4" fill="#009af9" fill-rule="evenodd" fill-opacity="0.5" stroke="none"/>
<circle clip-path="url(#clip051)" cx="1137.15" cy="587.489" r="14.4" fill="#009af9" fill-rule="evenodd" fill-opacity="0.5" stroke="none"/>
<circle clip-path="url(#clip051)" cx="1181.02" cy="584.987" r="14.4" fill="#009af9" fill-rule="evenodd" fill-opacity="0.5" stroke="none"/>
<circle clip-path="url(#clip051)" cx="767.397" cy="581.348" r="14.4" fill="#009af9" fill-rule="evenodd" fill-opacity="0.5" stroke="none"/>
<circle clip-path="url(#clip051)" cx="1010.35" cy="579.441" r="14.4" fill="#009af9" fill-rule="evenodd" fill-opacity="0.5" stroke="none"/>
<circle clip-path="url(#clip051)" cx="929.768" cy="577.46" r="14.4" fill="#009af9" fill-rule="evenodd" fill-opacity="0.5" stroke="none"/>
<circle clip-path="url(#clip051)" cx="1075.09" cy="576.79" r="14.4" fill="#009af9" fill-rule="evenodd" fill-opacity="0.5" stroke="none"/>
<circle clip-path="url(#clip051)" cx="1083.74" cy="567.944" r="14.4" fill="#009af9" fill-rule="evenodd" fill-opacity="0.5" stroke="none"/>
<circle clip-path="url(#clip051)" cx="1115.01" cy="559.769" r="14.4" fill="#009af9" fill-rule="evenodd" fill-opacity="0.5" stroke="none"/>
<circle clip-path="url(#clip051)" cx="937.089" cy="558.675" r="14.4" fill="#009af9" fill-rule="evenodd" fill-opacity="0.5" stroke="none"/>
<circle clip-path="url(#clip051)" cx="979.47" cy="551.298" r="14.4" fill="#009af9" fill-rule="evenodd" fill-opacity="0.5" stroke="none"/>
<circle clip-path="url(#clip051)" cx="1075.64" cy="548.862" r="14.4" fill="#009af9" fill-rule="evenodd" fill-opacity="0.5" stroke="none"/>
<circle clip-path="url(#clip051)" cx="1104.83" cy="525.582" r="14.4" fill="#009af9" fill-rule="evenodd" fill-opacity="0.5" stroke="none"/>
<circle clip-path="url(#clip051)" cx="1037.57" cy="375.599" r="14.4" fill="#009af9" fill-rule="evenodd" fill-opacity="0.5" stroke="none"/>
<circle clip-path="url(#clip051)" cx="940.828" cy="225.73" r="14.4" fill="#009af9" fill-rule="evenodd" fill-opacity="0.5" stroke="none"/>
<circle clip-path="url(#clip051)" cx="713.706" cy="182.55" r="14.4" fill="#009af9" fill-rule="evenodd" fill-opacity="0.5" stroke="none"/>
<path clip-path="url(#clip050)" d="M1626.44 270.476 L1884.45 270.476 L1884.45 166.796 L1626.44 166.796  Z" fill="#ffffff" fill-rule="evenodd" fill-opacity="1"/>
<polyline clip-path="url(#clip050)" style="stroke:#000000; stroke-linecap:round; stroke-linejoin:round; stroke-width:4; stroke-opacity:1; fill:none" points="1626.44,270.476 1884.45,270.476 1884.45,166.796 1626.44,166.796 1626.44,270.476 "/>
<circle clip-path="url(#clip050)" cx="1719.62" cy="218.636" r="20.48" fill="#009af9" fill-rule="evenodd" fill-opacity="0.5" stroke="none"/>
<path clip-path="url(#clip050)" d="M1812.8 201.356 L1817.48 201.356 L1817.48 215.522 L1834.47 215.522 L1834.47 201.356 L1839.14 201.356 L1839.14 235.916 L1834.47 235.916 L1834.47 219.457 L1817.48 219.457 L1817.48 235.916 L1812.8 235.916 L1812.8 201.356 Z" fill="#000000" fill-rule="nonzero" fill-opacity="1" /><path clip-path="url(#clip050)" d="M1856.99 220.245 Q1855.83 218.254 1853.49 218.254 Q1851.16 218.254 1850 220.245 Q1848.82 222.235 1848.82 226.217 Q1848.82 230.221 1850 232.212 Q1851.16 234.203 1853.49 234.203 Q1855.83 234.203 1856.99 232.212 Q1858.17 230.221 1858.17 226.217 Q1858.17 222.235 1856.99 220.245 M1853.49 216.194 Q1857.22 216.194 1859.19 218.763 Q1861.16 221.332 1861.16 226.217 Q1861.16 231.124 1859.19 233.694 Q1857.22 236.263 1853.49 236.263 Q1849.74 236.263 1847.78 233.694 Q1845.81 231.124 1845.81 226.217 Q1845.81 221.332 1847.78 218.763 Q1849.74 216.194 1853.49 216.194 Z" fill="#000000" fill-rule="nonzero" fill-opacity="1" /></svg>
