<?xml version="1.0" encoding="utf-8"?>
<svg xmlns="http://www.w3.org/2000/svg" xmlns:xlink="http://www.w3.org/1999/xlink" width="600" height="400" viewBox="0 0 2400 1600">
<defs>
  <clipPath id="clip020">
    <rect x="0" y="0" width="2400" height="1600"/>
  </clipPath>
</defs>
<path clip-path="url(#clip020)" d="M0 1600 L2400 1600 L2400 0 L0 0  Z" fill="#ffffff" fill-rule="evenodd" fill-opacity="1"/>
<defs>
  <clipPath id="clip021">
    <rect x="192" y="47" width="2161" height="1440"/>
  </clipPath>
</defs>
<path clip-path="url(#clip020)" d="M192.941 1486.45 L2352.76 1486.45 L2352.76 47.2441 L192.941 47.2441  Z" fill="#ffffff" fill-rule="evenodd" fill-opacity="1"/>
<polyline clip-path="url(#clip021)" style="stroke:#000000; stroke-linecap:round; stroke-linejoin:round; stroke-width:2; stroke-opacity:0.1; fill:none" points="252.028,1486.45 252.028,47.2441 "/>
<polyline clip-path="url(#clip021)" style="stroke:#000000; stroke-linecap:round; stroke-linejoin:round; stroke-width:2; stroke-opacity:0.1; fill:none" points="761.928,1486.45 761.928,47.2441 "/>
<polyline clip-path="url(#clip021)" style="stroke:#000000; stroke-linecap:round; stroke-linejoin:round; stroke-width:2; stroke-opacity:0.1; fill:none" points="1271.83,1486.45 1271.83,47.2441 "/>
<polyline clip-path="url(#clip021)" style="stroke:#000000; stroke-linecap:round; stroke-linejoin:round; stroke-width:2; stroke-opacity:0.1; fill:none" points="1781.73,1486.45 1781.73,47.2441 "/>
<polyline clip-path="url(#clip021)" style="stroke:#000000; stroke-linecap:round; stroke-linejoin:round; stroke-width:2; stroke-opacity:0.1; fill:none" points="2291.63,1486.45 2291.63,47.2441 "/>
<polyline clip-path="url(#clip021)" style="stroke:#000000; stroke-linecap:round; stroke-linejoin:round; stroke-width:2; stroke-opacity:0.1; fill:none" points="192.941,1275.49 2352.76,1275.49 "/>
<polyline clip-path="url(#clip021)" style="stroke:#000000; stroke-linecap:round; stroke-linejoin:round; stroke-width:2; stroke-opacity:0.1; fill:none" points="192.941,1014.34 2352.76,1014.34 "/>
<polyline clip-path="url(#clip021)" style="stroke:#000000; stroke-linecap:round; stroke-linejoin:round; stroke-width:2; stroke-opacity:0.1; fill:none" points="192.941,753.195 2352.76,753.195 "/>
<polyline clip-path="url(#clip021)" style="stroke:#000000; stroke-linecap:round; stroke-linejoin:round; stroke-width:2; stroke-opacity:0.1; fill:none" points="192.941,492.049 2352.76,492.049 "/>
<polyline clip-path="url(#clip021)" style="stroke:#000000; stroke-linecap:round; stroke-linejoin:round; stroke-width:2; stroke-opacity:0.1; fill:none" points="192.941,230.902 2352.76,230.902 "/>
<polyline clip-path="url(#clip020)" style="stroke:#000000; stroke-linecap:round; stroke-linejoin:round; stroke-width:4; stroke-opacity:1; fill:none" points="192.941,1486.45 2352.76,1486.45 "/>
<polyline clip-path="url(#clip020)" style="stroke:#000000; stroke-linecap:round; stroke-linejoin:round; stroke-width:4; stroke-opacity:1; fill:none" points="252.028,1486.45 252.028,1467.55 "/>
<polyline clip-path="url(#clip020)" style="stroke:#000000; stroke-linecap:round; stroke-linejoin:round; stroke-width:4; stroke-opacity:1; fill:none" points="761.928,1486.45 761.928,1467.55 "/>
<polyline clip-path="url(#clip020)" style="stroke:#000000; stroke-linecap:round; stroke-linejoin:round; stroke-width:4; stroke-opacity:1; fill:none" points="1271.83,1486.45 1271.83,1467.55 "/>
<polyline clip-path="url(#clip020)" style="stroke:#000000; stroke-linecap:round; stroke-linejoin:round; stroke-width:4; stroke-opacity:1; fill:none" points="1781.73,1486.45 1781.73,1467.55 "/>
<polyline clip-path="url(#clip020)" style="stroke:#000000; stroke-linecap:round; stroke-linejoin:round; stroke-width:4; stroke-opacity:1; fill:none" points="2291.63,1486.45 2291.63,1467.55 "/>
<path clip-path="url(#clip020)" d="M252.028 1517.37 Q248.417 1517.37 246.588 1520.93 Q244.783 1524.47 244.783 1531.6 Q244.783 1538.71 246.588 1542.27 Q248.417 1545.82 252.028 1545.82 Q255.662 1545.82 257.468 1542.27 Q259.296 1538.71 259.296 1531.6 Q259.296 1524.47 257.468 1520.93 Q255.662 1517.37 252.028 1517.37 M252.028 1513.66 Q257.838 1513.66 260.894 1518.27 Q263.972 1522.85 263.972 1531.6 Q263.972 1540.33 260.894 1544.94 Q257.838 1549.52 252.028 1549.52 Q246.218 1549.52 243.139 1544.94 Q240.083 1540.33 240.083 1531.6 Q240.083 1522.85 243.139 1518.27 Q246.218 1513.66 252.028 1513.66 Z" fill="#000000" fill-rule="nonzero" fill-opacity="1" /><path clip-path="url(#clip020)" d="M725.62 1544.91 L741.94 1544.91 L741.94 1548.85 L719.996 1548.85 L719.996 1544.91 Q722.658 1542.16 727.241 1537.53 Q731.847 1532.88 733.028 1531.53 Q735.273 1529.01 736.153 1527.27 Q737.056 1525.51 737.056 1523.82 Q737.056 1521.07 735.111 1519.33 Q733.19 1517.6 730.088 1517.6 Q727.889 1517.6 725.435 1518.36 Q723.005 1519.13 720.227 1520.68 L720.227 1515.95 Q723.051 1514.82 725.505 1514.24 Q727.958 1513.66 729.995 1513.66 Q735.366 1513.66 738.56 1516.35 Q741.755 1519.03 741.755 1523.52 Q741.755 1525.65 740.944 1527.57 Q740.157 1529.47 738.051 1532.07 Q737.472 1532.74 734.37 1535.95 Q731.269 1539.15 725.62 1544.91 Z" fill="#000000" fill-rule="nonzero" fill-opacity="1" /><path clip-path="url(#clip020)" d="M751.801 1514.29 L770.157 1514.29 L770.157 1518.22 L756.083 1518.22 L756.083 1526.7 Q757.102 1526.35 758.12 1526.19 Q759.139 1526 760.157 1526 Q765.944 1526 769.324 1529.17 Q772.704 1532.34 772.704 1537.76 Q772.704 1543.34 769.231 1546.44 Q765.759 1549.52 759.44 1549.52 Q757.264 1549.52 754.995 1549.15 Q752.75 1548.78 750.343 1548.04 L750.343 1543.34 Q752.426 1544.47 754.648 1545.03 Q756.87 1545.58 759.347 1545.58 Q763.352 1545.58 765.69 1543.48 Q768.028 1541.37 768.028 1537.76 Q768.028 1534.15 765.69 1532.04 Q763.352 1529.94 759.347 1529.94 Q757.472 1529.94 755.597 1530.35 Q753.745 1530.77 751.801 1531.65 L751.801 1514.29 Z" fill="#000000" fill-rule="nonzero" fill-opacity="1" /><path clip-path="url(#clip020)" d="M791.916 1517.37 Q788.305 1517.37 786.477 1520.93 Q784.671 1524.47 784.671 1531.6 Q784.671 1538.71 786.477 1542.27 Q788.305 1545.82 791.916 1545.82 Q795.551 1545.82 797.356 1542.27 Q799.185 1538.71 799.185 1531.6 Q799.185 1524.47 797.356 1520.93 Q795.551 1517.37 791.916 1517.37 M791.916 1513.66 Q797.727 1513.66 800.782 1518.27 Q803.861 1522.85 803.861 1531.6 Q803.861 1540.33 800.782 1544.94 Q797.727 1549.52 791.916 1549.52 Q786.106 1549.52 783.028 1544.94 Q779.972 1540.33 779.972 1531.6 Q779.972 1522.85 783.028 1518.27 Q786.106 1513.66 791.916 1513.66 Z" fill="#000000" fill-rule="nonzero" fill-opacity="1" /><path clip-path="url(#clip020)" d="M1231.45 1514.29 L1249.8 1514.29 L1249.8 1518.22 L1235.73 1518.22 L1235.73 1526.7 Q1236.75 1526.35 1237.77 1526.19 Q1238.78 1526 1239.8 1526 Q1245.59 1526 1248.97 1529.17 Q1252.35 1532.34 1252.35 1537.76 Q1252.35 1543.34 1248.88 1546.44 Q1245.4 1549.52 1239.09 1549.52 Q1236.91 1549.52 1234.64 1549.15 Q1232.4 1548.78 1229.99 1548.04 L1229.99 1543.34 Q1232.07 1544.47 1234.29 1545.03 Q1236.52 1545.58 1238.99 1545.58 Q1243 1545.58 1245.34 1543.48 Q1247.67 1541.37 1247.67 1537.76 Q1247.67 1534.15 1245.34 1532.04 Q1243 1529.94 1238.99 1529.94 Q1237.12 1529.94 1235.24 1530.35 Q1233.39 1530.77 1231.45 1531.65 L1231.45 1514.29 Z" fill="#000000" fill-rule="nonzero" fill-opacity="1" /><path clip-path="url(#clip020)" d="M1271.56 1517.37 Q1267.95 1517.37 1266.12 1520.93 Q1264.32 1524.47 1264.32 1531.6 Q1264.32 1538.71 1266.12 1542.27 Q1267.95 1545.82 1271.56 1545.82 Q1275.2 1545.82 1277 1542.27 Q1278.83 1538.71 1278.83 1531.6 Q1278.83 1524.47 1277 1520.93 Q1275.2 1517.37 1271.56 1517.37 M1271.56 1513.66 Q1277.37 1513.66 1280.43 1518.27 Q1283.51 1522.85 1283.51 1531.6 Q1283.51 1540.33 1280.43 1544.94 Q1277.37 1549.52 1271.56 1549.52 Q1265.75 1549.52 1262.67 1544.94 Q1259.62 1540.33 1259.62 1531.6 Q1259.62 1522.85 1262.67 1518.27 Q1265.75 1513.66 1271.56 1513.66 Z" fill="#000000" fill-rule="nonzero" fill-opacity="1" /><path clip-path="url(#clip020)" d="M1301.72 1517.37 Q1298.11 1517.37 1296.28 1520.93 Q1294.48 1524.47 1294.48 1531.6 Q1294.48 1538.71 1296.28 1542.27 Q1298.11 1545.82 1301.72 1545.82 Q1305.36 1545.82 1307.16 1542.27 Q1308.99 1538.71 1308.99 1531.6 Q1308.99 1524.47 1307.16 1520.93 Q1305.36 1517.37 1301.72 1517.37 M1301.72 1513.66 Q1307.53 1513.66 1310.59 1518.27 Q1313.67 1522.85 1313.67 1531.6 Q1313.67 1540.33 1310.59 1544.94 Q1307.53 1549.52 1301.72 1549.52 Q1295.91 1549.52 1292.84 1544.94 Q1289.78 1540.33 1289.78 1531.6 Q1289.78 1522.85 1292.84 1518.27 Q1295.91 1513.66 1301.72 1513.66 Z" fill="#000000" fill-rule="nonzero" fill-opacity="1" /><path clip-path="url(#clip020)" d="M1740 1514.29 L1762.23 1514.29 L1762.23 1516.28 L1749.68 1548.85 L1744.8 1548.85 L1756.6 1518.22 L1740 1518.22 L1740 1514.29 Z" fill="#000000" fill-rule="nonzero" fill-opacity="1" /><path clip-path="url(#clip020)" d="M1771.39 1514.29 L1789.75 1514.29 L1789.75 1518.22 L1775.68 1518.22 L1775.68 1526.7 Q1776.69 1526.35 1777.71 1526.19 Q1778.73 1526 1779.75 1526 Q1785.54 1526 1788.92 1529.17 Q1792.3 1532.34 1792.3 1537.76 Q1792.3 1543.34 1788.82 1546.44 Q1785.35 1549.52 1779.03 1549.52 Q1776.86 1549.52 1774.59 1549.15 Q1772.34 1548.78 1769.93 1548.04 L1769.93 1543.34 Q1772.02 1544.47 1774.24 1545.03 Q1776.46 1545.58 1778.94 1545.58 Q1782.94 1545.58 1785.28 1543.48 Q1787.62 1541.37 1787.62 1537.76 Q1787.62 1534.15 1785.28 1532.04 Q1782.94 1529.94 1778.94 1529.94 Q1777.06 1529.94 1775.19 1530.35 Q1773.34 1530.77 1771.39 1531.65 L1771.39 1514.29 Z" fill="#000000" fill-rule="nonzero" fill-opacity="1" /><path clip-path="url(#clip020)" d="M1811.51 1517.37 Q1807.9 1517.37 1806.07 1520.93 Q1804.26 1524.47 1804.26 1531.6 Q1804.26 1538.71 1806.07 1542.27 Q1807.9 1545.82 1811.51 1545.82 Q1815.14 1545.82 1816.95 1542.27 Q1818.78 1538.71 1818.78 1531.6 Q1818.78 1524.47 1816.95 1520.93 Q1815.14 1517.37 1811.51 1517.37 M1811.51 1513.66 Q1817.32 1513.66 1820.37 1518.27 Q1823.45 1522.85 1823.45 1531.6 Q1823.45 1540.33 1820.37 1544.94 Q1817.32 1549.52 1811.51 1549.52 Q1805.7 1549.52 1802.62 1544.94 Q1799.56 1540.33 1799.56 1531.6 Q1799.56 1522.85 1802.62 1518.27 Q1805.7 1513.66 1811.51 1513.66 Z" fill="#000000" fill-rule="nonzero" fill-opacity="1" /><path clip-path="url(#clip020)" d="M2236.15 1544.91 L2243.79 1544.91 L2243.79 1518.55 L2235.48 1520.21 L2235.48 1515.95 L2243.75 1514.29 L2248.42 1514.29 L2248.42 1544.91 L2256.06 1544.91 L2256.06 1548.85 L2236.15 1548.85 L2236.15 1544.91 Z" fill="#000000" fill-rule="nonzero" fill-opacity="1" /><path clip-path="url(#clip020)" d="M2275.51 1517.37 Q2271.9 1517.37 2270.07 1520.93 Q2268.26 1524.47 2268.26 1531.6 Q2268.26 1538.71 2270.07 1542.27 Q2271.9 1545.82 2275.51 1545.82 Q2279.14 1545.82 2280.95 1542.27 Q2282.77 1538.71 2282.77 1531.6 Q2282.77 1524.47 2280.95 1520.93 Q2279.14 1517.37 2275.51 1517.37 M2275.51 1513.66 Q2281.32 1513.66 2284.37 1518.27 Q2287.45 1522.85 2287.45 1531.6 Q2287.45 1540.33 2284.37 1544.94 Q2281.32 1549.52 2275.51 1549.52 Q2269.7 1549.52 2266.62 1544.94 Q2263.56 1540.33 2263.56 1531.6 Q2263.56 1522.85 2266.62 1518.27 Q2269.7 1513.66 2275.51 1513.66 Z" fill="#000000" fill-rule="nonzero" fill-opacity="1" /><path clip-path="url(#clip020)" d="M2305.67 1517.37 Q2302.06 1517.37 2300.23 1520.93 Q2298.42 1524.47 2298.42 1531.6 Q2298.42 1538.71 2300.23 1542.27 Q2302.06 1545.82 2305.67 1545.82 Q2309.3 1545.82 2311.11 1542.27 Q2312.94 1538.71 2312.94 1531.6 Q2312.94 1524.47 2311.11 1520.93 Q2309.3 1517.37 2305.67 1517.37 M2305.67 1513.66 Q2311.48 1513.66 2314.53 1518.27 Q2317.61 1522.85 2317.61 1531.6 Q2317.61 1540.33 2314.53 1544.94 Q2311.48 1549.52 2305.67 1549.52 Q2299.86 1549.52 2296.78 1544.94 Q2293.72 1540.33 2293.72 1531.6 Q2293.72 1522.85 2296.78 1518.27 Q2299.86 1513.66 2305.67 1513.66 Z" fill="#000000" fill-rule="nonzero" fill-opacity="1" /><path clip-path="url(#clip020)" d="M2335.83 1517.37 Q2332.22 1517.37 2330.39 1520.93 Q2328.58 1524.47 2328.58 1531.6 Q2328.58 1538.71 2330.39 1542.27 Q2332.22 1545.82 2335.83 1545.82 Q2339.46 1545.82 2341.27 1542.27 Q2343.1 1538.71 2343.1 1531.6 Q2343.1 1524.47 2341.27 1520.93 Q2339.46 1517.37 2335.83 1517.37 M2335.83 1513.66 Q2341.64 1513.66 2344.7 1518.27 Q2347.77 1522.85 2347.77 1531.6 Q2347.77 1540.33 2344.7 1544.94 Q2341.64 1549.52 2335.83 1549.52 Q2330.02 1549.52 2326.94 1544.94 Q2323.89 1540.33 2323.89 1531.6 Q2323.89 1522.85 2326.94 1518.27 Q2330.02 1513.66 2335.83 1513.66 Z" fill="#000000" fill-rule="nonzero" fill-opacity="1" /><polyline clip-path="url(#clip020)" style="stroke:#000000; stroke-linecap:round; stroke-linejoin:round; stroke-width:4; stroke-opacity:1; fill:none" points="192.941,1486.45 192.941,47.2441 "/>
<polyline clip-path="url(#clip020)" style="stroke:#000000; stroke-linecap:round; stroke-linejoin:round; stroke-width:4; stroke-opacity:1; fill:none" points="192.941,1275.49 211.838,1275.49 "/>
<polyline clip-path="url(#clip020)" style="stroke:#000000; stroke-linecap:round; stroke-linejoin:round; stroke-width:4; stroke-opacity:1; fill:none" points="192.941,1014.34 211.838,1014.34 "/>
<polyline clip-path="url(#clip020)" style="stroke:#000000; stroke-linecap:round; stroke-linejoin:round; stroke-width:4; stroke-opacity:1; fill:none" points="192.941,753.195 211.838,753.195 "/>
<polyline clip-path="url(#clip020)" style="stroke:#000000; stroke-linecap:round; stroke-linejoin:round; stroke-width:4; stroke-opacity:1; fill:none" points="192.941,492.049 211.838,492.049 "/>
<polyline clip-path="url(#clip020)" style="stroke:#000000; stroke-linecap:round; stroke-linejoin:round; stroke-width:4; stroke-opacity:1; fill:none" points="192.941,230.902 211.838,230.902 "/>
<path clip-path="url(#clip020)" d="M50.9921 1275.94 L80.6679 1275.94 L80.6679 1279.87 L50.9921 1279.87 L50.9921 1275.94 Z" fill="#000000" fill-rule="nonzero" fill-opacity="1" /><path clip-path="url(#clip020)" d="M100.76 1261.29 Q97.1493 1261.29 95.3206 1264.85 Q93.515 1268.39 93.515 1275.52 Q93.515 1282.63 95.3206 1286.19 Q97.1493 1289.73 100.76 1289.73 Q104.395 1289.73 106.2 1286.19 Q108.029 1282.63 108.029 1275.52 Q108.029 1268.39 106.2 1264.85 Q104.395 1261.29 100.76 1261.29 M100.76 1257.58 Q106.571 1257.58 109.626 1262.19 Q112.705 1266.77 112.705 1275.52 Q112.705 1284.25 109.626 1288.86 Q106.571 1293.44 100.76 1293.44 Q94.9502 1293.44 91.8715 1288.86 Q88.816 1284.25 88.816 1275.52 Q88.816 1266.77 91.8715 1262.19 Q94.9502 1257.58 100.76 1257.58 Z" fill="#000000" fill-rule="nonzero" fill-opacity="1" /><path clip-path="url(#clip020)" d="M120.922 1286.89 L125.807 1286.89 L125.807 1292.77 L120.922 1292.77 L120.922 1286.89 Z" fill="#000000" fill-rule="nonzero" fill-opacity="1" /><path clip-path="url(#clip020)" d="M136.038 1258.21 L154.394 1258.21 L154.394 1262.14 L140.32 1262.14 L140.32 1270.61 Q141.339 1270.27 142.357 1270.11 Q143.376 1269.92 144.394 1269.92 Q150.181 1269.92 153.561 1273.09 Q156.941 1276.26 156.941 1281.68 Q156.941 1287.26 153.468 1290.36 Q149.996 1293.44 143.677 1293.44 Q141.501 1293.44 139.232 1293.07 Q136.987 1292.7 134.58 1291.96 L134.58 1287.26 Q136.663 1288.39 138.885 1288.95 Q141.107 1289.5 143.584 1289.5 Q147.589 1289.5 149.927 1287.4 Q152.265 1285.29 152.265 1281.68 Q152.265 1278.07 149.927 1275.96 Q147.589 1273.86 143.584 1273.86 Q141.709 1273.86 139.834 1274.27 Q137.982 1274.69 136.038 1275.57 L136.038 1258.21 Z" fill="#000000" fill-rule="nonzero" fill-opacity="1" /><path clip-path="url(#clip020)" d="M99.765 1000.14 Q96.1539 1000.14 94.3252 1003.7 Q92.5197 1007.25 92.5197 1014.38 Q92.5197 1021.48 94.3252 1025.05 Q96.1539 1028.59 99.765 1028.59 Q103.399 1028.59 105.205 1025.05 Q107.033 1021.48 107.033 1014.38 Q107.033 1007.25 105.205 1003.7 Q103.399 1000.14 99.765 1000.14 M99.765 996.436 Q105.575 996.436 108.631 1001.04 Q111.709 1005.63 111.709 1014.38 Q111.709 1023.1 108.631 1027.71 Q105.575 1032.29 99.765 1032.29 Q93.9549 1032.29 90.8762 1027.71 Q87.8206 1023.1 87.8206 1014.38 Q87.8206 1005.63 90.8762 1001.04 Q93.9549 996.436 99.765 996.436 Z" fill="#000000" fill-rule="nonzero" fill-opacity="1" /><path clip-path="url(#clip020)" d="M119.927 1025.74 L124.811 1025.74 L124.811 1031.62 L119.927 1031.62 L119.927 1025.74 Z" fill="#000000" fill-rule="nonzero" fill-opacity="1" /><path clip-path="url(#clip020)" d="M144.996 1000.14 Q141.385 1000.14 139.556 1003.7 Q137.751 1007.25 137.751 1014.38 Q137.751 1021.48 139.556 1025.05 Q141.385 1028.59 144.996 1028.59 Q148.63 1028.59 150.436 1025.05 Q152.265 1021.48 152.265 1014.38 Q152.265 1007.25 150.436 1003.7 Q148.63 1000.14 144.996 1000.14 M144.996 996.436 Q150.806 996.436 153.862 1001.04 Q156.941 1005.63 156.941 1014.38 Q156.941 1023.1 153.862 1027.71 Q150.806 1032.29 144.996 1032.29 Q139.186 1032.29 136.107 1027.71 Q133.052 1023.1 133.052 1014.38 Q133.052 1005.63 136.107 1001.04 Q139.186 996.436 144.996 996.436 Z" fill="#000000" fill-rule="nonzero" fill-opacity="1" /><path clip-path="url(#clip020)" d="M100.76 738.993 Q97.1493 738.993 95.3206 742.558 Q93.515 746.1 93.515 753.229 Q93.515 760.336 95.3206 763.901 Q97.1493 767.442 100.76 767.442 Q104.395 767.442 106.2 763.901 Q108.029 760.336 108.029 753.229 Q108.029 746.1 106.2 742.558 Q104.395 738.993 100.76 738.993 M100.76 735.29 Q106.571 735.29 109.626 739.896 Q112.705 744.479 112.705 753.229 Q112.705 761.956 109.626 766.563 Q106.571 771.146 100.76 771.146 Q94.9502 771.146 91.8715 766.563 Q88.816 761.956 88.816 753.229 Q88.816 744.479 91.8715 739.896 Q94.9502 735.29 100.76 735.29 Z" fill="#000000" fill-rule="nonzero" fill-opacity="1" /><path clip-path="url(#clip020)" d="M120.922 764.595 L125.807 764.595 L125.807 770.475 L120.922 770.475 L120.922 764.595 Z" fill="#000000" fill-rule="nonzero" fill-opacity="1" /><path clip-path="url(#clip020)" d="M136.038 735.915 L154.394 735.915 L154.394 739.85 L140.32 739.85 L140.32 748.322 Q141.339 747.975 142.357 747.813 Q143.376 747.628 144.394 747.628 Q150.181 747.628 153.561 750.799 Q156.941 753.97 156.941 759.387 Q156.941 764.965 153.468 768.067 Q149.996 771.146 143.677 771.146 Q141.501 771.146 139.232 770.776 Q136.987 770.405 134.58 769.665 L134.58 764.965 Q136.663 766.1 138.885 766.655 Q141.107 767.211 143.584 767.211 Q147.589 767.211 149.927 765.104 Q152.265 762.998 152.265 759.387 Q152.265 755.776 149.927 753.669 Q147.589 751.563 143.584 751.563 Q141.709 751.563 139.834 751.979 Q137.982 752.396 136.038 753.276 L136.038 735.915 Z" fill="#000000" fill-rule="nonzero" fill-opacity="1" /><path clip-path="url(#clip020)" d="M90.5752 505.393 L98.2141 505.393 L98.2141 479.028 L89.904 480.694 L89.904 476.435 L98.1678 474.769 L102.844 474.769 L102.844 505.393 L110.483 505.393 L110.483 509.329 L90.5752 509.329 L90.5752 505.393 Z" fill="#000000" fill-rule="nonzero" fill-opacity="1" /><path clip-path="url(#clip020)" d="M119.927 503.449 L124.811 503.449 L124.811 509.329 L119.927 509.329 L119.927 503.449 Z" fill="#000000" fill-rule="nonzero" fill-opacity="1" /><path clip-path="url(#clip020)" d="M144.996 477.847 Q141.385 477.847 139.556 481.412 Q137.751 484.954 137.751 492.083 Q137.751 499.19 139.556 502.754 Q141.385 506.296 144.996 506.296 Q148.63 506.296 150.436 502.754 Q152.265 499.19 152.265 492.083 Q152.265 484.954 150.436 481.412 Q148.63 477.847 144.996 477.847 M144.996 474.144 Q150.806 474.144 153.862 478.75 Q156.941 483.333 156.941 492.083 Q156.941 500.81 153.862 505.416 Q150.806 510 144.996 510 Q139.186 510 136.107 505.416 Q133.052 500.81 133.052 492.083 Q133.052 483.333 136.107 478.75 Q139.186 474.144 144.996 474.144 Z" fill="#000000" fill-rule="nonzero" fill-opacity="1" /><path clip-path="url(#clip020)" d="M91.5706 244.247 L99.2095 244.247 L99.2095 217.882 L90.8993 219.548 L90.8993 215.289 L99.1632 213.622 L103.839 213.622 L103.839 244.247 L111.478 244.247 L111.478 248.182 L91.5706 248.182 L91.5706 244.247 Z" fill="#000000" fill-rule="nonzero" fill-opacity="1" /><path clip-path="url(#clip020)" d="M120.922 242.303 L125.807 242.303 L125.807 248.182 L120.922 248.182 L120.922 242.303 Z" fill="#000000" fill-rule="nonzero" fill-opacity="1" /><path clip-path="url(#clip020)" d="M136.038 213.622 L154.394 213.622 L154.394 217.557 L140.32 217.557 L140.32 226.03 Q141.339 225.682 142.357 225.52 Q143.376 225.335 144.394 225.335 Q150.181 225.335 153.561 228.507 Q156.941 231.678 156.941 237.094 Q156.941 242.673 153.468 245.775 Q149.996 248.854 143.677 248.854 Q141.501 248.854 139.232 248.483 Q136.987 248.113 134.58 247.372 L134.58 242.673 Q136.663 243.807 138.885 244.363 Q141.107 244.918 143.584 244.918 Q147.589 244.918 149.927 242.812 Q152.265 240.706 152.265 237.094 Q152.265 233.483 149.927 231.377 Q147.589 229.27 143.584 229.27 Q141.709 229.27 139.834 229.687 Q137.982 230.104 136.038 230.983 L136.038 213.622 Z" fill="#000000" fill-rule="nonzero" fill-opacity="1" /><polyline clip-path="url(#clip021)" style="stroke:#009af9; stroke-linecap:round; stroke-linejoin:round; stroke-width:4; stroke-opacity:1; fill:none" points="254.067,831.94 256.107,567.845 258.147,568.541 260.186,630.86 262.226,841.477 264.265,559.821 266.305,559.268 268.345,854.793 270.384,979.603 272.424,880.605 274.463,758.507 276.503,921.761 278.543,827.992 280.582,677.674 282.622,934.036 284.661,921.319 286.701,736.391 288.741,628.384 290.78,563.103 292.82,541.209 294.86,995.191 296.899,576.066 298.939,585.543 300.978,991.811 303.018,703.514 305.058,704.274 307.097,702.755 309.137,922.042 311.176,787.672 313.216,637.497 315.256,720.253 317.295,554.997 319.335,930.172 321.374,996.267 323.414,857.709 325.454,911.329 327.493,890.503 329.533,888.575 331.572,666.242 333.612,519.507 335.652,786.187 337.691,633.671 339.731,816.128 341.77,569.584 343.81,942.119 345.85,703.86 347.889,576.65 349.929,914.68 351.968,728.574 354.008,728.972 356.048,932.156 358.087,920.263 360.127,936.092 362.166,496.96 364.206,794.676 366.246,929.3 368.285,817.802 370.325,894.052 372.364,678.317 374.404,896.056 376.444,525.787 378.483,628.026 380.523,532.15 382.562,884.638 384.602,551.295 386.642,464.086 388.681,629.786 390.721,641.594 392.76,726.917 394.8,620.419 396.84,944.143 398.879,758.695 400.919,839.961 402.958,951.394 404.998,684.738 407.038,608.392 409.077,723.867 411.117,605.527 413.156,521.785 415.196,944.296 417.236,936.431 419.275,907.343 421.315,733.351 423.354,880.985 425.394,851.933 427.434,689.636 429.473,545.529 431.513,517.065 433.552,937.581 435.592,900.152 437.632,868.474 439.671,510.119 441.711,660.23 443.75,684.937 445.79,768.168 447.83,959.135 449.869,537.604 451.909,893.07 453.948,498.093 455.988,969.974 458.028,893.767 460.067,932.437 462.107,529.005 464.146,512.052 466.186,997.585 468.226,676.572 470.265,750.155 472.305,686.282 474.344,938.888 476.384,766.521 478.424,1029.82 480.463,753.699 482.503,524.387 484.542,1030.45 486.582,930.488 488.622,585.245 490.661,952.391 492.701,638.594 494.74,999.963 496.78,710.485 498.82,731.685 500.859,759.124 502.899,605.963 504.938,909.031 506.978,1011.7 509.018,983.416 511.057,902.652 513.097,714.033 515.136,723.725 517.176,882.696 519.216,921.618 521.255,752.416 523.295,664.994 525.334,932.668 527.374,899.945 529.414,557.108 531.453,567.124 533.493,900.216 535.532,967.117 537.572,1018.31 539.612,685.782 541.651,846.12 543.691,926.888 545.73,921.575 547.77,852.92 549.81,629.352 551.849,884.484 553.889,620.752 555.928,1035.19 557.968,685.201 560.008,801.333 562.047,827.927 564.087,928.264 566.126,984.889 568.166,740.471 570.206,1031.58 572.245,796.242 574.285,791.91 576.324,1044.71 578.364,657.704 580.404,1004.8 582.443,933.36 584.483,1039.73 586.522,761.397 588.562,590.641 590.602,920.637 592.641,789.091 594.681,885.558 596.72,584.917 598.76,1029.98 600.8,1008.26 602.839,1073.55 604.879,734.547 606.918,712.922 608.958,583.45 610.998,761.839 613.037,629.104 615.077,852.017 617.116,971.503 619.156,923.563 621.196,745.685 623.235,802.898 625.275,857.95 627.314,805.952 629.354,785.307 631.394,537.001 633.433,613.531 635.473,923.313 637.513,601.203 639.552,541.139 641.592,1020.5 643.631,1003.03 645.671,545.933 647.711,928.357 649.75,664.538 651.79,669.845 653.829,682.877 655.869,770.435 657.909,500.96 659.948,710.086 661.988,901.955 664.027,491.679 666.067,984.575 668.107,966.991 670.146,561.364 672.186,698.063 674.225,978.208 676.265,690.502 678.305,776.446 680.344,809.304 682.384,814.186 684.423,883.986 686.463,721.796 688.503,732.429 690.542,744.365 692.582,710.099 694.621,710.915 696.661,924.752 698.701,497.241 700.74,427.275 702.78,711.673 704.819,849.061 706.859,806.063 708.899,843.18 710.938,766.756 712.978,793.428 715.017,499.979 717.057,715.547 719.097,630.709 721.136,601.344 723.176,633.684 725.215,580.124 727.255,466.386 729.295,529.555 731.334,767.381 733.374,878.776 735.413,511.615 737.453,763.764 739.493,543.623 741.532,440.288 743.572,654.798 745.611,857.001 747.651,692.134 749.691,411.891 751.73,442.417 753.77,713.937 755.809,508.334 757.849,589.706 759.889,685.558 761.928,547.352 763.968,769.591 766.007,721.817 768.047,618.037 770.087,703.384 772.126,375.701 774.166,618.041 776.205,782.945 778.245,636.599 780.285,671.882 782.324,521.079 784.364,369.026 786.403,651.478 788.443,885.903 790.483,645.538 792.522,581.188 794.562,629.89 796.601,715.299 798.641,675.901 800.681,446.765 802.72,743.389 804.76,780.937 806.799,861.722 808.839,629.687 810.879,772.586 812.918,493.486 814.958,627.517 816.997,605.14 819.037,892.323 821.077,908.721 823.116,617.253 825.156,633.404 827.195,659.168 829.235,904.503 831.275,677.396 833.314,850.594 835.354,444.803 837.393,601.294 839.433,743.025 841.473,631.648 843.512,548.525 845.552,886.609 847.591,541.052 849.631,727.923 851.671,943.389 853.71,716.753 855.75,497.082 857.789,705.364 859.829,955.691 861.869,659.583 863.908,730.699 865.948,639.962 867.987,730.231 870.027,681.819 872.067,599.618 874.106,550.562 876.146,789.891 878.185,526.472 880.225,882.379 882.265,987.122 884.304,775.205 886.344,818.208 888.383,936.841 890.423,886.997 892.463,1056.77 894.502,1066.82 896.542,983.458 898.581,869.491 900.621,690.516 902.661,884.669 904.7,944.32 906.74,959.302 908.779,749.792 910.819,830.362 912.859,933.748 914.898,832.403 916.938,694.716 918.977,925.524 921.017,1089.94 923.057,926.161 925.096,865.019 927.136,865.195 929.175,664.426 931.215,895.48 933.255,1058.08 935.294,936.419 937.334,1046.08 939.373,660.049 941.413,1023.55 943.453,1161.64 945.492,872.694 947.532,866.67 949.571,856.665 951.611,892.121 953.651,1180.93 955.69,1130.04 957.73,759.536 959.769,820.507 961.809,884.612 963.849,1184.73 965.888,902.996 967.928,774.684 969.967,883.15 972.007,724.368 974.047,1174.32 976.086,1041.43 978.126,894.643 980.165,1125.02 982.205,930.976 984.245,1066.4 986.284,983.045 988.324,691.647 990.364,707.726 992.403,693.779 994.443,1034.8 996.482,1003.08 998.522,880.399 1000.56,677.953 1002.6,936.305 1004.64,1028.01 1006.68,964.272 1008.72,705.06 1010.76,920.34 1012.8,835.708 1014.84,862.687 1016.88,634.553 1018.92,1099.04 1020.96,902.809 1023,779.014 1025.04,774.595 1027.08,838.988 1029.12,786.808 1031.16,957.17 1033.2,735.273 1035.23,1002.14 1037.27,1104.84 1039.31,858.212 1041.35,1029.12 1043.39,817.144 1045.43,882.356 1047.47,962.647 1049.51,679.828 1051.55,837.904 1053.59,1004.61 1055.63,976.808 1057.67,777.017 1059.71,677.655 1061.75,553.871 1063.79,738.404 1065.83,683.688 1067.87,582.638 1069.91,795.8 1071.95,593.702 1073.99,798.395 1076.03,723.019 1078.07,527.932 1080.11,865.388 1082.15,661.621 1084.19,617.664 1086.22,473.758 1088.26,811.394 1090.3,893.98 1092.34,842.379 1094.38,559.303 1096.42,440.153 1098.46,835.7 1100.5,504.853 1102.54,752.499 1104.58,536.395 1106.62,604.128 1108.66,492.391 1110.7,497.682 1112.74,769.861 1114.78,476.395 1116.82,676.619 1118.86,559.854 1120.9,471.671 1122.94,613.838 1124.98,830.477 1127.02,451.809 1129.06,687.358 1131.1,362.969 1133.14,510.834 1135.18,480.545 1137.21,371.682 1139.25,422.381 1141.29,624.212 1143.33,652.21 1145.37,633.938 1147.41,765.26 1149.45,635.22 1151.49,695.316 1153.53,441.981 1155.57,432.488 1157.61,582.073 1159.65,670.548 1161.69,541.83 1163.73,692.02 1165.77,765.369 1167.81,672.742 1169.85,447.587 1171.89,392.691 1173.93,691.067 1175.97,378.437 1178.01,763.637 1180.05,690.479 1182.09,737.745 1184.13,526.826 1186.17,758.723 1188.2,650.859 1190.24,435.559 1192.28,449.105 1194.32,388.637 1196.36,659.157 1198.4,529.625 1200.44,578.625 1202.48,307.981 1204.52,677.344 1206.56,345.784 1208.6,659.321 1210.64,705.102 1212.68,727.829 1214.72,670.212 1216.76,714.396 1218.8,754.771 1220.84,379.816 1222.88,533.805 1224.92,664.364 1226.96,673.679 1229,727.329 1231.04,833.648 1233.08,866.312 1235.12,622.482 1237.16,439.332 1239.19,477.844 1241.23,409.884 1243.27,847.558 1245.31,869.464 1247.35,913.925 1249.39,700.74 1251.43,494.068 1253.47,499.403 1255.51,859.731 1257.55,657.772 1259.59,791.128 1261.63,940.766 1263.67,884.593 1265.71,492.934 1267.75,880.528 1269.79,571.274 1271.83,957.356 1273.87,788.646 1275.91,825.913 1277.95,662.527 1279.99,717.555 1282.03,691.737 1284.07,882.719 1286.11,965.117 1288.15,754.043 1290.18,692.246 1292.22,1021.03 1294.26,1064.15 1296.3,1074.2 1298.34,959.331 1300.38,950.724 1302.42,912.722 1304.46,1140.32 1306.5,687.961 1308.54,637.692 1310.58,738.088 1312.62,963.197 1314.66,757.67 1316.7,1121.56 1318.74,695.955 1320.78,1088.38 1322.82,1189.02 1324.86,694.869 1326.9,1135.38 1328.94,1197.44 1330.98,922.51 1333.02,758.106 1335.06,847.726 1337.1,724.868 1339.14,958.784 1341.17,915.679 1343.21,1109.67 1345.25,880.954 1347.29,979.09 1349.33,921.875 1351.37,1243.55 1353.41,970.417 1355.45,1186.31 1357.49,1182.52 1359.53,1226.57 1361.57,1018.06 1363.61,1052.42 1365.65,1046.1 1367.69,957.379 1369.73,826.557 1371.77,818.779 1373.81,931.422 1375.85,1082.21 1377.89,1036.75 1379.93,1166.71 1381.97,987.7 1384.01,1023.92 1386.05,1007.56 1388.09,912.022 1390.13,965.987 1392.16,954.557 1394.2,832.631 1396.24,1152.01 1398.28,855.895 1400.32,925.567 1402.36,1180.27 1404.4,860.317 1406.44,1021.91 1408.48,994.384 1410.52,885.929 1412.56,1217.55 1414.6,1172.2 1416.64,949.706 1418.68,1172.32 1420.72,863.541 1422.76,1009.08 1424.8,1182.55 1426.84,1182.28 1428.88,869.65 1430.92,962.289 1432.96,1027.08 1435,734.422 1437.04,952.708 1439.08,681.393 1441.12,843.515 1443.15,648.575 1445.19,1083.28 1447.23,1045.88 1449.27,1097.04 1451.31,976.194 1453.35,966.626 1455.39,859.466 1457.43,754.616 1459.47,977.898 1461.51,582.25 1463.55,1036.74 1465.59,794.35 1467.63,539.489 1469.67,988.687 1471.71,711.599 1473.75,777.581 1475.79,658.141 1477.83,993.325 1479.87,653.845 1481.91,840.503 1483.95,825.049 1485.99,806.434 1488.03,860.542 1490.07,894.141 1492.11,598.789 1494.14,556.397 1496.18,554.86 1498.22,486.738 1500.26,410.132 1502.3,795.103 1504.34,667.647 1506.38,689.617 1508.42,783.455 1510.46,754.984 1512.5,549.201 1514.54,377.147 1516.58,380.484 1518.62,812.064 1520.66,795.135 1522.7,349.049 1524.74,458.108 1526.78,666.23 1528.82,565.99 1530.86,349.897 1532.9,564.987 1534.94,669.86 1536.98,635.469 1539.02,259.384 1541.06,402.962 1543.1,425.673 1545.14,658.416 1547.17,277.834 1549.21,355.432 1551.25,314.816 1553.29,357.718 1555.33,291.915 1557.37,664.888 1559.41,321.46 1561.45,493.807 1563.49,641.292 1565.53,387.133 1567.57,453.274 1569.61,495.202 1571.65,650.664 1573.69,362.016 1575.73,562.2 1577.77,383.916 1579.81,293.669 1581.85,643.147 1583.89,546.336 1585.93,319.518 1587.97,312.072 1590.01,306.04 1592.05,232.563 1594.09,557.864 1596.13,642.939 1598.16,560.116 1600.2,436.257 1602.24,378.64 1604.28,668.228 1606.32,513.404 1608.36,498.123 1610.4,625.086 1612.44,606.754 1614.48,388.279 1616.52,288.564 1618.56,230.087 1620.6,345.224 1622.64,668.671 1624.68,729.863 1626.72,665.3 1628.76,361.337 1630.8,473.364 1632.84,431.625 1634.88,727.135 1636.92,523.264 1638.96,486.153 1641,445.789 1643.04,503.831 1645.08,802.719 1647.12,495.375 1649.15,701.533 1651.19,605.39 1653.23,604.257 1655.27,485.045 1657.31,551.68 1659.35,591.378 1661.39,517.417 1663.43,621.262 1665.47,754.827 1667.51,699.627 1669.55,683.486 1671.59,641.941 1673.63,962.31 1675.67,966.279 1677.71,923.037 1679.75,650.527 1681.79,834.875 1683.83,976.442 1685.87,749.448 1687.91,769.128 1689.95,975.241 1691.99,617.765 1694.03,825.061 1696.07,989.922 1698.11,879.966 1700.14,757.964 1702.18,794.032 1704.22,789.359 1706.26,884.136 1708.3,837.514 1710.34,897.331 1712.38,875.702 1714.42,1000.2 1716.46,1086.12 1718.5,897.403 1720.54,1122.89 1722.58,932.272 1724.62,1030.09 1726.66,751.802 1728.7,994.113 1730.74,833.122 1732.78,1133.98 1734.82,1039.12 1736.86,955.275 1738.9,1092.25 1740.94,847.444 1742.98,1095.66 1745.02,832.157 1747.06,1035.17 1749.1,874.89 1751.13,866.014 1753.17,1108.97 1755.21,899.69 1757.25,1085.07 1759.29,1035.51 1761.33,1133.84 1763.37,865.465 1765.41,1362.19 1767.45,1231.72 1769.49,1217.04 1771.53,1391.28 1773.57,1104.46 1775.61,1392.65 1777.65,908.93 1779.69,1264.69 1781.73,1141.84 1783.77,1276.01 1785.81,1305.47 1787.85,1287.6 1789.89,912.65 1791.93,1108.86 1793.97,891.316 1796.01,994.606 1798.05,1017.59 1800.09,1350.38 1802.12,1096.51 1804.16,1228.91 1806.2,1284.81 1808.24,1178.7 1810.28,978.429 1812.32,1196.84 1814.36,1019.23 1816.4,1243.95 1818.44,1305.8 1820.48,1227 1822.52,1044.67 1824.56,1269.98 1826.6,820.951 1828.64,1062.47 1830.68,852.55 1832.72,1007.57 1834.76,1045.65 1836.8,1009.35 1838.84,935.279 1840.88,1240.7 1842.92,1035.37 1844.96,888.401 1847,811.464 1849.04,897.046 1851.08,818.351 1853.11,884.628 1855.15,823.762 1857.19,686.664 1859.23,950.262 1861.27,634.701 1863.31,1050.72 1865.35,725.723 1867.39,1026.98 1869.43,986.779 1871.47,765.059 1873.51,569.634 1875.55,1019.15 1877.59,944.994 1879.63,751.958 1881.67,920.574 1883.71,955.884 1885.75,715.412 1887.79,652.149 1889.83,716.838 1891.87,652.777 1893.91,835.744 1895.95,647.865 1897.99,500.267 1900.03,660.297 1902.07,817.103 1904.1,443.575 1906.14,789.488 1908.18,601.723 1910.22,640.41 1912.26,710.667 1914.3,669.091 1916.34,344.484 1918.38,780.379 1920.42,727.833 1922.46,378.151 1924.5,727.185 1926.54,647.282 1928.58,259.416 1930.62,269.324 1932.66,555.764 1934.7,384.852 1936.74,530.13 1938.78,669.326 1940.82,620.991 1942.86,421.096 1944.9,456.041 1946.94,236.396 1948.98,423.65 1951.02,174.325 1953.06,506.477 1955.09,299.065 1957.13,355.935 1959.17,538.219 1961.21,231.766 1963.25,262.751 1965.29,190.312 1967.33,330.667 1969.37,281.907 1971.41,274.709 1973.45,480.167 1975.49,519.784 1977.53,401.715 1979.57,532.21 1981.61,179.201 1983.65,481.434 1985.69,167.274 1987.73,296.664 1989.77,365.322 1991.81,336.911 1993.85,122.209 1995.89,260.615 1997.93,140.218 1999.97,87.9763 2002.01,217.444 2004.05,205.451 2006.08,484.752 2008.12,503.215 2010.16,590.583 2012.2,348.79 2014.24,479.999 2016.28,449.479 2018.32,145.591 2020.36,236.212 2022.4,174.637 2024.44,191.696 2026.48,468.659 2028.52,154.788 2030.56,402.928 2032.6,213.843 2034.64,213.039 2036.68,560.69 2038.72,546.059 2040.76,447.214 2042.8,649.47 2044.84,417.777 2046.88,544.233 2048.92,621.992 2050.96,444.668 2053,579.457 2055.04,630.003 2057.07,307.56 2059.11,327.94 2061.15,798.014 2063.19,593.796 2065.23,505.563 2067.27,484.476 2069.31,695.824 2071.35,817.959 2073.39,735.577 2075.43,811.686 2077.47,515.364 2079.51,502.396 2081.55,866.354 2083.59,841.785 2085.63,520.036 2087.67,961.003 2089.71,1020.82 2091.75,579.918 2093.79,932.824 2095.83,839.825 2097.87,884.655 2099.91,786.92 2101.95,1046.87 2103.99,1005.14 2106.03,1016.1 2108.06,693.35 2110.1,952.897 2112.14,869.196 2114.18,1197.79 2116.22,1010.5 2118.26,1121.93 2120.3,1024.83 2122.34,1149.19 2124.38,877.443 2126.42,833.999 2128.46,1135.54 2130.5,1146.68 2132.54,897.811 2134.58,936.439 2136.62,979.629 2138.66,1138.31 2140.7,1079.79 2142.74,1239.08 2144.78,1039.05 2146.82,1357.02 2148.86,1327.43 2150.9,1371.69 2152.94,1007.42 2154.98,1246.67 2157.02,1395.93 2159.05,1341.92 2161.09,1034.35 2163.13,1284.25 2165.17,1428.62 2167.21,1364.81 2169.25,1104.68 2171.29,1023.54 2173.33,1215.27 2175.37,1361.41 2177.41,1330.6 2179.45,1021.57 2181.49,1442.56 2183.53,1149.94 2185.57,1305.18 2187.61,1363.01 2189.65,1092.64 2191.69,1369.74 2193.73,1332.1 2195.77,1064.4 2197.81,1177.44 2199.85,1006.7 2201.89,1270.96 2203.93,1327.76 2205.97,1031.1 2208.01,992.619 2210.05,1375.57 2212.08,1399.32 2214.12,1301.53 2216.16,1433.98 2218.2,1013.4 2220.24,1253.04 2222.28,1445.72 2224.32,1321.32 2226.36,1232.18 2228.4,1030.3 2230.44,1236.03 2232.48,1121.83 2234.52,915.919 2236.56,1192.28 2238.6,1384.02 2240.64,950.05 2242.68,991.416 2244.72,1234.55 2246.76,1299.84 2248.8,1002.47 2250.84,1089.58 2252.88,869.747 2254.92,1076.53 2256.96,1270.38 2259,1211.87 2261.04,1194.85 2263.07,1155.01 2265.11,1027.13 2267.15,981.655 2269.19,1097.61 2271.23,693.824 2273.27,1062.58 2275.31,670.119 2277.35,995.071 2279.39,842.986 2281.43,725.81 2283.47,1046.49 2285.51,950.897 2287.55,863.705 2289.59,824.224 2291.63,845.768 "/>
<path clip-path="url(#clip020)" d="M264.934 198.898 L533.346 198.898 L533.346 95.2176 L264.934 95.2176  Z" fill="#ffffff" fill-rule="evenodd" fill-opacity="1"/>
<polyline clip-path="url(#clip020)" style="stroke:#000000; stroke-linecap:round; stroke-linejoin:round; stroke-width:4; stroke-opacity:1; fill:none" points="264.934,198.898 533.346,198.898 533.346,95.2176 264.934,95.2176 264.934,198.898 "/>
<polyline clip-path="url(#clip020)" style="stroke:#009af9; stroke-linecap:round; stroke-linejoin:round; stroke-width:4; stroke-opacity:1; fill:none" points="288.932,147.058 432.92,147.058 "/>
<path clip-path="url(#clip020)" d="M470.761 166.745 Q468.955 171.375 467.242 172.787 Q465.529 174.199 462.659 174.199 L459.256 174.199 L459.256 170.634 L461.756 170.634 Q463.515 170.634 464.487 169.8 Q465.46 168.967 466.64 165.865 L467.404 163.921 L456.918 138.412 L461.432 138.412 L469.534 158.689 L477.636 138.412 L482.149 138.412 L470.761 166.745 Z" fill="#000000" fill-rule="nonzero" fill-opacity="1" /><path clip-path="url(#clip020)" d="M489.441 160.402 L497.08 160.402 L497.08 134.037 L488.77 135.703 L488.77 131.444 L497.034 129.778 L501.709 129.778 L501.709 160.402 L509.348 160.402 L509.348 164.338 L489.441 164.338 L489.441 160.402 Z" fill="#000000" fill-rule="nonzero" fill-opacity="1" /></svg>
