<?xml version="1.0" encoding="utf-8"?>
<svg xmlns="http://www.w3.org/2000/svg" xmlns:xlink="http://www.w3.org/1999/xlink" width="600" height="400" viewBox="0 0 2400 1600">
<defs>
  <clipPath id="clip630">
    <rect x="0" y="0" width="2400" height="1600"/>
  </clipPath>
</defs>
<path clip-path="url(#clip630)" d="
M0 1600 L2400 1600 L2400 0 L0 0  Z
  " fill="#ffffff" fill-rule="evenodd" fill-opacity="1"/>
<defs>
  <clipPath id="clip631">
    <rect x="480" y="0" width="1681" height="1600"/>
  </clipPath>
</defs>
<path clip-path="url(#clip630)" d="
M632.325 1423.18 L1932.03 1423.18 L1932.03 123.472 L632.325 123.472  Z
  " fill="#ffffff" fill-rule="evenodd" fill-opacity="1"/>
<defs>
  <clipPath id="clip632">
    <rect x="632" y="123" width="1301" height="1301"/>
  </clipPath>
</defs>
<polyline clip-path="url(#clip632)" style="stroke:#000000; stroke-width:2; stroke-opacity:0.1; fill:none" points="
  691.403,1423.18 691.403,123.472 
  "/>
<polyline clip-path="url(#clip632)" style="stroke:#000000; stroke-width:2; stroke-opacity:0.1; fill:none" points="
  980.61,1423.18 980.61,123.472 
  "/>
<polyline clip-path="url(#clip632)" style="stroke:#000000; stroke-width:2; stroke-opacity:0.1; fill:none" points="
  1269.82,1423.18 1269.82,123.472 
  "/>
<polyline clip-path="url(#clip632)" style="stroke:#000000; stroke-width:2; stroke-opacity:0.1; fill:none" points="
  1559.03,1423.18 1559.03,123.472 
  "/>
<polyline clip-path="url(#clip632)" style="stroke:#000000; stroke-width:2; stroke-opacity:0.1; fill:none" points="
  1848.23,1423.18 1848.23,123.472 
  "/>
<polyline clip-path="url(#clip630)" style="stroke:#000000; stroke-width:4; stroke-opacity:1; fill:none" points="
  632.325,1423.18 1932.03,1423.18 
  "/>
<polyline clip-path="url(#clip630)" style="stroke:#000000; stroke-width:4; stroke-opacity:1; fill:none" points="
  691.403,1423.18 691.403,1407.58 
  "/>
<polyline clip-path="url(#clip630)" style="stroke:#000000; stroke-width:4; stroke-opacity:1; fill:none" points="
  980.61,1423.18 980.61,1407.58 
  "/>
<polyline clip-path="url(#clip630)" style="stroke:#000000; stroke-width:4; stroke-opacity:1; fill:none" points="
  1269.82,1423.18 1269.82,1407.58 
  "/>
<polyline clip-path="url(#clip630)" style="stroke:#000000; stroke-width:4; stroke-opacity:1; fill:none" points="
  1559.03,1423.18 1559.03,1407.58 
  "/>
<polyline clip-path="url(#clip630)" style="stroke:#000000; stroke-width:4; stroke-opacity:1; fill:none" points="
  1848.23,1423.18 1848.23,1407.58 
  "/>
<path clip-path="url(#clip630)" d="M 0 0 M672.919 1452.37 Q669.308 1452.37 667.479 1455.94 Q665.674 1459.48 665.674 1466.61 Q665.674 1473.71 667.479 1477.28 Q669.308 1480.82 672.919 1480.82 Q676.553 1480.82 678.359 1477.28 Q680.188 1473.71 680.188 1466.61 Q680.188 1459.48 678.359 1455.94 Q676.553 1452.37 672.919 1452.37 M672.919 1448.67 Q678.729 1448.67 681.785 1453.27 Q684.864 1457.86 684.864 1466.61 Q684.864 1475.33 681.785 1479.94 Q678.729 1484.52 672.919 1484.52 Q667.109 1484.52 664.03 1479.94 Q660.975 1475.33 660.975 1466.61 Q660.975 1457.86 664.03 1453.27 Q667.109 1448.67 672.919 1448.67 Z" fill="#000000" fill-rule="evenodd" fill-opacity="1" /><path clip-path="url(#clip630)" d="M 0 0 M689.933 1477.97 L694.817 1477.97 L694.817 1483.85 L689.933 1483.85 L689.933 1477.97 Z" fill="#000000" fill-rule="evenodd" fill-opacity="1" /><path clip-path="url(#clip630)" d="M 0 0 M709.887 1452.37 Q706.276 1452.37 704.447 1455.94 Q702.641 1459.48 702.641 1466.61 Q702.641 1473.71 704.447 1477.28 Q706.276 1480.82 709.887 1480.82 Q713.521 1480.82 715.326 1477.28 Q717.155 1473.71 717.155 1466.61 Q717.155 1459.48 715.326 1455.94 Q713.521 1452.37 709.887 1452.37 M709.887 1448.67 Q715.697 1448.67 718.752 1453.27 Q721.831 1457.86 721.831 1466.61 Q721.831 1475.33 718.752 1479.94 Q715.697 1484.52 709.887 1484.52 Q704.076 1484.52 700.998 1479.94 Q697.942 1475.33 697.942 1466.61 Q697.942 1457.86 700.998 1453.27 Q704.076 1448.67 709.887 1448.67 Z" fill="#000000" fill-rule="evenodd" fill-opacity="1" /><path clip-path="url(#clip630)" d="M 0 0 M962.925 1452.37 Q959.314 1452.37 957.485 1455.94 Q955.68 1459.48 955.68 1466.61 Q955.68 1473.71 957.485 1477.28 Q959.314 1480.82 962.925 1480.82 Q966.559 1480.82 968.365 1477.28 Q970.194 1473.71 970.194 1466.61 Q970.194 1459.48 968.365 1455.94 Q966.559 1452.37 962.925 1452.37 M962.925 1448.67 Q968.735 1448.67 971.791 1453.27 Q974.87 1457.86 974.87 1466.61 Q974.87 1475.33 971.791 1479.94 Q968.735 1484.52 962.925 1484.52 Q957.115 1484.52 954.036 1479.94 Q950.981 1475.33 950.981 1466.61 Q950.981 1457.86 954.036 1453.27 Q957.115 1448.67 962.925 1448.67 Z" fill="#000000" fill-rule="evenodd" fill-opacity="1" /><path clip-path="url(#clip630)" d="M 0 0 M979.939 1477.97 L984.823 1477.97 L984.823 1483.85 L979.939 1483.85 L979.939 1477.97 Z" fill="#000000" fill-rule="evenodd" fill-opacity="1" /><path clip-path="url(#clip630)" d="M 0 0 M993.92 1479.92 L1010.24 1479.92 L1010.24 1483.85 L988.295 1483.85 L988.295 1479.92 Q990.957 1477.16 995.541 1472.53 Q1000.15 1467.88 1001.33 1466.54 Q1003.57 1464.01 1004.45 1462.28 Q1005.36 1460.52 1005.36 1458.83 Q1005.36 1456.07 1003.41 1454.34 Q1001.49 1452.6 998.388 1452.6 Q996.189 1452.6 993.735 1453.37 Q991.305 1454.13 988.527 1455.68 L988.527 1450.96 Q991.351 1449.82 993.805 1449.25 Q996.258 1448.67 998.295 1448.67 Q1003.67 1448.67 1006.86 1451.35 Q1010.05 1454.04 1010.05 1458.53 Q1010.05 1460.66 1009.24 1462.58 Q1008.46 1464.48 1006.35 1467.07 Q1005.77 1467.74 1002.67 1470.96 Q999.569 1474.15 993.92 1479.92 Z" fill="#000000" fill-rule="evenodd" fill-opacity="1" /><path clip-path="url(#clip630)" d="M 0 0 M1251.09 1452.37 Q1247.48 1452.37 1245.65 1455.94 Q1243.85 1459.48 1243.85 1466.61 Q1243.85 1473.71 1245.65 1477.28 Q1247.48 1480.82 1251.09 1480.82 Q1254.73 1480.82 1256.53 1477.28 Q1258.36 1473.71 1258.36 1466.61 Q1258.36 1459.48 1256.53 1455.94 Q1254.73 1452.37 1251.09 1452.37 M1251.09 1448.67 Q1256.9 1448.67 1259.96 1453.27 Q1263.04 1457.86 1263.04 1466.61 Q1263.04 1475.33 1259.96 1479.94 Q1256.9 1484.52 1251.09 1484.52 Q1245.28 1484.52 1242.2 1479.94 Q1239.15 1475.33 1239.15 1466.61 Q1239.15 1457.86 1242.2 1453.27 Q1245.28 1448.67 1251.09 1448.67 Z" fill="#000000" fill-rule="evenodd" fill-opacity="1" /><path clip-path="url(#clip630)" d="M 0 0 M1268.1 1477.97 L1272.99 1477.97 L1272.99 1483.85 L1268.1 1483.85 L1268.1 1477.97 Z" fill="#000000" fill-rule="evenodd" fill-opacity="1" /><path clip-path="url(#clip630)" d="M 0 0 M1290.91 1453.37 L1279.1 1471.81 L1290.91 1471.81 L1290.91 1453.37 M1289.68 1449.29 L1295.56 1449.29 L1295.56 1471.81 L1300.49 1471.81 L1300.49 1475.7 L1295.56 1475.7 L1295.56 1483.85 L1290.91 1483.85 L1290.91 1475.7 L1275.3 1475.7 L1275.3 1471.19 L1289.68 1449.29 Z" fill="#000000" fill-rule="evenodd" fill-opacity="1" /><path clip-path="url(#clip630)" d="M 0 0 M1540.46 1452.37 Q1536.85 1452.37 1535.02 1455.94 Q1533.22 1459.48 1533.22 1466.61 Q1533.22 1473.71 1535.02 1477.28 Q1536.85 1480.82 1540.46 1480.82 Q1544.09 1480.82 1545.9 1477.28 Q1547.73 1473.71 1547.73 1466.61 Q1547.73 1459.48 1545.9 1455.94 Q1544.09 1452.37 1540.46 1452.37 M1540.46 1448.67 Q1546.27 1448.67 1549.33 1453.27 Q1552.4 1457.86 1552.4 1466.61 Q1552.4 1475.33 1549.33 1479.94 Q1546.27 1484.52 1540.46 1484.52 Q1534.65 1484.52 1531.57 1479.94 Q1528.52 1475.33 1528.52 1466.61 Q1528.52 1457.86 1531.57 1453.27 Q1534.65 1448.67 1540.46 1448.67 Z" fill="#000000" fill-rule="evenodd" fill-opacity="1" /><path clip-path="url(#clip630)" d="M 0 0 M1557.47 1477.97 L1562.36 1477.97 L1562.36 1483.85 L1557.47 1483.85 L1557.47 1477.97 Z" fill="#000000" fill-rule="evenodd" fill-opacity="1" /><path clip-path="url(#clip630)" d="M 0 0 M1578.01 1464.71 Q1574.86 1464.71 1573.01 1466.86 Q1571.18 1469.01 1571.18 1472.76 Q1571.18 1476.49 1573.01 1478.67 Q1574.86 1480.82 1578.01 1480.82 Q1581.15 1480.82 1582.98 1478.67 Q1584.84 1476.49 1584.84 1472.76 Q1584.84 1469.01 1582.98 1466.86 Q1581.15 1464.71 1578.01 1464.71 M1587.29 1450.06 L1587.29 1454.31 Q1585.53 1453.48 1583.72 1453.04 Q1581.94 1452.6 1580.18 1452.6 Q1575.55 1452.6 1573.1 1455.73 Q1570.67 1458.85 1570.32 1465.17 Q1571.69 1463.16 1573.75 1462.09 Q1575.81 1461 1578.28 1461 Q1583.49 1461 1586.5 1464.18 Q1589.53 1467.32 1589.53 1472.76 Q1589.53 1478.09 1586.39 1481.31 Q1583.24 1484.52 1578.01 1484.52 Q1572.01 1484.52 1568.84 1479.94 Q1565.67 1475.33 1565.67 1466.61 Q1565.67 1458.41 1569.56 1453.55 Q1573.45 1448.67 1580 1448.67 Q1581.76 1448.67 1583.54 1449.01 Q1585.34 1449.36 1587.29 1450.06 Z" fill="#000000" fill-rule="evenodd" fill-opacity="1" /><path clip-path="url(#clip630)" d="M 0 0 M1829.8 1452.37 Q1826.18 1452.37 1824.36 1455.94 Q1822.55 1459.48 1822.55 1466.61 Q1822.55 1473.71 1824.36 1477.28 Q1826.18 1480.82 1829.8 1480.82 Q1833.43 1480.82 1835.23 1477.28 Q1837.06 1473.71 1837.06 1466.61 Q1837.06 1459.48 1835.23 1455.94 Q1833.43 1452.37 1829.8 1452.37 M1829.8 1448.67 Q1835.61 1448.67 1838.66 1453.27 Q1841.74 1457.86 1841.74 1466.61 Q1841.74 1475.33 1838.66 1479.94 Q1835.61 1484.52 1829.8 1484.52 Q1823.98 1484.52 1820.91 1479.94 Q1817.85 1475.33 1817.85 1466.61 Q1817.85 1457.86 1820.91 1453.27 Q1823.98 1448.67 1829.8 1448.67 Z" fill="#000000" fill-rule="evenodd" fill-opacity="1" /><path clip-path="url(#clip630)" d="M 0 0 M1846.81 1477.97 L1851.69 1477.97 L1851.69 1483.85 L1846.81 1483.85 L1846.81 1477.97 Z" fill="#000000" fill-rule="evenodd" fill-opacity="1" /><path clip-path="url(#clip630)" d="M 0 0 M1866.76 1467.44 Q1863.43 1467.44 1861.51 1469.22 Q1859.61 1471 1859.61 1474.13 Q1859.61 1477.25 1861.51 1479.04 Q1863.43 1480.82 1866.76 1480.82 Q1870.1 1480.82 1872.02 1479.04 Q1873.94 1477.23 1873.94 1474.13 Q1873.94 1471 1872.02 1469.22 Q1870.12 1467.44 1866.76 1467.44 M1862.09 1465.45 Q1859.08 1464.71 1857.39 1462.65 Q1855.72 1460.59 1855.72 1457.63 Q1855.72 1453.48 1858.66 1451.07 Q1861.62 1448.67 1866.76 1448.67 Q1871.92 1448.67 1874.86 1451.07 Q1877.8 1453.48 1877.8 1457.63 Q1877.8 1460.59 1876.11 1462.65 Q1874.45 1464.71 1871.46 1465.45 Q1874.84 1466.24 1876.72 1468.53 Q1878.61 1470.82 1878.61 1474.13 Q1878.61 1479.15 1875.54 1481.84 Q1872.48 1484.52 1866.76 1484.52 Q1861.04 1484.52 1857.97 1481.84 Q1854.91 1479.15 1854.91 1474.13 Q1854.91 1470.82 1856.81 1468.53 Q1858.71 1466.24 1862.09 1465.45 M1860.37 1458.06 Q1860.37 1460.75 1862.04 1462.25 Q1863.73 1463.76 1866.76 1463.76 Q1869.77 1463.76 1871.46 1462.25 Q1873.17 1460.75 1873.17 1458.06 Q1873.17 1455.38 1871.46 1453.88 Q1869.77 1452.37 1866.76 1452.37 Q1863.73 1452.37 1862.04 1453.88 Q1860.37 1455.38 1860.37 1458.06 Z" fill="#000000" fill-rule="evenodd" fill-opacity="1" /><path clip-path="url(#clip630)" d="M 0 0 M1242.76 1538.25 Q1242.76 1531.79 1240.09 1528.13 Q1237.44 1524.44 1232.8 1524.44 Q1228.15 1524.44 1225.48 1528.13 Q1222.83 1531.79 1222.83 1538.25 Q1222.83 1544.71 1225.48 1548.4 Q1228.15 1552.07 1232.8 1552.07 Q1237.44 1552.07 1240.09 1548.4 Q1242.76 1544.71 1242.76 1538.25 M1222.83 1525.81 Q1224.68 1522.62 1227.48 1521.1 Q1230.31 1519.54 1234.23 1519.54 Q1240.72 1519.54 1244.76 1524.69 Q1248.84 1529.85 1248.84 1538.25 Q1248.84 1546.65 1244.76 1551.81 Q1240.72 1556.97 1234.23 1556.97 Q1230.31 1556.97 1227.48 1555.44 Q1224.68 1553.88 1222.83 1550.7 L1222.83 1556.04 L1216.95 1556.04 L1216.95 1506.52 L1222.83 1506.52 L1222.83 1525.81 Z" fill="#000000" fill-rule="evenodd" fill-opacity="1" /><path clip-path="url(#clip630)" d="M 0 0 M1254.98 1520.4 L1260.84 1520.4 L1260.84 1556.04 L1254.98 1556.04 L1254.98 1520.4 M1254.98 1506.52 L1260.84 1506.52 L1260.84 1513.93 L1254.98 1513.93 L1254.98 1506.52 Z" fill="#000000" fill-rule="evenodd" fill-opacity="1" /><path clip-path="url(#clip630)" d="M 0 0 M1287.64 1525.87 Q1286.65 1525.3 1285.47 1525.04 Q1284.33 1524.76 1282.93 1524.76 Q1277.96 1524.76 1275.29 1528 Q1272.65 1531.22 1272.65 1537.27 L1272.65 1556.04 L1266.76 1556.04 L1266.76 1520.4 L1272.65 1520.4 L1272.65 1525.93 Q1274.49 1522.69 1277.45 1521.13 Q1280.41 1519.54 1284.65 1519.54 Q1285.25 1519.54 1285.98 1519.63 Q1286.71 1519.7 1287.61 1519.85 L1287.64 1525.87 Z" fill="#000000" fill-rule="evenodd" fill-opacity="1" /><path clip-path="url(#clip630)" d="M 0 0 M1299.57 1510.27 L1299.57 1520.4 L1311.64 1520.4 L1311.64 1524.95 L1299.57 1524.95 L1299.57 1544.3 Q1299.57 1548.66 1300.75 1549.9 Q1301.96 1551.14 1305.62 1551.14 L1311.64 1551.14 L1311.64 1556.04 L1305.62 1556.04 Q1298.84 1556.04 1296.26 1553.53 Q1293.69 1550.98 1293.69 1544.3 L1293.69 1524.95 L1289.39 1524.95 L1289.39 1520.4 L1293.69 1520.4 L1293.69 1510.27 L1299.57 1510.27 Z" fill="#000000" fill-rule="evenodd" fill-opacity="1" /><path clip-path="url(#clip630)" d="M 0 0 M1347.41 1534.53 L1347.41 1556.04 L1341.56 1556.04 L1341.56 1534.72 Q1341.56 1529.66 1339.58 1527.14 Q1337.61 1524.63 1333.66 1524.63 Q1328.92 1524.63 1326.18 1527.65 Q1323.44 1530.68 1323.44 1535.9 L1323.44 1556.04 L1317.56 1556.04 L1317.56 1506.52 L1323.44 1506.52 L1323.44 1525.93 Q1325.55 1522.72 1328.38 1521.13 Q1331.24 1519.54 1334.97 1519.54 Q1341.11 1519.54 1344.26 1523.36 Q1347.41 1527.14 1347.41 1534.53 Z" fill="#000000" fill-rule="evenodd" fill-opacity="1" /><polyline clip-path="url(#clip632)" style="stroke:#000000; stroke-width:2; stroke-opacity:0.1; fill:none" points="
  632.325,1364.1 1932.03,1364.1 
  "/>
<polyline clip-path="url(#clip632)" style="stroke:#000000; stroke-width:2; stroke-opacity:0.1; fill:none" points="
  632.325,1074.89 1932.03,1074.89 
  "/>
<polyline clip-path="url(#clip632)" style="stroke:#000000; stroke-width:2; stroke-opacity:0.1; fill:none" points="
  632.325,785.687 1932.03,785.687 
  "/>
<polyline clip-path="url(#clip632)" style="stroke:#000000; stroke-width:2; stroke-opacity:0.1; fill:none" points="
  632.325,496.48 1932.03,496.48 
  "/>
<polyline clip-path="url(#clip632)" style="stroke:#000000; stroke-width:2; stroke-opacity:0.1; fill:none" points="
  632.325,207.273 1932.03,207.273 
  "/>
<polyline clip-path="url(#clip630)" style="stroke:#000000; stroke-width:4; stroke-opacity:1; fill:none" points="
  632.325,1423.18 632.325,123.472 
  "/>
<polyline clip-path="url(#clip630)" style="stroke:#000000; stroke-width:4; stroke-opacity:1; fill:none" points="
  632.325,1364.1 647.922,1364.1 
  "/>
<polyline clip-path="url(#clip630)" style="stroke:#000000; stroke-width:4; stroke-opacity:1; fill:none" points="
  632.325,1074.89 647.922,1074.89 
  "/>
<polyline clip-path="url(#clip630)" style="stroke:#000000; stroke-width:4; stroke-opacity:1; fill:none" points="
  632.325,785.687 647.922,785.687 
  "/>
<polyline clip-path="url(#clip630)" style="stroke:#000000; stroke-width:4; stroke-opacity:1; fill:none" points="
  632.325,496.48 647.922,496.48 
  "/>
<polyline clip-path="url(#clip630)" style="stroke:#000000; stroke-width:4; stroke-opacity:1; fill:none" points="
  632.325,207.273 647.922,207.273 
  "/>
<path clip-path="url(#clip630)" d="M 0 0 M547.414 1349.9 Q543.802 1349.9 541.974 1353.47 Q540.168 1357.01 540.168 1364.14 Q540.168 1371.24 541.974 1374.81 Q543.802 1378.35 547.414 1378.35 Q551.048 1378.35 552.853 1374.81 Q554.682 1371.24 554.682 1364.14 Q554.682 1357.01 552.853 1353.47 Q551.048 1349.9 547.414 1349.9 M547.414 1346.2 Q553.224 1346.2 556.279 1350.8 Q559.358 1355.39 559.358 1364.14 Q559.358 1372.86 556.279 1377.47 Q553.224 1382.05 547.414 1382.05 Q541.603 1382.05 538.525 1377.47 Q535.469 1372.86 535.469 1364.14 Q535.469 1355.39 538.525 1350.8 Q541.603 1346.2 547.414 1346.2 Z" fill="#000000" fill-rule="evenodd" fill-opacity="1" /><path clip-path="url(#clip630)" d="M 0 0 M564.427 1375.5 L569.312 1375.5 L569.312 1381.38 L564.427 1381.38 L564.427 1375.5 Z" fill="#000000" fill-rule="evenodd" fill-opacity="1" /><path clip-path="url(#clip630)" d="M 0 0 M584.381 1349.9 Q580.77 1349.9 578.941 1353.47 Q577.136 1357.01 577.136 1364.14 Q577.136 1371.24 578.941 1374.81 Q580.77 1378.35 584.381 1378.35 Q588.015 1378.35 589.821 1374.81 Q591.649 1371.24 591.649 1364.14 Q591.649 1357.01 589.821 1353.47 Q588.015 1349.9 584.381 1349.9 M584.381 1346.2 Q590.191 1346.2 593.247 1350.8 Q596.325 1355.39 596.325 1364.14 Q596.325 1372.86 593.247 1377.47 Q590.191 1382.05 584.381 1382.05 Q578.571 1382.05 575.492 1377.47 Q572.437 1372.86 572.437 1364.14 Q572.437 1355.39 575.492 1350.8 Q578.571 1346.2 584.381 1346.2 Z" fill="#000000" fill-rule="evenodd" fill-opacity="1" /><path clip-path="url(#clip630)" d="M 0 0 M549.011 1060.69 Q545.4 1060.69 543.571 1064.26 Q541.765 1067.8 541.765 1074.93 Q541.765 1082.04 543.571 1085.6 Q545.4 1089.14 549.011 1089.14 Q552.645 1089.14 554.451 1085.6 Q556.279 1082.04 556.279 1074.93 Q556.279 1067.8 554.451 1064.26 Q552.645 1060.69 549.011 1060.69 M549.011 1056.99 Q554.821 1056.99 557.876 1061.6 Q560.955 1066.18 560.955 1074.93 Q560.955 1083.66 557.876 1088.26 Q554.821 1092.85 549.011 1092.85 Q543.201 1092.85 540.122 1088.26 Q537.066 1083.66 537.066 1074.93 Q537.066 1066.18 540.122 1061.6 Q543.201 1056.99 549.011 1056.99 Z" fill="#000000" fill-rule="evenodd" fill-opacity="1" /><path clip-path="url(#clip630)" d="M 0 0 M566.025 1086.3 L570.909 1086.3 L570.909 1092.17 L566.025 1092.17 L566.025 1086.3 Z" fill="#000000" fill-rule="evenodd" fill-opacity="1" /><path clip-path="url(#clip630)" d="M 0 0 M580.006 1088.24 L596.325 1088.24 L596.325 1092.17 L574.381 1092.17 L574.381 1088.24 Q577.043 1085.49 581.626 1080.86 Q586.233 1076.2 587.413 1074.86 Q589.659 1072.34 590.538 1070.6 Q591.441 1068.84 591.441 1067.15 Q591.441 1064.4 589.497 1062.66 Q587.575 1060.92 584.474 1060.92 Q582.274 1060.92 579.821 1061.69 Q577.39 1062.45 574.612 1064 L574.612 1059.28 Q577.437 1058.15 579.89 1057.57 Q582.344 1056.99 584.381 1056.99 Q589.751 1056.99 592.946 1059.68 Q596.14 1062.36 596.14 1066.85 Q596.14 1068.98 595.33 1070.9 Q594.543 1072.8 592.436 1075.39 Q591.858 1076.06 588.756 1079.28 Q585.654 1082.48 580.006 1088.24 Z" fill="#000000" fill-rule="evenodd" fill-opacity="1" /><path clip-path="url(#clip630)" d="M 0 0 M546.927 771.486 Q543.316 771.486 541.488 775.051 Q539.682 778.593 539.682 785.722 Q539.682 792.829 541.488 796.393 Q543.316 799.935 546.927 799.935 Q550.562 799.935 552.367 796.393 Q554.196 792.829 554.196 785.722 Q554.196 778.593 552.367 775.051 Q550.562 771.486 546.927 771.486 M546.927 767.782 Q552.738 767.782 555.793 772.389 Q558.872 776.972 558.872 785.722 Q558.872 794.449 555.793 799.055 Q552.738 803.639 546.927 803.639 Q541.117 803.639 538.039 799.055 Q534.983 794.449 534.983 785.722 Q534.983 776.972 538.039 772.389 Q541.117 767.782 546.927 767.782 Z" fill="#000000" fill-rule="evenodd" fill-opacity="1" /><path clip-path="url(#clip630)" d="M 0 0 M563.941 797.088 L568.825 797.088 L568.825 802.967 L563.941 802.967 L563.941 797.088 Z" fill="#000000" fill-rule="evenodd" fill-opacity="1" /><path clip-path="url(#clip630)" d="M 0 0 M586.742 772.481 L574.937 790.93 L586.742 790.93 L586.742 772.481 M585.515 768.407 L591.395 768.407 L591.395 790.93 L596.325 790.93 L596.325 794.819 L591.395 794.819 L591.395 802.967 L586.742 802.967 L586.742 794.819 L571.14 794.819 L571.14 790.305 L585.515 768.407 Z" fill="#000000" fill-rule="evenodd" fill-opacity="1" /><path clip-path="url(#clip630)" d="M 0 0 M547.251 482.279 Q543.64 482.279 541.812 485.844 Q540.006 489.385 540.006 496.515 Q540.006 503.621 541.812 507.186 Q543.64 510.728 547.251 510.728 Q550.886 510.728 552.691 507.186 Q554.52 503.621 554.52 496.515 Q554.52 489.385 552.691 485.844 Q550.886 482.279 547.251 482.279 M547.251 478.575 Q553.062 478.575 556.117 483.182 Q559.196 487.765 559.196 496.515 Q559.196 505.242 556.117 509.848 Q553.062 514.431 547.251 514.431 Q541.441 514.431 538.363 509.848 Q535.307 505.242 535.307 496.515 Q535.307 487.765 538.363 483.182 Q541.441 478.575 547.251 478.575 Z" fill="#000000" fill-rule="evenodd" fill-opacity="1" /><path clip-path="url(#clip630)" d="M 0 0 M564.265 507.88 L569.15 507.88 L569.15 513.76 L564.265 513.76 L564.265 507.88 Z" fill="#000000" fill-rule="evenodd" fill-opacity="1" /><path clip-path="url(#clip630)" d="M 0 0 M584.798 494.617 Q581.649 494.617 579.798 496.769 Q577.969 498.922 577.969 502.672 Q577.969 506.399 579.798 508.575 Q581.649 510.728 584.798 510.728 Q587.946 510.728 589.774 508.575 Q591.626 506.399 591.626 502.672 Q591.626 498.922 589.774 496.769 Q587.946 494.617 584.798 494.617 M594.08 479.964 L594.08 484.223 Q592.321 483.39 590.515 482.95 Q588.733 482.51 586.974 482.51 Q582.344 482.51 579.89 485.635 Q577.46 488.76 577.112 495.08 Q578.478 493.066 580.538 492.001 Q582.599 490.913 585.075 490.913 Q590.284 490.913 593.293 494.084 Q596.325 497.232 596.325 502.672 Q596.325 507.996 593.177 511.214 Q590.029 514.431 584.798 514.431 Q578.802 514.431 575.631 509.848 Q572.46 505.242 572.46 496.515 Q572.46 488.32 576.349 483.459 Q580.237 478.575 586.788 478.575 Q588.548 478.575 590.33 478.922 Q592.136 479.27 594.08 479.964 Z" fill="#000000" fill-rule="evenodd" fill-opacity="1" /><path clip-path="url(#clip630)" d="M 0 0 M547.506 193.071 Q543.895 193.071 542.066 196.636 Q540.261 200.178 540.261 207.307 Q540.261 214.414 542.066 217.979 Q543.895 221.52 547.506 221.52 Q551.14 221.52 552.946 217.979 Q554.775 214.414 554.775 207.307 Q554.775 200.178 552.946 196.636 Q551.14 193.071 547.506 193.071 M547.506 189.368 Q553.316 189.368 556.372 193.974 Q559.451 198.557 559.451 207.307 Q559.451 216.034 556.372 220.641 Q553.316 225.224 547.506 225.224 Q541.696 225.224 538.617 220.641 Q535.562 216.034 535.562 207.307 Q535.562 198.557 538.617 193.974 Q541.696 189.368 547.506 189.368 Z" fill="#000000" fill-rule="evenodd" fill-opacity="1" /><path clip-path="url(#clip630)" d="M 0 0 M564.52 218.673 L569.404 218.673 L569.404 224.553 L564.52 224.553 L564.52 218.673 Z" fill="#000000" fill-rule="evenodd" fill-opacity="1" /><path clip-path="url(#clip630)" d="M 0 0 M584.474 208.141 Q581.14 208.141 579.219 209.923 Q577.321 211.706 577.321 214.83 Q577.321 217.955 579.219 219.738 Q581.14 221.52 584.474 221.52 Q587.807 221.52 589.728 219.738 Q591.649 217.932 591.649 214.83 Q591.649 211.706 589.728 209.923 Q587.83 208.141 584.474 208.141 M579.798 206.15 Q576.788 205.409 575.099 203.349 Q573.432 201.289 573.432 198.326 Q573.432 194.182 576.372 191.775 Q579.335 189.368 584.474 189.368 Q589.636 189.368 592.575 191.775 Q595.515 194.182 595.515 198.326 Q595.515 201.289 593.825 203.349 Q592.159 205.409 589.173 206.15 Q592.552 206.937 594.427 209.229 Q596.325 211.52 596.325 214.83 Q596.325 219.854 593.247 222.539 Q590.191 225.224 584.474 225.224 Q578.756 225.224 575.677 222.539 Q572.622 219.854 572.622 214.83 Q572.622 211.52 574.52 209.229 Q576.418 206.937 579.798 206.15 M578.085 198.766 Q578.085 201.451 579.751 202.956 Q581.441 204.46 584.474 204.46 Q587.483 204.46 589.173 202.956 Q590.886 201.451 590.886 198.766 Q590.886 196.081 589.173 194.576 Q587.483 193.071 584.474 193.071 Q581.441 193.071 579.751 194.576 Q578.085 196.081 578.085 198.766 Z" fill="#000000" fill-rule="evenodd" fill-opacity="1" /><path clip-path="url(#clip630)" d="M 0 0 M478.49 828.469 L459.202 828.469 L459.202 822.612 L508.727 822.612 L508.727 828.469 L503.38 828.469 Q506.563 830.315 508.122 833.148 Q509.65 835.949 509.65 839.895 Q509.65 846.357 504.494 850.431 Q499.338 854.473 490.935 854.473 Q482.532 854.473 477.376 850.431 Q472.22 846.357 472.22 839.895 Q472.22 835.949 473.779 833.148 Q475.307 830.315 478.49 828.469 M490.935 848.425 Q497.396 848.425 501.088 845.784 Q504.748 843.11 504.748 838.463 Q504.748 833.816 501.088 831.143 Q497.396 828.469 490.935 828.469 Q484.474 828.469 480.813 831.143 Q477.121 833.816 477.121 838.463 Q477.121 843.11 480.813 845.784 Q484.474 848.425 490.935 848.425 Z" fill="#000000" fill-rule="evenodd" fill-opacity="1" /><path clip-path="url(#clip630)" d="M 0 0 M489.439 785.978 L492.304 785.978 L492.304 812.905 Q498.351 812.523 501.534 809.276 Q504.685 805.998 504.685 800.173 Q504.685 796.8 503.857 793.649 Q503.03 790.466 501.375 787.346 L506.913 787.346 Q508.25 790.497 508.95 793.808 Q509.65 797.118 509.65 800.523 Q509.65 809.054 504.685 814.051 Q499.72 819.016 491.253 819.016 Q482.5 819.016 477.376 814.305 Q472.22 809.563 472.22 801.542 Q472.22 794.349 476.867 790.179 Q481.482 785.978 489.439 785.978 M487.72 791.834 Q482.914 791.898 480.05 794.54 Q477.185 797.15 477.185 801.478 Q477.185 806.38 479.954 809.34 Q482.723 812.268 487.752 812.714 L487.72 791.834 Z" fill="#000000" fill-rule="evenodd" fill-opacity="1" /><path clip-path="url(#clip630)" d="M 0 0 M490.808 763.634 Q490.808 770.732 492.431 773.469 Q494.054 776.206 497.969 776.206 Q501.088 776.206 502.934 774.169 Q504.748 772.101 504.748 768.568 Q504.748 763.698 501.311 760.77 Q497.842 757.81 492.113 757.81 L490.808 757.81 L490.808 763.634 M488.389 751.953 L508.727 751.953 L508.727 757.81 L503.316 757.81 Q506.563 759.815 508.122 762.807 Q509.65 765.799 509.65 770.127 Q509.65 775.602 506.595 778.848 Q503.507 782.063 498.351 782.063 Q492.335 782.063 489.28 778.053 Q486.224 774.01 486.224 766.021 L486.224 757.81 L485.651 757.81 Q481.609 757.81 479.413 760.483 Q477.185 763.125 477.185 767.931 Q477.185 770.987 477.917 773.883 Q478.649 776.779 480.113 779.453 L474.702 779.453 Q473.461 776.238 472.856 773.215 Q472.22 770.191 472.22 767.326 Q472.22 759.592 476.23 755.773 Q480.241 751.953 488.389 751.953 Z" fill="#000000" fill-rule="evenodd" fill-opacity="1" /><path clip-path="url(#clip630)" d="M 0 0 M462.958 740.017 L473.079 740.017 L473.079 727.954 L477.631 727.954 L477.631 740.017 L496.982 740.017 Q501.343 740.017 502.584 738.84 Q503.825 737.63 503.825 733.97 L503.825 727.954 L508.727 727.954 L508.727 733.97 Q508.727 740.749 506.213 743.328 Q503.666 745.906 496.982 745.906 L477.631 745.906 L477.631 750.203 L473.079 750.203 L473.079 745.906 L462.958 745.906 L462.958 740.017 Z" fill="#000000" fill-rule="evenodd" fill-opacity="1" /><path clip-path="url(#clip630)" d="M 0 0 M487.211 692.179 L508.727 692.179 L508.727 698.036 L487.402 698.036 Q482.341 698.036 479.827 700.009 Q477.312 701.982 477.312 705.929 Q477.312 710.672 480.336 713.409 Q483.36 716.146 488.58 716.146 L508.727 716.146 L508.727 722.034 L459.202 722.034 L459.202 716.146 L478.617 716.146 Q475.403 714.045 473.811 711.213 Q472.22 708.348 472.22 704.624 Q472.22 698.481 476.039 695.33 Q479.827 692.179 487.211 692.179 Z" fill="#000000" fill-rule="evenodd" fill-opacity="1" /><path clip-path="url(#clip630)" d="M 0 0 M910.124 18.8205 L910.124 41.5461 L920.413 41.5461 Q926.125 41.5461 929.244 38.5889 Q932.363 35.6318 932.363 30.163 Q932.363 24.7348 929.244 21.7777 Q926.125 18.8205 920.413 18.8205 L910.124 18.8205 M901.941 12.096 L920.413 12.096 Q930.581 12.096 935.766 16.714 Q940.992 21.2916 940.992 30.163 Q940.992 39.1155 935.766 43.6931 Q930.581 48.2706 920.413 48.2706 L910.124 48.2706 L910.124 72.576 L901.941 72.576 L901.941 12.096 Z" fill="#000000" fill-rule="evenodd" fill-opacity="1" /><path clip-path="url(#clip630)" d="M 0 0 M984.661 48.0275 L984.661 51.6733 L950.39 51.6733 Q950.876 59.3701 955.008 63.421 Q959.18 67.4314 966.593 67.4314 Q970.887 67.4314 974.898 66.3781 Q978.949 65.3249 982.919 63.2184 L982.919 70.267 Q978.908 71.9684 974.695 72.8596 Q970.482 73.7508 966.148 73.7508 Q955.291 73.7508 948.932 67.4314 Q942.612 61.1119 942.612 50.3365 Q942.612 39.1965 948.607 32.6746 Q954.643 26.1121 964.852 26.1121 Q974.007 26.1121 979.313 32.0264 Q984.661 37.9003 984.661 48.0275 M977.207 45.84 Q977.126 39.7232 973.764 36.0774 Q970.442 32.4315 964.933 32.4315 Q958.694 32.4315 954.927 35.9558 Q951.2 39.4801 950.633 45.8805 L977.207 45.84 Z" fill="#000000" fill-rule="evenodd" fill-opacity="1" /><path clip-path="url(#clip630)" d="M 0 0 M1018.77 34.1734 Q1017.51 33.4443 1016.01 33.1202 Q1014.56 32.7556 1012.77 32.7556 Q1006.45 32.7556 1003.05 36.8875 Q999.689 40.9789 999.689 48.6757 L999.689 72.576 L992.195 72.576 L992.195 27.2059 L999.689 27.2059 L999.689 34.2544 Q1002.04 30.1225 1005.81 28.1376 Q1009.57 26.1121 1014.96 26.1121 Q1015.73 26.1121 1016.66 26.2337 Q1017.59 26.3147 1018.73 26.5172 L1018.77 34.1734 Z" fill="#000000" fill-rule="evenodd" fill-opacity="1" /><path clip-path="url(#clip630)" d="M 0 0 M1055.51 28.5427 L1055.51 35.5912 Q1052.35 33.9709 1048.95 33.1607 Q1045.55 32.3505 1041.9 32.3505 Q1036.35 32.3505 1033.55 34.0519 Q1030.8 35.7533 1030.8 39.156 Q1030.8 41.7486 1032.79 43.2475 Q1034.77 44.7058 1040.77 46.0426 L1043.32 46.6097 Q1051.26 48.3111 1054.58 51.4303 Q1057.94 54.509 1057.94 60.0587 Q1057.94 66.3781 1052.92 70.0644 Q1047.94 73.7508 1039.19 73.7508 Q1035.54 73.7508 1031.57 73.0216 Q1027.64 72.3329 1023.27 70.9151 L1023.27 63.2184 Q1027.4 65.3654 1031.41 66.4591 Q1035.42 67.5124 1039.35 67.5124 Q1044.61 67.5124 1047.45 65.73 Q1050.29 63.9071 1050.29 60.6258 Q1050.29 57.5877 1048.22 55.9673 Q1046.19 54.3469 1039.27 52.8481 L1036.67 52.2405 Q1029.75 50.7821 1026.67 47.7845 Q1023.59 44.7463 1023.59 39.4801 Q1023.59 33.0797 1028.13 29.5959 Q1032.66 26.1121 1041.01 26.1121 Q1045.14 26.1121 1048.79 26.7198 Q1052.43 27.3274 1055.51 28.5427 Z" fill="#000000" fill-rule="evenodd" fill-opacity="1" /><path clip-path="url(#clip630)" d="M 0 0 M1065.76 27.2059 L1073.21 27.2059 L1073.21 72.576 L1065.76 72.576 L1065.76 27.2059 M1065.76 9.54393 L1073.21 9.54393 L1073.21 18.9825 L1065.76 18.9825 L1065.76 9.54393 Z" fill="#000000" fill-rule="evenodd" fill-opacity="1" /><path clip-path="url(#clip630)" d="M 0 0 M1109.95 28.5427 L1109.95 35.5912 Q1106.8 33.9709 1103.39 33.1607 Q1099.99 32.3505 1096.34 32.3505 Q1090.79 32.3505 1088 34.0519 Q1085.24 35.7533 1085.24 39.156 Q1085.24 41.7486 1087.23 43.2475 Q1089.21 44.7058 1095.21 46.0426 L1097.76 46.6097 Q1105.7 48.3111 1109.02 51.4303 Q1112.39 54.509 1112.39 60.0587 Q1112.39 66.3781 1107.36 70.0644 Q1102.38 73.7508 1093.63 73.7508 Q1089.98 73.7508 1086.01 73.0216 Q1082.08 72.3329 1077.71 70.9151 L1077.71 63.2184 Q1081.84 65.3654 1085.85 66.4591 Q1089.86 67.5124 1093.79 67.5124 Q1099.06 67.5124 1101.89 65.73 Q1104.73 63.9071 1104.73 60.6258 Q1104.73 57.5877 1102.66 55.9673 Q1100.64 54.3469 1093.71 52.8481 L1091.12 52.2405 Q1084.19 50.7821 1081.11 47.7845 Q1078.03 44.7463 1078.03 39.4801 Q1078.03 33.0797 1082.57 29.5959 Q1087.11 26.1121 1095.45 26.1121 Q1099.58 26.1121 1103.23 26.7198 Q1106.88 27.3274 1109.95 28.5427 Z" fill="#000000" fill-rule="evenodd" fill-opacity="1" /><path clip-path="url(#clip630)" d="M 0 0 M1127.58 14.324 L1127.58 27.2059 L1142.93 27.2059 L1142.93 32.9987 L1127.58 32.9987 L1127.58 57.6282 Q1127.58 63.1779 1129.08 64.7578 Q1130.61 66.3376 1135.27 66.3376 L1142.93 66.3376 L1142.93 72.576 L1135.27 72.576 Q1126.64 72.576 1123.36 69.3758 Q1120.08 66.1351 1120.08 57.6282 L1120.08 32.9987 L1114.61 32.9987 L1114.61 27.2059 L1120.08 27.2059 L1120.08 14.324 L1127.58 14.324 Z" fill="#000000" fill-rule="evenodd" fill-opacity="1" /><path clip-path="url(#clip630)" d="M 0 0 M1189.56 48.0275 L1189.56 51.6733 L1155.28 51.6733 Q1155.77 59.3701 1159.9 63.421 Q1164.08 67.4314 1171.49 67.4314 Q1175.78 67.4314 1179.79 66.3781 Q1183.84 65.3249 1187.81 63.2184 L1187.81 70.267 Q1183.8 71.9684 1179.59 72.8596 Q1175.38 73.7508 1171.04 73.7508 Q1160.19 73.7508 1153.83 67.4314 Q1147.51 61.1119 1147.51 50.3365 Q1147.51 39.1965 1153.5 32.6746 Q1159.54 26.1121 1169.75 26.1121 Q1178.9 26.1121 1184.21 32.0264 Q1189.56 37.9003 1189.56 48.0275 M1182.1 45.84 Q1182.02 39.7232 1178.66 36.0774 Q1175.34 32.4315 1169.83 32.4315 Q1163.59 32.4315 1159.82 35.9558 Q1156.09 39.4801 1155.53 45.8805 L1182.1 45.84 Z" fill="#000000" fill-rule="evenodd" fill-opacity="1" /><path clip-path="url(#clip630)" d="M 0 0 M1235.09 45.1919 L1235.09 72.576 L1227.63 72.576 L1227.63 45.4349 Q1227.63 38.994 1225.12 35.7938 Q1222.61 32.5936 1217.59 32.5936 Q1211.55 32.5936 1208.07 36.4419 Q1204.58 40.2903 1204.58 46.9338 L1204.58 72.576 L1197.09 72.576 L1197.09 27.2059 L1204.58 27.2059 L1204.58 34.2544 Q1207.26 30.163 1210.86 28.1376 Q1214.51 26.1121 1219.25 26.1121 Q1227.07 26.1121 1231.08 30.9732 Q1235.09 35.7938 1235.09 45.1919 Z" fill="#000000" fill-rule="evenodd" fill-opacity="1" /><path clip-path="url(#clip630)" d="M 0 0 M1275.56 28.9478 L1275.56 35.9153 Q1272.4 34.1734 1269.2 33.3227 Q1266.04 32.4315 1262.8 32.4315 Q1255.54 32.4315 1251.53 37.0496 Q1247.52 41.6271 1247.52 49.9314 Q1247.52 58.2358 1251.53 62.8538 Q1255.54 67.4314 1262.8 67.4314 Q1266.04 67.4314 1269.2 66.5807 Q1272.4 65.6895 1275.56 63.9476 L1275.56 70.8341 Q1272.44 72.2924 1269.07 73.0216 Q1265.75 73.7508 1261.99 73.7508 Q1251.74 73.7508 1245.7 67.3098 Q1239.66 60.8689 1239.66 49.9314 Q1239.66 38.832 1245.74 32.472 Q1251.86 26.1121 1262.47 26.1121 Q1265.91 26.1121 1269.2 26.8413 Q1272.48 27.5299 1275.56 28.9478 Z" fill="#000000" fill-rule="evenodd" fill-opacity="1" /><path clip-path="url(#clip630)" d="M 0 0 M1322.18 48.0275 L1322.18 51.6733 L1287.91 51.6733 Q1288.4 59.3701 1292.53 63.421 Q1296.7 67.4314 1304.11 67.4314 Q1308.41 67.4314 1312.42 66.3781 Q1316.47 65.3249 1320.44 63.2184 L1320.44 70.267 Q1316.43 71.9684 1312.22 72.8596 Q1308 73.7508 1303.67 73.7508 Q1292.81 73.7508 1286.45 67.4314 Q1280.13 61.1119 1280.13 50.3365 Q1280.13 39.1965 1286.13 32.6746 Q1292.16 26.1121 1302.37 26.1121 Q1311.53 26.1121 1316.83 32.0264 Q1322.18 37.9003 1322.18 48.0275 M1314.73 45.84 Q1314.65 39.7232 1311.28 36.0774 Q1307.96 32.4315 1302.45 32.4315 Q1296.22 32.4315 1292.45 35.9558 Q1288.72 39.4801 1288.15 45.8805 L1314.73 45.84 Z" fill="#000000" fill-rule="evenodd" fill-opacity="1" /><path clip-path="url(#clip630)" d="M 0 0 M1364.88 18.8205 L1364.88 65.8515 L1374.76 65.8515 Q1387.28 65.8515 1393.07 60.1802 Q1398.91 54.509 1398.91 42.2752 Q1398.91 30.1225 1393.07 24.4918 Q1387.28 18.8205 1374.76 18.8205 L1364.88 18.8205 M1356.7 12.096 L1373.51 12.096 Q1391.09 12.096 1399.31 19.4281 Q1407.53 26.7198 1407.53 42.2752 Q1407.53 57.9117 1399.27 65.2439 Q1391.01 72.576 1373.51 72.576 L1356.7 72.576 L1356.7 12.096 Z" fill="#000000" fill-rule="evenodd" fill-opacity="1" /><path clip-path="url(#clip630)" d="M 0 0 M1415.35 27.2059 L1422.81 27.2059 L1422.81 72.576 L1415.35 72.576 L1415.35 27.2059 M1415.35 9.54393 L1422.81 9.54393 L1422.81 18.9825 L1415.35 18.9825 L1415.35 9.54393 Z" fill="#000000" fill-rule="evenodd" fill-opacity="1" /><path clip-path="url(#clip630)" d="M 0 0 M1451.24 49.7694 Q1442.21 49.7694 1438.73 51.8354 Q1435.24 53.9013 1435.24 58.8839 Q1435.24 62.8538 1437.84 65.2034 Q1440.47 67.5124 1444.96 67.5124 Q1451.16 67.5124 1454.89 63.1374 Q1458.66 58.7219 1458.66 51.4303 L1458.66 49.7694 L1451.24 49.7694 M1466.11 46.6907 L1466.11 72.576 L1458.66 72.576 L1458.66 65.6895 Q1456.1 69.8214 1452.3 71.8063 Q1448.49 73.7508 1442.98 73.7508 Q1436.01 73.7508 1431.88 69.8619 Q1427.79 65.9325 1427.79 59.3701 Q1427.79 51.7138 1432.89 47.825 Q1438.04 43.9361 1448.21 43.9361 L1458.66 43.9361 L1458.66 43.2069 Q1458.66 38.0623 1455.25 35.2672 Q1451.89 32.4315 1445.77 32.4315 Q1441.89 32.4315 1438.2 33.3632 Q1434.51 34.295 1431.11 36.1584 L1431.11 29.2718 Q1435.2 27.692 1439.05 26.9223 Q1442.9 26.1121 1446.54 26.1121 Q1456.39 26.1121 1461.25 31.2163 Q1466.11 36.3204 1466.11 46.6907 Z" fill="#000000" fill-rule="evenodd" fill-opacity="1" /><path clip-path="url(#clip630)" d="M 0 0 M1503.78 49.3643 Q1503.78 41.2625 1500.42 36.8065 Q1497.1 32.3505 1491.06 32.3505 Q1485.07 32.3505 1481.71 36.8065 Q1478.38 41.2625 1478.38 49.3643 Q1478.38 57.4256 1481.71 61.8816 Q1485.07 66.3376 1491.06 66.3376 Q1497.1 66.3376 1500.42 61.8816 Q1503.78 57.4256 1503.78 49.3643 M1511.24 66.9452 Q1511.24 78.5308 1506.09 84.1616 Q1500.95 89.8329 1490.33 89.8329 Q1486.41 89.8329 1482.92 89.2252 Q1479.44 88.6581 1476.16 87.4428 L1476.16 80.1917 Q1479.44 81.9741 1482.64 82.8248 Q1485.84 83.6755 1489.16 83.6755 Q1496.49 83.6755 1500.14 79.8271 Q1503.78 76.0193 1503.78 68.282 L1503.78 64.5957 Q1501.47 68.6061 1497.87 70.5911 Q1494.26 72.576 1489.24 72.576 Q1480.9 72.576 1475.79 66.2161 Q1470.69 59.8562 1470.69 49.3643 Q1470.69 38.832 1475.79 32.472 Q1480.9 26.1121 1489.24 26.1121 Q1494.26 26.1121 1497.87 28.0971 Q1501.47 30.082 1503.78 34.0924 L1503.78 27.2059 L1511.24 27.2059 L1511.24 66.9452 Z" fill="#000000" fill-rule="evenodd" fill-opacity="1" /><path clip-path="url(#clip630)" d="M 0 0 M1545.35 34.1734 Q1544.09 33.4443 1542.59 33.1202 Q1541.13 32.7556 1539.35 32.7556 Q1533.03 32.7556 1529.63 36.8875 Q1526.27 40.9789 1526.27 48.6757 L1526.27 72.576 L1518.77 72.576 L1518.77 27.2059 L1526.27 27.2059 L1526.27 34.2544 Q1528.62 30.1225 1532.38 28.1376 Q1536.15 26.1121 1541.54 26.1121 Q1542.31 26.1121 1543.24 26.2337 Q1544.17 26.3147 1545.31 26.5172 L1545.35 34.1734 Z" fill="#000000" fill-rule="evenodd" fill-opacity="1" /><path clip-path="url(#clip630)" d="M 0 0 M1573.78 49.7694 Q1564.75 49.7694 1561.27 51.8354 Q1557.78 53.9013 1557.78 58.8839 Q1557.78 62.8538 1560.38 65.2034 Q1563.01 67.5124 1567.5 67.5124 Q1573.7 67.5124 1577.43 63.1374 Q1581.2 58.7219 1581.2 51.4303 L1581.2 49.7694 L1573.78 49.7694 M1588.65 46.6907 L1588.65 72.576 L1581.2 72.576 L1581.2 65.6895 Q1578.64 69.8214 1574.84 71.8063 Q1571.03 73.7508 1565.52 73.7508 Q1558.55 73.7508 1554.42 69.8619 Q1550.33 65.9325 1550.33 59.3701 Q1550.33 51.7138 1555.43 47.825 Q1560.58 43.9361 1570.75 43.9361 L1581.2 43.9361 L1581.2 43.2069 Q1581.2 38.0623 1577.79 35.2672 Q1574.43 32.4315 1568.31 32.4315 Q1564.43 32.4315 1560.74 33.3632 Q1557.05 34.295 1553.65 36.1584 L1553.65 29.2718 Q1557.74 27.692 1561.59 26.9223 Q1565.44 26.1121 1569.08 26.1121 Q1578.93 26.1121 1583.79 31.2163 Q1588.65 36.3204 1588.65 46.6907 Z" fill="#000000" fill-rule="evenodd" fill-opacity="1" /><path clip-path="url(#clip630)" d="M 0 0 M1631.79 35.9153 Q1634.59 30.8922 1638.48 28.5022 Q1642.37 26.1121 1647.63 26.1121 Q1654.72 26.1121 1658.57 31.0947 Q1662.42 36.0368 1662.42 45.1919 L1662.42 72.576 L1654.92 72.576 L1654.92 45.4349 Q1654.92 38.913 1652.61 35.7533 Q1650.31 32.5936 1645.57 32.5936 Q1639.77 32.5936 1636.41 36.4419 Q1633.05 40.2903 1633.05 46.9338 L1633.05 72.576 L1625.55 72.576 L1625.55 45.4349 Q1625.55 38.8725 1623.25 35.7533 Q1620.94 32.5936 1616.12 32.5936 Q1610.4 32.5936 1607.04 36.4824 Q1603.68 40.3308 1603.68 46.9338 L1603.68 72.576 L1596.19 72.576 L1596.19 27.2059 L1603.68 27.2059 L1603.68 34.2544 Q1606.23 30.082 1609.8 28.0971 Q1613.36 26.1121 1618.26 26.1121 Q1623.2 26.1121 1626.65 28.6237 Q1630.13 31.1352 1631.79 35.9153 Z" fill="#000000" fill-rule="evenodd" fill-opacity="1" /><polyline clip-path="url(#clip632)" style="stroke:#000000; stroke-width:4; stroke-opacity:1; fill:none" points="
  632.325,1423.18 645.018,1410.49 762.38,1293.12 832.91,1222.59 892.543,1162.96 957.32,1098.19 1017.04,1038.47 1081.06,974.442 1155.24,900.262 1221.16,834.341 
  1278.97,776.533 1342,713.508 1405.4,650.107 1475.49,580.01 1542.19,513.315 1611.54,443.967 1669.91,385.591 1741.18,314.32 1808.18,247.324 1915.51,139.99 
  1932.03,123.472 
  "/>
<polyline clip-path="url(#clip632)" style="stroke:#808080; stroke-width:4; stroke-opacity:1; fill:none" stroke-dasharray="2, 4" points="
  -667.382,182.55 3231.74,182.55 
  "/>
<circle clip-path="url(#clip632)" cx="691.403" cy="1331.83" r="14" fill="#009af9" fill-rule="evenodd" fill-opacity="0.5" stroke="none"/>
<circle clip-path="url(#clip632)" cx="691.403" cy="1329.1" r="14" fill="#009af9" fill-rule="evenodd" fill-opacity="0.5" stroke="none"/>
<circle clip-path="url(#clip632)" cx="691.403" cy="1326.52" r="14" fill="#009af9" fill-rule="evenodd" fill-opacity="0.5" stroke="none"/>
<circle clip-path="url(#clip632)" cx="691.403" cy="1323.35" r="14" fill="#009af9" fill-rule="evenodd" fill-opacity="0.5" stroke="none"/>
<circle clip-path="url(#clip632)" cx="691.403" cy="1317.9" r="14" fill="#009af9" fill-rule="evenodd" fill-opacity="0.5" stroke="none"/>
<circle clip-path="url(#clip632)" cx="691.403" cy="1311.94" r="14" fill="#009af9" fill-rule="evenodd" fill-opacity="0.5" stroke="none"/>
<circle clip-path="url(#clip632)" cx="691.403" cy="1309.52" r="14" fill="#009af9" fill-rule="evenodd" fill-opacity="0.5" stroke="none"/>
<circle clip-path="url(#clip632)" cx="691.403" cy="1309.44" r="14" fill="#009af9" fill-rule="evenodd" fill-opacity="0.5" stroke="none"/>
<circle clip-path="url(#clip632)" cx="691.403" cy="1303.61" r="14" fill="#009af9" fill-rule="evenodd" fill-opacity="0.5" stroke="none"/>
<circle clip-path="url(#clip632)" cx="691.403" cy="1299.89" r="14" fill="#009af9" fill-rule="evenodd" fill-opacity="0.5" stroke="none"/>
<circle clip-path="url(#clip632)" cx="691.403" cy="1297.17" r="14" fill="#009af9" fill-rule="evenodd" fill-opacity="0.5" stroke="none"/>
<circle clip-path="url(#clip632)" cx="691.403" cy="1295.52" r="14" fill="#009af9" fill-rule="evenodd" fill-opacity="0.5" stroke="none"/>
<circle clip-path="url(#clip632)" cx="691.403" cy="1292.91" r="14" fill="#009af9" fill-rule="evenodd" fill-opacity="0.5" stroke="none"/>
<circle clip-path="url(#clip632)" cx="691.403" cy="1292.14" r="14" fill="#009af9" fill-rule="evenodd" fill-opacity="0.5" stroke="none"/>
<circle clip-path="url(#clip632)" cx="691.403" cy="1291.54" r="14" fill="#009af9" fill-rule="evenodd" fill-opacity="0.5" stroke="none"/>
<circle clip-path="url(#clip632)" cx="691.403" cy="1286.87" r="14" fill="#009af9" fill-rule="evenodd" fill-opacity="0.5" stroke="none"/>
<circle clip-path="url(#clip632)" cx="691.403" cy="1285.08" r="14" fill="#009af9" fill-rule="evenodd" fill-opacity="0.5" stroke="none"/>
<circle clip-path="url(#clip632)" cx="691.403" cy="1284.17" r="14" fill="#009af9" fill-rule="evenodd" fill-opacity="0.5" stroke="none"/>
<circle clip-path="url(#clip632)" cx="691.403" cy="1279.9" r="14" fill="#009af9" fill-rule="evenodd" fill-opacity="0.5" stroke="none"/>
<circle clip-path="url(#clip632)" cx="691.403" cy="1271.57" r="14" fill="#009af9" fill-rule="evenodd" fill-opacity="0.5" stroke="none"/>
<circle clip-path="url(#clip632)" cx="691.403" cy="1269.84" r="14" fill="#009af9" fill-rule="evenodd" fill-opacity="0.5" stroke="none"/>
<circle clip-path="url(#clip632)" cx="691.403" cy="1269.54" r="14" fill="#009af9" fill-rule="evenodd" fill-opacity="0.5" stroke="none"/>
<circle clip-path="url(#clip632)" cx="691.403" cy="1269.52" r="14" fill="#009af9" fill-rule="evenodd" fill-opacity="0.5" stroke="none"/>
<circle clip-path="url(#clip632)" cx="691.403" cy="1268.08" r="14" fill="#009af9" fill-rule="evenodd" fill-opacity="0.5" stroke="none"/>
<circle clip-path="url(#clip632)" cx="691.403" cy="1267.36" r="14" fill="#009af9" fill-rule="evenodd" fill-opacity="0.5" stroke="none"/>
<circle clip-path="url(#clip632)" cx="691.403" cy="1266.13" r="14" fill="#009af9" fill-rule="evenodd" fill-opacity="0.5" stroke="none"/>
<circle clip-path="url(#clip632)" cx="691.403" cy="1265.22" r="14" fill="#009af9" fill-rule="evenodd" fill-opacity="0.5" stroke="none"/>
<circle clip-path="url(#clip632)" cx="691.403" cy="1264.61" r="14" fill="#009af9" fill-rule="evenodd" fill-opacity="0.5" stroke="none"/>
<circle clip-path="url(#clip632)" cx="691.403" cy="1262.4" r="14" fill="#009af9" fill-rule="evenodd" fill-opacity="0.5" stroke="none"/>
<circle clip-path="url(#clip632)" cx="691.403" cy="1261.24" r="14" fill="#009af9" fill-rule="evenodd" fill-opacity="0.5" stroke="none"/>
<circle clip-path="url(#clip632)" cx="691.403" cy="1261.15" r="14" fill="#009af9" fill-rule="evenodd" fill-opacity="0.5" stroke="none"/>
<circle clip-path="url(#clip632)" cx="691.403" cy="1259.12" r="14" fill="#009af9" fill-rule="evenodd" fill-opacity="0.5" stroke="none"/>
<circle clip-path="url(#clip632)" cx="691.403" cy="1258.72" r="14" fill="#009af9" fill-rule="evenodd" fill-opacity="0.5" stroke="none"/>
<circle clip-path="url(#clip632)" cx="691.403" cy="1258.55" r="14" fill="#009af9" fill-rule="evenodd" fill-opacity="0.5" stroke="none"/>
<circle clip-path="url(#clip632)" cx="691.403" cy="1255.95" r="14" fill="#009af9" fill-rule="evenodd" fill-opacity="0.5" stroke="none"/>
<circle clip-path="url(#clip632)" cx="691.403" cy="1255.08" r="14" fill="#009af9" fill-rule="evenodd" fill-opacity="0.5" stroke="none"/>
<circle clip-path="url(#clip632)" cx="691.403" cy="1251.8" r="14" fill="#009af9" fill-rule="evenodd" fill-opacity="0.5" stroke="none"/>
<circle clip-path="url(#clip632)" cx="691.403" cy="1250.8" r="14" fill="#009af9" fill-rule="evenodd" fill-opacity="0.5" stroke="none"/>
<circle clip-path="url(#clip632)" cx="691.403" cy="1250.41" r="14" fill="#009af9" fill-rule="evenodd" fill-opacity="0.5" stroke="none"/>
<circle clip-path="url(#clip632)" cx="691.403" cy="1250.27" r="14" fill="#009af9" fill-rule="evenodd" fill-opacity="0.5" stroke="none"/>
<circle clip-path="url(#clip632)" cx="691.403" cy="1249.05" r="14" fill="#009af9" fill-rule="evenodd" fill-opacity="0.5" stroke="none"/>
<circle clip-path="url(#clip632)" cx="691.403" cy="1246.56" r="14" fill="#009af9" fill-rule="evenodd" fill-opacity="0.5" stroke="none"/>
<circle clip-path="url(#clip632)" cx="691.403" cy="1245.94" r="14" fill="#009af9" fill-rule="evenodd" fill-opacity="0.5" stroke="none"/>
<circle clip-path="url(#clip632)" cx="691.403" cy="1245.92" r="14" fill="#009af9" fill-rule="evenodd" fill-opacity="0.5" stroke="none"/>
<circle clip-path="url(#clip632)" cx="691.403" cy="1244.99" r="14" fill="#009af9" fill-rule="evenodd" fill-opacity="0.5" stroke="none"/>
<circle clip-path="url(#clip632)" cx="691.403" cy="1244.39" r="14" fill="#009af9" fill-rule="evenodd" fill-opacity="0.5" stroke="none"/>
<circle clip-path="url(#clip632)" cx="691.403" cy="1243.12" r="14" fill="#009af9" fill-rule="evenodd" fill-opacity="0.5" stroke="none"/>
<circle clip-path="url(#clip632)" cx="691.403" cy="1243.01" r="14" fill="#009af9" fill-rule="evenodd" fill-opacity="0.5" stroke="none"/>
<circle clip-path="url(#clip632)" cx="691.403" cy="1242.72" r="14" fill="#009af9" fill-rule="evenodd" fill-opacity="0.5" stroke="none"/>
<circle clip-path="url(#clip632)" cx="691.403" cy="1242.28" r="14" fill="#009af9" fill-rule="evenodd" fill-opacity="0.5" stroke="none"/>
<circle clip-path="url(#clip632)" cx="691.403" cy="1240.67" r="14" fill="#009af9" fill-rule="evenodd" fill-opacity="0.5" stroke="none"/>
<circle clip-path="url(#clip632)" cx="691.403" cy="1239.48" r="14" fill="#009af9" fill-rule="evenodd" fill-opacity="0.5" stroke="none"/>
<circle clip-path="url(#clip632)" cx="691.403" cy="1237.34" r="14" fill="#009af9" fill-rule="evenodd" fill-opacity="0.5" stroke="none"/>
<circle clip-path="url(#clip632)" cx="691.403" cy="1236.65" r="14" fill="#009af9" fill-rule="evenodd" fill-opacity="0.5" stroke="none"/>
<circle clip-path="url(#clip632)" cx="691.403" cy="1232.41" r="14" fill="#009af9" fill-rule="evenodd" fill-opacity="0.5" stroke="none"/>
<circle clip-path="url(#clip632)" cx="691.403" cy="1230.8" r="14" fill="#009af9" fill-rule="evenodd" fill-opacity="0.5" stroke="none"/>
<circle clip-path="url(#clip632)" cx="691.403" cy="1230.01" r="14" fill="#009af9" fill-rule="evenodd" fill-opacity="0.5" stroke="none"/>
<circle clip-path="url(#clip632)" cx="691.403" cy="1227.76" r="14" fill="#009af9" fill-rule="evenodd" fill-opacity="0.5" stroke="none"/>
<circle clip-path="url(#clip632)" cx="691.403" cy="1226.42" r="14" fill="#009af9" fill-rule="evenodd" fill-opacity="0.5" stroke="none"/>
<circle clip-path="url(#clip632)" cx="691.403" cy="1225.67" r="14" fill="#009af9" fill-rule="evenodd" fill-opacity="0.5" stroke="none"/>
<circle clip-path="url(#clip632)" cx="691.403" cy="1222.93" r="14" fill="#009af9" fill-rule="evenodd" fill-opacity="0.5" stroke="none"/>
<circle clip-path="url(#clip632)" cx="691.403" cy="1222.84" r="14" fill="#009af9" fill-rule="evenodd" fill-opacity="0.5" stroke="none"/>
<circle clip-path="url(#clip632)" cx="691.403" cy="1222.58" r="14" fill="#009af9" fill-rule="evenodd" fill-opacity="0.5" stroke="none"/>
<circle clip-path="url(#clip632)" cx="691.403" cy="1220.93" r="14" fill="#009af9" fill-rule="evenodd" fill-opacity="0.5" stroke="none"/>
<circle clip-path="url(#clip632)" cx="691.403" cy="1219.34" r="14" fill="#009af9" fill-rule="evenodd" fill-opacity="0.5" stroke="none"/>
<circle clip-path="url(#clip632)" cx="691.403" cy="1218.04" r="14" fill="#009af9" fill-rule="evenodd" fill-opacity="0.5" stroke="none"/>
<circle clip-path="url(#clip632)" cx="691.403" cy="1217.82" r="14" fill="#009af9" fill-rule="evenodd" fill-opacity="0.5" stroke="none"/>
<circle clip-path="url(#clip632)" cx="691.403" cy="1217" r="14" fill="#009af9" fill-rule="evenodd" fill-opacity="0.5" stroke="none"/>
<circle clip-path="url(#clip632)" cx="691.403" cy="1216.58" r="14" fill="#009af9" fill-rule="evenodd" fill-opacity="0.5" stroke="none"/>
<circle clip-path="url(#clip632)" cx="691.403" cy="1215.69" r="14" fill="#009af9" fill-rule="evenodd" fill-opacity="0.5" stroke="none"/>
<circle clip-path="url(#clip632)" cx="691.403" cy="1214.29" r="14" fill="#009af9" fill-rule="evenodd" fill-opacity="0.5" stroke="none"/>
<circle clip-path="url(#clip632)" cx="691.403" cy="1213.68" r="14" fill="#009af9" fill-rule="evenodd" fill-opacity="0.5" stroke="none"/>
<circle clip-path="url(#clip632)" cx="691.403" cy="1213.64" r="14" fill="#009af9" fill-rule="evenodd" fill-opacity="0.5" stroke="none"/>
<circle clip-path="url(#clip632)" cx="691.403" cy="1213.32" r="14" fill="#009af9" fill-rule="evenodd" fill-opacity="0.5" stroke="none"/>
<circle clip-path="url(#clip632)" cx="691.403" cy="1211.28" r="14" fill="#009af9" fill-rule="evenodd" fill-opacity="0.5" stroke="none"/>
<circle clip-path="url(#clip632)" cx="691.403" cy="1210.75" r="14" fill="#009af9" fill-rule="evenodd" fill-opacity="0.5" stroke="none"/>
<circle clip-path="url(#clip632)" cx="691.403" cy="1209.11" r="14" fill="#009af9" fill-rule="evenodd" fill-opacity="0.5" stroke="none"/>
<circle clip-path="url(#clip632)" cx="691.403" cy="1208.92" r="14" fill="#009af9" fill-rule="evenodd" fill-opacity="0.5" stroke="none"/>
<circle clip-path="url(#clip632)" cx="691.403" cy="1207.3" r="14" fill="#009af9" fill-rule="evenodd" fill-opacity="0.5" stroke="none"/>
<circle clip-path="url(#clip632)" cx="691.403" cy="1207.24" r="14" fill="#009af9" fill-rule="evenodd" fill-opacity="0.5" stroke="none"/>
<circle clip-path="url(#clip632)" cx="691.403" cy="1205.86" r="14" fill="#009af9" fill-rule="evenodd" fill-opacity="0.5" stroke="none"/>
<circle clip-path="url(#clip632)" cx="691.403" cy="1203.88" r="14" fill="#009af9" fill-rule="evenodd" fill-opacity="0.5" stroke="none"/>
<circle clip-path="url(#clip632)" cx="691.403" cy="1203.79" r="14" fill="#009af9" fill-rule="evenodd" fill-opacity="0.5" stroke="none"/>
<circle clip-path="url(#clip632)" cx="691.403" cy="1203.7" r="14" fill="#009af9" fill-rule="evenodd" fill-opacity="0.5" stroke="none"/>
<circle clip-path="url(#clip632)" cx="691.403" cy="1201.59" r="14" fill="#009af9" fill-rule="evenodd" fill-opacity="0.5" stroke="none"/>
<circle clip-path="url(#clip632)" cx="691.403" cy="1200.76" r="14" fill="#009af9" fill-rule="evenodd" fill-opacity="0.5" stroke="none"/>
<circle clip-path="url(#clip632)" cx="691.403" cy="1199.09" r="14" fill="#009af9" fill-rule="evenodd" fill-opacity="0.5" stroke="none"/>
<circle clip-path="url(#clip632)" cx="691.403" cy="1197.81" r="14" fill="#009af9" fill-rule="evenodd" fill-opacity="0.5" stroke="none"/>
<circle clip-path="url(#clip632)" cx="691.403" cy="1196.44" r="14" fill="#009af9" fill-rule="evenodd" fill-opacity="0.5" stroke="none"/>
<circle clip-path="url(#clip632)" cx="691.403" cy="1195.45" r="14" fill="#009af9" fill-rule="evenodd" fill-opacity="0.5" stroke="none"/>
<circle clip-path="url(#clip632)" cx="691.403" cy="1195.11" r="14" fill="#009af9" fill-rule="evenodd" fill-opacity="0.5" stroke="none"/>
<circle clip-path="url(#clip632)" cx="691.403" cy="1195.02" r="14" fill="#009af9" fill-rule="evenodd" fill-opacity="0.5" stroke="none"/>
<circle clip-path="url(#clip632)" cx="691.403" cy="1193.57" r="14" fill="#009af9" fill-rule="evenodd" fill-opacity="0.5" stroke="none"/>
<circle clip-path="url(#clip632)" cx="691.403" cy="1192.48" r="14" fill="#009af9" fill-rule="evenodd" fill-opacity="0.5" stroke="none"/>
<circle clip-path="url(#clip632)" cx="691.403" cy="1192.4" r="14" fill="#009af9" fill-rule="evenodd" fill-opacity="0.5" stroke="none"/>
<circle clip-path="url(#clip632)" cx="691.403" cy="1192.07" r="14" fill="#009af9" fill-rule="evenodd" fill-opacity="0.5" stroke="none"/>
<circle clip-path="url(#clip632)" cx="691.403" cy="1192.07" r="14" fill="#009af9" fill-rule="evenodd" fill-opacity="0.5" stroke="none"/>
<circle clip-path="url(#clip632)" cx="691.403" cy="1191.4" r="14" fill="#009af9" fill-rule="evenodd" fill-opacity="0.5" stroke="none"/>
<circle clip-path="url(#clip632)" cx="691.403" cy="1190.63" r="14" fill="#009af9" fill-rule="evenodd" fill-opacity="0.5" stroke="none"/>
<circle clip-path="url(#clip632)" cx="691.403" cy="1190.52" r="14" fill="#009af9" fill-rule="evenodd" fill-opacity="0.5" stroke="none"/>
<circle clip-path="url(#clip632)" cx="691.403" cy="1189.85" r="14" fill="#009af9" fill-rule="evenodd" fill-opacity="0.5" stroke="none"/>
<circle clip-path="url(#clip632)" cx="691.403" cy="1189.35" r="14" fill="#009af9" fill-rule="evenodd" fill-opacity="0.5" stroke="none"/>
<circle clip-path="url(#clip632)" cx="691.403" cy="1189.18" r="14" fill="#009af9" fill-rule="evenodd" fill-opacity="0.5" stroke="none"/>
<circle clip-path="url(#clip632)" cx="691.403" cy="1187.44" r="14" fill="#009af9" fill-rule="evenodd" fill-opacity="0.5" stroke="none"/>
<circle clip-path="url(#clip632)" cx="691.403" cy="1187.17" r="14" fill="#009af9" fill-rule="evenodd" fill-opacity="0.5" stroke="none"/>
<circle clip-path="url(#clip632)" cx="691.403" cy="1186.91" r="14" fill="#009af9" fill-rule="evenodd" fill-opacity="0.5" stroke="none"/>
<circle clip-path="url(#clip632)" cx="691.403" cy="1185.45" r="14" fill="#009af9" fill-rule="evenodd" fill-opacity="0.5" stroke="none"/>
<circle clip-path="url(#clip632)" cx="691.403" cy="1185.3" r="14" fill="#009af9" fill-rule="evenodd" fill-opacity="0.5" stroke="none"/>
<circle clip-path="url(#clip632)" cx="691.403" cy="1185.17" r="14" fill="#009af9" fill-rule="evenodd" fill-opacity="0.5" stroke="none"/>
<circle clip-path="url(#clip632)" cx="691.403" cy="1183.67" r="14" fill="#009af9" fill-rule="evenodd" fill-opacity="0.5" stroke="none"/>
<circle clip-path="url(#clip632)" cx="691.403" cy="1183.59" r="14" fill="#009af9" fill-rule="evenodd" fill-opacity="0.5" stroke="none"/>
<circle clip-path="url(#clip632)" cx="691.403" cy="1182.84" r="14" fill="#009af9" fill-rule="evenodd" fill-opacity="0.5" stroke="none"/>
<circle clip-path="url(#clip632)" cx="691.403" cy="1182.32" r="14" fill="#009af9" fill-rule="evenodd" fill-opacity="0.5" stroke="none"/>
<circle clip-path="url(#clip632)" cx="691.403" cy="1182.29" r="14" fill="#009af9" fill-rule="evenodd" fill-opacity="0.5" stroke="none"/>
<circle clip-path="url(#clip632)" cx="691.403" cy="1180.77" r="14" fill="#009af9" fill-rule="evenodd" fill-opacity="0.5" stroke="none"/>
<circle clip-path="url(#clip632)" cx="691.403" cy="1179.51" r="14" fill="#009af9" fill-rule="evenodd" fill-opacity="0.5" stroke="none"/>
<circle clip-path="url(#clip632)" cx="691.403" cy="1179.4" r="14" fill="#009af9" fill-rule="evenodd" fill-opacity="0.5" stroke="none"/>
<circle clip-path="url(#clip632)" cx="691.403" cy="1179" r="14" fill="#009af9" fill-rule="evenodd" fill-opacity="0.5" stroke="none"/>
<circle clip-path="url(#clip632)" cx="691.403" cy="1178.93" r="14" fill="#009af9" fill-rule="evenodd" fill-opacity="0.5" stroke="none"/>
<circle clip-path="url(#clip632)" cx="691.403" cy="1174.5" r="14" fill="#009af9" fill-rule="evenodd" fill-opacity="0.5" stroke="none"/>
<circle clip-path="url(#clip632)" cx="691.403" cy="1173.91" r="14" fill="#009af9" fill-rule="evenodd" fill-opacity="0.5" stroke="none"/>
<circle clip-path="url(#clip632)" cx="691.403" cy="1173.88" r="14" fill="#009af9" fill-rule="evenodd" fill-opacity="0.5" stroke="none"/>
<circle clip-path="url(#clip632)" cx="691.403" cy="1173.38" r="14" fill="#009af9" fill-rule="evenodd" fill-opacity="0.5" stroke="none"/>
<circle clip-path="url(#clip632)" cx="691.403" cy="1169.69" r="14" fill="#009af9" fill-rule="evenodd" fill-opacity="0.5" stroke="none"/>
<circle clip-path="url(#clip632)" cx="691.403" cy="1169.34" r="14" fill="#009af9" fill-rule="evenodd" fill-opacity="0.5" stroke="none"/>
<circle clip-path="url(#clip632)" cx="691.403" cy="1168.4" r="14" fill="#009af9" fill-rule="evenodd" fill-opacity="0.5" stroke="none"/>
<circle clip-path="url(#clip632)" cx="691.403" cy="1166.14" r="14" fill="#009af9" fill-rule="evenodd" fill-opacity="0.5" stroke="none"/>
<circle clip-path="url(#clip632)" cx="691.403" cy="1161.47" r="14" fill="#009af9" fill-rule="evenodd" fill-opacity="0.5" stroke="none"/>
<circle clip-path="url(#clip632)" cx="691.403" cy="1161.32" r="14" fill="#009af9" fill-rule="evenodd" fill-opacity="0.5" stroke="none"/>
<circle clip-path="url(#clip632)" cx="691.403" cy="1160.06" r="14" fill="#009af9" fill-rule="evenodd" fill-opacity="0.5" stroke="none"/>
<circle clip-path="url(#clip632)" cx="691.403" cy="1159.87" r="14" fill="#009af9" fill-rule="evenodd" fill-opacity="0.5" stroke="none"/>
<circle clip-path="url(#clip632)" cx="691.403" cy="1159.82" r="14" fill="#009af9" fill-rule="evenodd" fill-opacity="0.5" stroke="none"/>
<circle clip-path="url(#clip632)" cx="691.403" cy="1159.2" r="14" fill="#009af9" fill-rule="evenodd" fill-opacity="0.5" stroke="none"/>
<circle clip-path="url(#clip632)" cx="691.403" cy="1158.93" r="14" fill="#009af9" fill-rule="evenodd" fill-opacity="0.5" stroke="none"/>
<circle clip-path="url(#clip632)" cx="691.403" cy="1156.24" r="14" fill="#009af9" fill-rule="evenodd" fill-opacity="0.5" stroke="none"/>
<circle clip-path="url(#clip632)" cx="691.403" cy="1155.75" r="14" fill="#009af9" fill-rule="evenodd" fill-opacity="0.5" stroke="none"/>
<circle clip-path="url(#clip632)" cx="691.403" cy="1155.21" r="14" fill="#009af9" fill-rule="evenodd" fill-opacity="0.5" stroke="none"/>
<circle clip-path="url(#clip632)" cx="691.403" cy="1154.89" r="14" fill="#009af9" fill-rule="evenodd" fill-opacity="0.5" stroke="none"/>
<circle clip-path="url(#clip632)" cx="691.403" cy="1154.62" r="14" fill="#009af9" fill-rule="evenodd" fill-opacity="0.5" stroke="none"/>
<circle clip-path="url(#clip632)" cx="691.403" cy="1153.65" r="14" fill="#009af9" fill-rule="evenodd" fill-opacity="0.5" stroke="none"/>
<circle clip-path="url(#clip632)" cx="691.403" cy="1152.55" r="14" fill="#009af9" fill-rule="evenodd" fill-opacity="0.5" stroke="none"/>
<circle clip-path="url(#clip632)" cx="691.403" cy="1148.76" r="14" fill="#009af9" fill-rule="evenodd" fill-opacity="0.5" stroke="none"/>
<circle clip-path="url(#clip632)" cx="691.403" cy="1148.62" r="14" fill="#009af9" fill-rule="evenodd" fill-opacity="0.5" stroke="none"/>
<circle clip-path="url(#clip632)" cx="691.403" cy="1148.16" r="14" fill="#009af9" fill-rule="evenodd" fill-opacity="0.5" stroke="none"/>
<circle clip-path="url(#clip632)" cx="691.403" cy="1147.78" r="14" fill="#009af9" fill-rule="evenodd" fill-opacity="0.5" stroke="none"/>
<circle clip-path="url(#clip632)" cx="691.403" cy="1147.14" r="14" fill="#009af9" fill-rule="evenodd" fill-opacity="0.5" stroke="none"/>
<circle clip-path="url(#clip632)" cx="691.403" cy="1146.95" r="14" fill="#009af9" fill-rule="evenodd" fill-opacity="0.5" stroke="none"/>
<circle clip-path="url(#clip632)" cx="691.403" cy="1146.29" r="14" fill="#009af9" fill-rule="evenodd" fill-opacity="0.5" stroke="none"/>
<circle clip-path="url(#clip632)" cx="691.403" cy="1145.7" r="14" fill="#009af9" fill-rule="evenodd" fill-opacity="0.5" stroke="none"/>
<circle clip-path="url(#clip632)" cx="691.403" cy="1144.91" r="14" fill="#009af9" fill-rule="evenodd" fill-opacity="0.5" stroke="none"/>
<circle clip-path="url(#clip632)" cx="691.403" cy="1144.71" r="14" fill="#009af9" fill-rule="evenodd" fill-opacity="0.5" stroke="none"/>
<circle clip-path="url(#clip632)" cx="691.403" cy="1144.26" r="14" fill="#009af9" fill-rule="evenodd" fill-opacity="0.5" stroke="none"/>
<circle clip-path="url(#clip632)" cx="691.403" cy="1144.23" r="14" fill="#009af9" fill-rule="evenodd" fill-opacity="0.5" stroke="none"/>
<circle clip-path="url(#clip632)" cx="691.403" cy="1143.87" r="14" fill="#009af9" fill-rule="evenodd" fill-opacity="0.5" stroke="none"/>
<circle clip-path="url(#clip632)" cx="691.403" cy="1142.94" r="14" fill="#009af9" fill-rule="evenodd" fill-opacity="0.5" stroke="none"/>
<circle clip-path="url(#clip632)" cx="691.403" cy="1142.03" r="14" fill="#009af9" fill-rule="evenodd" fill-opacity="0.5" stroke="none"/>
<circle clip-path="url(#clip632)" cx="691.403" cy="1141.92" r="14" fill="#009af9" fill-rule="evenodd" fill-opacity="0.5" stroke="none"/>
<circle clip-path="url(#clip632)" cx="691.403" cy="1141.17" r="14" fill="#009af9" fill-rule="evenodd" fill-opacity="0.5" stroke="none"/>
<circle clip-path="url(#clip632)" cx="691.403" cy="1140.73" r="14" fill="#009af9" fill-rule="evenodd" fill-opacity="0.5" stroke="none"/>
<circle clip-path="url(#clip632)" cx="691.403" cy="1139.76" r="14" fill="#009af9" fill-rule="evenodd" fill-opacity="0.5" stroke="none"/>
<circle clip-path="url(#clip632)" cx="691.403" cy="1137.6" r="14" fill="#009af9" fill-rule="evenodd" fill-opacity="0.5" stroke="none"/>
<circle clip-path="url(#clip632)" cx="691.403" cy="1136.17" r="14" fill="#009af9" fill-rule="evenodd" fill-opacity="0.5" stroke="none"/>
<circle clip-path="url(#clip632)" cx="691.403" cy="1135.29" r="14" fill="#009af9" fill-rule="evenodd" fill-opacity="0.5" stroke="none"/>
<circle clip-path="url(#clip632)" cx="691.403" cy="1134.92" r="14" fill="#009af9" fill-rule="evenodd" fill-opacity="0.5" stroke="none"/>
<circle clip-path="url(#clip632)" cx="691.403" cy="1134.07" r="14" fill="#009af9" fill-rule="evenodd" fill-opacity="0.5" stroke="none"/>
<circle clip-path="url(#clip632)" cx="691.403" cy="1133.34" r="14" fill="#009af9" fill-rule="evenodd" fill-opacity="0.5" stroke="none"/>
<circle clip-path="url(#clip632)" cx="691.403" cy="1131.9" r="14" fill="#009af9" fill-rule="evenodd" fill-opacity="0.5" stroke="none"/>
<circle clip-path="url(#clip632)" cx="691.403" cy="1131.33" r="14" fill="#009af9" fill-rule="evenodd" fill-opacity="0.5" stroke="none"/>
<circle clip-path="url(#clip632)" cx="691.403" cy="1131.01" r="14" fill="#009af9" fill-rule="evenodd" fill-opacity="0.5" stroke="none"/>
<circle clip-path="url(#clip632)" cx="691.403" cy="1130.25" r="14" fill="#009af9" fill-rule="evenodd" fill-opacity="0.5" stroke="none"/>
<circle clip-path="url(#clip632)" cx="691.403" cy="1123.08" r="14" fill="#009af9" fill-rule="evenodd" fill-opacity="0.5" stroke="none"/>
<circle clip-path="url(#clip632)" cx="691.403" cy="1122.97" r="14" fill="#009af9" fill-rule="evenodd" fill-opacity="0.5" stroke="none"/>
<circle clip-path="url(#clip632)" cx="691.403" cy="1121.79" r="14" fill="#009af9" fill-rule="evenodd" fill-opacity="0.5" stroke="none"/>
<circle clip-path="url(#clip632)" cx="691.403" cy="1120.9" r="14" fill="#009af9" fill-rule="evenodd" fill-opacity="0.5" stroke="none"/>
<circle clip-path="url(#clip632)" cx="691.403" cy="1120.59" r="14" fill="#009af9" fill-rule="evenodd" fill-opacity="0.5" stroke="none"/>
<circle clip-path="url(#clip632)" cx="691.403" cy="1120.26" r="14" fill="#009af9" fill-rule="evenodd" fill-opacity="0.5" stroke="none"/>
<circle clip-path="url(#clip632)" cx="691.403" cy="1120.15" r="14" fill="#009af9" fill-rule="evenodd" fill-opacity="0.5" stroke="none"/>
<circle clip-path="url(#clip632)" cx="691.403" cy="1120.13" r="14" fill="#009af9" fill-rule="evenodd" fill-opacity="0.5" stroke="none"/>
<circle clip-path="url(#clip632)" cx="691.403" cy="1119.16" r="14" fill="#009af9" fill-rule="evenodd" fill-opacity="0.5" stroke="none"/>
<circle clip-path="url(#clip632)" cx="691.403" cy="1118.64" r="14" fill="#009af9" fill-rule="evenodd" fill-opacity="0.5" stroke="none"/>
<circle clip-path="url(#clip632)" cx="691.403" cy="1117.46" r="14" fill="#009af9" fill-rule="evenodd" fill-opacity="0.5" stroke="none"/>
<circle clip-path="url(#clip632)" cx="691.403" cy="1117.3" r="14" fill="#009af9" fill-rule="evenodd" fill-opacity="0.5" stroke="none"/>
<circle clip-path="url(#clip632)" cx="691.403" cy="1110.51" r="14" fill="#009af9" fill-rule="evenodd" fill-opacity="0.5" stroke="none"/>
<circle clip-path="url(#clip632)" cx="691.403" cy="1102.11" r="14" fill="#009af9" fill-rule="evenodd" fill-opacity="0.5" stroke="none"/>
<circle clip-path="url(#clip632)" cx="691.403" cy="1095.43" r="14" fill="#009af9" fill-rule="evenodd" fill-opacity="0.5" stroke="none"/>
<circle clip-path="url(#clip632)" cx="691.403" cy="1093.95" r="14" fill="#009af9" fill-rule="evenodd" fill-opacity="0.5" stroke="none"/>
<circle clip-path="url(#clip632)" cx="691.403" cy="1091.29" r="14" fill="#009af9" fill-rule="evenodd" fill-opacity="0.5" stroke="none"/>
<circle clip-path="url(#clip632)" cx="691.403" cy="1089.7" r="14" fill="#009af9" fill-rule="evenodd" fill-opacity="0.5" stroke="none"/>
<circle clip-path="url(#clip632)" cx="691.403" cy="1085.87" r="14" fill="#009af9" fill-rule="evenodd" fill-opacity="0.5" stroke="none"/>
<circle clip-path="url(#clip632)" cx="691.403" cy="1084.36" r="14" fill="#009af9" fill-rule="evenodd" fill-opacity="0.5" stroke="none"/>
<circle clip-path="url(#clip632)" cx="691.403" cy="1083.95" r="14" fill="#009af9" fill-rule="evenodd" fill-opacity="0.5" stroke="none"/>
<circle clip-path="url(#clip632)" cx="691.403" cy="1081.47" r="14" fill="#009af9" fill-rule="evenodd" fill-opacity="0.5" stroke="none"/>
<circle clip-path="url(#clip632)" cx="691.403" cy="1073.09" r="14" fill="#009af9" fill-rule="evenodd" fill-opacity="0.5" stroke="none"/>
<circle clip-path="url(#clip632)" cx="691.403" cy="1070.8" r="14" fill="#009af9" fill-rule="evenodd" fill-opacity="0.5" stroke="none"/>
<circle clip-path="url(#clip632)" cx="691.403" cy="1069.42" r="14" fill="#009af9" fill-rule="evenodd" fill-opacity="0.5" stroke="none"/>
<circle clip-path="url(#clip632)" cx="691.403" cy="1068.94" r="14" fill="#009af9" fill-rule="evenodd" fill-opacity="0.5" stroke="none"/>
<circle clip-path="url(#clip632)" cx="691.403" cy="1064.2" r="14" fill="#009af9" fill-rule="evenodd" fill-opacity="0.5" stroke="none"/>
<circle clip-path="url(#clip632)" cx="691.403" cy="1051.88" r="14" fill="#009af9" fill-rule="evenodd" fill-opacity="0.5" stroke="none"/>
<circle clip-path="url(#clip632)" cx="691.403" cy="1034.03" r="14" fill="#009af9" fill-rule="evenodd" fill-opacity="0.5" stroke="none"/>
<circle clip-path="url(#clip632)" cx="691.403" cy="182.55" r="14" fill="#009af9" fill-rule="evenodd" fill-opacity="0.5" stroke="none"/>
<circle clip-path="url(#clip632)" cx="880.054" cy="1175.2" r="14" fill="#e26f46" fill-rule="evenodd" fill-opacity="0.5" stroke="none"/>
<circle clip-path="url(#clip632)" cx="926.325" cy="1126.7" r="14" fill="#e26f46" fill-rule="evenodd" fill-opacity="0.5" stroke="none"/>
<circle clip-path="url(#clip632)" cx="940.482" cy="1111.15" r="14" fill="#e26f46" fill-rule="evenodd" fill-opacity="0.5" stroke="none"/>
<circle clip-path="url(#clip632)" cx="1018.78" cy="1030.9" r="14" fill="#e26f46" fill-rule="evenodd" fill-opacity="0.5" stroke="none"/>
<circle clip-path="url(#clip632)" cx="896.716" cy="1152.82" r="14" fill="#e26f46" fill-rule="evenodd" fill-opacity="0.5" stroke="none"/>
<circle clip-path="url(#clip632)" cx="1032.36" cy="1016.45" r="14" fill="#e26f46" fill-rule="evenodd" fill-opacity="0.5" stroke="none"/>
<circle clip-path="url(#clip632)" cx="1002.24" cy="1046.53" r="14" fill="#e26f46" fill-rule="evenodd" fill-opacity="0.5" stroke="none"/>
<circle clip-path="url(#clip632)" cx="961.652" cy="1086.07" r="14" fill="#e26f46" fill-rule="evenodd" fill-opacity="0.5" stroke="none"/>
<circle clip-path="url(#clip632)" cx="873.632" cy="1173.95" r="14" fill="#e26f46" fill-rule="evenodd" fill-opacity="0.5" stroke="none"/>
<circle clip-path="url(#clip632)" cx="986.482" cy="1060.8" r="14" fill="#e26f46" fill-rule="evenodd" fill-opacity="0.5" stroke="none"/>
<circle clip-path="url(#clip632)" cx="949.909" cy="1097.36" r="14" fill="#e26f46" fill-rule="evenodd" fill-opacity="0.5" stroke="none"/>
<circle clip-path="url(#clip632)" cx="1119.83" cy="927.196" r="14" fill="#e26f46" fill-rule="evenodd" fill-opacity="0.5" stroke="none"/>
<circle clip-path="url(#clip632)" cx="1033.33" cy="1013.3" r="14" fill="#e26f46" fill-rule="evenodd" fill-opacity="0.5" stroke="none"/>
<circle clip-path="url(#clip632)" cx="944.793" cy="1100.61" r="14" fill="#e26f46" fill-rule="evenodd" fill-opacity="0.5" stroke="none"/>
<circle clip-path="url(#clip632)" cx="928.546" cy="1115.17" r="14" fill="#e26f46" fill-rule="evenodd" fill-opacity="0.5" stroke="none"/>
<circle clip-path="url(#clip632)" cx="936.133" cy="1106.96" r="14" fill="#e26f46" fill-rule="evenodd" fill-opacity="0.5" stroke="none"/>
<circle clip-path="url(#clip632)" cx="980.452" cy="1062.09" r="14" fill="#e26f46" fill-rule="evenodd" fill-opacity="0.5" stroke="none"/>
<circle clip-path="url(#clip632)" cx="944.527" cy="1097.84" r="14" fill="#e26f46" fill-rule="evenodd" fill-opacity="0.5" stroke="none"/>
<circle clip-path="url(#clip632)" cx="983.815" cy="1058.51" r="14" fill="#e26f46" fill-rule="evenodd" fill-opacity="0.5" stroke="none"/>
<circle clip-path="url(#clip632)" cx="1026.6" cy="1014.18" r="14" fill="#e26f46" fill-rule="evenodd" fill-opacity="0.5" stroke="none"/>
<circle clip-path="url(#clip632)" cx="996.798" cy="1043.33" r="14" fill="#e26f46" fill-rule="evenodd" fill-opacity="0.5" stroke="none"/>
<circle clip-path="url(#clip632)" cx="840.044" cy="1198.57" r="14" fill="#e26f46" fill-rule="evenodd" fill-opacity="0.5" stroke="none"/>
<circle clip-path="url(#clip632)" cx="915.598" cy="1122.88" r="14" fill="#e26f46" fill-rule="evenodd" fill-opacity="0.5" stroke="none"/>
<circle clip-path="url(#clip632)" cx="1008.82" cy="1028.8" r="14" fill="#e26f46" fill-rule="evenodd" fill-opacity="0.5" stroke="none"/>
<circle clip-path="url(#clip632)" cx="915.585" cy="1120.78" r="14" fill="#e26f46" fill-rule="evenodd" fill-opacity="0.5" stroke="none"/>
<circle clip-path="url(#clip632)" cx="1194.11" cy="841.436" r="14" fill="#e26f46" fill-rule="evenodd" fill-opacity="0.5" stroke="none"/>
<circle clip-path="url(#clip632)" cx="925.016" cy="1109.49" r="14" fill="#e26f46" fill-rule="evenodd" fill-opacity="0.5" stroke="none"/>
<circle clip-path="url(#clip632)" cx="980.383" cy="1052.13" r="14" fill="#e26f46" fill-rule="evenodd" fill-opacity="0.5" stroke="none"/>
<circle clip-path="url(#clip632)" cx="910.647" cy="1121.72" r="14" fill="#e26f46" fill-rule="evenodd" fill-opacity="0.5" stroke="none"/>
<circle clip-path="url(#clip632)" cx="983.554" cy="1047.23" r="14" fill="#e26f46" fill-rule="evenodd" fill-opacity="0.5" stroke="none"/>
<circle clip-path="url(#clip632)" cx="978.627" cy="1052.04" r="14" fill="#e26f46" fill-rule="evenodd" fill-opacity="0.5" stroke="none"/>
<circle clip-path="url(#clip632)" cx="1029.66" cy="1000.98" r="14" fill="#e26f46" fill-rule="evenodd" fill-opacity="0.5" stroke="none"/>
<circle clip-path="url(#clip632)" cx="1037.93" cy="992.319" r="14" fill="#e26f46" fill-rule="evenodd" fill-opacity="0.5" stroke="none"/>
<circle clip-path="url(#clip632)" cx="1002.34" cy="1026.03" r="14" fill="#e26f46" fill-rule="evenodd" fill-opacity="0.5" stroke="none"/>
<circle clip-path="url(#clip632)" cx="960.536" cy="1067.21" r="14" fill="#e26f46" fill-rule="evenodd" fill-opacity="0.5" stroke="none"/>
<circle clip-path="url(#clip632)" cx="1027.13" cy="995.55" r="14" fill="#e26f46" fill-rule="evenodd" fill-opacity="0.5" stroke="none"/>
<circle clip-path="url(#clip632)" cx="958.411" cy="1064.13" r="14" fill="#e26f46" fill-rule="evenodd" fill-opacity="0.5" stroke="none"/>
<circle clip-path="url(#clip632)" cx="1031.82" cy="989.804" r="14" fill="#e26f46" fill-rule="evenodd" fill-opacity="0.5" stroke="none"/>
<circle clip-path="url(#clip632)" cx="973.233" cy="1047.24" r="14" fill="#e26f46" fill-rule="evenodd" fill-opacity="0.5" stroke="none"/>
<circle clip-path="url(#clip632)" cx="953.381" cy="1064.88" r="14" fill="#e26f46" fill-rule="evenodd" fill-opacity="0.5" stroke="none"/>
<circle clip-path="url(#clip632)" cx="976.388" cy="1038.68" r="14" fill="#e26f46" fill-rule="evenodd" fill-opacity="0.5" stroke="none"/>
<circle clip-path="url(#clip632)" cx="1019.01" cy="993.214" r="14" fill="#e26f46" fill-rule="evenodd" fill-opacity="0.5" stroke="none"/>
<circle clip-path="url(#clip632)" cx="998.686" cy="1010.8" r="14" fill="#e26f46" fill-rule="evenodd" fill-opacity="0.5" stroke="none"/>
<circle clip-path="url(#clip632)" cx="1084.57" cy="923.982" r="14" fill="#e26f46" fill-rule="evenodd" fill-opacity="0.5" stroke="none"/>
<circle clip-path="url(#clip632)" cx="952.127" cy="1056.11" r="14" fill="#e26f46" fill-rule="evenodd" fill-opacity="0.5" stroke="none"/>
<circle clip-path="url(#clip632)" cx="1132.7" cy="872.29" r="14" fill="#e26f46" fill-rule="evenodd" fill-opacity="0.5" stroke="none"/>
<circle clip-path="url(#clip632)" cx="953.756" cy="1049.28" r="14" fill="#e26f46" fill-rule="evenodd" fill-opacity="0.5" stroke="none"/>
<circle clip-path="url(#clip632)" cx="1021.25" cy="980.617" r="14" fill="#e26f46" fill-rule="evenodd" fill-opacity="0.5" stroke="none"/>
<circle clip-path="url(#clip632)" cx="933.632" cy="1067.63" r="14" fill="#e26f46" fill-rule="evenodd" fill-opacity="0.5" stroke="none"/>
<circle clip-path="url(#clip632)" cx="994.178" cy="1006.36" r="14" fill="#e26f46" fill-rule="evenodd" fill-opacity="0.5" stroke="none"/>
<circle clip-path="url(#clip632)" cx="973.086" cy="1026.11" r="14" fill="#e26f46" fill-rule="evenodd" fill-opacity="0.5" stroke="none"/>
<circle clip-path="url(#clip632)" cx="1046.16" cy="952.715" r="14" fill="#e26f46" fill-rule="evenodd" fill-opacity="0.5" stroke="none"/>
<circle clip-path="url(#clip632)" cx="1080.56" cy="916.544" r="14" fill="#e26f46" fill-rule="evenodd" fill-opacity="0.5" stroke="none"/>
<circle clip-path="url(#clip632)" cx="959.461" cy="1034.94" r="14" fill="#e26f46" fill-rule="evenodd" fill-opacity="0.5" stroke="none"/>
<circle clip-path="url(#clip632)" cx="965.108" cy="1022.63" r="14" fill="#e26f46" fill-rule="evenodd" fill-opacity="0.5" stroke="none"/>
<circle clip-path="url(#clip632)" cx="970.364" cy="1017.02" r="14" fill="#e26f46" fill-rule="evenodd" fill-opacity="0.5" stroke="none"/>
<circle clip-path="url(#clip632)" cx="972.288" cy="1008.39" r="14" fill="#e26f46" fill-rule="evenodd" fill-opacity="0.5" stroke="none"/>
<circle clip-path="url(#clip632)" cx="881.547" cy="1094.85" r="14" fill="#e26f46" fill-rule="evenodd" fill-opacity="0.5" stroke="none"/>
<circle clip-path="url(#clip632)" cx="1002.62" cy="973.534" r="14" fill="#e26f46" fill-rule="evenodd" fill-opacity="0.5" stroke="none"/>
<circle clip-path="url(#clip632)" cx="935.597" cy="1039.72" r="14" fill="#e26f46" fill-rule="evenodd" fill-opacity="0.5" stroke="none"/>
<circle clip-path="url(#clip632)" cx="908.144" cy="1065.84" r="14" fill="#e26f46" fill-rule="evenodd" fill-opacity="0.5" stroke="none"/>
<circle clip-path="url(#clip632)" cx="991.439" cy="981.255" r="14" fill="#e26f46" fill-rule="evenodd" fill-opacity="0.5" stroke="none"/>
<circle clip-path="url(#clip632)" cx="1018.8" cy="948.643" r="14" fill="#e26f46" fill-rule="evenodd" fill-opacity="0.5" stroke="none"/>
<circle clip-path="url(#clip632)" cx="956.126" cy="1010.72" r="14" fill="#e26f46" fill-rule="evenodd" fill-opacity="0.5" stroke="none"/>
<circle clip-path="url(#clip632)" cx="988.243" cy="977.996" r="14" fill="#e26f46" fill-rule="evenodd" fill-opacity="0.5" stroke="none"/>
<circle clip-path="url(#clip632)" cx="955.078" cy="1006.9" r="14" fill="#e26f46" fill-rule="evenodd" fill-opacity="0.5" stroke="none"/>
<circle clip-path="url(#clip632)" cx="992.715" cy="965.417" r="14" fill="#e26f46" fill-rule="evenodd" fill-opacity="0.5" stroke="none"/>
<circle clip-path="url(#clip632)" cx="949.934" cy="1007.79" r="14" fill="#e26f46" fill-rule="evenodd" fill-opacity="0.5" stroke="none"/>
<circle clip-path="url(#clip632)" cx="943.992" cy="1013.61" r="14" fill="#e26f46" fill-rule="evenodd" fill-opacity="0.5" stroke="none"/>
<circle clip-path="url(#clip632)" cx="1025.51" cy="928.939" r="14" fill="#e26f46" fill-rule="evenodd" fill-opacity="0.5" stroke="none"/>
<circle clip-path="url(#clip632)" cx="1088.13" cy="866.131" r="14" fill="#e26f46" fill-rule="evenodd" fill-opacity="0.5" stroke="none"/>
<circle clip-path="url(#clip632)" cx="931.303" cy="1021.88" r="14" fill="#e26f46" fill-rule="evenodd" fill-opacity="0.5" stroke="none"/>
<circle clip-path="url(#clip632)" cx="998.482" cy="940.98" r="14" fill="#e26f46" fill-rule="evenodd" fill-opacity="0.5" stroke="none"/>
<circle clip-path="url(#clip632)" cx="1017.52" cy="913.023" r="14" fill="#e26f46" fill-rule="evenodd" fill-opacity="0.5" stroke="none"/>
<circle clip-path="url(#clip632)" cx="995.162" cy="931.973" r="14" fill="#e26f46" fill-rule="evenodd" fill-opacity="0.5" stroke="none"/>
<circle clip-path="url(#clip632)" cx="966.357" cy="953.605" r="14" fill="#e26f46" fill-rule="evenodd" fill-opacity="0.5" stroke="none"/>
<circle clip-path="url(#clip632)" cx="980.655" cy="938.235" r="14" fill="#e26f46" fill-rule="evenodd" fill-opacity="0.5" stroke="none"/>
<circle clip-path="url(#clip632)" cx="989.108" cy="927.832" r="14" fill="#e26f46" fill-rule="evenodd" fill-opacity="0.5" stroke="none"/>
<circle clip-path="url(#clip632)" cx="953.765" cy="960.005" r="14" fill="#e26f46" fill-rule="evenodd" fill-opacity="0.5" stroke="none"/>
<circle clip-path="url(#clip632)" cx="953.25" cy="944.555" r="14" fill="#e26f46" fill-rule="evenodd" fill-opacity="0.5" stroke="none"/>
<circle clip-path="url(#clip632)" cx="1011.54" cy="884.198" r="14" fill="#e26f46" fill-rule="evenodd" fill-opacity="0.5" stroke="none"/>
<circle clip-path="url(#clip632)" cx="962.228" cy="909.772" r="14" fill="#e26f46" fill-rule="evenodd" fill-opacity="0.5" stroke="none"/>
<circle clip-path="url(#clip632)" cx="928.628" cy="938.633" r="14" fill="#e26f46" fill-rule="evenodd" fill-opacity="0.5" stroke="none"/>
<circle clip-path="url(#clip632)" cx="943.515" cy="853.989" r="14" fill="#e26f46" fill-rule="evenodd" fill-opacity="0.5" stroke="none"/>
<circle clip-path="url(#clip632)" cx="1213.48" cy="841.336" r="14" fill="#3da44d" fill-rule="evenodd" fill-opacity="0.5" stroke="none"/>
<circle clip-path="url(#clip632)" cx="1176.21" cy="878.364" r="14" fill="#3da44d" fill-rule="evenodd" fill-opacity="0.5" stroke="none"/>
<circle clip-path="url(#clip632)" cx="1087.01" cy="967.51" r="14" fill="#3da44d" fill-rule="evenodd" fill-opacity="0.5" stroke="none"/>
<circle clip-path="url(#clip632)" cx="1165.44" cy="885.219" r="14" fill="#3da44d" fill-rule="evenodd" fill-opacity="0.5" stroke="none"/>
<circle clip-path="url(#clip632)" cx="1069.77" cy="979.675" r="14" fill="#3da44d" fill-rule="evenodd" fill-opacity="0.5" stroke="none"/>
<circle clip-path="url(#clip632)" cx="1123.64" cy="924.245" r="14" fill="#3da44d" fill-rule="evenodd" fill-opacity="0.5" stroke="none"/>
<circle clip-path="url(#clip632)" cx="1180.99" cy="865.342" r="14" fill="#3da44d" fill-rule="evenodd" fill-opacity="0.5" stroke="none"/>
<circle clip-path="url(#clip632)" cx="1184" cy="858.166" r="14" fill="#3da44d" fill-rule="evenodd" fill-opacity="0.5" stroke="none"/>
<circle clip-path="url(#clip632)" cx="1148.96" cy="888.789" r="14" fill="#3da44d" fill-rule="evenodd" fill-opacity="0.5" stroke="none"/>
<circle clip-path="url(#clip632)" cx="1140.84" cy="884.418" r="14" fill="#3da44d" fill-rule="evenodd" fill-opacity="0.5" stroke="none"/>
<circle clip-path="url(#clip632)" cx="1207.5" cy="804.609" r="14" fill="#3da44d" fill-rule="evenodd" fill-opacity="0.5" stroke="none"/>
<circle clip-path="url(#clip632)" cx="1059.18" cy="951.852" r="14" fill="#3da44d" fill-rule="evenodd" fill-opacity="0.5" stroke="none"/>
<circle clip-path="url(#clip632)" cx="1145.84" cy="860.639" r="14" fill="#3da44d" fill-rule="evenodd" fill-opacity="0.5" stroke="none"/>
<circle clip-path="url(#clip632)" cx="1068.9" cy="918.003" r="14" fill="#3da44d" fill-rule="evenodd" fill-opacity="0.5" stroke="none"/>
<circle clip-path="url(#clip632)" cx="1129.68" cy="828.022" r="14" fill="#3da44d" fill-rule="evenodd" fill-opacity="0.5" stroke="none"/>
<circle clip-path="url(#clip632)" cx="1205.22" cy="745.59" r="14" fill="#3da44d" fill-rule="evenodd" fill-opacity="0.5" stroke="none"/>
<path clip-path="url(#clip630)" d="
M1700.59 1379.86 L1888.71 1379.86 L1888.71 1077.46 L1700.59 1077.46  Z
  " fill="#ffffff" fill-rule="evenodd" fill-opacity="1"/>
<polyline clip-path="url(#clip630)" style="stroke:#000000; stroke-width:4; stroke-opacity:1; fill:none" points="
  1700.59,1379.86 1888.71,1379.86 1888.71,1077.46 1700.59,1077.46 1700.59,1379.86 
  "/>
<polyline clip-path="url(#clip630)" style="stroke:#808080; stroke-width:4; stroke-opacity:1; fill:none" stroke-dasharray="2, 4" points="
  1715.04,1137.94 1801.68,1137.94 
  "/>
<path clip-path="url(#clip630)" d="M 0 0 M1832.63 1147.14 Q1831.91 1146.3 1830.78 1144.36 Q1829.23 1147.14 1827.86 1148.36 Q1826.15 1149.85 1823.48 1149.85 Q1820.36 1149.85 1818.3 1147.51 Q1816.12 1145.05 1816.12 1141 Q1816.12 1137.11 1818.3 1134.48 Q1820.24 1132.14 1823.53 1132.14 Q1825.22 1132.14 1826.47 1132.83 Q1827.93 1133.6 1828.92 1134.92 Q1829.85 1136.1 1830.78 1137.69 Q1832.33 1134.92 1833.69 1133.69 Q1835.41 1132.21 1838.07 1132.21 Q1841.19 1132.21 1843.25 1134.55 Q1845.43 1137 1845.43 1141.05 Q1845.43 1144.94 1843.25 1147.58 Q1841.31 1149.92 1838.02 1149.92 Q1836.33 1149.92 1835.08 1149.22 Q1833.83 1148.6 1832.63 1147.14 M1823.23 1146.81 Q1827.05 1146.81 1829.34 1141.26 Q1826.4 1135.19 1823.23 1135.19 Q1820.92 1135.19 1819.73 1136.86 Q1818.46 1138.64 1818.46 1141 Q1818.46 1143.6 1819.73 1145.19 Q1821.03 1146.81 1823.23 1146.81 M1838.32 1135.24 Q1834.87 1135.24 1832.21 1140.8 Q1835.13 1146.86 1838.32 1146.86 Q1840.64 1146.86 1841.82 1145.19 Q1843.09 1143.41 1843.09 1141.05 Q1843.09 1138.46 1841.82 1136.86 Q1840.52 1135.24 1838.32 1135.24 Z" fill="#000000" fill-rule="evenodd" fill-opacity="1" /><circle clip-path="url(#clip630)" cx="1758.36" cy="1198.42" r="23" fill="#009af9" fill-rule="evenodd" fill-opacity="0.5" stroke="none"/>
<path clip-path="url(#clip630)" d="M 0 0 M1816.12 1181.14 L1820.8 1181.14 L1820.8 1195.3 L1837.79 1195.3 L1837.79 1181.14 L1842.47 1181.14 L1842.47 1215.7 L1837.79 1215.7 L1837.79 1199.24 L1820.8 1199.24 L1820.8 1215.7 L1816.12 1215.7 L1816.12 1181.14 Z" fill="#000000" fill-rule="evenodd" fill-opacity="1" /><path clip-path="url(#clip630)" d="M 0 0 M1855.66 1200.03 Q1854.5 1198.03 1852.17 1198.03 Q1849.83 1198.03 1848.67 1200.03 Q1847.49 1202.02 1847.49 1206 Q1847.49 1210 1848.67 1211.99 Q1849.83 1213.98 1852.17 1213.98 Q1854.5 1213.98 1855.66 1211.99 Q1856.84 1210 1856.84 1206 Q1856.84 1202.02 1855.66 1200.03 M1852.17 1195.97 Q1855.89 1195.97 1857.86 1198.54 Q1859.83 1201.11 1859.83 1206 Q1859.83 1210.9 1857.86 1213.47 Q1855.89 1216.04 1852.17 1216.04 Q1848.42 1216.04 1846.45 1213.47 Q1844.48 1210.9 1844.48 1206 Q1844.48 1201.11 1846.45 1198.54 Q1848.42 1195.97 1852.17 1195.97 Z" fill="#000000" fill-rule="evenodd" fill-opacity="1" /><circle clip-path="url(#clip630)" cx="1758.36" cy="1258.9" r="23" fill="#e26f46" fill-rule="evenodd" fill-opacity="0.5" stroke="none"/>
<path clip-path="url(#clip630)" d="M 0 0 M1816.12 1241.62 L1820.8 1241.62 L1820.8 1255.78 L1837.79 1255.78 L1837.79 1241.62 L1842.47 1241.62 L1842.47 1276.18 L1837.79 1276.18 L1837.79 1259.72 L1820.8 1259.72 L1820.8 1276.18 L1816.12 1276.18 L1816.12 1241.62 Z" fill="#000000" fill-rule="evenodd" fill-opacity="1" /><path clip-path="url(#clip630)" d="M 0 0 M1846.08 1273.63 L1850.8 1273.63 L1850.8 1259.49 L1845.64 1260.44 L1845.64 1257.75 L1850.96 1256.85 L1854.13 1256.85 L1854.13 1273.63 L1858.88 1273.63 L1858.88 1276.18 L1846.08 1276.18 L1846.08 1273.63 Z" fill="#000000" fill-rule="evenodd" fill-opacity="1" /><circle clip-path="url(#clip630)" cx="1758.36" cy="1319.38" r="23" fill="#3da44d" fill-rule="evenodd" fill-opacity="0.5" stroke="none"/>
<path clip-path="url(#clip630)" d="M 0 0 M1816.12 1302.1 L1820.8 1302.1 L1820.8 1316.26 L1837.79 1316.26 L1837.79 1302.1 L1842.47 1302.1 L1842.47 1336.66 L1837.79 1336.66 L1837.79 1320.2 L1820.8 1320.2 L1820.8 1336.66 L1816.12 1336.66 L1816.12 1302.1 Z" fill="#000000" fill-rule="evenodd" fill-opacity="1" /><path clip-path="url(#clip630)" d="M 0 0 M1848.67 1334.02 L1858.48 1334.02 L1858.48 1336.66 L1844.64 1336.66 L1844.64 1334.11 Q1845.43 1333.39 1846.89 1332.1 Q1854.85 1325.04 1854.85 1322.86 Q1854.85 1321.33 1853.65 1320.41 Q1852.44 1319.46 1850.48 1319.46 Q1849.27 1319.46 1847.86 1319.87 Q1846.45 1320.27 1844.78 1321.08 L1844.78 1318.23 Q1846.56 1317.58 1848.09 1317.26 Q1849.64 1316.93 1850.96 1316.93 Q1854.32 1316.93 1856.33 1318.46 Q1858.35 1319.99 1858.35 1322.49 Q1858.35 1325.71 1850.68 1332.28 Q1849.39 1333.39 1848.67 1334.02 Z" fill="#000000" fill-rule="evenodd" fill-opacity="1" /></svg>
