<?xml version="1.0" encoding="utf-8"?>
<svg xmlns="http://www.w3.org/2000/svg" xmlns:xlink="http://www.w3.org/1999/xlink" width="600" height="400" viewBox="0 0 2400 1600">
<defs>
  <clipPath id="clip660">
    <rect x="0" y="0" width="2400" height="1600"/>
  </clipPath>
</defs>
<path clip-path="url(#clip660)" d="M0 1600 L2400 1600 L2400 0 L0 0  Z" fill="#ffffff" fill-rule="evenodd" fill-opacity="1"/>
<defs>
  <clipPath id="clip661">
    <rect x="1333" y="123" width="837" height="1301"/>
  </clipPath>
</defs>
<path clip-path="url(#clip660)" d="M219.38 1283.05 L1238.82 1283.05 L1238.82 263.604 L219.38 263.604  Z" fill="#ffffff" fill-rule="evenodd" fill-opacity="1"/>
<defs>
  <clipPath id="clip662">
    <rect x="219" y="263" width="1020" height="1020"/>
  </clipPath>
</defs>
<polyline clip-path="url(#clip662)" style="stroke:#000000; stroke-linecap:round; stroke-linejoin:round; stroke-width:2; stroke-opacity:0.1; fill:none" points="265.719,1283.05 265.719,263.604 "/>
<polyline clip-path="url(#clip662)" style="stroke:#000000; stroke-linecap:round; stroke-linejoin:round; stroke-width:2; stroke-opacity:0.1; fill:none" points="542.609,1283.05 542.609,263.604 "/>
<polyline clip-path="url(#clip662)" style="stroke:#000000; stroke-linecap:round; stroke-linejoin:round; stroke-width:2; stroke-opacity:0.1; fill:none" points="819.499,1283.05 819.499,263.604 "/>
<polyline clip-path="url(#clip662)" style="stroke:#000000; stroke-linecap:round; stroke-linejoin:round; stroke-width:2; stroke-opacity:0.1; fill:none" points="1096.39,1283.05 1096.39,263.604 "/>
<polyline clip-path="url(#clip662)" style="stroke:#000000; stroke-linecap:round; stroke-linejoin:round; stroke-width:2; stroke-opacity:0.1; fill:none" points="219.38,1236.71 1238.82,1236.71 "/>
<polyline clip-path="url(#clip662)" style="stroke:#000000; stroke-linecap:round; stroke-linejoin:round; stroke-width:2; stroke-opacity:0.1; fill:none" points="219.38,959.819 1238.82,959.819 "/>
<polyline clip-path="url(#clip662)" style="stroke:#000000; stroke-linecap:round; stroke-linejoin:round; stroke-width:2; stroke-opacity:0.1; fill:none" points="219.38,682.929 1238.82,682.929 "/>
<polyline clip-path="url(#clip662)" style="stroke:#000000; stroke-linecap:round; stroke-linejoin:round; stroke-width:2; stroke-opacity:0.1; fill:none" points="219.38,406.038 1238.82,406.038 "/>
<polyline clip-path="url(#clip660)" style="stroke:#000000; stroke-linecap:round; stroke-linejoin:round; stroke-width:4; stroke-opacity:1; fill:none" points="219.38,1283.05 1238.82,1283.05 "/>
<polyline clip-path="url(#clip660)" style="stroke:#000000; stroke-linecap:round; stroke-linejoin:round; stroke-width:4; stroke-opacity:1; fill:none" points="265.719,1283.05 265.719,1268.23 "/>
<polyline clip-path="url(#clip660)" style="stroke:#000000; stroke-linecap:round; stroke-linejoin:round; stroke-width:4; stroke-opacity:1; fill:none" points="542.609,1283.05 542.609,1268.23 "/>
<polyline clip-path="url(#clip660)" style="stroke:#000000; stroke-linecap:round; stroke-linejoin:round; stroke-width:4; stroke-opacity:1; fill:none" points="819.499,1283.05 819.499,1268.23 "/>
<polyline clip-path="url(#clip660)" style="stroke:#000000; stroke-linecap:round; stroke-linejoin:round; stroke-width:4; stroke-opacity:1; fill:none" points="1096.39,1283.05 1096.39,1268.23 "/>
<path clip-path="url(#clip660)" d="M243.103 1313.97 Q239.492 1313.97 237.663 1317.53 Q235.858 1321.07 235.858 1328.2 Q235.858 1335.31 237.663 1338.87 Q239.492 1342.42 243.103 1342.42 Q246.737 1342.42 248.543 1338.87 Q250.371 1335.31 250.371 1328.2 Q250.371 1321.07 248.543 1317.53 Q246.737 1313.97 243.103 1313.97 M243.103 1310.26 Q248.913 1310.26 251.969 1314.87 Q255.047 1319.45 255.047 1328.2 Q255.047 1336.93 251.969 1341.54 Q248.913 1346.12 243.103 1346.12 Q237.293 1346.12 234.214 1341.54 Q231.159 1336.93 231.159 1328.2 Q231.159 1319.45 234.214 1314.87 Q237.293 1310.26 243.103 1310.26 Z" fill="#000000" fill-rule="nonzero" fill-opacity="1" /><path clip-path="url(#clip660)" d="M263.265 1339.57 L268.149 1339.57 L268.149 1345.45 L263.265 1345.45 L263.265 1339.57 Z" fill="#000000" fill-rule="nonzero" fill-opacity="1" /><path clip-path="url(#clip660)" d="M288.334 1313.97 Q284.723 1313.97 282.894 1317.53 Q281.089 1321.07 281.089 1328.2 Q281.089 1335.31 282.894 1338.87 Q284.723 1342.42 288.334 1342.42 Q291.968 1342.42 293.774 1338.87 Q295.603 1335.31 295.603 1328.2 Q295.603 1321.07 293.774 1317.53 Q291.968 1313.97 288.334 1313.97 M288.334 1310.26 Q294.144 1310.26 297.2 1314.87 Q300.279 1319.45 300.279 1328.2 Q300.279 1336.93 297.2 1341.54 Q294.144 1346.12 288.334 1346.12 Q282.524 1346.12 279.445 1341.54 Q276.39 1336.93 276.39 1328.2 Q276.39 1319.45 279.445 1314.87 Q282.524 1310.26 288.334 1310.26 Z" fill="#000000" fill-rule="nonzero" fill-opacity="1" /><path clip-path="url(#clip660)" d="M520.491 1313.97 Q516.88 1313.97 515.051 1317.53 Q513.246 1321.07 513.246 1328.2 Q513.246 1335.31 515.051 1338.87 Q516.88 1342.42 520.491 1342.42 Q524.125 1342.42 525.931 1338.87 Q527.759 1335.31 527.759 1328.2 Q527.759 1321.07 525.931 1317.53 Q524.125 1313.97 520.491 1313.97 M520.491 1310.26 Q526.301 1310.26 529.357 1314.87 Q532.435 1319.45 532.435 1328.2 Q532.435 1336.93 529.357 1341.54 Q526.301 1346.12 520.491 1346.12 Q514.681 1346.12 511.602 1341.54 Q508.547 1336.93 508.547 1328.2 Q508.547 1319.45 511.602 1314.87 Q514.681 1310.26 520.491 1310.26 Z" fill="#000000" fill-rule="nonzero" fill-opacity="1" /><path clip-path="url(#clip660)" d="M540.653 1339.57 L545.537 1339.57 L545.537 1345.45 L540.653 1345.45 L540.653 1339.57 Z" fill="#000000" fill-rule="nonzero" fill-opacity="1" /><path clip-path="url(#clip660)" d="M555.769 1310.89 L574.125 1310.89 L574.125 1314.82 L560.051 1314.82 L560.051 1323.3 Q561.069 1322.95 562.088 1322.79 Q563.106 1322.6 564.125 1322.6 Q569.912 1322.6 573.292 1325.77 Q576.671 1328.94 576.671 1334.36 Q576.671 1339.94 573.199 1343.04 Q569.727 1346.12 563.407 1346.12 Q561.231 1346.12 558.963 1345.75 Q556.718 1345.38 554.31 1344.64 L554.31 1339.94 Q556.394 1341.07 558.616 1341.63 Q560.838 1342.18 563.315 1342.18 Q567.319 1342.18 569.657 1340.08 Q571.995 1337.97 571.995 1334.36 Q571.995 1330.75 569.657 1328.64 Q567.319 1326.54 563.315 1326.54 Q561.44 1326.54 559.565 1326.95 Q557.713 1327.37 555.769 1328.25 L555.769 1310.89 Z" fill="#000000" fill-rule="nonzero" fill-opacity="1" /><path clip-path="url(#clip660)" d="M786.652 1341.51 L794.291 1341.51 L794.291 1315.15 L785.981 1316.81 L785.981 1312.55 L794.245 1310.89 L798.921 1310.89 L798.921 1341.51 L806.559 1341.51 L806.559 1345.45 L786.652 1345.45 L786.652 1341.51 Z" fill="#000000" fill-rule="nonzero" fill-opacity="1" /><path clip-path="url(#clip660)" d="M816.004 1339.57 L820.888 1339.57 L820.888 1345.45 L816.004 1345.45 L816.004 1339.57 Z" fill="#000000" fill-rule="nonzero" fill-opacity="1" /><path clip-path="url(#clip660)" d="M841.073 1313.97 Q837.462 1313.97 835.633 1317.53 Q833.828 1321.07 833.828 1328.2 Q833.828 1335.31 835.633 1338.87 Q837.462 1342.42 841.073 1342.42 Q844.707 1342.42 846.513 1338.87 Q848.342 1335.31 848.342 1328.2 Q848.342 1321.07 846.513 1317.53 Q844.707 1313.97 841.073 1313.97 M841.073 1310.26 Q846.883 1310.26 849.939 1314.87 Q853.018 1319.45 853.018 1328.2 Q853.018 1336.93 849.939 1341.54 Q846.883 1346.12 841.073 1346.12 Q835.263 1346.12 832.184 1341.54 Q829.129 1336.93 829.129 1328.2 Q829.129 1319.45 832.184 1314.87 Q835.263 1310.26 841.073 1310.26 Z" fill="#000000" fill-rule="nonzero" fill-opacity="1" /><path clip-path="url(#clip660)" d="M1064.04 1341.51 L1071.68 1341.51 L1071.68 1315.15 L1063.37 1316.81 L1063.37 1312.55 L1071.63 1310.89 L1076.31 1310.89 L1076.31 1341.51 L1083.95 1341.51 L1083.95 1345.45 L1064.04 1345.45 L1064.04 1341.51 Z" fill="#000000" fill-rule="nonzero" fill-opacity="1" /><path clip-path="url(#clip660)" d="M1093.39 1339.57 L1098.28 1339.57 L1098.28 1345.45 L1093.39 1345.45 L1093.39 1339.57 Z" fill="#000000" fill-rule="nonzero" fill-opacity="1" /><path clip-path="url(#clip660)" d="M1108.51 1310.89 L1126.86 1310.89 L1126.86 1314.82 L1112.79 1314.82 L1112.79 1323.3 Q1113.81 1322.95 1114.83 1322.79 Q1115.85 1322.6 1116.86 1322.6 Q1122.65 1322.6 1126.03 1325.77 Q1129.41 1328.94 1129.41 1334.36 Q1129.41 1339.94 1125.94 1343.04 Q1122.47 1346.12 1116.15 1346.12 Q1113.97 1346.12 1111.7 1345.75 Q1109.46 1345.38 1107.05 1344.64 L1107.05 1339.94 Q1109.13 1341.07 1111.35 1341.63 Q1113.58 1342.18 1116.05 1342.18 Q1120.06 1342.18 1122.4 1340.08 Q1124.73 1337.97 1124.73 1334.36 Q1124.73 1330.75 1122.4 1328.64 Q1120.06 1326.54 1116.05 1326.54 Q1114.18 1326.54 1112.3 1326.95 Q1110.45 1327.37 1108.51 1328.25 L1108.51 1310.89 Z" fill="#000000" fill-rule="nonzero" fill-opacity="1" /><path clip-path="url(#clip660)" d="M684.065 1410.12 Q684.065 1403.66 681.391 1400 Q678.749 1396.31 674.102 1396.31 Q669.455 1396.31 666.782 1400 Q664.14 1403.66 664.14 1410.12 Q664.14 1416.58 666.782 1420.27 Q669.455 1423.93 674.102 1423.93 Q678.749 1423.93 681.391 1420.27 Q684.065 1416.58 684.065 1410.12 M664.14 1397.67 Q665.986 1394.49 668.787 1392.96 Q671.62 1391.4 675.535 1391.4 Q682.028 1391.4 686.07 1396.56 Q690.144 1401.72 690.144 1410.12 Q690.144 1418.52 686.07 1423.68 Q682.028 1428.83 675.535 1428.83 Q671.62 1428.83 668.787 1427.31 Q665.986 1425.75 664.14 1422.56 L664.14 1427.91 L658.252 1427.91 L658.252 1378.39 L664.14 1378.39 L664.14 1397.67 Z" fill="#000000" fill-rule="nonzero" fill-opacity="1" /><path clip-path="url(#clip660)" d="M699.852 1392.26 L705.708 1392.26 L705.708 1427.91 L699.852 1427.91 L699.852 1392.26 M699.852 1378.39 L705.708 1378.39 L705.708 1385.8 L699.852 1385.8 L699.852 1378.39 Z" fill="#000000" fill-rule="nonzero" fill-opacity="1" /><path clip-path="url(#clip660)" d="M738.619 1397.74 Q737.632 1397.17 736.454 1396.91 Q735.309 1396.62 733.908 1396.62 Q728.943 1396.62 726.269 1399.87 Q723.628 1403.09 723.628 1409.13 L723.628 1427.91 L717.739 1427.91 L717.739 1392.26 L723.628 1392.26 L723.628 1397.8 Q725.474 1394.56 728.434 1393 Q731.394 1391.4 735.627 1391.4 Q736.232 1391.4 736.964 1391.5 Q737.696 1391.56 738.587 1391.72 L738.619 1397.74 Z" fill="#000000" fill-rule="nonzero" fill-opacity="1" /><path clip-path="url(#clip660)" d="M750.554 1382.14 L750.554 1392.26 L762.617 1392.26 L762.617 1396.82 L750.554 1396.82 L750.554 1416.17 Q750.554 1420.53 751.732 1421.77 Q752.942 1423.01 756.602 1423.01 L762.617 1423.01 L762.617 1427.91 L756.602 1427.91 Q749.822 1427.91 747.244 1425.4 Q744.666 1422.85 744.666 1416.17 L744.666 1396.82 L740.369 1396.82 L740.369 1392.26 L744.666 1392.26 L744.666 1382.14 L750.554 1382.14 Z" fill="#000000" fill-rule="nonzero" fill-opacity="1" /><path clip-path="url(#clip660)" d="M799.952 1406.4 L799.952 1427.91 L794.096 1427.91 L794.096 1406.59 Q794.096 1401.53 792.123 1399.01 Q790.149 1396.5 786.202 1396.5 Q781.46 1396.5 778.723 1399.52 Q775.985 1402.54 775.985 1407.76 L775.985 1427.91 L770.097 1427.91 L770.097 1378.39 L775.985 1378.39 L775.985 1397.8 Q778.086 1394.59 780.919 1393 Q783.783 1391.4 787.507 1391.4 Q793.65 1391.4 796.801 1395.22 Q799.952 1399.01 799.952 1406.4 Z" fill="#000000" fill-rule="nonzero" fill-opacity="1" /><polyline clip-path="url(#clip660)" style="stroke:#000000; stroke-linecap:round; stroke-linejoin:round; stroke-width:4; stroke-opacity:1; fill:none" points="219.38,1283.05 219.38,263.604 "/>
<polyline clip-path="url(#clip660)" style="stroke:#000000; stroke-linecap:round; stroke-linejoin:round; stroke-width:4; stroke-opacity:1; fill:none" points="219.38,1236.71 238.278,1236.71 "/>
<polyline clip-path="url(#clip660)" style="stroke:#000000; stroke-linecap:round; stroke-linejoin:round; stroke-width:4; stroke-opacity:1; fill:none" points="219.38,959.819 238.278,959.819 "/>
<polyline clip-path="url(#clip660)" style="stroke:#000000; stroke-linecap:round; stroke-linejoin:round; stroke-width:4; stroke-opacity:1; fill:none" points="219.38,682.929 238.278,682.929 "/>
<polyline clip-path="url(#clip660)" style="stroke:#000000; stroke-linecap:round; stroke-linejoin:round; stroke-width:4; stroke-opacity:1; fill:none" points="219.38,406.038 238.278,406.038 "/>
<path clip-path="url(#clip660)" d="M126.205 1222.51 Q122.593 1222.51 120.765 1226.07 Q118.959 1229.61 118.959 1236.74 Q118.959 1243.85 120.765 1247.42 Q122.593 1250.96 126.205 1250.96 Q129.839 1250.96 131.644 1247.42 Q133.473 1243.85 133.473 1236.74 Q133.473 1229.61 131.644 1226.07 Q129.839 1222.51 126.205 1222.51 M126.205 1218.8 Q132.015 1218.8 135.07 1223.41 Q138.149 1227.99 138.149 1236.74 Q138.149 1245.47 135.07 1250.08 Q132.015 1254.66 126.205 1254.66 Q120.394 1254.66 117.316 1250.08 Q114.26 1245.47 114.26 1236.74 Q114.26 1227.99 117.316 1223.41 Q120.394 1218.8 126.205 1218.8 Z" fill="#000000" fill-rule="nonzero" fill-opacity="1" /><path clip-path="url(#clip660)" d="M146.366 1248.11 L151.251 1248.11 L151.251 1253.99 L146.366 1253.99 L146.366 1248.11 Z" fill="#000000" fill-rule="nonzero" fill-opacity="1" /><path clip-path="url(#clip660)" d="M171.436 1222.51 Q167.825 1222.51 165.996 1226.07 Q164.19 1229.61 164.19 1236.74 Q164.19 1243.85 165.996 1247.42 Q167.825 1250.96 171.436 1250.96 Q175.07 1250.96 176.876 1247.42 Q178.704 1243.85 178.704 1236.74 Q178.704 1229.61 176.876 1226.07 Q175.07 1222.51 171.436 1222.51 M171.436 1218.8 Q177.246 1218.8 180.301 1223.41 Q183.38 1227.99 183.38 1236.74 Q183.38 1245.47 180.301 1250.08 Q177.246 1254.66 171.436 1254.66 Q165.626 1254.66 162.547 1250.08 Q159.491 1245.47 159.491 1236.74 Q159.491 1227.99 162.547 1223.41 Q165.626 1218.8 171.436 1218.8 Z" fill="#000000" fill-rule="nonzero" fill-opacity="1" /><path clip-path="url(#clip660)" d="M127.2 945.618 Q123.589 945.618 121.76 949.183 Q119.955 952.724 119.955 959.854 Q119.955 966.96 121.76 970.525 Q123.589 974.067 127.2 974.067 Q130.834 974.067 132.64 970.525 Q134.468 966.96 134.468 959.854 Q134.468 952.724 132.64 949.183 Q130.834 945.618 127.2 945.618 M127.2 941.914 Q133.01 941.914 136.066 946.521 Q139.144 951.104 139.144 959.854 Q139.144 968.581 136.066 973.187 Q133.01 977.77 127.2 977.77 Q121.39 977.77 118.311 973.187 Q115.256 968.581 115.256 959.854 Q115.256 951.104 118.311 946.521 Q121.39 941.914 127.2 941.914 Z" fill="#000000" fill-rule="nonzero" fill-opacity="1" /><path clip-path="url(#clip660)" d="M147.362 971.22 L152.246 971.22 L152.246 977.099 L147.362 977.099 L147.362 971.22 Z" fill="#000000" fill-rule="nonzero" fill-opacity="1" /><path clip-path="url(#clip660)" d="M162.477 942.539 L180.834 942.539 L180.834 946.474 L166.76 946.474 L166.76 954.947 Q167.778 954.599 168.797 954.437 Q169.815 954.252 170.834 954.252 Q176.621 954.252 180.001 957.423 Q183.38 960.595 183.38 966.011 Q183.38 971.59 179.908 974.692 Q176.436 977.77 170.116 977.77 Q167.94 977.77 165.672 977.4 Q163.427 977.03 161.019 976.289 L161.019 971.59 Q163.102 972.724 165.325 973.28 Q167.547 973.835 170.024 973.835 Q174.028 973.835 176.366 971.729 Q178.704 969.622 178.704 966.011 Q178.704 962.4 176.366 960.294 Q174.028 958.187 170.024 958.187 Q168.149 958.187 166.274 958.604 Q164.422 959.021 162.477 959.9 L162.477 942.539 Z" fill="#000000" fill-rule="nonzero" fill-opacity="1" /><path clip-path="url(#clip660)" d="M117.015 696.274 L124.654 696.274 L124.654 669.908 L116.343 671.575 L116.343 667.315 L124.607 665.649 L129.283 665.649 L129.283 696.274 L136.922 696.274 L136.922 700.209 L117.015 700.209 L117.015 696.274 Z" fill="#000000" fill-rule="nonzero" fill-opacity="1" /><path clip-path="url(#clip660)" d="M146.366 694.329 L151.251 694.329 L151.251 700.209 L146.366 700.209 L146.366 694.329 Z" fill="#000000" fill-rule="nonzero" fill-opacity="1" /><path clip-path="url(#clip660)" d="M171.436 668.728 Q167.825 668.728 165.996 672.292 Q164.19 675.834 164.19 682.964 Q164.19 690.07 165.996 693.635 Q167.825 697.176 171.436 697.176 Q175.07 697.176 176.876 693.635 Q178.704 690.07 178.704 682.964 Q178.704 675.834 176.876 672.292 Q175.07 668.728 171.436 668.728 M171.436 665.024 Q177.246 665.024 180.301 669.63 Q183.38 674.214 183.38 682.964 Q183.38 691.69 180.301 696.297 Q177.246 700.88 171.436 700.88 Q165.626 700.88 162.547 696.297 Q159.491 691.69 159.491 682.964 Q159.491 674.214 162.547 669.63 Q165.626 665.024 171.436 665.024 Z" fill="#000000" fill-rule="nonzero" fill-opacity="1" /><path clip-path="url(#clip660)" d="M118.01 419.383 L125.649 419.383 L125.649 393.018 L117.339 394.684 L117.339 390.425 L125.603 388.758 L130.279 388.758 L130.279 419.383 L137.917 419.383 L137.917 423.318 L118.01 423.318 L118.01 419.383 Z" fill="#000000" fill-rule="nonzero" fill-opacity="1" /><path clip-path="url(#clip660)" d="M147.362 417.439 L152.246 417.439 L152.246 423.318 L147.362 423.318 L147.362 417.439 Z" fill="#000000" fill-rule="nonzero" fill-opacity="1" /><path clip-path="url(#clip660)" d="M162.477 388.758 L180.834 388.758 L180.834 392.694 L166.76 392.694 L166.76 401.166 Q167.778 400.819 168.797 400.657 Q169.815 400.471 170.834 400.471 Q176.621 400.471 180.001 403.643 Q183.38 406.814 183.38 412.231 Q183.38 417.809 179.908 420.911 Q176.436 423.99 170.116 423.99 Q167.94 423.99 165.672 423.619 Q163.427 423.249 161.019 422.508 L161.019 417.809 Q163.102 418.943 165.325 419.499 Q167.547 420.055 170.024 420.055 Q174.028 420.055 176.366 417.948 Q178.704 415.842 178.704 412.231 Q178.704 408.619 176.366 406.513 Q174.028 404.407 170.024 404.407 Q168.149 404.407 166.274 404.823 Q164.422 405.24 162.477 406.119 L162.477 388.758 Z" fill="#000000" fill-rule="nonzero" fill-opacity="1" /><path clip-path="url(#clip660)" d="M33.7671 836.903 L14.479 836.903 L14.479 831.047 L64.0042 831.047 L64.0042 836.903 L58.657 836.903 Q61.8398 838.75 63.3994 841.582 Q64.9272 844.383 64.9272 848.33 Q64.9272 854.791 59.771 858.865 Q54.6147 862.907 46.212 862.907 Q37.8093 862.907 32.6531 858.865 Q27.4968 854.791 27.4968 848.33 Q27.4968 844.383 29.0564 841.582 Q30.5842 838.75 33.7671 836.903 M46.212 856.86 Q52.6732 856.86 56.3653 854.218 Q60.0256 851.545 60.0256 846.898 Q60.0256 842.251 56.3653 839.577 Q52.6732 836.903 46.212 836.903 Q39.7508 836.903 36.0905 839.577 Q32.3984 842.251 32.3984 846.898 Q32.3984 851.545 36.0905 854.218 Q39.7508 856.86 46.212 856.86 Z" fill="#000000" fill-rule="nonzero" fill-opacity="1" /><path clip-path="url(#clip660)" d="M44.7161 788.492 L47.5806 788.492 L47.5806 815.419 Q53.6281 815.037 56.8109 811.791 Q59.9619 808.512 59.9619 802.688 Q59.9619 799.314 59.1344 796.163 Q58.3069 792.98 56.6518 789.861 L62.1899 789.861 Q63.5267 793.012 64.227 796.322 Q64.9272 799.632 64.9272 803.038 Q64.9272 811.568 59.9619 816.565 Q54.9967 821.53 46.5303 821.53 Q37.7774 821.53 32.6531 816.82 Q27.4968 812.077 27.4968 804.056 Q27.4968 796.863 32.1438 792.694 Q36.7589 788.492 44.7161 788.492 M42.9973 794.349 Q38.1912 794.412 35.3266 797.054 Q32.4621 799.664 32.4621 803.993 Q32.4621 808.894 35.2312 811.854 Q38.0002 814.783 43.0292 815.228 L42.9973 794.349 Z" fill="#000000" fill-rule="nonzero" fill-opacity="1" /><path clip-path="url(#clip660)" d="M46.0847 762.679 Q46.0847 769.777 47.7079 772.514 Q49.3312 775.252 53.2461 775.252 Q56.3653 775.252 58.2114 773.215 Q60.0256 771.146 60.0256 767.613 Q60.0256 762.743 56.5881 759.815 Q53.1188 756.855 47.3897 756.855 L46.0847 756.855 L46.0847 762.679 M43.6657 750.998 L64.0042 750.998 L64.0042 756.855 L58.5933 756.855 Q61.8398 758.86 63.3994 761.852 Q64.9272 764.844 64.9272 769.172 Q64.9272 774.647 61.8716 777.893 Q58.7843 781.108 53.6281 781.108 Q47.6125 781.108 44.5569 777.098 Q41.5014 773.055 41.5014 765.066 L41.5014 756.855 L40.9285 756.855 Q36.8862 756.855 34.6901 759.528 Q32.4621 762.17 32.4621 766.976 Q32.4621 770.032 33.1941 772.928 Q33.9262 775.825 35.3903 778.498 L29.9795 778.498 Q28.7381 775.283 28.1334 772.26 Q27.4968 769.236 27.4968 766.371 Q27.4968 758.637 31.5072 754.818 Q35.5176 750.998 43.6657 750.998 Z" fill="#000000" fill-rule="nonzero" fill-opacity="1" /><path clip-path="url(#clip660)" d="M18.2347 733.142 L28.3562 733.142 L28.3562 721.079 L32.9077 721.079 L32.9077 733.142 L52.2594 733.142 Q56.6199 733.142 57.8613 731.965 Q59.1026 730.755 59.1026 727.095 L59.1026 721.079 L64.0042 721.079 L64.0042 727.095 Q64.0042 733.875 61.4897 736.453 Q58.9434 739.031 52.2594 739.031 L32.9077 739.031 L32.9077 743.328 L28.3562 743.328 L28.3562 739.031 L18.2347 739.031 L18.2347 733.142 Z" fill="#000000" fill-rule="nonzero" fill-opacity="1" /><path clip-path="url(#clip660)" d="M42.4881 683.745 L64.0042 683.745 L64.0042 689.601 L42.679 689.601 Q37.6183 689.601 35.1038 691.574 Q32.5894 693.548 32.5894 697.495 Q32.5894 702.237 35.6131 704.974 Q38.6368 707.711 43.8567 707.711 L64.0042 707.711 L64.0042 713.6 L14.479 713.6 L14.479 707.711 L33.8944 707.711 Q30.6797 705.611 29.0883 702.778 Q27.4968 699.913 27.4968 696.19 Q27.4968 690.047 31.3163 686.896 Q35.1038 683.745 42.4881 683.745 Z" fill="#000000" fill-rule="nonzero" fill-opacity="1" /><path clip-path="url(#clip660)" d="M316.335 18.8205 L316.335 41.5461 L326.624 41.5461 Q332.336 41.5461 335.455 38.5889 Q338.575 35.6318 338.575 30.163 Q338.575 24.7348 335.455 21.7777 Q332.336 18.8205 326.624 18.8205 L316.335 18.8205 M308.152 12.096 L326.624 12.096 Q336.792 12.096 341.977 16.714 Q347.203 21.2916 347.203 30.163 Q347.203 39.1155 341.977 43.6931 Q336.792 48.2706 326.624 48.2706 L316.335 48.2706 L316.335 72.576 L308.152 72.576 L308.152 12.096 Z" fill="#000000" fill-rule="nonzero" fill-opacity="1" /><path clip-path="url(#clip660)" d="M393.707 48.0275 L393.707 51.6733 L359.437 51.6733 Q359.923 59.3701 364.055 63.421 Q368.227 67.4314 375.64 67.4314 Q379.934 67.4314 383.945 66.3781 Q387.996 65.3249 391.966 63.2184 L391.966 70.267 Q387.955 71.9684 383.742 72.8596 Q379.529 73.7508 375.195 73.7508 Q364.338 73.7508 357.978 67.4314 Q351.659 61.1119 351.659 50.3365 Q351.659 39.1965 357.654 32.6746 Q363.69 26.1121 373.899 26.1121 Q383.054 26.1121 388.36 32.0264 Q393.707 37.9003 393.707 48.0275 M386.254 45.84 Q386.173 39.7232 382.811 36.0774 Q379.489 32.4315 373.98 32.4315 Q367.741 32.4315 363.974 35.9558 Q360.247 39.4801 359.68 45.8805 L386.254 45.84 Z" fill="#000000" fill-rule="nonzero" fill-opacity="1" /><path clip-path="url(#clip660)" d="M432.232 34.1734 Q430.976 33.4443 429.477 33.1202 Q428.019 32.7556 426.236 32.7556 Q419.917 32.7556 416.514 36.8875 Q413.152 40.9789 413.152 48.6757 L413.152 72.576 L405.658 72.576 L405.658 27.2059 L413.152 27.2059 L413.152 34.2544 Q415.501 30.1225 419.269 28.1376 Q423.036 26.1121 428.424 26.1121 Q429.193 26.1121 430.125 26.2337 Q431.057 26.3147 432.191 26.5172 L432.232 34.1734 Z" fill="#000000" fill-rule="nonzero" fill-opacity="1" /><path clip-path="url(#clip660)" d="M468.973 28.5427 L468.973 35.5912 Q465.814 33.9709 462.411 33.1607 Q459.008 32.3505 455.362 32.3505 Q449.812 32.3505 447.017 34.0519 Q444.263 35.7533 444.263 39.156 Q444.263 41.7486 446.248 43.2475 Q448.233 44.7058 454.228 46.0426 L456.78 46.6097 Q464.72 48.3111 468.042 51.4303 Q471.404 54.509 471.404 60.0587 Q471.404 66.3781 466.381 70.0644 Q461.398 73.7508 452.648 73.7508 Q449.002 73.7508 445.032 73.0216 Q441.103 72.3329 436.728 70.9151 L436.728 63.2184 Q440.86 65.3654 444.87 66.4591 Q448.881 67.5124 452.81 67.5124 Q458.076 67.5124 460.912 65.73 Q463.748 63.9071 463.748 60.6258 Q463.748 57.5877 461.682 55.9673 Q459.656 54.3469 452.729 52.8481 L450.137 52.2405 Q443.209 50.7821 440.131 47.7845 Q437.052 44.7463 437.052 39.4801 Q437.052 33.0797 441.589 29.5959 Q446.126 26.1121 454.471 26.1121 Q458.603 26.1121 462.249 26.7198 Q465.895 27.3274 468.973 28.5427 Z" fill="#000000" fill-rule="nonzero" fill-opacity="1" /><path clip-path="url(#clip660)" d="M483.273 27.2059 L490.727 27.2059 L490.727 72.576 L483.273 72.576 L483.273 27.2059 M483.273 9.54393 L490.727 9.54393 L490.727 18.9825 L483.273 18.9825 L483.273 9.54393 Z" fill="#000000" fill-rule="nonzero" fill-opacity="1" /><path clip-path="url(#clip660)" d="M535.246 28.5427 L535.246 35.5912 Q532.086 33.9709 528.684 33.1607 Q525.281 32.3505 521.635 32.3505 Q516.085 32.3505 513.29 34.0519 Q510.536 35.7533 510.536 39.156 Q510.536 41.7486 512.52 43.2475 Q514.505 44.7058 520.501 46.0426 L523.053 46.6097 Q530.993 48.3111 534.314 51.4303 Q537.677 54.509 537.677 60.0587 Q537.677 66.3781 532.653 70.0644 Q527.671 73.7508 518.921 73.7508 Q515.275 73.7508 511.305 73.0216 Q507.376 72.3329 503.001 70.9151 L503.001 63.2184 Q507.133 65.3654 511.143 66.4591 Q515.154 67.5124 519.083 67.5124 Q524.349 67.5124 527.185 65.73 Q530.02 63.9071 530.02 60.6258 Q530.02 57.5877 527.954 55.9673 Q525.929 54.3469 519.002 52.8481 L516.409 52.2405 Q509.482 50.7821 506.404 47.7845 Q503.325 44.7463 503.325 39.4801 Q503.325 33.0797 507.862 29.5959 Q512.399 26.1121 520.744 26.1121 Q524.876 26.1121 528.522 26.7198 Q532.167 27.3274 535.246 28.5427 Z" fill="#000000" fill-rule="nonzero" fill-opacity="1" /><path clip-path="url(#clip660)" d="M556.918 14.324 L556.918 27.2059 L572.271 27.2059 L572.271 32.9987 L556.918 32.9987 L556.918 57.6282 Q556.918 63.1779 558.417 64.7578 Q559.957 66.3376 564.615 66.3376 L572.271 66.3376 L572.271 72.576 L564.615 72.576 Q555.987 72.576 552.705 69.3758 Q549.424 66.1351 549.424 57.6282 L549.424 32.9987 L543.955 32.9987 L543.955 27.2059 L549.424 27.2059 L549.424 14.324 L556.918 14.324 Z" fill="#000000" fill-rule="nonzero" fill-opacity="1" /><path clip-path="url(#clip660)" d="M620.882 48.0275 L620.882 51.6733 L586.611 51.6733 Q587.098 59.3701 591.23 63.421 Q595.402 67.4314 602.815 67.4314 Q607.109 67.4314 611.119 66.3781 Q615.17 65.3249 619.14 63.2184 L619.14 70.267 Q615.13 71.9684 610.917 72.8596 Q606.704 73.7508 602.37 73.7508 Q591.513 73.7508 585.153 67.4314 Q578.834 61.1119 578.834 50.3365 Q578.834 39.1965 584.829 32.6746 Q590.865 26.1121 601.073 26.1121 Q610.228 26.1121 615.535 32.0264 Q620.882 37.9003 620.882 48.0275 M613.428 45.84 Q613.347 39.7232 609.985 36.0774 Q606.663 32.4315 601.154 32.4315 Q594.916 32.4315 591.149 35.9558 Q587.422 39.4801 586.855 45.8805 L613.428 45.84 Z" fill="#000000" fill-rule="nonzero" fill-opacity="1" /><path clip-path="url(#clip660)" d="M670.83 45.1919 L670.83 72.576 L663.376 72.576 L663.376 45.4349 Q663.376 38.994 660.865 35.7938 Q658.353 32.5936 653.33 32.5936 Q647.294 32.5936 643.81 36.4419 Q640.326 40.2903 640.326 46.9338 L640.326 72.576 L632.832 72.576 L632.832 27.2059 L640.326 27.2059 L640.326 34.2544 Q643 30.163 646.605 28.1376 Q650.251 26.1121 654.991 26.1121 Q662.809 26.1121 666.819 30.9732 Q670.83 35.7938 670.83 45.1919 Z" fill="#000000" fill-rule="nonzero" fill-opacity="1" /><path clip-path="url(#clip660)" d="M718.347 28.9478 L718.347 35.9153 Q715.187 34.1734 711.987 33.3227 Q708.827 32.4315 705.587 32.4315 Q698.335 32.4315 694.325 37.0496 Q690.315 41.6271 690.315 49.9314 Q690.315 58.2358 694.325 62.8538 Q698.335 67.4314 705.587 67.4314 Q708.827 67.4314 711.987 66.5807 Q715.187 65.6895 718.347 63.9476 L718.347 70.8341 Q715.228 72.2924 711.865 73.0216 Q708.544 73.7508 704.776 73.7508 Q694.528 73.7508 688.492 67.3098 Q682.456 60.8689 682.456 49.9314 Q682.456 38.832 688.532 32.472 Q694.649 26.1121 705.262 26.1121 Q708.706 26.1121 711.987 26.8413 Q715.268 27.5299 718.347 28.9478 Z" fill="#000000" fill-rule="nonzero" fill-opacity="1" /><path clip-path="url(#clip660)" d="M770.117 48.0275 L770.117 51.6733 L735.847 51.6733 Q736.333 59.3701 740.465 63.421 Q744.637 67.4314 752.05 67.4314 Q756.344 67.4314 760.355 66.3781 Q764.406 65.3249 768.376 63.2184 L768.376 70.267 Q764.365 71.9684 760.152 72.8596 Q755.939 73.7508 751.605 73.7508 Q740.748 73.7508 734.388 67.4314 Q728.069 61.1119 728.069 50.3365 Q728.069 39.1965 734.064 32.6746 Q740.1 26.1121 750.309 26.1121 Q759.464 26.1121 764.77 32.0264 Q770.117 37.9003 770.117 48.0275 M762.664 45.84 Q762.583 39.7232 759.221 36.0774 Q755.899 32.4315 750.39 32.4315 Q744.151 32.4315 740.384 35.9558 Q736.657 39.4801 736.09 45.8805 L762.664 45.84 Z" fill="#000000" fill-rule="nonzero" fill-opacity="1" /><path clip-path="url(#clip660)" d="M817.229 18.8205 L817.229 65.8515 L827.114 65.8515 Q839.631 65.8515 845.424 60.1802 Q851.257 54.509 851.257 42.2752 Q851.257 30.1225 845.424 24.4918 Q839.631 18.8205 827.114 18.8205 L817.229 18.8205 M809.047 12.096 L825.858 12.096 Q843.439 12.096 851.662 19.4281 Q859.885 26.7198 859.885 42.2752 Q859.885 57.9117 851.622 65.2439 Q843.358 72.576 825.858 72.576 L809.047 72.576 L809.047 12.096 Z" fill="#000000" fill-rule="nonzero" fill-opacity="1" /><path clip-path="url(#clip660)" d="M872.605 27.2059 L880.059 27.2059 L880.059 72.576 L872.605 72.576 L872.605 27.2059 M872.605 9.54393 L880.059 9.54393 L880.059 18.9825 L872.605 18.9825 L872.605 9.54393 Z" fill="#000000" fill-rule="nonzero" fill-opacity="1" /><path clip-path="url(#clip660)" d="M916.274 49.7694 Q907.241 49.7694 903.757 51.8354 Q900.273 53.9013 900.273 58.8839 Q900.273 62.8538 902.866 65.2034 Q905.499 67.5124 909.995 67.5124 Q916.193 67.5124 919.92 63.1374 Q923.687 58.7219 923.687 51.4303 L923.687 49.7694 L916.274 49.7694 M931.141 46.6907 L931.141 72.576 L923.687 72.576 L923.687 65.6895 Q921.135 69.8214 917.327 71.8063 Q913.519 73.7508 908.01 73.7508 Q901.043 73.7508 896.911 69.8619 Q892.819 65.9325 892.819 59.3701 Q892.819 51.7138 897.923 47.825 Q903.068 43.9361 913.236 43.9361 L923.687 43.9361 L923.687 43.2069 Q923.687 38.0623 920.284 35.2672 Q916.922 32.4315 910.805 32.4315 Q906.916 32.4315 903.23 33.3632 Q899.544 34.295 896.141 36.1584 L896.141 29.2718 Q900.232 27.692 904.081 26.9223 Q907.929 26.1121 911.575 26.1121 Q921.419 26.1121 926.28 31.2163 Q931.141 36.3204 931.141 46.6907 Z" fill="#000000" fill-rule="nonzero" fill-opacity="1" /><path clip-path="url(#clip660)" d="M976.349 49.3643 Q976.349 41.2625 972.987 36.8065 Q969.665 32.3505 963.629 32.3505 Q957.634 32.3505 954.272 36.8065 Q950.95 41.2625 950.95 49.3643 Q950.95 57.4256 954.272 61.8816 Q957.634 66.3376 963.629 66.3376 Q969.665 66.3376 972.987 61.8816 Q976.349 57.4256 976.349 49.3643 M983.803 66.9452 Q983.803 78.5308 978.658 84.1616 Q973.513 89.8329 962.9 89.8329 Q958.971 89.8329 955.487 89.2252 Q952.003 88.6581 948.722 87.4428 L948.722 80.1917 Q952.003 81.9741 955.203 82.8248 Q958.403 83.6755 961.725 83.6755 Q969.057 83.6755 972.703 79.8271 Q976.349 76.0193 976.349 68.282 L976.349 64.5957 Q974.04 68.6061 970.435 70.5911 Q966.829 72.576 961.806 72.576 Q953.461 72.576 948.357 66.2161 Q943.253 59.8562 943.253 49.3643 Q943.253 38.832 948.357 32.472 Q953.461 26.1121 961.806 26.1121 Q966.829 26.1121 970.435 28.0971 Q974.04 30.082 976.349 34.0924 L976.349 27.2059 L983.803 27.2059 L983.803 66.9452 Z" fill="#000000" fill-rule="nonzero" fill-opacity="1" /><path clip-path="url(#clip660)" d="M1025.45 34.1734 Q1024.19 33.4443 1022.69 33.1202 Q1021.23 32.7556 1019.45 32.7556 Q1013.13 32.7556 1009.73 36.8875 Q1006.37 40.9789 1006.37 48.6757 L1006.37 72.576 L998.872 72.576 L998.872 27.2059 L1006.37 27.2059 L1006.37 34.2544 Q1008.72 30.1225 1012.48 28.1376 Q1016.25 26.1121 1021.64 26.1121 Q1022.41 26.1121 1023.34 26.2337 Q1024.27 26.3147 1025.41 26.5172 L1025.45 34.1734 Z" fill="#000000" fill-rule="nonzero" fill-opacity="1" /><path clip-path="url(#clip660)" d="M1053.88 49.7694 Q1044.85 49.7694 1041.37 51.8354 Q1037.88 53.9013 1037.88 58.8839 Q1037.88 62.8538 1040.47 65.2034 Q1043.11 67.5124 1047.6 67.5124 Q1053.8 67.5124 1057.53 63.1374 Q1061.3 58.7219 1061.3 51.4303 L1061.3 49.7694 L1053.88 49.7694 M1068.75 46.6907 L1068.75 72.576 L1061.3 72.576 L1061.3 65.6895 Q1058.74 69.8214 1054.94 71.8063 Q1051.13 73.7508 1045.62 73.7508 Q1038.65 73.7508 1034.52 69.8619 Q1030.43 65.9325 1030.43 59.3701 Q1030.43 51.7138 1035.53 47.825 Q1040.68 43.9361 1050.85 43.9361 L1061.3 43.9361 L1061.3 43.2069 Q1061.3 38.0623 1057.89 35.2672 Q1054.53 32.4315 1048.41 32.4315 Q1044.53 32.4315 1040.84 33.3632 Q1037.15 34.295 1033.75 36.1584 L1033.75 29.2718 Q1037.84 27.692 1041.69 26.9223 Q1045.54 26.1121 1049.18 26.1121 Q1059.03 26.1121 1063.89 31.2163 Q1068.75 36.3204 1068.75 46.6907 Z" fill="#000000" fill-rule="nonzero" fill-opacity="1" /><path clip-path="url(#clip660)" d="M1119.43 35.9153 Q1122.22 30.8922 1126.11 28.5022 Q1130 26.1121 1135.27 26.1121 Q1142.36 26.1121 1146.2 31.0947 Q1150.05 36.0368 1150.05 45.1919 L1150.05 72.576 L1142.56 72.576 L1142.56 45.4349 Q1142.56 38.913 1140.25 35.7533 Q1137.94 32.5936 1133.2 32.5936 Q1127.41 32.5936 1124.04 36.4419 Q1120.68 40.2903 1120.68 46.9338 L1120.68 72.576 L1113.19 72.576 L1113.19 45.4349 Q1113.19 38.8725 1110.88 35.7533 Q1108.57 32.5936 1103.75 32.5936 Q1098.04 32.5936 1094.68 36.4824 Q1091.31 40.3308 1091.31 46.9338 L1091.31 72.576 L1083.82 72.576 L1083.82 27.2059 L1091.31 27.2059 L1091.31 34.2544 Q1093.87 30.082 1097.43 28.0971 Q1101 26.1121 1105.9 26.1121 Q1110.84 26.1121 1114.28 28.6237 Q1117.77 31.1352 1119.43 35.9153 Z" fill="#000000" fill-rule="nonzero" fill-opacity="1" /><polyline clip-path="url(#clip662)" style="stroke:#000000; stroke-linecap:round; stroke-linejoin:round; stroke-width:4; stroke-opacity:1; fill:none" points="219.38,1283.05 229.905,1272.52 291.545,1210.88 320.221,1182.21 358.656,1143.77 390.416,1112.01 419.949,1082.48 457.023,1045.4 490.279,1012.15 528.345,974.083 556.799,945.629 593.193,909.235 626.409,876.019 664.214,838.214 694.182,808.246 731.414,771.014 759.928,742.5 800.128,702.3 830.169,672.259 864.332,638.096 898.166,604.262 935.389,567.039 963.821,538.608 999.699,502.729 1032.88,469.545 1067.11,435.322 1101.8,400.632 1138.02,364.41 1166.55,335.876 1231.53,270.895 1238.82,263.604 "/>
<polyline clip-path="url(#clip662)" style="stroke:#808080; stroke-linecap:round; stroke-linejoin:round; stroke-width:4; stroke-opacity:1; fill:none" stroke-dasharray="2, 4" points="-800.064,169.262 2258.27,169.262 "/>
<circle clip-path="url(#clip662)" cx="320.938" cy="1175.15" r="14.4" fill="#e26f46" fill-rule="evenodd" fill-opacity="0.5" stroke="none"/>
<circle clip-path="url(#clip662)" cx="463.411" cy="309.942" r="14.4" fill="#e26f46" fill-rule="evenodd" fill-opacity="0.5" stroke="none"/>
<path clip-path="url(#clip660)" d="M1055.49 1239.72 L1204.84 1239.72 L1204.84 1136.04 L1055.49 1136.04  Z" fill="#ffffff" fill-rule="evenodd" fill-opacity="1"/>
<polyline clip-path="url(#clip660)" style="stroke:#000000; stroke-linecap:round; stroke-linejoin:round; stroke-width:4; stroke-opacity:1; fill:none" points="1055.49,1239.72 1204.84,1239.72 1204.84,1136.04 1055.49,1136.04 1055.49,1239.72 "/>
<circle clip-path="url(#clip660)" cx="1100.8" cy="1187.88" r="20.48" fill="#e26f46" fill-rule="evenodd" fill-opacity="0.5" stroke="none"/>
<path clip-path="url(#clip660)" d="M1146.11 1170.6 L1150.78 1170.6 L1150.78 1184.77 L1167.77 1184.77 L1167.77 1170.6 L1172.45 1170.6 L1172.45 1205.16 L1167.77 1205.16 L1167.77 1188.71 L1150.78 1188.71 L1150.78 1205.16 L1146.11 1205.16 L1146.11 1170.6 Z" fill="#000000" fill-rule="nonzero" fill-opacity="1" /><path clip-path="url(#clip660)" d="M1180.71 1202.62 L1185.44 1202.62 L1185.44 1188.47 L1180.27 1189.42 L1180.27 1186.74 L1185.6 1185.84 L1188.77 1185.84 L1188.77 1202.62 L1193.52 1202.62 L1193.52 1205.16 L1180.71 1205.16 L1180.71 1202.62 Z" fill="#000000" fill-rule="nonzero" fill-opacity="1" /><path clip-path="url(#clip660)" d="M1333.31 1423.18 L2169.24 1423.18 L2169.24 123.472 L1333.31 123.472  Z" fill="#ffffff" fill-rule="evenodd" fill-opacity="1"/>
<polyline clip-path="url(#clip661)" style="stroke:#000000; stroke-linecap:round; stroke-linejoin:round; stroke-width:2; stroke-opacity:0.1; fill:none" points="1421.81,1423.18 1421.81,123.472 "/>
<polyline clip-path="url(#clip661)" style="stroke:#000000; stroke-linecap:round; stroke-linejoin:round; stroke-width:2; stroke-opacity:0.1; fill:none" points="1529.67,1423.18 1529.67,123.472 "/>
<polyline clip-path="url(#clip661)" style="stroke:#000000; stroke-linecap:round; stroke-linejoin:round; stroke-width:2; stroke-opacity:0.1; fill:none" points="1637.53,1423.18 1637.53,123.472 "/>
<polyline clip-path="url(#clip661)" style="stroke:#000000; stroke-linecap:round; stroke-linejoin:round; stroke-width:2; stroke-opacity:0.1; fill:none" points="1745.39,1423.18 1745.39,123.472 "/>
<polyline clip-path="url(#clip661)" style="stroke:#000000; stroke-linecap:round; stroke-linejoin:round; stroke-width:2; stroke-opacity:0.1; fill:none" points="1853.25,1423.18 1853.25,123.472 "/>
<polyline clip-path="url(#clip661)" style="stroke:#000000; stroke-linecap:round; stroke-linejoin:round; stroke-width:2; stroke-opacity:0.1; fill:none" points="1961.11,1423.18 1961.11,123.472 "/>
<polyline clip-path="url(#clip661)" style="stroke:#000000; stroke-linecap:round; stroke-linejoin:round; stroke-width:2; stroke-opacity:0.1; fill:none" points="2068.97,1423.18 2068.97,123.472 "/>
<polyline clip-path="url(#clip660)" style="stroke:#000000; stroke-linecap:round; stroke-linejoin:round; stroke-width:4; stroke-opacity:1; fill:none" points="1333.31,1423.18 2169.24,1423.18 "/>
<polyline clip-path="url(#clip660)" style="stroke:#000000; stroke-linecap:round; stroke-linejoin:round; stroke-width:4; stroke-opacity:1; fill:none" points="1421.81,1423.18 1421.81,1404.28 "/>
<polyline clip-path="url(#clip660)" style="stroke:#000000; stroke-linecap:round; stroke-linejoin:round; stroke-width:4; stroke-opacity:1; fill:none" points="1529.67,1423.18 1529.67,1404.28 "/>
<polyline clip-path="url(#clip660)" style="stroke:#000000; stroke-linecap:round; stroke-linejoin:round; stroke-width:4; stroke-opacity:1; fill:none" points="1637.53,1423.18 1637.53,1404.28 "/>
<polyline clip-path="url(#clip660)" style="stroke:#000000; stroke-linecap:round; stroke-linejoin:round; stroke-width:4; stroke-opacity:1; fill:none" points="1745.39,1423.18 1745.39,1404.28 "/>
<polyline clip-path="url(#clip660)" style="stroke:#000000; stroke-linecap:round; stroke-linejoin:round; stroke-width:4; stroke-opacity:1; fill:none" points="1853.25,1423.18 1853.25,1404.28 "/>
<polyline clip-path="url(#clip660)" style="stroke:#000000; stroke-linecap:round; stroke-linejoin:round; stroke-width:4; stroke-opacity:1; fill:none" points="1961.11,1423.18 1961.11,1404.28 "/>
<polyline clip-path="url(#clip660)" style="stroke:#000000; stroke-linecap:round; stroke-linejoin:round; stroke-width:4; stroke-opacity:1; fill:none" points="2068.97,1423.18 2068.97,1404.28 "/>
<path clip-path="url(#clip660)" d="M1384.61 1454.1 Q1381 1454.1 1379.17 1457.66 Q1377.37 1461.2 1377.37 1468.33 Q1377.37 1475.44 1379.17 1479.01 Q1381 1482.55 1384.61 1482.55 Q1388.25 1482.55 1390.05 1479.01 Q1391.88 1475.44 1391.88 1468.33 Q1391.88 1461.2 1390.05 1457.66 Q1388.25 1454.1 1384.61 1454.1 M1384.61 1450.39 Q1390.42 1450.39 1393.48 1455 Q1396.56 1459.58 1396.56 1468.33 Q1396.56 1477.06 1393.48 1481.67 Q1390.42 1486.25 1384.61 1486.25 Q1378.8 1486.25 1375.72 1481.67 Q1372.67 1477.06 1372.67 1468.33 Q1372.67 1459.58 1375.72 1455 Q1378.8 1450.39 1384.61 1450.39 Z" fill="#000000" fill-rule="nonzero" fill-opacity="1" /><path clip-path="url(#clip660)" d="M1404.77 1479.7 L1409.66 1479.7 L1409.66 1485.58 L1404.77 1485.58 L1404.77 1479.7 Z" fill="#000000" fill-rule="nonzero" fill-opacity="1" /><path clip-path="url(#clip660)" d="M1423.87 1481.64 L1440.19 1481.64 L1440.19 1485.58 L1418.25 1485.58 L1418.25 1481.64 Q1420.91 1478.89 1425.49 1474.26 Q1430.1 1469.61 1431.28 1468.27 Q1433.52 1465.74 1434.4 1464.01 Q1435.31 1462.25 1435.31 1460.56 Q1435.31 1457.8 1433.36 1456.07 Q1431.44 1454.33 1428.34 1454.33 Q1426.14 1454.33 1423.69 1455.09 Q1421.25 1455.86 1418.48 1457.41 L1418.48 1452.69 Q1421.3 1451.55 1423.75 1450.97 Q1426.21 1450.39 1428.25 1450.39 Q1433.62 1450.39 1436.81 1453.08 Q1440 1455.77 1440 1460.26 Q1440 1462.39 1439.19 1464.31 Q1438.41 1466.2 1436.3 1468.8 Q1435.72 1469.47 1432.62 1472.69 Q1429.52 1475.88 1423.87 1481.64 Z" fill="#000000" fill-rule="nonzero" fill-opacity="1" /><path clip-path="url(#clip660)" d="M1450.05 1451.02 L1468.41 1451.02 L1468.41 1454.96 L1454.33 1454.96 L1454.33 1463.43 Q1455.35 1463.08 1456.37 1462.92 Q1457.39 1462.73 1458.41 1462.73 Q1464.19 1462.73 1467.57 1465.9 Q1470.95 1469.08 1470.95 1474.49 Q1470.95 1480.07 1467.48 1483.17 Q1464.01 1486.25 1457.69 1486.25 Q1455.51 1486.25 1453.25 1485.88 Q1451 1485.51 1448.59 1484.77 L1448.59 1480.07 Q1450.68 1481.2 1452.9 1481.76 Q1455.12 1482.32 1457.6 1482.32 Q1461.6 1482.32 1463.94 1480.21 Q1466.28 1478.1 1466.28 1474.49 Q1466.28 1470.88 1463.94 1468.77 Q1461.6 1466.67 1457.6 1466.67 Q1455.72 1466.67 1453.85 1467.08 Q1452 1467.5 1450.05 1468.38 L1450.05 1451.02 Z" fill="#000000" fill-rule="nonzero" fill-opacity="1" /><path clip-path="url(#clip660)" d="M1491.97 1454.1 Q1488.36 1454.1 1486.53 1457.66 Q1484.73 1461.2 1484.73 1468.33 Q1484.73 1475.44 1486.53 1479.01 Q1488.36 1482.55 1491.97 1482.55 Q1495.61 1482.55 1497.41 1479.01 Q1499.24 1475.44 1499.24 1468.33 Q1499.24 1461.2 1497.41 1457.66 Q1495.61 1454.1 1491.97 1454.1 M1491.97 1450.39 Q1497.78 1450.39 1500.84 1455 Q1503.92 1459.58 1503.92 1468.33 Q1503.92 1477.06 1500.84 1481.67 Q1497.78 1486.25 1491.97 1486.25 Q1486.16 1486.25 1483.09 1481.67 Q1480.03 1477.06 1480.03 1468.33 Q1480.03 1459.58 1483.09 1455 Q1486.16 1450.39 1491.97 1450.39 Z" fill="#000000" fill-rule="nonzero" fill-opacity="1" /><path clip-path="url(#clip660)" d="M1512.14 1479.7 L1517.02 1479.7 L1517.02 1485.58 L1512.14 1485.58 L1512.14 1479.7 Z" fill="#000000" fill-rule="nonzero" fill-opacity="1" /><path clip-path="url(#clip660)" d="M1527.25 1451.02 L1545.61 1451.02 L1545.61 1454.96 L1531.53 1454.96 L1531.53 1463.43 Q1532.55 1463.08 1533.57 1462.92 Q1534.59 1462.73 1535.61 1462.73 Q1541.39 1462.73 1544.77 1465.9 Q1548.15 1469.08 1548.15 1474.49 Q1548.15 1480.07 1544.68 1483.17 Q1541.21 1486.25 1534.89 1486.25 Q1532.71 1486.25 1530.45 1485.88 Q1528.2 1485.51 1525.79 1484.77 L1525.79 1480.07 Q1527.88 1481.2 1530.1 1481.76 Q1532.32 1482.32 1534.8 1482.32 Q1538.8 1482.32 1541.14 1480.21 Q1543.48 1478.1 1543.48 1474.49 Q1543.48 1470.88 1541.14 1468.77 Q1538.8 1466.67 1534.8 1466.67 Q1532.92 1466.67 1531.05 1467.08 Q1529.2 1467.5 1527.25 1468.38 L1527.25 1451.02 Z" fill="#000000" fill-rule="nonzero" fill-opacity="1" /><path clip-path="url(#clip660)" d="M1567.37 1454.1 Q1563.76 1454.1 1561.93 1457.66 Q1560.12 1461.2 1560.12 1468.33 Q1560.12 1475.44 1561.93 1479.01 Q1563.76 1482.55 1567.37 1482.55 Q1571 1482.55 1572.81 1479.01 Q1574.64 1475.44 1574.64 1468.33 Q1574.64 1461.2 1572.81 1457.66 Q1571 1454.1 1567.37 1454.1 M1567.37 1450.39 Q1573.18 1450.39 1576.23 1455 Q1579.31 1459.58 1579.31 1468.33 Q1579.31 1477.06 1576.23 1481.67 Q1573.18 1486.25 1567.37 1486.25 Q1561.56 1486.25 1558.48 1481.67 Q1555.42 1477.06 1555.42 1468.33 Q1555.42 1459.58 1558.48 1455 Q1561.56 1450.39 1567.37 1450.39 Z" fill="#000000" fill-rule="nonzero" fill-opacity="1" /><path clip-path="url(#clip660)" d="M1600.33 1454.1 Q1596.72 1454.1 1594.89 1457.66 Q1593.09 1461.2 1593.09 1468.33 Q1593.09 1475.44 1594.89 1479.01 Q1596.72 1482.55 1600.33 1482.55 Q1603.97 1482.55 1605.77 1479.01 Q1607.6 1475.44 1607.6 1468.33 Q1607.6 1461.2 1605.77 1457.66 Q1603.97 1454.1 1600.33 1454.1 M1600.33 1450.39 Q1606.14 1450.39 1609.2 1455 Q1612.28 1459.58 1612.28 1468.33 Q1612.28 1477.06 1609.2 1481.67 Q1606.14 1486.25 1600.33 1486.25 Q1594.52 1486.25 1591.44 1481.67 Q1588.39 1477.06 1588.39 1468.33 Q1588.39 1459.58 1591.44 1455 Q1594.52 1450.39 1600.33 1450.39 Z" fill="#000000" fill-rule="nonzero" fill-opacity="1" /><path clip-path="url(#clip660)" d="M1620.49 1479.7 L1625.38 1479.7 L1625.38 1485.58 L1620.49 1485.58 L1620.49 1479.7 Z" fill="#000000" fill-rule="nonzero" fill-opacity="1" /><path clip-path="url(#clip660)" d="M1634.38 1451.02 L1656.6 1451.02 L1656.6 1453.01 L1644.06 1485.58 L1639.17 1485.58 L1650.98 1454.96 L1634.38 1454.96 L1634.38 1451.02 Z" fill="#000000" fill-rule="nonzero" fill-opacity="1" /><path clip-path="url(#clip660)" d="M1665.77 1451.02 L1684.13 1451.02 L1684.13 1454.96 L1670.05 1454.96 L1670.05 1463.43 Q1671.07 1463.08 1672.09 1462.92 Q1673.11 1462.73 1674.13 1462.73 Q1679.91 1462.73 1683.29 1465.9 Q1686.67 1469.08 1686.67 1474.49 Q1686.67 1480.07 1683.2 1483.17 Q1679.73 1486.25 1673.41 1486.25 Q1671.23 1486.25 1668.97 1485.88 Q1666.72 1485.51 1664.31 1484.77 L1664.31 1480.07 Q1666.4 1481.2 1668.62 1481.76 Q1670.84 1482.32 1673.32 1482.32 Q1677.32 1482.32 1679.66 1480.21 Q1682 1478.1 1682 1474.49 Q1682 1470.88 1679.66 1468.77 Q1677.32 1466.67 1673.32 1466.67 Q1671.44 1466.67 1669.57 1467.08 Q1667.72 1467.5 1665.77 1468.38 L1665.77 1451.02 Z" fill="#000000" fill-rule="nonzero" fill-opacity="1" /><path clip-path="url(#clip660)" d="M1697.46 1481.64 L1705.1 1481.64 L1705.1 1455.28 L1696.79 1456.95 L1696.79 1452.69 L1705.06 1451.02 L1709.73 1451.02 L1709.73 1481.64 L1717.37 1481.64 L1717.37 1485.58 L1697.46 1485.58 L1697.46 1481.64 Z" fill="#000000" fill-rule="nonzero" fill-opacity="1" /><path clip-path="url(#clip660)" d="M1726.81 1479.7 L1731.7 1479.7 L1731.7 1485.58 L1726.81 1485.58 L1726.81 1479.7 Z" fill="#000000" fill-rule="nonzero" fill-opacity="1" /><path clip-path="url(#clip660)" d="M1751.88 1454.1 Q1748.27 1454.1 1746.44 1457.66 Q1744.64 1461.2 1744.64 1468.33 Q1744.64 1475.44 1746.44 1479.01 Q1748.27 1482.55 1751.88 1482.55 Q1755.52 1482.55 1757.32 1479.01 Q1759.15 1475.44 1759.15 1468.33 Q1759.15 1461.2 1757.32 1457.66 Q1755.52 1454.1 1751.88 1454.1 M1751.88 1450.39 Q1757.69 1450.39 1760.75 1455 Q1763.83 1459.58 1763.83 1468.33 Q1763.83 1477.06 1760.75 1481.67 Q1757.69 1486.25 1751.88 1486.25 Q1746.07 1486.25 1743 1481.67 Q1739.94 1477.06 1739.94 1468.33 Q1739.94 1459.58 1743 1455 Q1746.07 1450.39 1751.88 1450.39 Z" fill="#000000" fill-rule="nonzero" fill-opacity="1" /><path clip-path="url(#clip660)" d="M1782.05 1454.1 Q1778.43 1454.1 1776.61 1457.66 Q1774.8 1461.2 1774.8 1468.33 Q1774.8 1475.44 1776.61 1479.01 Q1778.43 1482.55 1782.05 1482.55 Q1785.68 1482.55 1787.49 1479.01 Q1789.31 1475.44 1789.31 1468.33 Q1789.31 1461.2 1787.49 1457.66 Q1785.68 1454.1 1782.05 1454.1 M1782.05 1450.39 Q1787.86 1450.39 1790.91 1455 Q1793.99 1459.58 1793.99 1468.33 Q1793.99 1477.06 1790.91 1481.67 Q1787.86 1486.25 1782.05 1486.25 Q1776.24 1486.25 1773.16 1481.67 Q1770.1 1477.06 1770.1 1468.33 Q1770.1 1459.58 1773.16 1455 Q1776.24 1450.39 1782.05 1450.39 Z" fill="#000000" fill-rule="nonzero" fill-opacity="1" /><path clip-path="url(#clip660)" d="M1805.82 1481.64 L1813.46 1481.64 L1813.46 1455.28 L1805.15 1456.95 L1805.15 1452.69 L1813.41 1451.02 L1818.09 1451.02 L1818.09 1481.64 L1825.73 1481.64 L1825.73 1485.58 L1805.82 1485.58 L1805.82 1481.64 Z" fill="#000000" fill-rule="nonzero" fill-opacity="1" /><path clip-path="url(#clip660)" d="M1835.17 1479.7 L1840.06 1479.7 L1840.06 1485.58 L1835.17 1485.58 L1835.17 1479.7 Z" fill="#000000" fill-rule="nonzero" fill-opacity="1" /><path clip-path="url(#clip660)" d="M1854.27 1481.64 L1870.59 1481.64 L1870.59 1485.58 L1848.64 1485.58 L1848.64 1481.64 Q1851.31 1478.89 1855.89 1474.26 Q1860.5 1469.61 1861.68 1468.27 Q1863.92 1465.74 1864.8 1464.01 Q1865.7 1462.25 1865.7 1460.56 Q1865.7 1457.8 1863.76 1456.07 Q1861.84 1454.33 1858.74 1454.33 Q1856.54 1454.33 1854.08 1455.09 Q1851.65 1455.86 1848.88 1457.41 L1848.88 1452.69 Q1851.7 1451.55 1854.15 1450.97 Q1856.61 1450.39 1858.64 1450.39 Q1864.01 1450.39 1867.21 1453.08 Q1870.4 1455.77 1870.4 1460.26 Q1870.4 1462.39 1869.59 1464.31 Q1868.81 1466.2 1866.7 1468.8 Q1866.12 1469.47 1863.02 1472.69 Q1859.92 1475.88 1854.27 1481.64 Z" fill="#000000" fill-rule="nonzero" fill-opacity="1" /><path clip-path="url(#clip660)" d="M1880.45 1451.02 L1898.81 1451.02 L1898.81 1454.96 L1884.73 1454.96 L1884.73 1463.43 Q1885.75 1463.08 1886.77 1462.92 Q1887.79 1462.73 1888.81 1462.73 Q1894.59 1462.73 1897.97 1465.9 Q1901.35 1469.08 1901.35 1474.49 Q1901.35 1480.07 1897.88 1483.17 Q1894.41 1486.25 1888.09 1486.25 Q1885.91 1486.25 1883.64 1485.88 Q1881.4 1485.51 1878.99 1484.77 L1878.99 1480.07 Q1881.07 1481.2 1883.3 1481.76 Q1885.52 1482.32 1888 1482.32 Q1892 1482.32 1894.34 1480.21 Q1896.68 1478.1 1896.68 1474.49 Q1896.68 1470.88 1894.34 1468.77 Q1892 1466.67 1888 1466.67 Q1886.12 1466.67 1884.25 1467.08 Q1882.39 1467.5 1880.45 1468.38 L1880.45 1451.02 Z" fill="#000000" fill-rule="nonzero" fill-opacity="1" /><path clip-path="url(#clip660)" d="M1913.18 1481.64 L1920.82 1481.64 L1920.82 1455.28 L1912.51 1456.95 L1912.51 1452.69 L1920.78 1451.02 L1925.45 1451.02 L1925.45 1481.64 L1933.09 1481.64 L1933.09 1485.58 L1913.18 1485.58 L1913.18 1481.64 Z" fill="#000000" fill-rule="nonzero" fill-opacity="1" /><path clip-path="url(#clip660)" d="M1942.53 1479.7 L1947.42 1479.7 L1947.42 1485.58 L1942.53 1485.58 L1942.53 1479.7 Z" fill="#000000" fill-rule="nonzero" fill-opacity="1" /><path clip-path="url(#clip660)" d="M1957.65 1451.02 L1976.01 1451.02 L1976.01 1454.96 L1961.93 1454.96 L1961.93 1463.43 Q1962.95 1463.08 1963.97 1462.92 Q1964.99 1462.73 1966.01 1462.73 Q1971.79 1462.73 1975.17 1465.9 Q1978.55 1469.08 1978.55 1474.49 Q1978.55 1480.07 1975.08 1483.17 Q1971.61 1486.25 1965.29 1486.25 Q1963.11 1486.25 1960.85 1485.88 Q1958.6 1485.51 1956.19 1484.77 L1956.19 1480.07 Q1958.28 1481.2 1960.5 1481.76 Q1962.72 1482.32 1965.2 1482.32 Q1969.2 1482.32 1971.54 1480.21 Q1973.88 1478.1 1973.88 1474.49 Q1973.88 1470.88 1971.54 1468.77 Q1969.2 1466.67 1965.2 1466.67 Q1963.32 1466.67 1961.45 1467.08 Q1959.6 1467.5 1957.65 1468.38 L1957.65 1451.02 Z" fill="#000000" fill-rule="nonzero" fill-opacity="1" /><path clip-path="url(#clip660)" d="M1997.77 1454.1 Q1994.16 1454.1 1992.33 1457.66 Q1990.52 1461.2 1990.52 1468.33 Q1990.52 1475.44 1992.33 1479.01 Q1994.16 1482.55 1997.77 1482.55 Q2001.4 1482.55 2003.21 1479.01 Q2005.03 1475.44 2005.03 1468.33 Q2005.03 1461.2 2003.21 1457.66 Q2001.4 1454.1 1997.77 1454.1 M1997.77 1450.39 Q2003.58 1450.39 2006.63 1455 Q2009.71 1459.58 2009.71 1468.33 Q2009.71 1477.06 2006.63 1481.67 Q2003.58 1486.25 1997.77 1486.25 Q1991.96 1486.25 1988.88 1481.67 Q1985.82 1477.06 1985.82 1468.33 Q1985.82 1459.58 1988.88 1455 Q1991.96 1450.39 1997.77 1450.39 Z" fill="#000000" fill-rule="nonzero" fill-opacity="1" /><path clip-path="url(#clip660)" d="M2021.54 1481.64 L2029.18 1481.64 L2029.18 1455.28 L2020.87 1456.95 L2020.87 1452.69 L2029.13 1451.02 L2033.81 1451.02 L2033.81 1481.64 L2041.45 1481.64 L2041.45 1485.58 L2021.54 1485.58 L2021.54 1481.64 Z" fill="#000000" fill-rule="nonzero" fill-opacity="1" /><path clip-path="url(#clip660)" d="M2050.89 1479.7 L2055.78 1479.7 L2055.78 1485.58 L2050.89 1485.58 L2050.89 1479.7 Z" fill="#000000" fill-rule="nonzero" fill-opacity="1" /><path clip-path="url(#clip660)" d="M2064.78 1451.02 L2087 1451.02 L2087 1453.01 L2074.46 1485.58 L2069.57 1485.58 L2081.38 1454.96 L2064.78 1454.96 L2064.78 1451.02 Z" fill="#000000" fill-rule="nonzero" fill-opacity="1" /><path clip-path="url(#clip660)" d="M2096.17 1451.02 L2114.53 1451.02 L2114.53 1454.96 L2100.45 1454.96 L2100.45 1463.43 Q2101.47 1463.08 2102.49 1462.92 Q2103.51 1462.73 2104.53 1462.73 Q2110.31 1462.73 2113.69 1465.9 Q2117.07 1469.08 2117.07 1474.49 Q2117.07 1480.07 2113.6 1483.17 Q2110.13 1486.25 2103.81 1486.25 Q2101.63 1486.25 2099.36 1485.88 Q2097.12 1485.51 2094.71 1484.77 L2094.71 1480.07 Q2096.8 1481.2 2099.02 1481.76 Q2101.24 1482.32 2103.72 1482.32 Q2107.72 1482.32 2110.06 1480.21 Q2112.4 1478.1 2112.4 1474.49 Q2112.4 1470.88 2110.06 1468.77 Q2107.72 1466.67 2103.72 1466.67 Q2101.84 1466.67 2099.97 1467.08 Q2098.11 1467.5 2096.17 1468.38 L2096.17 1451.02 Z" fill="#000000" fill-rule="nonzero" fill-opacity="1" /><path clip-path="url(#clip660)" d="M1750.34 1522.27 L1750.34 1532.4 L1762.4 1532.4 L1762.4 1536.95 L1750.34 1536.95 L1750.34 1556.3 Q1750.34 1560.66 1751.51 1561.9 Q1752.72 1563.14 1756.38 1563.14 L1762.4 1563.14 L1762.4 1568.04 L1756.38 1568.04 Q1749.6 1568.04 1747.03 1565.53 Q1744.45 1562.98 1744.45 1556.3 L1744.45 1536.95 L1740.15 1536.95 L1740.15 1532.4 L1744.45 1532.4 L1744.45 1522.27 L1750.34 1522.27 Z" fill="#000000" fill-rule="nonzero" fill-opacity="1" /><polyline clip-path="url(#clip660)" style="stroke:#000000; stroke-linecap:round; stroke-linejoin:round; stroke-width:4; stroke-opacity:1; fill:none" points="1333.31,1423.18 1333.31,123.472 "/>
<path clip-path="url(#clip660)" d="M1345.23 18.8205 L1345.23 41.5461 L1355.52 41.5461 Q1361.23 41.5461 1364.35 38.5889 Q1367.47 35.6318 1367.47 30.163 Q1367.47 24.7348 1364.35 21.7777 Q1361.23 18.8205 1355.52 18.8205 L1345.23 18.8205 M1337.05 12.096 L1355.52 12.096 Q1365.69 12.096 1370.87 16.714 Q1376.1 21.2916 1376.1 30.163 Q1376.1 39.1155 1370.87 43.6931 Q1365.69 48.2706 1355.52 48.2706 L1345.23 48.2706 L1345.23 72.576 L1337.05 72.576 L1337.05 12.096 Z" fill="#000000" fill-rule="nonzero" fill-opacity="1" /><path clip-path="url(#clip660)" d="M1422.6 48.0275 L1422.6 51.6733 L1388.33 51.6733 Q1388.82 59.3701 1392.95 63.421 Q1397.12 67.4314 1404.54 67.4314 Q1408.83 67.4314 1412.84 66.3781 Q1416.89 65.3249 1420.86 63.2184 L1420.86 70.267 Q1416.85 71.9684 1412.64 72.8596 Q1408.43 73.7508 1404.09 73.7508 Q1393.24 73.7508 1386.88 67.4314 Q1380.56 61.1119 1380.56 50.3365 Q1380.56 39.1965 1386.55 32.6746 Q1392.59 26.1121 1402.8 26.1121 Q1411.95 26.1121 1417.26 32.0264 Q1422.6 37.9003 1422.6 48.0275 M1415.15 45.84 Q1415.07 39.7232 1411.71 36.0774 Q1408.39 32.4315 1402.88 32.4315 Q1396.64 32.4315 1392.87 35.9558 Q1389.14 39.4801 1388.58 45.8805 L1415.15 45.84 Z" fill="#000000" fill-rule="nonzero" fill-opacity="1" /><path clip-path="url(#clip660)" d="M1461.13 34.1734 Q1459.87 33.4443 1458.37 33.1202 Q1456.92 32.7556 1455.13 32.7556 Q1448.81 32.7556 1445.41 36.8875 Q1442.05 40.9789 1442.05 48.6757 L1442.05 72.576 L1434.55 72.576 L1434.55 27.2059 L1442.05 27.2059 L1442.05 34.2544 Q1444.4 30.1225 1448.17 28.1376 Q1451.93 26.1121 1457.32 26.1121 Q1458.09 26.1121 1459.02 26.2337 Q1459.95 26.3147 1461.09 26.5172 L1461.13 34.1734 Z" fill="#000000" fill-rule="nonzero" fill-opacity="1" /><path clip-path="url(#clip660)" d="M1497.87 28.5427 L1497.87 35.5912 Q1494.71 33.9709 1491.31 33.1607 Q1487.91 32.3505 1484.26 32.3505 Q1478.71 32.3505 1475.91 34.0519 Q1473.16 35.7533 1473.16 39.156 Q1473.16 41.7486 1475.15 43.2475 Q1477.13 44.7058 1483.13 46.0426 L1485.68 46.6097 Q1493.62 48.3111 1496.94 51.4303 Q1500.3 54.509 1500.3 60.0587 Q1500.3 66.3781 1495.28 70.0644 Q1490.3 73.7508 1481.55 73.7508 Q1477.9 73.7508 1473.93 73.0216 Q1470 72.3329 1465.63 70.9151 L1465.63 63.2184 Q1469.76 65.3654 1473.77 66.4591 Q1477.78 67.5124 1481.71 67.5124 Q1486.97 67.5124 1489.81 65.73 Q1492.64 63.9071 1492.64 60.6258 Q1492.64 57.5877 1490.58 55.9673 Q1488.55 54.3469 1481.63 52.8481 L1479.03 52.2405 Q1472.11 50.7821 1469.03 47.7845 Q1465.95 44.7463 1465.95 39.4801 Q1465.95 33.0797 1470.49 29.5959 Q1475.02 26.1121 1483.37 26.1121 Q1487.5 26.1121 1491.15 26.7198 Q1494.79 27.3274 1497.87 28.5427 Z" fill="#000000" fill-rule="nonzero" fill-opacity="1" /><path clip-path="url(#clip660)" d="M1512.17 27.2059 L1519.62 27.2059 L1519.62 72.576 L1512.17 72.576 L1512.17 27.2059 M1512.17 9.54393 L1519.62 9.54393 L1519.62 18.9825 L1512.17 18.9825 L1512.17 9.54393 Z" fill="#000000" fill-rule="nonzero" fill-opacity="1" /><path clip-path="url(#clip660)" d="M1564.14 28.5427 L1564.14 35.5912 Q1560.98 33.9709 1557.58 33.1607 Q1554.18 32.3505 1550.53 32.3505 Q1544.98 32.3505 1542.19 34.0519 Q1539.43 35.7533 1539.43 39.156 Q1539.43 41.7486 1541.42 43.2475 Q1543.4 44.7058 1549.4 46.0426 L1551.95 46.6097 Q1559.89 48.3111 1563.21 51.4303 Q1566.57 54.509 1566.57 60.0587 Q1566.57 66.3781 1561.55 70.0644 Q1556.57 73.7508 1547.82 73.7508 Q1544.17 73.7508 1540.2 73.0216 Q1536.27 72.3329 1531.9 70.9151 L1531.9 63.2184 Q1536.03 65.3654 1540.04 66.4591 Q1544.05 67.5124 1547.98 67.5124 Q1553.25 67.5124 1556.08 65.73 Q1558.92 63.9071 1558.92 60.6258 Q1558.92 57.5877 1556.85 55.9673 Q1554.83 54.3469 1547.9 52.8481 L1545.31 52.2405 Q1538.38 50.7821 1535.3 47.7845 Q1532.22 44.7463 1532.22 39.4801 Q1532.22 33.0797 1536.76 29.5959 Q1541.3 26.1121 1549.64 26.1121 Q1553.77 26.1121 1557.42 26.7198 Q1561.06 27.3274 1564.14 28.5427 Z" fill="#000000" fill-rule="nonzero" fill-opacity="1" /><path clip-path="url(#clip660)" d="M1585.82 14.324 L1585.82 27.2059 L1601.17 27.2059 L1601.17 32.9987 L1585.82 32.9987 L1585.82 57.6282 Q1585.82 63.1779 1587.31 64.7578 Q1588.85 66.3376 1593.51 66.3376 L1601.17 66.3376 L1601.17 72.576 L1593.51 72.576 Q1584.88 72.576 1581.6 69.3758 Q1578.32 66.1351 1578.32 57.6282 L1578.32 32.9987 L1572.85 32.9987 L1572.85 27.2059 L1578.32 27.2059 L1578.32 14.324 L1585.82 14.324 Z" fill="#000000" fill-rule="nonzero" fill-opacity="1" /><path clip-path="url(#clip660)" d="M1649.78 48.0275 L1649.78 51.6733 L1615.51 51.6733 Q1615.99 59.3701 1620.13 63.421 Q1624.3 67.4314 1631.71 67.4314 Q1636.01 67.4314 1640.02 66.3781 Q1644.07 65.3249 1648.04 63.2184 L1648.04 70.267 Q1644.03 71.9684 1639.81 72.8596 Q1635.6 73.7508 1631.27 73.7508 Q1620.41 73.7508 1614.05 67.4314 Q1607.73 61.1119 1607.73 50.3365 Q1607.73 39.1965 1613.73 32.6746 Q1619.76 26.1121 1629.97 26.1121 Q1639.13 26.1121 1644.43 32.0264 Q1649.78 37.9003 1649.78 48.0275 M1642.33 45.84 Q1642.24 39.7232 1638.88 36.0774 Q1635.56 32.4315 1630.05 32.4315 Q1623.81 32.4315 1620.05 35.9558 Q1616.32 39.4801 1615.75 45.8805 L1642.33 45.84 Z" fill="#000000" fill-rule="nonzero" fill-opacity="1" /><path clip-path="url(#clip660)" d="M1699.73 45.1919 L1699.73 72.576 L1692.27 72.576 L1692.27 45.4349 Q1692.27 38.994 1689.76 35.7938 Q1687.25 32.5936 1682.23 32.5936 Q1676.19 32.5936 1672.71 36.4419 Q1669.22 40.2903 1669.22 46.9338 L1669.22 72.576 L1661.73 72.576 L1661.73 27.2059 L1669.22 27.2059 L1669.22 34.2544 Q1671.9 30.163 1675.5 28.1376 Q1679.15 26.1121 1683.89 26.1121 Q1691.71 26.1121 1695.72 30.9732 Q1699.73 35.7938 1699.73 45.1919 Z" fill="#000000" fill-rule="nonzero" fill-opacity="1" /><path clip-path="url(#clip660)" d="M1747.24 28.9478 L1747.24 35.9153 Q1744.08 34.1734 1740.88 33.3227 Q1737.72 32.4315 1734.48 32.4315 Q1727.23 32.4315 1723.22 37.0496 Q1719.21 41.6271 1719.21 49.9314 Q1719.21 58.2358 1723.22 62.8538 Q1727.23 67.4314 1734.48 67.4314 Q1737.72 67.4314 1740.88 66.5807 Q1744.08 65.6895 1747.24 63.9476 L1747.24 70.8341 Q1744.13 72.2924 1740.76 73.0216 Q1737.44 73.7508 1733.67 73.7508 Q1723.42 73.7508 1717.39 67.3098 Q1711.35 60.8689 1711.35 49.9314 Q1711.35 38.832 1717.43 32.472 Q1723.55 26.1121 1734.16 26.1121 Q1737.6 26.1121 1740.88 26.8413 Q1744.17 27.5299 1747.24 28.9478 Z" fill="#000000" fill-rule="nonzero" fill-opacity="1" /><path clip-path="url(#clip660)" d="M1799.01 48.0275 L1799.01 51.6733 L1764.74 51.6733 Q1765.23 59.3701 1769.36 63.421 Q1773.53 67.4314 1780.95 67.4314 Q1785.24 67.4314 1789.25 66.3781 Q1793.3 65.3249 1797.27 63.2184 L1797.27 70.267 Q1793.26 71.9684 1789.05 72.8596 Q1784.84 73.7508 1780.5 73.7508 Q1769.65 73.7508 1763.29 67.4314 Q1756.97 61.1119 1756.97 50.3365 Q1756.97 39.1965 1762.96 32.6746 Q1769 26.1121 1779.21 26.1121 Q1788.36 26.1121 1793.67 32.0264 Q1799.01 37.9003 1799.01 48.0275 M1791.56 45.84 Q1791.48 39.7232 1788.12 36.0774 Q1784.8 32.4315 1779.29 32.4315 Q1773.05 32.4315 1769.28 35.9558 Q1765.55 39.4801 1764.99 45.8805 L1791.56 45.84 Z" fill="#000000" fill-rule="nonzero" fill-opacity="1" /><path clip-path="url(#clip660)" d="M1846.13 43.6931 L1846.13 65.8515 L1859.25 65.8515 Q1865.85 65.8515 1869.01 63.1374 Q1872.21 60.3828 1872.21 54.752 Q1872.21 49.0808 1869.01 46.4072 Q1865.85 43.6931 1859.25 43.6931 L1846.13 43.6931 M1846.13 18.8205 L1846.13 37.0496 L1858.24 37.0496 Q1864.23 37.0496 1867.15 34.8216 Q1870.11 32.5531 1870.11 27.935 Q1870.11 23.3575 1867.15 21.089 Q1864.23 18.8205 1858.24 18.8205 L1846.13 18.8205 M1837.94 12.096 L1858.85 12.096 Q1868.2 12.096 1873.27 15.9849 Q1878.33 19.8737 1878.33 27.0438 Q1878.33 32.5936 1875.74 35.8748 Q1873.15 39.156 1868.12 39.9662 Q1874.16 41.2625 1877.48 45.3944 Q1880.84 49.4858 1880.84 55.6432 Q1880.84 63.745 1875.33 68.1605 Q1869.82 72.576 1859.66 72.576 L1837.94 72.576 L1837.94 12.096 Z" fill="#000000" fill-rule="nonzero" fill-opacity="1" /><path clip-path="url(#clip660)" d="M1915.15 49.7694 Q1906.12 49.7694 1902.64 51.8354 Q1899.15 53.9013 1899.15 58.8839 Q1899.15 62.8538 1901.75 65.2034 Q1904.38 67.5124 1908.88 67.5124 Q1915.07 67.5124 1918.8 63.1374 Q1922.57 58.7219 1922.57 51.4303 L1922.57 49.7694 L1915.15 49.7694 M1930.02 46.6907 L1930.02 72.576 L1922.57 72.576 L1922.57 65.6895 Q1920.02 69.8214 1916.21 71.8063 Q1912.4 73.7508 1906.89 73.7508 Q1899.92 73.7508 1895.79 69.8619 Q1891.7 65.9325 1891.7 59.3701 Q1891.7 51.7138 1896.8 47.825 Q1901.95 43.9361 1912.12 43.9361 L1922.57 43.9361 L1922.57 43.2069 Q1922.57 38.0623 1919.16 35.2672 Q1915.8 32.4315 1909.69 32.4315 Q1905.8 32.4315 1902.11 33.3632 Q1898.42 34.295 1895.02 36.1584 L1895.02 29.2718 Q1899.11 27.692 1902.96 26.9223 Q1906.81 26.1121 1910.46 26.1121 Q1920.3 26.1121 1925.16 31.2163 Q1930.02 36.3204 1930.02 46.6907 Z" fill="#000000" fill-rule="nonzero" fill-opacity="1" /><path clip-path="url(#clip660)" d="M1971.66 34.1734 Q1970.41 33.4443 1968.91 33.1202 Q1967.45 32.7556 1965.67 32.7556 Q1959.35 32.7556 1955.95 36.8875 Q1952.58 40.9789 1952.58 48.6757 L1952.58 72.576 L1945.09 72.576 L1945.09 27.2059 L1952.58 27.2059 L1952.58 34.2544 Q1954.93 30.1225 1958.7 28.1376 Q1962.47 26.1121 1967.86 26.1121 Q1968.63 26.1121 1969.56 26.2337 Q1970.49 26.3147 1971.62 26.5172 L1971.66 34.1734 Z" fill="#000000" fill-rule="nonzero" fill-opacity="1" /><path clip-path="url(#clip660)" d="M2010.31 28.9478 L2010.31 35.9153 Q2007.15 34.1734 2003.95 33.3227 Q2000.79 32.4315 1997.55 32.4315 Q1990.3 32.4315 1986.29 37.0496 Q1982.28 41.6271 1982.28 49.9314 Q1982.28 58.2358 1986.29 62.8538 Q1990.3 67.4314 1997.55 67.4314 Q2000.79 67.4314 2003.95 66.5807 Q2007.15 65.6895 2010.31 63.9476 L2010.31 70.8341 Q2007.19 72.2924 2003.83 73.0216 Q2000.51 73.7508 1996.74 73.7508 Q1986.49 73.7508 1980.45 67.3098 Q1974.42 60.8689 1974.42 49.9314 Q1974.42 38.832 1980.5 32.472 Q1986.61 26.1121 1997.23 26.1121 Q2000.67 26.1121 2003.95 26.8413 Q2007.23 27.5299 2010.31 28.9478 Z" fill="#000000" fill-rule="nonzero" fill-opacity="1" /><path clip-path="url(#clip660)" d="M2040.85 32.4315 Q2034.86 32.4315 2031.37 37.1306 Q2027.89 41.7891 2027.89 49.9314 Q2027.89 58.0738 2031.33 62.7728 Q2034.82 67.4314 2040.85 67.4314 Q2046.81 67.4314 2050.29 62.7323 Q2053.78 58.0333 2053.78 49.9314 Q2053.78 41.8701 2050.29 37.1711 Q2046.81 32.4315 2040.85 32.4315 M2040.85 26.1121 Q2050.58 26.1121 2056.13 32.4315 Q2061.68 38.7509 2061.68 49.9314 Q2061.68 61.0714 2056.13 67.4314 Q2050.58 73.7508 2040.85 73.7508 Q2031.09 73.7508 2025.54 67.4314 Q2020.03 61.0714 2020.03 49.9314 Q2020.03 38.7509 2025.54 32.4315 Q2031.09 26.1121 2040.85 26.1121 Z" fill="#000000" fill-rule="nonzero" fill-opacity="1" /><path clip-path="url(#clip660)" d="M2103.89 34.0924 L2103.89 9.54393 L2111.34 9.54393 L2111.34 72.576 L2103.89 72.576 L2103.89 65.7705 Q2101.54 69.8214 2097.93 71.8063 Q2094.37 73.7508 2089.34 73.7508 Q2081.12 73.7508 2075.93 67.1883 Q2070.79 60.6258 2070.79 49.9314 Q2070.79 39.2371 2075.93 32.6746 Q2081.12 26.1121 2089.34 26.1121 Q2094.37 26.1121 2097.93 28.0971 Q2101.54 30.0415 2103.89 34.0924 M2078.49 49.9314 Q2078.49 58.1548 2081.85 62.8538 Q2085.25 67.5124 2091.17 67.5124 Q2097.08 67.5124 2100.48 62.8538 Q2103.89 58.1548 2103.89 49.9314 Q2103.89 41.7081 2100.48 37.0496 Q2097.08 32.3505 2091.17 32.3505 Q2085.25 32.3505 2081.85 37.0496 Q2078.49 41.7081 2078.49 49.9314 Z" fill="#000000" fill-rule="nonzero" fill-opacity="1" /><path clip-path="url(#clip660)" d="M2165.5 48.0275 L2165.5 51.6733 L2131.23 51.6733 Q2131.72 59.3701 2135.85 63.421 Q2140.02 67.4314 2147.43 67.4314 Q2151.73 67.4314 2155.74 66.3781 Q2159.79 65.3249 2163.76 63.2184 L2163.76 70.267 Q2159.75 71.9684 2155.53 72.8596 Q2151.32 73.7508 2146.99 73.7508 Q2136.13 73.7508 2129.77 67.4314 Q2123.45 61.1119 2123.45 50.3365 Q2123.45 39.1965 2129.45 32.6746 Q2135.48 26.1121 2145.69 26.1121 Q2154.85 26.1121 2160.15 32.0264 Q2165.5 37.9003 2165.5 48.0275 M2158.05 45.84 Q2157.97 39.7232 2154.6 36.0774 Q2151.28 32.4315 2145.77 32.4315 Q2139.53 32.4315 2135.77 35.9558 Q2132.04 39.4801 2131.47 45.8805 L2158.05 45.84 Z" fill="#000000" fill-rule="nonzero" fill-opacity="1" /><polyline clip-path="url(#clip661)" style="stroke:#808080; stroke-linecap:round; stroke-linejoin:round; stroke-width:4; stroke-opacity:1; fill:none" stroke-dasharray="2, 4" points="2145.58,2722.89 2145.58,-1176.24 "/>
<polyline clip-path="url(#clip661)" style="stroke:#009af9; stroke-linecap:round; stroke-linejoin:round; stroke-width:8; stroke-opacity:1; fill:none" points="1356.97,1358.78 1361.91,1358.78 "/>
<polyline clip-path="url(#clip661)" style="stroke:#009af9; stroke-linecap:round; stroke-linejoin:round; stroke-width:8; stroke-opacity:1; fill:none" points="1467.97,1241.69 2035.98,1241.69 "/>
<polyline clip-path="url(#clip661)" style="stroke:#e26f46; stroke-linecap:round; stroke-linejoin:round; stroke-width:8; stroke-opacity:1; fill:none" points="2045.71,1124.6 2046.58,1124.6 "/>
<polyline clip-path="url(#clip661)" style="stroke:#e26f46; stroke-linecap:round; stroke-linejoin:round; stroke-width:8; stroke-opacity:1; fill:none" points="2048.19,1007.51 2049.83,1007.51 "/>
<polyline clip-path="url(#clip661)" style="stroke:#e26f46; stroke-linecap:round; stroke-linejoin:round; stroke-width:8; stroke-opacity:1; fill:none" points="2062.91,890.417 2064.98,890.417 "/>
<polyline clip-path="url(#clip661)" style="stroke:#e26f46; stroke-linecap:round; stroke-linejoin:round; stroke-width:8; stroke-opacity:1; fill:none" points="2060.98,773.326 2064.1,773.326 "/>
<polyline clip-path="url(#clip661)" style="stroke:#e26f46; stroke-linecap:round; stroke-linejoin:round; stroke-width:8; stroke-opacity:1; fill:none" points="2056.33,656.235 2061.55,656.235 "/>
<polyline clip-path="url(#clip661)" style="stroke:#e26f46; stroke-linecap:round; stroke-linejoin:round; stroke-width:8; stroke-opacity:1; fill:none" points="2044.8,539.144 2056.54,539.144 "/>
<polyline clip-path="url(#clip661)" style="stroke:#e26f46; stroke-linecap:round; stroke-linejoin:round; stroke-width:8; stroke-opacity:1; fill:none" points="2046.2,422.054 2062.56,422.054 "/>
<polyline clip-path="url(#clip661)" style="stroke:#e26f46; stroke-linecap:round; stroke-linejoin:round; stroke-width:8; stroke-opacity:1; fill:none" points="2039.45,304.963 2063.21,304.963 "/>
<polyline clip-path="url(#clip661)" style="stroke:#3da44d; stroke-linecap:round; stroke-linejoin:round; stroke-width:8; stroke-opacity:1; fill:none" points="2081.93,187.872 2109.67,187.872 "/>
<path clip-path="url(#clip660)" d="M2203.22 374.156 L2352.76 374.156 L2352.76 166.796 L2203.22 166.796  Z" fill="#ffffff" fill-rule="evenodd" fill-opacity="1"/>
<polyline clip-path="url(#clip660)" style="stroke:#000000; stroke-linecap:round; stroke-linejoin:round; stroke-width:4; stroke-opacity:1; fill:none" points="2203.22,374.156 2352.76,374.156 2352.76,166.796 2203.22,166.796 2203.22,374.156 "/>
<polyline clip-path="url(#clip660)" style="stroke:#009af9; stroke-linecap:round; stroke-linejoin:round; stroke-width:8; stroke-opacity:1; fill:none" points="2214.55,218.636 2282.51,218.636 "/>
<path clip-path="url(#clip660)" d="M2293.84 201.356 L2298.51 201.356 L2298.51 215.522 L2315.5 215.522 L2315.5 201.356 L2320.18 201.356 L2320.18 235.916 L2315.5 235.916 L2315.5 219.457 L2298.51 219.457 L2298.51 235.916 L2293.84 235.916 L2293.84 201.356 Z" fill="#000000" fill-rule="nonzero" fill-opacity="1" /><path clip-path="url(#clip660)" d="M2328.44 233.369 L2333.16 233.369 L2333.16 219.226 L2328 220.175 L2328 217.49 L2333.33 216.587 L2336.5 216.587 L2336.5 233.369 L2341.24 233.369 L2341.24 235.916 L2328.44 235.916 L2328.44 233.369 Z" fill="#000000" fill-rule="nonzero" fill-opacity="1" /><polyline clip-path="url(#clip660)" style="stroke:#e26f46; stroke-linecap:round; stroke-linejoin:round; stroke-width:8; stroke-opacity:1; fill:none" points="2214.55,270.476 2282.51,270.476 "/>
<path clip-path="url(#clip660)" d="M2293.84 253.196 L2298.51 253.196 L2298.51 267.362 L2315.5 267.362 L2315.5 253.196 L2320.18 253.196 L2320.18 287.756 L2315.5 287.756 L2315.5 271.297 L2298.51 271.297 L2298.51 287.756 L2293.84 287.756 L2293.84 253.196 Z" fill="#000000" fill-rule="nonzero" fill-opacity="1" /><path clip-path="url(#clip660)" d="M2331.04 285.117 L2340.85 285.117 L2340.85 287.756 L2327.01 287.756 L2327.01 285.209 Q2327.79 284.492 2329.25 283.196 Q2337.22 276.135 2337.22 273.959 Q2337.22 272.432 2336.01 271.506 Q2334.81 270.557 2332.84 270.557 Q2331.64 270.557 2330.23 270.973 Q2328.81 271.367 2327.15 272.177 L2327.15 269.33 Q2328.93 268.682 2330.46 268.358 Q2332.01 268.034 2333.33 268.034 Q2336.68 268.034 2338.7 269.561 Q2340.71 271.089 2340.71 273.589 Q2340.71 276.807 2333.05 283.381 Q2331.75 284.492 2331.04 285.117 Z" fill="#000000" fill-rule="nonzero" fill-opacity="1" /><polyline clip-path="url(#clip660)" style="stroke:#3da44d; stroke-linecap:round; stroke-linejoin:round; stroke-width:8; stroke-opacity:1; fill:none" points="2214.55,322.316 2282.51,322.316 "/>
<path clip-path="url(#clip660)" d="M2293.84 305.036 L2298.51 305.036 L2298.51 319.202 L2315.5 319.202 L2315.5 305.036 L2320.18 305.036 L2320.18 339.596 L2315.5 339.596 L2315.5 323.137 L2298.51 323.137 L2298.51 339.596 L2293.84 339.596 L2293.84 305.036 Z" fill="#000000" fill-rule="nonzero" fill-opacity="1" /><path clip-path="url(#clip660)" d="M2336.96 329.133 Q2339.09 329.549 2340.25 330.823 Q2341.43 332.073 2341.43 333.971 Q2341.43 336.841 2339.23 338.392 Q2337.03 339.943 2332.93 339.943 Q2331.61 339.943 2330.16 339.688 Q2328.72 339.457 2327.1 338.994 L2327.1 336.193 Q2328.3 336.818 2329.67 337.119 Q2331.06 337.42 2332.61 337.42 Q2335.13 337.42 2336.52 336.517 Q2337.91 335.591 2337.91 333.971 Q2337.91 332.258 2336.61 331.378 Q2335.34 330.499 2332.84 330.499 L2330.85 330.499 L2330.85 327.999 L2333.03 327.999 Q2335.2 327.999 2336.31 327.281 Q2337.45 326.54 2337.45 325.151 Q2337.45 323.809 2336.29 323.114 Q2335.13 322.397 2332.93 322.397 Q2332.01 322.397 2330.83 322.605 Q2329.65 322.813 2327.77 323.346 L2327.77 320.684 Q2329.46 320.29 2330.94 320.082 Q2332.42 319.874 2333.7 319.874 Q2337.03 319.874 2338.98 321.239 Q2340.94 322.605 2340.94 324.897 Q2340.94 326.494 2339.9 327.605 Q2338.86 328.716 2336.96 329.133 Z" fill="#000000" fill-rule="nonzero" fill-opacity="1" /></svg>
