<?xml version="1.0" encoding="utf-8"?>
<svg xmlns="http://www.w3.org/2000/svg" xmlns:xlink="http://www.w3.org/1999/xlink" width="600" height="400" viewBox="0 0 2400 1600">
<defs>
  <clipPath id="clip1400">
    <rect x="0" y="0" width="2400" height="1600"/>
  </clipPath>
</defs>
<path clip-path="url(#clip1400)" d="
M0 1600 L2400 1600 L2400 0 L0 0  Z
  " fill="#ffffff" fill-rule="evenodd" fill-opacity="1"/>
<defs>
  <clipPath id="clip1401">
    <rect x="480" y="0" width="1681" height="1600"/>
  </clipPath>
</defs>
<path clip-path="url(#clip1400)" d="
M86.9921 1423.18 L2352.76 1423.18 L2352.76 47.2441 L86.9921 47.2441  Z
  " fill="#ffffff" fill-rule="evenodd" fill-opacity="1"/>
<defs>
  <clipPath id="clip1402">
    <rect x="86" y="47" width="2267" height="1377"/>
  </clipPath>
</defs>
<polyline clip-path="url(#clip1402)" style="stroke:#000000; stroke-width:2; stroke-opacity:0.1; fill:none" points="
  151.118,1423.18 151.118,47.2441 
  "/>
<polyline clip-path="url(#clip1402)" style="stroke:#000000; stroke-width:2; stroke-opacity:0.1; fill:none" points="
  761.836,1423.18 761.836,47.2441 
  "/>
<polyline clip-path="url(#clip1402)" style="stroke:#000000; stroke-width:2; stroke-opacity:0.1; fill:none" points="
  1372.55,1423.18 1372.55,47.2441 
  "/>
<polyline clip-path="url(#clip1402)" style="stroke:#000000; stroke-width:2; stroke-opacity:0.1; fill:none" points="
  1983.27,1423.18 1983.27,47.2441 
  "/>
<polyline clip-path="url(#clip1400)" style="stroke:#000000; stroke-width:4; stroke-opacity:1; fill:none" points="
  86.9921,1423.18 2352.76,1423.18 
  "/>
<polyline clip-path="url(#clip1400)" style="stroke:#000000; stroke-width:4; stroke-opacity:1; fill:none" points="
  86.9921,1423.18 86.9921,47.2441 
  "/>
<polyline clip-path="url(#clip1400)" style="stroke:#000000; stroke-width:4; stroke-opacity:1; fill:none" points="
  151.118,1423.18 151.118,1406.67 
  "/>
<polyline clip-path="url(#clip1400)" style="stroke:#000000; stroke-width:4; stroke-opacity:1; fill:none" points="
  761.836,1423.18 761.836,1406.67 
  "/>
<polyline clip-path="url(#clip1400)" style="stroke:#000000; stroke-width:4; stroke-opacity:1; fill:none" points="
  1372.55,1423.18 1372.55,1406.67 
  "/>
<polyline clip-path="url(#clip1400)" style="stroke:#000000; stroke-width:4; stroke-opacity:1; fill:none" points="
  1983.27,1423.18 1983.27,1406.67 
  "/>
<path clip-path="url(#clip1400)" d="M 0 0 M151.118 1445.17 Q147.506 1445.17 145.678 1448.74 Q143.872 1452.28 143.872 1459.41 Q143.872 1466.51 145.678 1470.08 Q147.506 1473.62 151.118 1473.62 Q154.752 1473.62 156.557 1470.08 Q158.386 1466.51 158.386 1459.41 Q158.386 1452.28 156.557 1448.74 Q154.752 1445.17 151.118 1445.17 M151.118 1441.47 Q156.928 1441.47 159.983 1446.07 Q163.062 1450.66 163.062 1459.41 Q163.062 1468.13 159.983 1472.74 Q156.928 1477.32 151.118 1477.32 Q145.307 1477.32 142.229 1472.74 Q139.173 1468.13 139.173 1459.41 Q139.173 1450.66 142.229 1446.07 Q145.307 1441.47 151.118 1441.47 Z" fill="#000000" fill-rule="evenodd" fill-opacity="1" /><path clip-path="url(#clip1400)" d="M 0 0 M756.488 1472.72 L772.808 1472.72 L772.808 1476.65 L750.863 1476.65 L750.863 1472.72 Q753.525 1469.96 758.109 1465.33 Q762.715 1460.68 763.896 1459.34 Q766.141 1456.81 767.021 1455.08 Q767.923 1453.32 767.923 1451.63 Q767.923 1448.87 765.979 1447.14 Q764.058 1445.4 760.956 1445.4 Q758.757 1445.4 756.303 1446.17 Q753.873 1446.93 751.095 1448.48 L751.095 1443.76 Q753.919 1442.62 756.373 1442.05 Q758.826 1441.47 760.863 1441.47 Q766.234 1441.47 769.428 1444.15 Q772.622 1446.84 772.622 1451.33 Q772.622 1453.46 771.812 1455.38 Q771.025 1457.28 768.919 1459.87 Q768.34 1460.54 765.238 1463.76 Q762.136 1466.95 756.488 1472.72 Z" fill="#000000" fill-rule="evenodd" fill-opacity="1" /><path clip-path="url(#clip1400)" d="M 0 0 M1375.56 1446.17 L1363.76 1464.61 L1375.56 1464.61 L1375.56 1446.17 M1374.34 1442.09 L1380.22 1442.09 L1380.22 1464.61 L1385.15 1464.61 L1385.15 1468.5 L1380.22 1468.5 L1380.22 1476.65 L1375.56 1476.65 L1375.56 1468.5 L1359.96 1468.5 L1359.96 1463.99 L1374.34 1442.09 Z" fill="#000000" fill-rule="evenodd" fill-opacity="1" /><path clip-path="url(#clip1400)" d="M 0 0 M1983.68 1457.51 Q1980.53 1457.51 1978.68 1459.66 Q1976.85 1461.81 1976.85 1465.56 Q1976.85 1469.29 1978.68 1471.47 Q1980.53 1473.62 1983.68 1473.62 Q1986.82 1473.62 1988.65 1471.47 Q1990.51 1469.29 1990.51 1465.56 Q1990.51 1461.81 1988.65 1459.66 Q1986.82 1457.51 1983.68 1457.51 M1992.96 1442.86 L1992.96 1447.11 Q1991.2 1446.28 1989.39 1445.84 Q1987.61 1445.4 1985.85 1445.4 Q1981.22 1445.4 1978.77 1448.53 Q1976.34 1451.65 1975.99 1457.97 Q1977.36 1455.96 1979.42 1454.89 Q1981.48 1453.8 1983.95 1453.8 Q1989.16 1453.8 1992.17 1456.98 Q1995.2 1460.12 1995.2 1465.56 Q1995.2 1470.89 1992.06 1474.11 Q1988.91 1477.32 1983.68 1477.32 Q1977.68 1477.32 1974.51 1472.74 Q1971.34 1468.13 1971.34 1459.41 Q1971.34 1451.21 1975.23 1446.35 Q1979.12 1441.47 1985.67 1441.47 Q1987.43 1441.47 1989.21 1441.81 Q1991.01 1442.16 1992.96 1442.86 Z" fill="#000000" fill-rule="evenodd" fill-opacity="1" /><path clip-path="url(#clip1400)" d="M 0 0 M1218.94 1510.27 L1218.94 1520.4 L1231 1520.4 L1231 1524.95 L1218.94 1524.95 L1218.94 1544.3 Q1218.94 1548.66 1220.11 1549.9 Q1221.32 1551.14 1224.98 1551.14 L1231 1551.14 L1231 1556.04 L1224.98 1556.04 Q1218.2 1556.04 1215.62 1553.53 Q1213.05 1550.98 1213.05 1544.3 L1213.05 1524.95 L1208.75 1524.95 L1208.75 1520.4 L1213.05 1520.4 L1213.05 1510.27 L1218.94 1510.27 Z" fill="#000000" fill-rule="evenodd" fill-opacity="1" /><polyline clip-path="url(#clip1402)" style="stroke:#808080; stroke-width:4; stroke-opacity:1; fill:none" stroke-dasharray="2, 4" points="
  2288.63,2799.12 2288.63,-1328.69 
  "/>
<polyline clip-path="url(#clip1402)" style="stroke:#e26f46; stroke-width:4; stroke-opacity:1; fill:none" points="
  151.118,1375.03 339.84,1375.03 
  "/>
<polyline clip-path="url(#clip1402)" style="stroke:#e26f46; stroke-width:4; stroke-opacity:1; fill:none" points="
  151.118,1365.83 339.84,1365.83 
  "/>
<polyline clip-path="url(#clip1402)" style="stroke:#e26f46; stroke-width:4; stroke-opacity:1; fill:none" points="
  151.118,1356.62 339.84,1356.62 
  "/>
<polyline clip-path="url(#clip1402)" style="stroke:#e26f46; stroke-width:4; stroke-opacity:1; fill:none" points="
  151.118,1347.41 339.84,1347.41 
  "/>
<polyline clip-path="url(#clip1402)" style="stroke:#e26f46; stroke-width:4; stroke-opacity:1; fill:none" points="
  151.118,1338.21 339.84,1338.21 
  "/>
<polyline clip-path="url(#clip1402)" style="stroke:#e26f46; stroke-width:4; stroke-opacity:1; fill:none" points="
  151.118,1329 339.84,1329 
  "/>
<polyline clip-path="url(#clip1402)" style="stroke:#e26f46; stroke-width:4; stroke-opacity:1; fill:none" points="
  151.118,1319.8 339.84,1319.8 
  "/>
<polyline clip-path="url(#clip1402)" style="stroke:#e26f46; stroke-width:4; stroke-opacity:1; fill:none" points="
  151.118,1310.59 339.84,1310.59 
  "/>
<polyline clip-path="url(#clip1402)" style="stroke:#e26f46; stroke-width:4; stroke-opacity:1; fill:none" points="
  151.118,1301.38 339.84,1301.38 
  "/>
<polyline clip-path="url(#clip1402)" style="stroke:#e26f46; stroke-width:4; stroke-opacity:1; fill:none" points="
  151.118,1292.18 339.84,1292.18 
  "/>
<polyline clip-path="url(#clip1402)" style="stroke:#e26f46; stroke-width:4; stroke-opacity:1; fill:none" points="
  151.118,1282.97 339.84,1282.97 
  "/>
<polyline clip-path="url(#clip1402)" style="stroke:#e26f46; stroke-width:4; stroke-opacity:1; fill:none" points="
  151.118,1273.77 339.84,1273.77 
  "/>
<polyline clip-path="url(#clip1402)" style="stroke:#e26f46; stroke-width:4; stroke-opacity:1; fill:none" points="
  151.118,1264.56 339.84,1264.56 
  "/>
<polyline clip-path="url(#clip1402)" style="stroke:#e26f46; stroke-width:4; stroke-opacity:1; fill:none" points="
  151.118,1255.35 339.84,1255.35 
  "/>
<polyline clip-path="url(#clip1402)" style="stroke:#e26f46; stroke-width:4; stroke-opacity:1; fill:none" points="
  151.118,1246.15 339.84,1246.15 
  "/>
<polyline clip-path="url(#clip1402)" style="stroke:#e26f46; stroke-width:4; stroke-opacity:1; fill:none" points="
  151.118,1236.94 339.84,1236.94 
  "/>
<polyline clip-path="url(#clip1402)" style="stroke:#e26f46; stroke-width:4; stroke-opacity:1; fill:none" points="
  151.118,1227.74 339.84,1227.74 
  "/>
<polyline clip-path="url(#clip1402)" style="stroke:#e26f46; stroke-width:4; stroke-opacity:1; fill:none" points="
  151.118,1218.53 339.84,1218.53 
  "/>
<polyline clip-path="url(#clip1402)" style="stroke:#e26f46; stroke-width:4; stroke-opacity:1; fill:none" points="
  151.118,1209.32 339.84,1209.32 
  "/>
<polyline clip-path="url(#clip1402)" style="stroke:#e26f46; stroke-width:4; stroke-opacity:1; fill:none" points="
  151.118,1200.12 339.84,1200.12 
  "/>
<polyline clip-path="url(#clip1402)" style="stroke:#e26f46; stroke-width:4; stroke-opacity:1; fill:none" points="
  151.118,1190.91 339.84,1190.91 
  "/>
<polyline clip-path="url(#clip1402)" style="stroke:#e26f46; stroke-width:4; stroke-opacity:1; fill:none" points="
  151.118,1181.71 339.84,1181.71 
  "/>
<polyline clip-path="url(#clip1402)" style="stroke:#e26f46; stroke-width:4; stroke-opacity:1; fill:none" points="
  151.118,1172.5 339.84,1172.5 
  "/>
<polyline clip-path="url(#clip1402)" style="stroke:#e26f46; stroke-width:4; stroke-opacity:1; fill:none" points="
  151.118,1163.29 339.84,1163.29 
  "/>
<polyline clip-path="url(#clip1402)" style="stroke:#e26f46; stroke-width:4; stroke-opacity:1; fill:none" points="
  151.118,1154.09 339.84,1154.09 
  "/>
<polyline clip-path="url(#clip1402)" style="stroke:#e26f46; stroke-width:4; stroke-opacity:1; fill:none" points="
  151.118,1144.88 339.84,1144.88 
  "/>
<polyline clip-path="url(#clip1402)" style="stroke:#e26f46; stroke-width:4; stroke-opacity:1; fill:none" points="
  151.118,1135.68 339.84,1135.68 
  "/>
<polyline clip-path="url(#clip1402)" style="stroke:#e26f46; stroke-width:4; stroke-opacity:1; fill:none" points="
  151.118,1126.47 339.84,1126.47 
  "/>
<polyline clip-path="url(#clip1402)" style="stroke:#e26f46; stroke-width:4; stroke-opacity:1; fill:none" points="
  151.118,1117.26 339.84,1117.26 
  "/>
<polyline clip-path="url(#clip1402)" style="stroke:#e26f46; stroke-width:4; stroke-opacity:1; fill:none" points="
  151.118,1108.06 339.84,1108.06 
  "/>
<polyline clip-path="url(#clip1402)" style="stroke:#e26f46; stroke-width:4; stroke-opacity:1; fill:none" points="
  151.118,1098.85 339.84,1098.85 
  "/>
<polyline clip-path="url(#clip1402)" style="stroke:#e26f46; stroke-width:4; stroke-opacity:1; fill:none" points="
  151.118,1089.64 339.84,1089.64 
  "/>
<polyline clip-path="url(#clip1402)" style="stroke:#e26f46; stroke-width:4; stroke-opacity:1; fill:none" points="
  151.118,1080.44 339.84,1080.44 
  "/>
<polyline clip-path="url(#clip1402)" style="stroke:#e26f46; stroke-width:4; stroke-opacity:1; fill:none" points="
  151.118,1071.23 339.84,1071.23 
  "/>
<polyline clip-path="url(#clip1402)" style="stroke:#e26f46; stroke-width:4; stroke-opacity:1; fill:none" points="
  151.118,1062.03 339.84,1062.03 
  "/>
<polyline clip-path="url(#clip1402)" style="stroke:#e26f46; stroke-width:4; stroke-opacity:1; fill:none" points="
  151.118,1052.82 339.84,1052.82 
  "/>
<polyline clip-path="url(#clip1402)" style="stroke:#e26f46; stroke-width:4; stroke-opacity:1; fill:none" points="
  151.118,1043.61 339.84,1043.61 
  "/>
<polyline clip-path="url(#clip1402)" style="stroke:#e26f46; stroke-width:4; stroke-opacity:1; fill:none" points="
  151.118,1034.41 339.84,1034.41 
  "/>
<polyline clip-path="url(#clip1402)" style="stroke:#e26f46; stroke-width:4; stroke-opacity:1; fill:none" points="
  151.118,1025.2 339.84,1025.2 
  "/>
<polyline clip-path="url(#clip1402)" style="stroke:#e26f46; stroke-width:4; stroke-opacity:1; fill:none" points="
  151.118,1016 339.84,1016 
  "/>
<polyline clip-path="url(#clip1402)" style="stroke:#e26f46; stroke-width:4; stroke-opacity:1; fill:none" points="
  151.118,1006.79 339.84,1006.79 
  "/>
<polyline clip-path="url(#clip1402)" style="stroke:#e26f46; stroke-width:4; stroke-opacity:1; fill:none" points="
  151.118,997.584 339.84,997.584 
  "/>
<polyline clip-path="url(#clip1402)" style="stroke:#e26f46; stroke-width:4; stroke-opacity:1; fill:none" points="
  151.118,988.378 339.84,988.378 
  "/>
<polyline clip-path="url(#clip1402)" style="stroke:#e26f46; stroke-width:4; stroke-opacity:1; fill:none" points="
  151.118,979.172 339.84,979.172 
  "/>
<polyline clip-path="url(#clip1402)" style="stroke:#e26f46; stroke-width:4; stroke-opacity:1; fill:none" points="
  151.118,969.966 339.84,969.966 
  "/>
<polyline clip-path="url(#clip1402)" style="stroke:#e26f46; stroke-width:4; stroke-opacity:1; fill:none" points="
  151.118,960.76 339.84,960.76 
  "/>
<polyline clip-path="url(#clip1402)" style="stroke:#e26f46; stroke-width:4; stroke-opacity:1; fill:none" points="
  151.118,951.554 339.84,951.554 
  "/>
<polyline clip-path="url(#clip1402)" style="stroke:#e26f46; stroke-width:4; stroke-opacity:1; fill:none" points="
  151.118,942.348 339.84,942.348 
  "/>
<polyline clip-path="url(#clip1402)" style="stroke:#e26f46; stroke-width:4; stroke-opacity:1; fill:none" points="
  151.118,933.142 339.84,933.142 
  "/>
<polyline clip-path="url(#clip1402)" style="stroke:#e26f46; stroke-width:4; stroke-opacity:1; fill:none" points="
  151.118,923.936 339.84,923.936 
  "/>
<polyline clip-path="url(#clip1402)" style="stroke:#e26f46; stroke-width:4; stroke-opacity:1; fill:none" points="
  151.118,914.73 339.84,914.73 
  "/>
<polyline clip-path="url(#clip1402)" style="stroke:#e26f46; stroke-width:4; stroke-opacity:1; fill:none" points="
  151.118,905.524 339.84,905.524 
  "/>
<polyline clip-path="url(#clip1402)" style="stroke:#e26f46; stroke-width:4; stroke-opacity:1; fill:none" points="
  151.118,896.318 339.84,896.318 
  "/>
<polyline clip-path="url(#clip1402)" style="stroke:#e26f46; stroke-width:4; stroke-opacity:1; fill:none" points="
  151.118,887.112 339.84,887.112 
  "/>
<polyline clip-path="url(#clip1402)" style="stroke:#e26f46; stroke-width:4; stroke-opacity:1; fill:none" points="
  151.118,877.906 339.84,877.906 
  "/>
<polyline clip-path="url(#clip1402)" style="stroke:#e26f46; stroke-width:4; stroke-opacity:1; fill:none" points="
  151.118,868.7 339.84,868.7 
  "/>
<polyline clip-path="url(#clip1402)" style="stroke:#e26f46; stroke-width:4; stroke-opacity:1; fill:none" points="
  151.118,859.494 339.84,859.494 
  "/>
<polyline clip-path="url(#clip1402)" style="stroke:#e26f46; stroke-width:4; stroke-opacity:1; fill:none" points="
  151.118,850.288 339.84,850.288 
  "/>
<polyline clip-path="url(#clip1402)" style="stroke:#e26f46; stroke-width:4; stroke-opacity:1; fill:none" points="
  151.118,841.082 339.84,841.082 
  "/>
<polyline clip-path="url(#clip1402)" style="stroke:#e26f46; stroke-width:4; stroke-opacity:1; fill:none" points="
  151.118,831.875 339.84,831.875 
  "/>
<polyline clip-path="url(#clip1402)" style="stroke:#e26f46; stroke-width:4; stroke-opacity:1; fill:none" points="
  151.118,822.669 339.84,822.669 
  "/>
<polyline clip-path="url(#clip1402)" style="stroke:#e26f46; stroke-width:4; stroke-opacity:1; fill:none" points="
  151.118,813.463 339.84,813.463 
  "/>
<polyline clip-path="url(#clip1402)" style="stroke:#e26f46; stroke-width:4; stroke-opacity:1; fill:none" points="
  151.118,804.257 339.84,804.257 
  "/>
<polyline clip-path="url(#clip1402)" style="stroke:#e26f46; stroke-width:4; stroke-opacity:1; fill:none" points="
  151.118,795.051 339.84,795.051 
  "/>
<polyline clip-path="url(#clip1402)" style="stroke:#e26f46; stroke-width:4; stroke-opacity:1; fill:none" points="
  151.118,785.845 339.84,785.845 
  "/>
<polyline clip-path="url(#clip1402)" style="stroke:#e26f46; stroke-width:4; stroke-opacity:1; fill:none" points="
  151.118,776.639 339.84,776.639 
  "/>
<polyline clip-path="url(#clip1402)" style="stroke:#e26f46; stroke-width:4; stroke-opacity:1; fill:none" points="
  151.118,767.433 339.84,767.433 
  "/>
<polyline clip-path="url(#clip1402)" style="stroke:#e26f46; stroke-width:4; stroke-opacity:1; fill:none" points="
  151.118,758.227 339.84,758.227 
  "/>
<polyline clip-path="url(#clip1402)" style="stroke:#e26f46; stroke-width:4; stroke-opacity:1; fill:none" points="
  151.118,749.021 339.84,749.021 
  "/>
<polyline clip-path="url(#clip1402)" style="stroke:#e26f46; stroke-width:4; stroke-opacity:1; fill:none" points="
  151.118,739.815 339.84,739.815 
  "/>
<polyline clip-path="url(#clip1402)" style="stroke:#e26f46; stroke-width:4; stroke-opacity:1; fill:none" points="
  151.118,730.609 339.84,730.609 
  "/>
<polyline clip-path="url(#clip1402)" style="stroke:#e26f46; stroke-width:4; stroke-opacity:1; fill:none" points="
  151.118,721.403 339.84,721.403 
  "/>
<polyline clip-path="url(#clip1402)" style="stroke:#e26f46; stroke-width:4; stroke-opacity:1; fill:none" points="
  151.118,712.197 339.84,712.197 
  "/>
<polyline clip-path="url(#clip1402)" style="stroke:#e26f46; stroke-width:4; stroke-opacity:1; fill:none" points="
  151.118,702.991 339.84,702.991 
  "/>
<polyline clip-path="url(#clip1402)" style="stroke:#e26f46; stroke-width:4; stroke-opacity:1; fill:none" points="
  151.118,693.785 339.84,693.785 
  "/>
<polyline clip-path="url(#clip1402)" style="stroke:#e26f46; stroke-width:4; stroke-opacity:1; fill:none" points="
  151.118,684.579 339.84,684.579 
  "/>
<polyline clip-path="url(#clip1402)" style="stroke:#e26f46; stroke-width:4; stroke-opacity:1; fill:none" points="
  151.118,675.373 339.84,675.373 
  "/>
<polyline clip-path="url(#clip1402)" style="stroke:#e26f46; stroke-width:4; stroke-opacity:1; fill:none" points="
  151.118,666.167 339.84,666.167 
  "/>
<polyline clip-path="url(#clip1402)" style="stroke:#e26f46; stroke-width:4; stroke-opacity:1; fill:none" points="
  151.118,656.961 339.84,656.961 
  "/>
<polyline clip-path="url(#clip1402)" style="stroke:#e26f46; stroke-width:4; stroke-opacity:1; fill:none" points="
  151.118,647.755 339.84,647.755 
  "/>
<polyline clip-path="url(#clip1402)" style="stroke:#e26f46; stroke-width:4; stroke-opacity:1; fill:none" points="
  151.118,638.548 339.84,638.548 
  "/>
<polyline clip-path="url(#clip1402)" style="stroke:#e26f46; stroke-width:4; stroke-opacity:1; fill:none" points="
  151.118,629.342 339.84,629.342 
  "/>
<polyline clip-path="url(#clip1402)" style="stroke:#e26f46; stroke-width:4; stroke-opacity:1; fill:none" points="
  151.118,620.136 339.84,620.136 
  "/>
<polyline clip-path="url(#clip1402)" style="stroke:#e26f46; stroke-width:4; stroke-opacity:1; fill:none" points="
  151.118,610.93 339.84,610.93 
  "/>
<polyline clip-path="url(#clip1402)" style="stroke:#e26f46; stroke-width:4; stroke-opacity:1; fill:none" points="
  151.118,601.724 339.84,601.724 
  "/>
<polyline clip-path="url(#clip1402)" style="stroke:#e26f46; stroke-width:4; stroke-opacity:1; fill:none" points="
  151.118,592.518 339.84,592.518 
  "/>
<polyline clip-path="url(#clip1402)" style="stroke:#e26f46; stroke-width:4; stroke-opacity:1; fill:none" points="
  151.118,583.312 339.84,583.312 
  "/>
<polyline clip-path="url(#clip1402)" style="stroke:#e26f46; stroke-width:4; stroke-opacity:1; fill:none" points="
  151.118,574.106 339.84,574.106 
  "/>
<polyline clip-path="url(#clip1402)" style="stroke:#e26f46; stroke-width:4; stroke-opacity:1; fill:none" points="
  151.118,564.9 339.84,564.9 
  "/>
<polyline clip-path="url(#clip1402)" style="stroke:#e26f46; stroke-width:4; stroke-opacity:1; fill:none" points="
  151.118,555.694 339.84,555.694 
  "/>
<polyline clip-path="url(#clip1402)" style="stroke:#e26f46; stroke-width:4; stroke-opacity:1; fill:none" points="
  151.118,546.488 717.284,546.488 
  "/>
<polyline clip-path="url(#clip1402)" style="stroke:#e26f46; stroke-width:4; stroke-opacity:1; fill:none" points="
  151.118,537.282 717.284,537.282 
  "/>
<polyline clip-path="url(#clip1402)" style="stroke:#e26f46; stroke-width:4; stroke-opacity:1; fill:none" points="
  151.118,528.076 717.284,528.076 
  "/>
<polyline clip-path="url(#clip1402)" style="stroke:#e26f46; stroke-width:4; stroke-opacity:1; fill:none" points="
  151.118,518.87 717.284,518.87 
  "/>
<polyline clip-path="url(#clip1402)" style="stroke:#e26f46; stroke-width:4; stroke-opacity:1; fill:none" points="
  151.118,509.664 717.284,509.664 
  "/>
<polyline clip-path="url(#clip1402)" style="stroke:#e26f46; stroke-width:4; stroke-opacity:1; fill:none" points="
  151.118,500.458 717.284,500.458 
  "/>
<polyline clip-path="url(#clip1402)" style="stroke:#e26f46; stroke-width:4; stroke-opacity:1; fill:none" points="
  151.118,491.252 717.284,491.252 
  "/>
<polyline clip-path="url(#clip1402)" style="stroke:#e26f46; stroke-width:4; stroke-opacity:1; fill:none" points="
  151.118,482.046 717.284,482.046 
  "/>
<polyline clip-path="url(#clip1402)" style="stroke:#e26f46; stroke-width:4; stroke-opacity:1; fill:none" points="
  151.118,472.84 717.284,472.84 
  "/>
<polyline clip-path="url(#clip1402)" style="stroke:#e26f46; stroke-width:4; stroke-opacity:1; fill:none" points="
  151.118,463.634 2288.63,463.634 
  "/>
<polyline clip-path="url(#clip1402)" style="stroke:#3da44d; stroke-width:4; stroke-opacity:1; fill:none" points="
  339.84,454.428 731.945,454.428 
  "/>
<polyline clip-path="url(#clip1402)" style="stroke:#3da44d; stroke-width:4; stroke-opacity:1; fill:none" points="
  339.84,445.221 731.945,445.221 
  "/>
<polyline clip-path="url(#clip1402)" style="stroke:#3da44d; stroke-width:4; stroke-opacity:1; fill:none" points="
  339.84,436.015 731.945,436.015 
  "/>
<polyline clip-path="url(#clip1402)" style="stroke:#3da44d; stroke-width:4; stroke-opacity:1; fill:none" points="
  339.84,426.809 731.945,426.809 
  "/>
<polyline clip-path="url(#clip1402)" style="stroke:#3da44d; stroke-width:4; stroke-opacity:1; fill:none" points="
  339.84,417.603 731.945,417.603 
  "/>
<polyline clip-path="url(#clip1402)" style="stroke:#3da44d; stroke-width:4; stroke-opacity:1; fill:none" points="
  339.84,408.397 731.945,408.397 
  "/>
<polyline clip-path="url(#clip1402)" style="stroke:#3da44d; stroke-width:4; stroke-opacity:1; fill:none" points="
  339.84,399.191 731.945,399.191 
  "/>
<polyline clip-path="url(#clip1402)" style="stroke:#3da44d; stroke-width:4; stroke-opacity:1; fill:none" points="
  339.84,389.985 731.945,389.985 
  "/>
<polyline clip-path="url(#clip1402)" style="stroke:#3da44d; stroke-width:4; stroke-opacity:1; fill:none" points="
  339.84,380.779 731.945,380.779 
  "/>
<polyline clip-path="url(#clip1402)" style="stroke:#3da44d; stroke-width:4; stroke-opacity:1; fill:none" points="
  339.84,371.573 731.945,371.573 
  "/>
<polyline clip-path="url(#clip1402)" style="stroke:#3da44d; stroke-width:4; stroke-opacity:1; fill:none" points="
  717.284,362.367 1893.6,362.367 
  "/>
<polyline clip-path="url(#clip1402)" style="stroke:#3da44d; stroke-width:4; stroke-opacity:1; fill:none" points="
  753.327,353.161 764.768,353.161 
  "/>
<polyline clip-path="url(#clip1402)" style="stroke:#3da44d; stroke-width:4; stroke-opacity:1; fill:none" points="
  753.327,343.955 764.768,343.955 
  "/>
<polyline clip-path="url(#clip1402)" style="stroke:#3da44d; stroke-width:4; stroke-opacity:1; fill:none" points="
  753.327,334.749 764.768,334.749 
  "/>
<polyline clip-path="url(#clip1402)" style="stroke:#3da44d; stroke-width:4; stroke-opacity:1; fill:none" points="
  753.327,325.543 764.768,325.543 
  "/>
<polyline clip-path="url(#clip1402)" style="stroke:#3da44d; stroke-width:4; stroke-opacity:1; fill:none" points="
  753.327,316.337 764.768,316.337 
  "/>
<polyline clip-path="url(#clip1402)" style="stroke:#3da44d; stroke-width:4; stroke-opacity:1; fill:none" points="
  753.327,307.131 764.768,307.131 
  "/>
<polyline clip-path="url(#clip1402)" style="stroke:#3da44d; stroke-width:4; stroke-opacity:1; fill:none" points="
  753.327,297.925 764.768,297.925 
  "/>
<polyline clip-path="url(#clip1402)" style="stroke:#3da44d; stroke-width:4; stroke-opacity:1; fill:none" points="
  753.327,288.719 764.768,288.719 
  "/>
<polyline clip-path="url(#clip1402)" style="stroke:#3da44d; stroke-width:4; stroke-opacity:1; fill:none" points="
  753.327,279.513 764.768,279.513 
  "/>
<polyline clip-path="url(#clip1402)" style="stroke:#3da44d; stroke-width:4; stroke-opacity:1; fill:none" points="
  753.327,270.307 764.768,270.307 
  "/>
<polyline clip-path="url(#clip1402)" style="stroke:#3da44d; stroke-width:4; stroke-opacity:1; fill:none" points="
  753.327,261.101 764.768,261.101 
  "/>
<polyline clip-path="url(#clip1402)" style="stroke:#3da44d; stroke-width:4; stroke-opacity:1; fill:none" points="
  753.327,251.895 764.768,251.895 
  "/>
<polyline clip-path="url(#clip1402)" style="stroke:#3da44d; stroke-width:4; stroke-opacity:1; fill:none" points="
  753.327,242.688 764.768,242.688 
  "/>
<polyline clip-path="url(#clip1402)" style="stroke:#3da44d; stroke-width:4; stroke-opacity:1; fill:none" points="
  753.327,233.482 764.768,233.482 
  "/>
<polyline clip-path="url(#clip1402)" style="stroke:#3da44d; stroke-width:4; stroke-opacity:1; fill:none" points="
  753.327,224.276 764.768,224.276 
  "/>
<polyline clip-path="url(#clip1402)" style="stroke:#3da44d; stroke-width:4; stroke-opacity:1; fill:none" points="
  753.327,215.07 764.768,215.07 
  "/>
<polyline clip-path="url(#clip1402)" style="stroke:#3da44d; stroke-width:4; stroke-opacity:1; fill:none" points="
  753.327,205.864 764.768,205.864 
  "/>
<polyline clip-path="url(#clip1402)" style="stroke:#3da44d; stroke-width:4; stroke-opacity:1; fill:none" points="
  753.327,196.658 764.768,196.658 
  "/>
<polyline clip-path="url(#clip1402)" style="stroke:#3da44d; stroke-width:4; stroke-opacity:1; fill:none" points="
  753.327,187.452 764.768,187.452 
  "/>
<polyline clip-path="url(#clip1402)" style="stroke:#3da44d; stroke-width:4; stroke-opacity:1; fill:none" points="
  753.327,178.246 764.768,178.246 
  "/>
<polyline clip-path="url(#clip1402)" style="stroke:#3da44d; stroke-width:4; stroke-opacity:1; fill:none" points="
  1094.73,169.04 1095.58,169.04 
  "/>
<polyline clip-path="url(#clip1402)" style="stroke:#3da44d; stroke-width:4; stroke-opacity:1; fill:none" points="
  1094.73,159.834 1095.58,159.834 
  "/>
<polyline clip-path="url(#clip1402)" style="stroke:#3da44d; stroke-width:4; stroke-opacity:1; fill:none" points="
  1094.73,150.628 1095.58,150.628 
  "/>
<polyline clip-path="url(#clip1402)" style="stroke:#3da44d; stroke-width:4; stroke-opacity:1; fill:none" points="
  1094.73,141.422 1095.58,141.422 
  "/>
<polyline clip-path="url(#clip1402)" style="stroke:#3da44d; stroke-width:4; stroke-opacity:1; fill:none" points="
  1094.73,132.216 1095.58,132.216 
  "/>
<polyline clip-path="url(#clip1402)" style="stroke:#3da44d; stroke-width:4; stroke-opacity:1; fill:none" points="
  1094.73,123.01 1095.58,123.01 
  "/>
<polyline clip-path="url(#clip1402)" style="stroke:#3da44d; stroke-width:4; stroke-opacity:1; fill:none" points="
  1094.73,113.804 1095.58,113.804 
  "/>
<polyline clip-path="url(#clip1402)" style="stroke:#3da44d; stroke-width:4; stroke-opacity:1; fill:none" points="
  1094.73,104.598 1095.58,104.598 
  "/>
<polyline clip-path="url(#clip1402)" style="stroke:#3da44d; stroke-width:4; stroke-opacity:1; fill:none" points="
  1094.73,95.3917 1095.58,95.3917 
  "/>
<polyline clip-path="url(#clip1402)" style="stroke:#3da44d; stroke-width:4; stroke-opacity:1; fill:none" points="
  1094.73,86.1857 1095.58,86.1857 
  "/>
<path clip-path="url(#clip1400)" d="
M1924.62 372.684 L2280.76 372.684 L2280.76 130.764 L1924.62 130.764  Z
  " fill="#ffffff" fill-rule="evenodd" fill-opacity="1"/>
<polyline clip-path="url(#clip1400)" style="stroke:#000000; stroke-width:4; stroke-opacity:1; fill:none" points="
  1924.62,372.684 2280.76,372.684 2280.76,130.764 1924.62,130.764 1924.62,372.684 
  "/>
<polyline clip-path="url(#clip1400)" style="stroke:#808080; stroke-width:4; stroke-opacity:1; fill:none" stroke-dasharray="2, 4" points="
  1948.62,191.244 2092.62,191.244 
  "/>
<path clip-path="url(#clip1400)" d="M 0 0 M2133.13 200.445 Q2132.41 199.612 2131.27 197.668 Q2129.72 200.445 2128.36 201.672 Q2126.65 203.154 2123.98 203.154 Q2120.86 203.154 2118.8 200.816 Q2116.62 198.362 2116.62 194.311 Q2116.62 190.422 2118.8 187.783 Q2120.74 185.446 2124.03 185.446 Q2125.72 185.446 2126.97 186.14 Q2128.43 186.904 2129.42 188.223 Q2130.35 189.404 2131.27 191.001 Q2132.83 188.223 2134.19 186.996 Q2135.9 185.515 2138.57 185.515 Q2141.69 185.515 2143.75 187.853 Q2145.93 190.307 2145.93 194.358 Q2145.93 198.246 2143.75 200.885 Q2141.81 203.223 2138.52 203.223 Q2136.83 203.223 2135.58 202.529 Q2134.33 201.904 2133.13 200.445 M2123.73 200.121 Q2127.55 200.121 2129.84 194.566 Q2126.9 188.501 2123.73 188.501 Q2121.41 188.501 2120.23 190.168 Q2118.96 191.95 2118.96 194.311 Q2118.96 196.904 2120.23 198.501 Q2121.53 200.121 2123.73 200.121 M2138.82 188.547 Q2135.37 188.547 2132.71 194.103 Q2135.63 200.168 2138.82 200.168 Q2141.14 200.168 2142.32 198.501 Q2143.59 196.719 2143.59 194.358 Q2143.59 191.765 2142.32 190.168 Q2141.02 188.547 2138.82 188.547 Z" fill="#000000" fill-rule="evenodd" fill-opacity="1" /><polyline clip-path="url(#clip1400)" style="stroke:#e26f46; stroke-width:4; stroke-opacity:1; fill:none" points="
  1948.62,251.724 2092.62,251.724 
  "/>
<path clip-path="url(#clip1400)" d="M 0 0 M2135.53 247.013 L2135.53 232.986 L2139.79 232.986 L2139.79 269.004 L2135.53 269.004 L2135.53 265.115 Q2134.19 267.43 2132.13 268.564 Q2130.09 269.675 2127.22 269.675 Q2122.53 269.675 2119.56 265.925 Q2116.62 262.175 2116.62 256.064 Q2116.62 249.953 2119.56 246.203 Q2122.53 242.453 2127.22 242.453 Q2130.09 242.453 2132.13 243.588 Q2134.19 244.699 2135.53 247.013 M2121.02 256.064 Q2121.02 260.763 2122.94 263.449 Q2124.89 266.111 2128.27 266.111 Q2131.65 266.111 2133.59 263.449 Q2135.53 260.763 2135.53 256.064 Q2135.53 251.365 2133.59 248.703 Q2131.65 246.018 2128.27 246.018 Q2124.89 246.018 2122.94 248.703 Q2121.02 251.365 2121.02 256.064 Z" fill="#000000" fill-rule="evenodd" fill-opacity="1" /><path clip-path="url(#clip1400)" d="M 0 0 M2144.26 243.078 L2148.52 243.078 L2148.52 269.004 L2144.26 269.004 L2144.26 243.078 M2144.26 232.986 L2148.52 232.986 L2148.52 238.379 L2144.26 238.379 L2144.26 232.986 Z" fill="#000000" fill-rule="evenodd" fill-opacity="1" /><path clip-path="url(#clip1400)" d="M 0 0 M2173.17 248.055 Q2174.77 245.185 2176.99 243.819 Q2179.21 242.453 2182.22 242.453 Q2186.27 242.453 2188.47 245.301 Q2190.67 248.125 2190.67 253.356 L2190.67 269.004 L2186.39 269.004 L2186.39 253.495 Q2186.39 249.768 2185.07 247.963 Q2183.75 246.157 2181.04 246.157 Q2177.73 246.157 2175.81 248.356 Q2173.89 250.555 2173.89 254.351 L2173.89 269.004 L2169.61 269.004 L2169.61 253.495 Q2169.61 249.745 2168.29 247.963 Q2166.97 246.157 2164.21 246.157 Q2160.95 246.157 2159.03 248.379 Q2157.11 250.578 2157.11 254.351 L2157.11 269.004 L2152.83 269.004 L2152.83 243.078 L2157.11 243.078 L2157.11 247.106 Q2158.57 244.722 2160.6 243.588 Q2162.64 242.453 2165.44 242.453 Q2168.27 242.453 2170.23 243.888 Q2172.22 245.324 2173.17 248.055 Z" fill="#000000" fill-rule="evenodd" fill-opacity="1" /><path clip-path="url(#clip1400)" d="M 0 0 M2220.81 237.523 Q2217.2 237.523 2215.37 241.088 Q2213.57 244.629 2213.57 251.759 Q2213.57 258.865 2215.37 262.43 Q2217.2 265.972 2220.81 265.972 Q2224.45 265.972 2226.25 262.43 Q2228.08 258.865 2228.08 251.759 Q2228.08 244.629 2226.25 241.088 Q2224.45 237.523 2220.81 237.523 M2220.81 233.819 Q2226.62 233.819 2229.68 238.426 Q2232.76 243.009 2232.76 251.759 Q2232.76 260.486 2229.68 265.092 Q2226.62 269.675 2220.81 269.675 Q2215 269.675 2211.92 265.092 Q2208.87 260.486 2208.87 251.759 Q2208.87 243.009 2211.92 238.426 Q2215 233.819 2220.81 233.819 Z" fill="#000000" fill-rule="evenodd" fill-opacity="1" /><polyline clip-path="url(#clip1400)" style="stroke:#3da44d; stroke-width:4; stroke-opacity:1; fill:none" points="
  1948.62,312.204 2092.62,312.204 
  "/>
<path clip-path="url(#clip1400)" d="M 0 0 M2135.53 307.493 L2135.53 293.466 L2139.79 293.466 L2139.79 329.484 L2135.53 329.484 L2135.53 325.595 Q2134.19 327.91 2132.13 329.044 Q2130.09 330.155 2127.22 330.155 Q2122.53 330.155 2119.56 326.405 Q2116.62 322.655 2116.62 316.544 Q2116.62 310.433 2119.56 306.683 Q2122.53 302.933 2127.22 302.933 Q2130.09 302.933 2132.13 304.068 Q2134.19 305.179 2135.53 307.493 M2121.02 316.544 Q2121.02 321.243 2122.94 323.929 Q2124.89 326.591 2128.27 326.591 Q2131.65 326.591 2133.59 323.929 Q2135.53 321.243 2135.53 316.544 Q2135.53 311.845 2133.59 309.183 Q2131.65 306.498 2128.27 306.498 Q2124.89 306.498 2122.94 309.183 Q2121.02 311.845 2121.02 316.544 Z" fill="#000000" fill-rule="evenodd" fill-opacity="1" /><path clip-path="url(#clip1400)" d="M 0 0 M2144.26 303.558 L2148.52 303.558 L2148.52 329.484 L2144.26 329.484 L2144.26 303.558 M2144.26 293.466 L2148.52 293.466 L2148.52 298.859 L2144.26 298.859 L2144.26 293.466 Z" fill="#000000" fill-rule="evenodd" fill-opacity="1" /><path clip-path="url(#clip1400)" d="M 0 0 M2173.17 308.535 Q2174.77 305.665 2176.99 304.299 Q2179.21 302.933 2182.22 302.933 Q2186.27 302.933 2188.47 305.781 Q2190.67 308.605 2190.67 313.836 L2190.67 329.484 L2186.39 329.484 L2186.39 313.975 Q2186.39 310.248 2185.07 308.443 Q2183.75 306.637 2181.04 306.637 Q2177.73 306.637 2175.81 308.836 Q2173.89 311.035 2173.89 314.831 L2173.89 329.484 L2169.61 329.484 L2169.61 313.975 Q2169.61 310.225 2168.29 308.443 Q2166.97 306.637 2164.21 306.637 Q2160.95 306.637 2159.03 308.859 Q2157.11 311.058 2157.11 314.831 L2157.11 329.484 L2152.83 329.484 L2152.83 303.558 L2157.11 303.558 L2157.11 307.586 Q2158.57 305.202 2160.6 304.068 Q2162.64 302.933 2165.44 302.933 Q2168.27 302.933 2170.23 304.368 Q2172.22 305.804 2173.17 308.535 Z" fill="#000000" fill-rule="evenodd" fill-opacity="1" /><path clip-path="url(#clip1400)" d="M 0 0 M2211.62 325.549 L2219.26 325.549 L2219.26 299.183 L2210.95 300.85 L2210.95 296.591 L2219.21 294.924 L2223.89 294.924 L2223.89 325.549 L2231.53 325.549 L2231.53 329.484 L2211.62 329.484 L2211.62 325.549 Z" fill="#000000" fill-rule="evenodd" fill-opacity="1" /></svg>
