<?xml version="1.0" encoding="utf-8"?>
<svg xmlns="http://www.w3.org/2000/svg" xmlns:xlink="http://www.w3.org/1999/xlink" width="600" height="400" viewBox="0 0 2400 1600">
<defs>
  <clipPath id="clip540">
    <rect x="0" y="0" width="2400" height="1600"/>
  </clipPath>
</defs>
<path clip-path="url(#clip540)" d="M0 1600 L2400 1600 L2400 0 L0 0  Z" fill="#ffffff" fill-rule="evenodd" fill-opacity="1"/>
<defs>
  <clipPath id="clip541">
    <rect x="636" y="123" width="1301" height="1301"/>
  </clipPath>
</defs>
<path clip-path="url(#clip540)" d="M636.214 1423.18 L1935.92 1423.18 L1935.92 123.472 L636.214 123.472  Z" fill="#ffffff" fill-rule="evenodd" fill-opacity="1"/>
<polyline clip-path="url(#clip541)" style="stroke:#000000; stroke-linecap:round; stroke-linejoin:round; stroke-width:2; stroke-opacity:0.1; fill:none" points="695.292,1423.18 695.292,123.472 "/>
<polyline clip-path="url(#clip541)" style="stroke:#000000; stroke-linecap:round; stroke-linejoin:round; stroke-width:2; stroke-opacity:0.1; fill:none" points="1001.78,1423.18 1001.78,123.472 "/>
<polyline clip-path="url(#clip541)" style="stroke:#000000; stroke-linecap:round; stroke-linejoin:round; stroke-width:2; stroke-opacity:0.1; fill:none" points="1308.27,1423.18 1308.27,123.472 "/>
<polyline clip-path="url(#clip541)" style="stroke:#000000; stroke-linecap:round; stroke-linejoin:round; stroke-width:2; stroke-opacity:0.1; fill:none" points="1614.76,1423.18 1614.76,123.472 "/>
<polyline clip-path="url(#clip541)" style="stroke:#000000; stroke-linecap:round; stroke-linejoin:round; stroke-width:2; stroke-opacity:0.1; fill:none" points="1921.25,1423.18 1921.25,123.472 "/>
<polyline clip-path="url(#clip541)" style="stroke:#000000; stroke-linecap:round; stroke-linejoin:round; stroke-width:2; stroke-opacity:0.1; fill:none" points="636.214,1364.1 1935.92,1364.1 "/>
<polyline clip-path="url(#clip541)" style="stroke:#000000; stroke-linecap:round; stroke-linejoin:round; stroke-width:2; stroke-opacity:0.1; fill:none" points="636.214,1057.61 1935.92,1057.61 "/>
<polyline clip-path="url(#clip541)" style="stroke:#000000; stroke-linecap:round; stroke-linejoin:round; stroke-width:2; stroke-opacity:0.1; fill:none" points="636.214,751.125 1935.92,751.125 "/>
<polyline clip-path="url(#clip541)" style="stroke:#000000; stroke-linecap:round; stroke-linejoin:round; stroke-width:2; stroke-opacity:0.1; fill:none" points="636.214,444.636 1935.92,444.636 "/>
<polyline clip-path="url(#clip541)" style="stroke:#000000; stroke-linecap:round; stroke-linejoin:round; stroke-width:2; stroke-opacity:0.1; fill:none" points="636.214,138.148 1935.92,138.148 "/>
<polyline clip-path="url(#clip540)" style="stroke:#000000; stroke-linecap:round; stroke-linejoin:round; stroke-width:4; stroke-opacity:1; fill:none" points="636.214,1423.18 1935.92,1423.18 "/>
<polyline clip-path="url(#clip540)" style="stroke:#000000; stroke-linecap:round; stroke-linejoin:round; stroke-width:4; stroke-opacity:1; fill:none" points="695.292,1423.18 695.292,1404.28 "/>
<polyline clip-path="url(#clip540)" style="stroke:#000000; stroke-linecap:round; stroke-linejoin:round; stroke-width:4; stroke-opacity:1; fill:none" points="1001.78,1423.18 1001.78,1404.28 "/>
<polyline clip-path="url(#clip540)" style="stroke:#000000; stroke-linecap:round; stroke-linejoin:round; stroke-width:4; stroke-opacity:1; fill:none" points="1308.27,1423.18 1308.27,1404.28 "/>
<polyline clip-path="url(#clip540)" style="stroke:#000000; stroke-linecap:round; stroke-linejoin:round; stroke-width:4; stroke-opacity:1; fill:none" points="1614.76,1423.18 1614.76,1404.28 "/>
<polyline clip-path="url(#clip540)" style="stroke:#000000; stroke-linecap:round; stroke-linejoin:round; stroke-width:4; stroke-opacity:1; fill:none" points="1921.25,1423.18 1921.25,1404.28 "/>
<path clip-path="url(#clip540)" d="M672.676 1454.1 Q669.065 1454.1 667.236 1457.66 Q665.431 1461.2 665.431 1468.33 Q665.431 1475.44 667.236 1479.01 Q669.065 1482.55 672.676 1482.55 Q676.31 1482.55 678.116 1479.01 Q679.945 1475.44 679.945 1468.33 Q679.945 1461.2 678.116 1457.66 Q676.31 1454.1 672.676 1454.1 M672.676 1450.39 Q678.486 1450.39 681.542 1455 Q684.621 1459.58 684.621 1468.33 Q684.621 1477.06 681.542 1481.67 Q678.486 1486.25 672.676 1486.25 Q666.866 1486.25 663.787 1481.67 Q660.732 1477.06 660.732 1468.33 Q660.732 1459.58 663.787 1455 Q666.866 1450.39 672.676 1450.39 Z" fill="#000000" fill-rule="nonzero" fill-opacity="1" /><path clip-path="url(#clip540)" d="M692.838 1479.7 L697.722 1479.7 L697.722 1485.58 L692.838 1485.58 L692.838 1479.7 Z" fill="#000000" fill-rule="nonzero" fill-opacity="1" /><path clip-path="url(#clip540)" d="M717.907 1454.1 Q714.296 1454.1 712.468 1457.66 Q710.662 1461.2 710.662 1468.33 Q710.662 1475.44 712.468 1479.01 Q714.296 1482.55 717.907 1482.55 Q721.542 1482.55 723.347 1479.01 Q725.176 1475.44 725.176 1468.33 Q725.176 1461.2 723.347 1457.66 Q721.542 1454.1 717.907 1454.1 M717.907 1450.39 Q723.718 1450.39 726.773 1455 Q729.852 1459.58 729.852 1468.33 Q729.852 1477.06 726.773 1481.67 Q723.718 1486.25 717.907 1486.25 Q712.097 1486.25 709.019 1481.67 Q705.963 1477.06 705.963 1468.33 Q705.963 1459.58 709.019 1455 Q712.097 1450.39 717.907 1450.39 Z" fill="#000000" fill-rule="nonzero" fill-opacity="1" /><path clip-path="url(#clip540)" d="M979.662 1454.1 Q976.051 1454.1 974.223 1457.66 Q972.417 1461.2 972.417 1468.33 Q972.417 1475.44 974.223 1479.01 Q976.051 1482.55 979.662 1482.55 Q983.297 1482.55 985.102 1479.01 Q986.931 1475.44 986.931 1468.33 Q986.931 1461.2 985.102 1457.66 Q983.297 1454.1 979.662 1454.1 M979.662 1450.39 Q985.473 1450.39 988.528 1455 Q991.607 1459.58 991.607 1468.33 Q991.607 1477.06 988.528 1481.67 Q985.473 1486.25 979.662 1486.25 Q973.852 1486.25 970.774 1481.67 Q967.718 1477.06 967.718 1468.33 Q967.718 1459.58 970.774 1455 Q973.852 1450.39 979.662 1450.39 Z" fill="#000000" fill-rule="nonzero" fill-opacity="1" /><path clip-path="url(#clip540)" d="M999.824 1479.7 L1004.71 1479.7 L1004.71 1485.58 L999.824 1485.58 L999.824 1479.7 Z" fill="#000000" fill-rule="nonzero" fill-opacity="1" /><path clip-path="url(#clip540)" d="M1014.94 1451.02 L1033.3 1451.02 L1033.3 1454.96 L1019.22 1454.96 L1019.22 1463.43 Q1020.24 1463.08 1021.26 1462.92 Q1022.28 1462.73 1023.3 1462.73 Q1029.08 1462.73 1032.46 1465.9 Q1035.84 1469.08 1035.84 1474.49 Q1035.84 1480.07 1032.37 1483.17 Q1028.9 1486.25 1022.58 1486.25 Q1020.4 1486.25 1018.13 1485.88 Q1015.89 1485.51 1013.48 1484.77 L1013.48 1480.07 Q1015.57 1481.2 1017.79 1481.76 Q1020.01 1482.32 1022.49 1482.32 Q1026.49 1482.32 1028.83 1480.21 Q1031.17 1478.1 1031.17 1474.49 Q1031.17 1470.88 1028.83 1468.77 Q1026.49 1466.67 1022.49 1466.67 Q1020.61 1466.67 1018.74 1467.08 Q1016.88 1467.5 1014.94 1468.38 L1014.94 1451.02 Z" fill="#000000" fill-rule="nonzero" fill-opacity="1" /><path clip-path="url(#clip540)" d="M1275.42 1481.64 L1283.06 1481.64 L1283.06 1455.28 L1274.75 1456.95 L1274.75 1452.69 L1283.01 1451.02 L1287.69 1451.02 L1287.69 1481.64 L1295.33 1481.64 L1295.33 1485.58 L1275.42 1485.58 L1275.42 1481.64 Z" fill="#000000" fill-rule="nonzero" fill-opacity="1" /><path clip-path="url(#clip540)" d="M1304.77 1479.7 L1309.66 1479.7 L1309.66 1485.58 L1304.77 1485.58 L1304.77 1479.7 Z" fill="#000000" fill-rule="nonzero" fill-opacity="1" /><path clip-path="url(#clip540)" d="M1329.84 1454.1 Q1326.23 1454.1 1324.4 1457.66 Q1322.6 1461.2 1322.6 1468.33 Q1322.6 1475.44 1324.4 1479.01 Q1326.23 1482.55 1329.84 1482.55 Q1333.48 1482.55 1335.28 1479.01 Q1337.11 1475.44 1337.11 1468.33 Q1337.11 1461.2 1335.28 1457.66 Q1333.48 1454.1 1329.84 1454.1 M1329.84 1450.39 Q1335.65 1450.39 1338.71 1455 Q1341.79 1459.58 1341.79 1468.33 Q1341.79 1477.06 1338.71 1481.67 Q1335.65 1486.25 1329.84 1486.25 Q1324.03 1486.25 1320.95 1481.67 Q1317.9 1477.06 1317.9 1468.33 Q1317.9 1459.58 1320.95 1455 Q1324.03 1450.39 1329.84 1450.39 Z" fill="#000000" fill-rule="nonzero" fill-opacity="1" /><path clip-path="url(#clip540)" d="M1582.41 1481.64 L1590.05 1481.64 L1590.05 1455.28 L1581.74 1456.95 L1581.74 1452.69 L1590 1451.02 L1594.68 1451.02 L1594.68 1481.64 L1602.32 1481.64 L1602.32 1485.58 L1582.41 1485.58 L1582.41 1481.64 Z" fill="#000000" fill-rule="nonzero" fill-opacity="1" /><path clip-path="url(#clip540)" d="M1611.76 1479.7 L1616.64 1479.7 L1616.64 1485.58 L1611.76 1485.58 L1611.76 1479.7 Z" fill="#000000" fill-rule="nonzero" fill-opacity="1" /><path clip-path="url(#clip540)" d="M1626.88 1451.02 L1645.23 1451.02 L1645.23 1454.96 L1631.16 1454.96 L1631.16 1463.43 Q1632.18 1463.08 1633.2 1462.92 Q1634.21 1462.73 1635.23 1462.73 Q1641.02 1462.73 1644.4 1465.9 Q1647.78 1469.08 1647.78 1474.49 Q1647.78 1480.07 1644.31 1483.17 Q1640.83 1486.25 1634.51 1486.25 Q1632.34 1486.25 1630.07 1485.88 Q1627.82 1485.51 1625.42 1484.77 L1625.42 1480.07 Q1627.5 1481.2 1629.72 1481.76 Q1631.95 1482.32 1634.42 1482.32 Q1638.43 1482.32 1640.76 1480.21 Q1643.1 1478.1 1643.1 1474.49 Q1643.1 1470.88 1640.76 1468.77 Q1638.43 1466.67 1634.42 1466.67 Q1632.55 1466.67 1630.67 1467.08 Q1628.82 1467.5 1626.88 1468.38 L1626.88 1451.02 Z" fill="#000000" fill-rule="nonzero" fill-opacity="1" /><path clip-path="url(#clip540)" d="M1892.48 1481.64 L1908.8 1481.64 L1908.8 1485.58 L1886.86 1485.58 L1886.86 1481.64 Q1889.52 1478.89 1894.11 1474.26 Q1898.71 1469.61 1899.89 1468.27 Q1902.14 1465.74 1903.02 1464.01 Q1903.92 1462.25 1903.92 1460.56 Q1903.92 1457.8 1901.98 1456.07 Q1900.05 1454.33 1896.95 1454.33 Q1894.75 1454.33 1892.3 1455.09 Q1889.87 1455.86 1887.09 1457.41 L1887.09 1452.69 Q1889.92 1451.55 1892.37 1450.97 Q1894.82 1450.39 1896.86 1450.39 Q1902.23 1450.39 1905.42 1453.08 Q1908.62 1455.77 1908.62 1460.26 Q1908.62 1462.39 1907.81 1464.31 Q1907.02 1466.2 1904.92 1468.8 Q1904.34 1469.47 1901.23 1472.69 Q1898.13 1475.88 1892.48 1481.64 Z" fill="#000000" fill-rule="nonzero" fill-opacity="1" /><path clip-path="url(#clip540)" d="M1918.62 1479.7 L1923.5 1479.7 L1923.5 1485.58 L1918.62 1485.58 L1918.62 1479.7 Z" fill="#000000" fill-rule="nonzero" fill-opacity="1" /><path clip-path="url(#clip540)" d="M1943.69 1454.1 Q1940.08 1454.1 1938.25 1457.66 Q1936.44 1461.2 1936.44 1468.33 Q1936.44 1475.44 1938.25 1479.01 Q1940.08 1482.55 1943.69 1482.55 Q1947.32 1482.55 1949.13 1479.01 Q1950.96 1475.44 1950.96 1468.33 Q1950.96 1461.2 1949.13 1457.66 Q1947.32 1454.1 1943.69 1454.1 M1943.69 1450.39 Q1949.5 1450.39 1952.55 1455 Q1955.63 1459.58 1955.63 1468.33 Q1955.63 1477.06 1952.55 1481.67 Q1949.5 1486.25 1943.69 1486.25 Q1937.88 1486.25 1934.8 1481.67 Q1931.74 1477.06 1931.74 1468.33 Q1931.74 1459.58 1934.8 1455 Q1937.88 1450.39 1943.69 1450.39 Z" fill="#000000" fill-rule="nonzero" fill-opacity="1" /><path clip-path="url(#clip540)" d="M1241.03 1550.25 Q1241.03 1543.79 1238.36 1540.13 Q1235.72 1536.44 1231.07 1536.44 Q1226.42 1536.44 1223.75 1540.13 Q1221.11 1543.79 1221.11 1550.25 Q1221.11 1556.71 1223.75 1560.4 Q1226.42 1564.07 1231.07 1564.07 Q1235.72 1564.07 1238.36 1560.4 Q1241.03 1556.71 1241.03 1550.25 M1221.11 1537.81 Q1222.95 1534.62 1225.75 1533.1 Q1228.59 1531.54 1232.5 1531.54 Q1238.99 1531.54 1243.04 1536.69 Q1247.11 1541.85 1247.11 1550.25 Q1247.11 1558.65 1243.04 1563.81 Q1238.99 1568.97 1232.5 1568.97 Q1228.59 1568.97 1225.75 1567.44 Q1222.95 1565.88 1221.11 1562.7 L1221.11 1568.04 L1215.22 1568.04 L1215.22 1518.52 L1221.11 1518.52 L1221.11 1537.81 Z" fill="#000000" fill-rule="nonzero" fill-opacity="1" /><path clip-path="url(#clip540)" d="M1256.82 1532.4 L1262.67 1532.4 L1262.67 1568.04 L1256.82 1568.04 L1256.82 1532.4 M1256.82 1518.52 L1262.67 1518.52 L1262.67 1525.93 L1256.82 1525.93 L1256.82 1518.52 Z" fill="#000000" fill-rule="nonzero" fill-opacity="1" /><path clip-path="url(#clip540)" d="M1295.58 1537.87 Q1294.6 1537.3 1293.42 1537.04 Q1292.27 1536.76 1290.87 1536.76 Q1285.91 1536.76 1283.24 1540 Q1280.59 1543.22 1280.59 1549.27 L1280.59 1568.04 L1274.71 1568.04 L1274.71 1532.4 L1280.59 1532.4 L1280.59 1537.93 Q1282.44 1534.69 1285.4 1533.13 Q1288.36 1531.54 1292.59 1531.54 Q1293.2 1531.54 1293.93 1531.63 Q1294.66 1531.7 1295.55 1531.85 L1295.58 1537.87 Z" fill="#000000" fill-rule="nonzero" fill-opacity="1" /><path clip-path="url(#clip540)" d="M1307.52 1522.27 L1307.52 1532.4 L1319.58 1532.4 L1319.58 1536.95 L1307.52 1536.95 L1307.52 1556.3 Q1307.52 1560.66 1308.7 1561.9 Q1309.91 1563.14 1313.57 1563.14 L1319.58 1563.14 L1319.58 1568.04 L1313.57 1568.04 Q1306.79 1568.04 1304.21 1565.53 Q1301.63 1562.98 1301.63 1556.3 L1301.63 1536.95 L1297.34 1536.95 L1297.34 1532.4 L1301.63 1532.4 L1301.63 1522.27 L1307.52 1522.27 Z" fill="#000000" fill-rule="nonzero" fill-opacity="1" /><path clip-path="url(#clip540)" d="M1356.92 1546.53 L1356.92 1568.04 L1351.06 1568.04 L1351.06 1546.72 Q1351.06 1541.66 1349.09 1539.14 Q1347.12 1536.63 1343.17 1536.63 Q1338.43 1536.63 1335.69 1539.65 Q1332.95 1542.68 1332.95 1547.9 L1332.95 1568.04 L1327.06 1568.04 L1327.06 1518.52 L1332.95 1518.52 L1332.95 1537.93 Q1335.05 1534.72 1337.88 1533.13 Q1340.75 1531.54 1344.47 1531.54 Q1350.62 1531.54 1353.77 1535.36 Q1356.92 1539.14 1356.92 1546.53 Z" fill="#000000" fill-rule="nonzero" fill-opacity="1" /><polyline clip-path="url(#clip540)" style="stroke:#000000; stroke-linecap:round; stroke-linejoin:round; stroke-width:4; stroke-opacity:1; fill:none" points="636.214,1423.18 636.214,123.472 "/>
<polyline clip-path="url(#clip540)" style="stroke:#000000; stroke-linecap:round; stroke-linejoin:round; stroke-width:4; stroke-opacity:1; fill:none" points="636.214,1364.1 647.727,1364.1 "/>
<polyline clip-path="url(#clip540)" style="stroke:#000000; stroke-linecap:round; stroke-linejoin:round; stroke-width:4; stroke-opacity:1; fill:none" points="636.214,1057.61 647.727,1057.61 "/>
<polyline clip-path="url(#clip540)" style="stroke:#000000; stroke-linecap:round; stroke-linejoin:round; stroke-width:4; stroke-opacity:1; fill:none" points="636.214,751.125 647.727,751.125 "/>
<polyline clip-path="url(#clip540)" style="stroke:#000000; stroke-linecap:round; stroke-linejoin:round; stroke-width:4; stroke-opacity:1; fill:none" points="636.214,444.636 647.727,444.636 "/>
<polyline clip-path="url(#clip540)" style="stroke:#000000; stroke-linecap:round; stroke-linejoin:round; stroke-width:4; stroke-opacity:1; fill:none" points="636.214,138.148 647.727,138.148 "/>
<path clip-path="url(#clip540)" d="M543.039 1349.9 Q539.427 1349.9 537.599 1353.47 Q535.793 1357.01 535.793 1364.14 Q535.793 1371.24 537.599 1374.81 Q539.427 1378.35 543.039 1378.35 Q546.673 1378.35 548.478 1374.81 Q550.307 1371.24 550.307 1364.14 Q550.307 1357.01 548.478 1353.47 Q546.673 1349.9 543.039 1349.9 M543.039 1346.2 Q548.849 1346.2 551.904 1350.8 Q554.983 1355.39 554.983 1364.14 Q554.983 1372.86 551.904 1377.47 Q548.849 1382.05 543.039 1382.05 Q537.228 1382.05 534.15 1377.47 Q531.094 1372.86 531.094 1364.14 Q531.094 1355.39 534.15 1350.8 Q537.228 1346.2 543.039 1346.2 Z" fill="#000000" fill-rule="nonzero" fill-opacity="1" /><path clip-path="url(#clip540)" d="M563.2 1375.5 L568.085 1375.5 L568.085 1381.38 L563.2 1381.38 L563.2 1375.5 Z" fill="#000000" fill-rule="nonzero" fill-opacity="1" /><path clip-path="url(#clip540)" d="M588.27 1349.9 Q584.659 1349.9 582.83 1353.47 Q581.024 1357.01 581.024 1364.14 Q581.024 1371.24 582.83 1374.81 Q584.659 1378.35 588.27 1378.35 Q591.904 1378.35 593.71 1374.81 Q595.538 1371.24 595.538 1364.14 Q595.538 1357.01 593.71 1353.47 Q591.904 1349.9 588.27 1349.9 M588.27 1346.2 Q594.08 1346.2 597.135 1350.8 Q600.214 1355.39 600.214 1364.14 Q600.214 1372.86 597.135 1377.47 Q594.08 1382.05 588.27 1382.05 Q582.46 1382.05 579.381 1377.47 Q576.325 1372.86 576.325 1364.14 Q576.325 1355.39 579.381 1350.8 Q582.46 1346.2 588.27 1346.2 Z" fill="#000000" fill-rule="nonzero" fill-opacity="1" /><path clip-path="url(#clip540)" d="M544.034 1043.41 Q540.423 1043.41 538.594 1046.98 Q536.789 1050.52 536.789 1057.65 Q536.789 1064.75 538.594 1068.32 Q540.423 1071.86 544.034 1071.86 Q547.668 1071.86 549.474 1068.32 Q551.302 1064.75 551.302 1057.65 Q551.302 1050.52 549.474 1046.98 Q547.668 1043.41 544.034 1043.41 M544.034 1039.71 Q549.844 1039.71 552.9 1044.32 Q555.978 1048.9 555.978 1057.65 Q555.978 1066.38 552.9 1070.98 Q549.844 1075.56 544.034 1075.56 Q538.224 1075.56 535.145 1070.98 Q532.09 1066.38 532.09 1057.65 Q532.09 1048.9 535.145 1044.32 Q538.224 1039.71 544.034 1039.71 Z" fill="#000000" fill-rule="nonzero" fill-opacity="1" /><path clip-path="url(#clip540)" d="M564.196 1069.01 L569.08 1069.01 L569.08 1074.89 L564.196 1074.89 L564.196 1069.01 Z" fill="#000000" fill-rule="nonzero" fill-opacity="1" /><path clip-path="url(#clip540)" d="M579.312 1040.33 L597.668 1040.33 L597.668 1044.27 L583.594 1044.27 L583.594 1052.74 Q584.612 1052.39 585.631 1052.23 Q586.649 1052.05 587.668 1052.05 Q593.455 1052.05 596.835 1055.22 Q600.214 1058.39 600.214 1063.81 Q600.214 1069.38 596.742 1072.49 Q593.27 1075.56 586.95 1075.56 Q584.774 1075.56 582.506 1075.19 Q580.261 1074.82 577.853 1074.08 L577.853 1069.38 Q579.937 1070.52 582.159 1071.07 Q584.381 1071.63 586.858 1071.63 Q590.862 1071.63 593.2 1069.52 Q595.538 1067.42 595.538 1063.81 Q595.538 1060.19 593.2 1058.09 Q590.862 1055.98 586.858 1055.98 Q584.983 1055.98 583.108 1056.4 Q581.256 1056.81 579.312 1057.69 L579.312 1040.33 Z" fill="#000000" fill-rule="nonzero" fill-opacity="1" /><path clip-path="url(#clip540)" d="M533.849 764.47 L541.488 764.47 L541.488 738.104 L533.177 739.771 L533.177 735.512 L541.441 733.845 L546.117 733.845 L546.117 764.47 L553.756 764.47 L553.756 768.405 L533.849 768.405 L533.849 764.47 Z" fill="#000000" fill-rule="nonzero" fill-opacity="1" /><path clip-path="url(#clip540)" d="M563.2 762.525 L568.085 762.525 L568.085 768.405 L563.2 768.405 L563.2 762.525 Z" fill="#000000" fill-rule="nonzero" fill-opacity="1" /><path clip-path="url(#clip540)" d="M588.27 736.924 Q584.659 736.924 582.83 740.488 Q581.024 744.03 581.024 751.16 Q581.024 758.266 582.83 761.831 Q584.659 765.373 588.27 765.373 Q591.904 765.373 593.71 761.831 Q595.538 758.266 595.538 751.16 Q595.538 744.03 593.71 740.488 Q591.904 736.924 588.27 736.924 M588.27 733.22 Q594.08 733.22 597.135 737.826 Q600.214 742.41 600.214 751.16 Q600.214 759.886 597.135 764.493 Q594.08 769.076 588.27 769.076 Q582.46 769.076 579.381 764.493 Q576.325 759.886 576.325 751.16 Q576.325 742.41 579.381 737.826 Q582.46 733.22 588.27 733.22 Z" fill="#000000" fill-rule="nonzero" fill-opacity="1" /><path clip-path="url(#clip540)" d="M534.844 457.981 L542.483 457.981 L542.483 431.616 L534.173 433.282 L534.173 429.023 L542.437 427.356 L547.113 427.356 L547.113 457.981 L554.751 457.981 L554.751 461.916 L534.844 461.916 L534.844 457.981 Z" fill="#000000" fill-rule="nonzero" fill-opacity="1" /><path clip-path="url(#clip540)" d="M564.196 456.037 L569.08 456.037 L569.08 461.916 L564.196 461.916 L564.196 456.037 Z" fill="#000000" fill-rule="nonzero" fill-opacity="1" /><path clip-path="url(#clip540)" d="M579.312 427.356 L597.668 427.356 L597.668 431.292 L583.594 431.292 L583.594 439.764 Q584.612 439.416 585.631 439.254 Q586.649 439.069 587.668 439.069 Q593.455 439.069 596.835 442.241 Q600.214 445.412 600.214 450.828 Q600.214 456.407 596.742 459.509 Q593.27 462.588 586.95 462.588 Q584.774 462.588 582.506 462.217 Q580.261 461.847 577.853 461.106 L577.853 456.407 Q579.937 457.541 582.159 458.097 Q584.381 458.652 586.858 458.652 Q590.862 458.652 593.2 456.546 Q595.538 454.44 595.538 450.828 Q595.538 447.217 593.2 445.111 Q590.862 443.004 586.858 443.004 Q584.983 443.004 583.108 443.421 Q581.256 443.838 579.312 444.717 L579.312 427.356 Z" fill="#000000" fill-rule="nonzero" fill-opacity="1" /><path clip-path="url(#clip540)" d="M537.066 151.493 L553.386 151.493 L553.386 155.428 L531.441 155.428 L531.441 151.493 Q534.103 148.738 538.687 144.108 Q543.293 139.456 544.474 138.113 Q546.719 135.59 547.599 133.854 Q548.501 132.095 548.501 130.405 Q548.501 127.65 546.557 125.914 Q544.636 124.178 541.534 124.178 Q539.335 124.178 536.881 124.942 Q534.451 125.706 531.673 127.257 L531.673 122.534 Q534.497 121.4 536.951 120.821 Q539.404 120.243 541.441 120.243 Q546.812 120.243 550.006 122.928 Q553.201 125.613 553.201 130.104 Q553.201 132.233 552.39 134.155 Q551.603 136.053 549.497 138.645 Q548.918 139.317 545.816 142.534 Q542.714 145.729 537.066 151.493 Z" fill="#000000" fill-rule="nonzero" fill-opacity="1" /><path clip-path="url(#clip540)" d="M563.2 149.548 L568.085 149.548 L568.085 155.428 L563.2 155.428 L563.2 149.548 Z" fill="#000000" fill-rule="nonzero" fill-opacity="1" /><path clip-path="url(#clip540)" d="M588.27 123.946 Q584.659 123.946 582.83 127.511 Q581.024 131.053 581.024 138.182 Q581.024 145.289 582.83 148.854 Q584.659 152.395 588.27 152.395 Q591.904 152.395 593.71 148.854 Q595.538 145.289 595.538 138.182 Q595.538 131.053 593.71 127.511 Q591.904 123.946 588.27 123.946 M588.27 120.243 Q594.08 120.243 597.135 124.849 Q600.214 129.432 600.214 138.182 Q600.214 146.909 597.135 151.516 Q594.08 156.099 588.27 156.099 Q582.46 156.099 579.381 151.516 Q576.325 146.909 576.325 138.182 Q576.325 129.432 579.381 124.849 Q582.46 120.243 588.27 120.243 Z" fill="#000000" fill-rule="nonzero" fill-opacity="1" /><path clip-path="url(#clip540)" d="M450.601 836.903 L431.313 836.903 L431.313 831.047 L480.838 831.047 L480.838 836.903 L475.491 836.903 Q478.674 838.75 480.233 841.582 Q481.761 844.383 481.761 848.33 Q481.761 854.791 476.605 858.865 Q471.449 862.907 463.046 862.907 Q454.643 862.907 449.487 858.865 Q444.331 854.791 444.331 848.33 Q444.331 844.383 445.89 841.582 Q447.418 838.75 450.601 836.903 M463.046 856.86 Q469.507 856.86 473.199 854.218 Q476.86 851.545 476.86 846.898 Q476.86 842.251 473.199 839.577 Q469.507 836.903 463.046 836.903 Q456.585 836.903 452.925 839.577 Q449.232 842.251 449.232 846.898 Q449.232 851.545 452.925 854.218 Q456.585 856.86 463.046 856.86 Z" fill="#000000" fill-rule="nonzero" fill-opacity="1" /><path clip-path="url(#clip540)" d="M461.55 788.492 L464.415 788.492 L464.415 815.419 Q470.462 815.037 473.645 811.791 Q476.796 808.512 476.796 802.688 Q476.796 799.314 475.968 796.163 Q475.141 792.98 473.486 789.861 L479.024 789.861 Q480.361 793.012 481.061 796.322 Q481.761 799.632 481.761 803.038 Q481.761 811.568 476.796 816.565 Q471.831 821.53 463.364 821.53 Q454.611 821.53 449.487 816.82 Q444.331 812.077 444.331 804.056 Q444.331 796.863 448.978 792.694 Q453.593 788.492 461.55 788.492 M459.831 794.349 Q455.025 794.412 452.161 797.054 Q449.296 799.664 449.296 803.993 Q449.296 808.894 452.065 811.854 Q454.834 814.783 459.863 815.228 L459.831 794.349 Z" fill="#000000" fill-rule="nonzero" fill-opacity="1" /><path clip-path="url(#clip540)" d="M462.919 762.679 Q462.919 769.777 464.542 772.514 Q466.165 775.252 470.08 775.252 Q473.199 775.252 475.045 773.215 Q476.86 771.146 476.86 767.613 Q476.86 762.743 473.422 759.815 Q469.953 756.855 464.224 756.855 L462.919 756.855 L462.919 762.679 M460.5 750.998 L480.838 750.998 L480.838 756.855 L475.427 756.855 Q478.674 758.86 480.233 761.852 Q481.761 764.844 481.761 769.172 Q481.761 774.647 478.706 777.893 Q475.618 781.108 470.462 781.108 Q464.446 781.108 461.391 777.098 Q458.335 773.055 458.335 765.066 L458.335 756.855 L457.762 756.855 Q453.72 756.855 451.524 759.528 Q449.296 762.17 449.296 766.976 Q449.296 770.032 450.028 772.928 Q450.76 775.825 452.224 778.498 L446.813 778.498 Q445.572 775.283 444.967 772.26 Q444.331 769.236 444.331 766.371 Q444.331 758.637 448.341 754.818 Q452.352 750.998 460.5 750.998 Z" fill="#000000" fill-rule="nonzero" fill-opacity="1" /><path clip-path="url(#clip540)" d="M435.069 733.142 L445.19 733.142 L445.19 721.079 L449.742 721.079 L449.742 733.142 L469.093 733.142 Q473.454 733.142 474.695 731.965 Q475.937 730.755 475.937 727.095 L475.937 721.079 L480.838 721.079 L480.838 727.095 Q480.838 733.875 478.324 736.453 Q475.777 739.031 469.093 739.031 L449.742 739.031 L449.742 743.328 L445.19 743.328 L445.19 739.031 L435.069 739.031 L435.069 733.142 Z" fill="#000000" fill-rule="nonzero" fill-opacity="1" /><path clip-path="url(#clip540)" d="M459.322 683.745 L480.838 683.745 L480.838 689.601 L459.513 689.601 Q454.452 689.601 451.938 691.574 Q449.423 693.548 449.423 697.495 Q449.423 702.237 452.447 704.974 Q455.471 707.711 460.691 707.711 L480.838 707.711 L480.838 713.6 L431.313 713.6 L431.313 707.711 L450.728 707.711 Q447.514 705.611 445.922 702.778 Q444.331 699.913 444.331 696.19 Q444.331 690.047 448.15 686.896 Q451.938 683.745 459.322 683.745 Z" fill="#000000" fill-rule="nonzero" fill-opacity="1" /><path clip-path="url(#clip540)" d="M873.301 18.8205 L873.301 41.5461 L883.59 41.5461 Q889.302 41.5461 892.421 38.5889 Q895.541 35.6318 895.541 30.163 Q895.541 24.7348 892.421 21.7777 Q889.302 18.8205 883.59 18.8205 L873.301 18.8205 M865.118 12.096 L883.59 12.096 Q893.758 12.096 898.943 16.714 Q904.169 21.2916 904.169 30.163 Q904.169 39.1155 898.943 43.6931 Q893.758 48.2706 883.59 48.2706 L873.301 48.2706 L873.301 72.576 L865.118 72.576 L865.118 12.096 Z" fill="#000000" fill-rule="nonzero" fill-opacity="1" /><path clip-path="url(#clip540)" d="M950.673 48.0275 L950.673 51.6733 L916.403 51.6733 Q916.889 59.3701 921.021 63.421 Q925.193 67.4314 932.606 67.4314 Q936.9 67.4314 940.911 66.3781 Q944.962 65.3249 948.932 63.2184 L948.932 70.267 Q944.921 71.9684 940.708 72.8596 Q936.495 73.7508 932.161 73.7508 Q921.304 73.7508 914.944 67.4314 Q908.625 61.1119 908.625 50.3365 Q908.625 39.1965 914.62 32.6746 Q920.656 26.1121 930.864 26.1121 Q940.02 26.1121 945.326 32.0264 Q950.673 37.9003 950.673 48.0275 M943.22 45.84 Q943.139 39.7232 939.776 36.0774 Q936.455 32.4315 930.946 32.4315 Q924.707 32.4315 920.94 35.9558 Q917.213 39.4801 916.646 45.8805 L943.22 45.84 Z" fill="#000000" fill-rule="nonzero" fill-opacity="1" /><path clip-path="url(#clip540)" d="M989.198 34.1734 Q987.942 33.4443 986.443 33.1202 Q984.985 32.7556 983.202 32.7556 Q976.883 32.7556 973.48 36.8875 Q970.118 40.9789 970.118 48.6757 L970.118 72.576 L962.624 72.576 L962.624 27.2059 L970.118 27.2059 L970.118 34.2544 Q972.467 30.1225 976.235 28.1376 Q980.002 26.1121 985.39 26.1121 Q986.159 26.1121 987.091 26.2337 Q988.023 26.3147 989.157 26.5172 L989.198 34.1734 Z" fill="#000000" fill-rule="nonzero" fill-opacity="1" /><path clip-path="url(#clip540)" d="M1025.94 28.5427 L1025.94 35.5912 Q1022.78 33.9709 1019.38 33.1607 Q1015.97 32.3505 1012.33 32.3505 Q1006.78 32.3505 1003.98 34.0519 Q1001.23 35.7533 1001.23 39.156 Q1001.23 41.7486 1003.21 43.2475 Q1005.2 44.7058 1011.19 46.0426 L1013.75 46.6097 Q1021.69 48.3111 1025.01 51.4303 Q1028.37 54.509 1028.37 60.0587 Q1028.37 66.3781 1023.35 70.0644 Q1018.36 73.7508 1009.61 73.7508 Q1005.97 73.7508 1002 73.0216 Q998.069 72.3329 993.694 70.9151 L993.694 63.2184 Q997.826 65.3654 1001.84 66.4591 Q1005.85 67.5124 1009.78 67.5124 Q1015.04 67.5124 1017.88 65.73 Q1020.71 63.9071 1020.71 60.6258 Q1020.71 57.5877 1018.65 55.9673 Q1016.62 54.3469 1009.7 52.8481 L1007.1 52.2405 Q1000.18 50.7821 997.097 47.7845 Q994.018 44.7463 994.018 39.4801 Q994.018 33.0797 998.555 29.5959 Q1003.09 26.1121 1011.44 26.1121 Q1015.57 26.1121 1019.21 26.7198 Q1022.86 27.3274 1025.94 28.5427 Z" fill="#000000" fill-rule="nonzero" fill-opacity="1" /><path clip-path="url(#clip540)" d="M1040.24 27.2059 L1047.69 27.2059 L1047.69 72.576 L1040.24 72.576 L1040.24 27.2059 M1040.24 9.54393 L1047.69 9.54393 L1047.69 18.9825 L1040.24 18.9825 L1040.24 9.54393 Z" fill="#000000" fill-rule="nonzero" fill-opacity="1" /><path clip-path="url(#clip540)" d="M1092.21 28.5427 L1092.21 35.5912 Q1089.05 33.9709 1085.65 33.1607 Q1082.25 32.3505 1078.6 32.3505 Q1073.05 32.3505 1070.26 34.0519 Q1067.5 35.7533 1067.5 39.156 Q1067.5 41.7486 1069.49 43.2475 Q1071.47 44.7058 1077.47 46.0426 L1080.02 46.6097 Q1087.96 48.3111 1091.28 51.4303 Q1094.64 54.509 1094.64 60.0587 Q1094.64 66.3781 1089.62 70.0644 Q1084.64 73.7508 1075.89 73.7508 Q1072.24 73.7508 1068.27 73.0216 Q1064.34 72.3329 1059.97 70.9151 L1059.97 63.2184 Q1064.1 65.3654 1068.11 66.4591 Q1072.12 67.5124 1076.05 67.5124 Q1081.32 67.5124 1084.15 65.73 Q1086.99 63.9071 1086.99 60.6258 Q1086.99 57.5877 1084.92 55.9673 Q1082.89 54.3469 1075.97 52.8481 L1073.38 52.2405 Q1066.45 50.7821 1063.37 47.7845 Q1060.29 44.7463 1060.29 39.4801 Q1060.29 33.0797 1064.83 29.5959 Q1069.36 26.1121 1077.71 26.1121 Q1081.84 26.1121 1085.49 26.7198 Q1089.13 27.3274 1092.21 28.5427 Z" fill="#000000" fill-rule="nonzero" fill-opacity="1" /><path clip-path="url(#clip540)" d="M1113.88 14.324 L1113.88 27.2059 L1129.24 27.2059 L1129.24 32.9987 L1113.88 32.9987 L1113.88 57.6282 Q1113.88 63.1779 1115.38 64.7578 Q1116.92 66.3376 1121.58 66.3376 L1129.24 66.3376 L1129.24 72.576 L1121.58 72.576 Q1112.95 72.576 1109.67 69.3758 Q1106.39 66.1351 1106.39 57.6282 L1106.39 32.9987 L1100.92 32.9987 L1100.92 27.2059 L1106.39 27.2059 L1106.39 14.324 L1113.88 14.324 Z" fill="#000000" fill-rule="nonzero" fill-opacity="1" /><path clip-path="url(#clip540)" d="M1177.85 48.0275 L1177.85 51.6733 L1143.58 51.6733 Q1144.06 59.3701 1148.2 63.421 Q1152.37 67.4314 1159.78 67.4314 Q1164.08 67.4314 1168.09 66.3781 Q1172.14 65.3249 1176.11 63.2184 L1176.11 70.267 Q1172.1 71.9684 1167.88 72.8596 Q1163.67 73.7508 1159.34 73.7508 Q1148.48 73.7508 1142.12 67.4314 Q1135.8 61.1119 1135.8 50.3365 Q1135.8 39.1965 1141.8 32.6746 Q1147.83 26.1121 1158.04 26.1121 Q1167.19 26.1121 1172.5 32.0264 Q1177.85 37.9003 1177.85 48.0275 M1170.39 45.84 Q1170.31 39.7232 1166.95 36.0774 Q1163.63 32.4315 1158.12 32.4315 Q1151.88 32.4315 1148.11 35.9558 Q1144.39 39.4801 1143.82 45.8805 L1170.39 45.84 Z" fill="#000000" fill-rule="nonzero" fill-opacity="1" /><path clip-path="url(#clip540)" d="M1227.8 45.1919 L1227.8 72.576 L1220.34 72.576 L1220.34 45.4349 Q1220.34 38.994 1217.83 35.7938 Q1215.32 32.5936 1210.3 32.5936 Q1204.26 32.5936 1200.78 36.4419 Q1197.29 40.2903 1197.29 46.9338 L1197.29 72.576 L1189.8 72.576 L1189.8 27.2059 L1197.29 27.2059 L1197.29 34.2544 Q1199.97 30.163 1203.57 28.1376 Q1207.22 26.1121 1211.96 26.1121 Q1219.77 26.1121 1223.79 30.9732 Q1227.8 35.7938 1227.8 45.1919 Z" fill="#000000" fill-rule="nonzero" fill-opacity="1" /><path clip-path="url(#clip540)" d="M1275.31 28.9478 L1275.31 35.9153 Q1272.15 34.1734 1268.95 33.3227 Q1265.79 32.4315 1262.55 32.4315 Q1255.3 32.4315 1251.29 37.0496 Q1247.28 41.6271 1247.28 49.9314 Q1247.28 58.2358 1251.29 62.8538 Q1255.3 67.4314 1262.55 67.4314 Q1265.79 67.4314 1268.95 66.5807 Q1272.15 65.6895 1275.31 63.9476 L1275.31 70.8341 Q1272.19 72.2924 1268.83 73.0216 Q1265.51 73.7508 1261.74 73.7508 Q1251.49 73.7508 1245.46 67.3098 Q1239.42 60.8689 1239.42 49.9314 Q1239.42 38.832 1245.5 32.472 Q1251.62 26.1121 1262.23 26.1121 Q1265.67 26.1121 1268.95 26.8413 Q1272.23 27.5299 1275.31 28.9478 Z" fill="#000000" fill-rule="nonzero" fill-opacity="1" /><path clip-path="url(#clip540)" d="M1327.08 48.0275 L1327.08 51.6733 L1292.81 51.6733 Q1293.3 59.3701 1297.43 63.421 Q1301.6 67.4314 1309.02 67.4314 Q1313.31 67.4314 1317.32 66.3781 Q1321.37 65.3249 1325.34 63.2184 L1325.34 70.267 Q1321.33 71.9684 1317.12 72.8596 Q1312.91 73.7508 1308.57 73.7508 Q1297.71 73.7508 1291.35 67.4314 Q1285.04 61.1119 1285.04 50.3365 Q1285.04 39.1965 1291.03 32.6746 Q1297.07 26.1121 1307.27 26.1121 Q1316.43 26.1121 1321.74 32.0264 Q1327.08 37.9003 1327.08 48.0275 M1319.63 45.84 Q1319.55 39.7232 1316.19 36.0774 Q1312.86 32.4315 1307.36 32.4315 Q1301.12 32.4315 1297.35 35.9558 Q1293.62 39.4801 1293.06 45.8805 L1319.63 45.84 Z" fill="#000000" fill-rule="nonzero" fill-opacity="1" /><path clip-path="url(#clip540)" d="M1374.2 18.8205 L1374.2 65.8515 L1384.08 65.8515 Q1396.6 65.8515 1402.39 60.1802 Q1408.22 54.509 1408.22 42.2752 Q1408.22 30.1225 1402.39 24.4918 Q1396.6 18.8205 1384.08 18.8205 L1374.2 18.8205 M1366.01 12.096 L1382.82 12.096 Q1400.4 12.096 1408.63 19.4281 Q1416.85 26.7198 1416.85 42.2752 Q1416.85 57.9117 1408.59 65.2439 Q1400.32 72.576 1382.82 72.576 L1366.01 72.576 L1366.01 12.096 Z" fill="#000000" fill-rule="nonzero" fill-opacity="1" /><path clip-path="url(#clip540)" d="M1429.57 27.2059 L1437.02 27.2059 L1437.02 72.576 L1429.57 72.576 L1429.57 27.2059 M1429.57 9.54393 L1437.02 9.54393 L1437.02 18.9825 L1429.57 18.9825 L1429.57 9.54393 Z" fill="#000000" fill-rule="nonzero" fill-opacity="1" /><path clip-path="url(#clip540)" d="M1473.24 49.7694 Q1464.21 49.7694 1460.72 51.8354 Q1457.24 53.9013 1457.24 58.8839 Q1457.24 62.8538 1459.83 65.2034 Q1462.46 67.5124 1466.96 67.5124 Q1473.16 67.5124 1476.89 63.1374 Q1480.65 58.7219 1480.65 51.4303 L1480.65 49.7694 L1473.24 49.7694 M1488.11 46.6907 L1488.11 72.576 L1480.65 72.576 L1480.65 65.6895 Q1478.1 69.8214 1474.29 71.8063 Q1470.49 73.7508 1464.98 73.7508 Q1458.01 73.7508 1453.88 69.8619 Q1449.79 65.9325 1449.79 59.3701 Q1449.79 51.7138 1454.89 47.825 Q1460.03 43.9361 1470.2 43.9361 L1480.65 43.9361 L1480.65 43.2069 Q1480.65 38.0623 1477.25 35.2672 Q1473.89 32.4315 1467.77 32.4315 Q1463.88 32.4315 1460.2 33.3632 Q1456.51 34.295 1453.11 36.1584 L1453.11 29.2718 Q1457.2 27.692 1461.05 26.9223 Q1464.9 26.1121 1468.54 26.1121 Q1478.38 26.1121 1483.25 31.2163 Q1488.11 36.3204 1488.11 46.6907 Z" fill="#000000" fill-rule="nonzero" fill-opacity="1" /><path clip-path="url(#clip540)" d="M1533.31 49.3643 Q1533.31 41.2625 1529.95 36.8065 Q1526.63 32.3505 1520.6 32.3505 Q1514.6 32.3505 1511.24 36.8065 Q1507.92 41.2625 1507.92 49.3643 Q1507.92 57.4256 1511.24 61.8816 Q1514.6 66.3376 1520.6 66.3376 Q1526.63 66.3376 1529.95 61.8816 Q1533.31 57.4256 1533.31 49.3643 M1540.77 66.9452 Q1540.77 78.5308 1535.62 84.1616 Q1530.48 89.8329 1519.87 89.8329 Q1515.94 89.8329 1512.45 89.2252 Q1508.97 88.6581 1505.69 87.4428 L1505.69 80.1917 Q1508.97 81.9741 1512.17 82.8248 Q1515.37 83.6755 1518.69 83.6755 Q1526.02 83.6755 1529.67 79.8271 Q1533.31 76.0193 1533.31 68.282 L1533.31 64.5957 Q1531.01 68.6061 1527.4 70.5911 Q1523.8 72.576 1518.77 72.576 Q1510.43 72.576 1505.32 66.2161 Q1500.22 59.8562 1500.22 49.3643 Q1500.22 38.832 1505.32 32.472 Q1510.43 26.1121 1518.77 26.1121 Q1523.8 26.1121 1527.4 28.0971 Q1531.01 30.082 1533.31 34.0924 L1533.31 27.2059 L1540.77 27.2059 L1540.77 66.9452 Z" fill="#000000" fill-rule="nonzero" fill-opacity="1" /><path clip-path="url(#clip540)" d="M1582.41 34.1734 Q1581.16 33.4443 1579.66 33.1202 Q1578.2 32.7556 1576.42 32.7556 Q1570.1 32.7556 1566.69 36.8875 Q1563.33 40.9789 1563.33 48.6757 L1563.33 72.576 L1555.84 72.576 L1555.84 27.2059 L1563.33 27.2059 L1563.33 34.2544 Q1565.68 30.1225 1569.45 28.1376 Q1573.22 26.1121 1578.6 26.1121 Q1579.37 26.1121 1580.31 26.2337 Q1581.24 26.3147 1582.37 26.5172 L1582.41 34.1734 Z" fill="#000000" fill-rule="nonzero" fill-opacity="1" /><path clip-path="url(#clip540)" d="M1610.85 49.7694 Q1601.82 49.7694 1598.33 51.8354 Q1594.85 53.9013 1594.85 58.8839 Q1594.85 62.8538 1597.44 65.2034 Q1600.07 67.5124 1604.57 67.5124 Q1610.77 67.5124 1614.5 63.1374 Q1618.26 58.7219 1618.26 51.4303 L1618.26 49.7694 L1610.85 49.7694 M1625.72 46.6907 L1625.72 72.576 L1618.26 72.576 L1618.26 65.6895 Q1615.71 69.8214 1611.9 71.8063 Q1608.09 73.7508 1602.59 73.7508 Q1595.62 73.7508 1591.49 69.8619 Q1587.39 65.9325 1587.39 59.3701 Q1587.39 51.7138 1592.5 47.825 Q1597.64 43.9361 1607.81 43.9361 L1618.26 43.9361 L1618.26 43.2069 Q1618.26 38.0623 1614.86 35.2672 Q1611.5 32.4315 1605.38 32.4315 Q1601.49 32.4315 1597.81 33.3632 Q1594.12 34.295 1590.72 36.1584 L1590.72 29.2718 Q1594.81 27.692 1598.66 26.9223 Q1602.5 26.1121 1606.15 26.1121 Q1615.99 26.1121 1620.86 31.2163 Q1625.72 36.3204 1625.72 46.6907 Z" fill="#000000" fill-rule="nonzero" fill-opacity="1" /><path clip-path="url(#clip540)" d="M1676.39 35.9153 Q1679.19 30.8922 1683.08 28.5022 Q1686.97 26.1121 1692.23 26.1121 Q1699.32 26.1121 1703.17 31.0947 Q1707.02 36.0368 1707.02 45.1919 L1707.02 72.576 L1699.52 72.576 L1699.52 45.4349 Q1699.52 38.913 1697.21 35.7533 Q1694.91 32.5936 1690.17 32.5936 Q1684.37 32.5936 1681.01 36.4419 Q1677.65 40.2903 1677.65 46.9338 L1677.65 72.576 L1670.15 72.576 L1670.15 45.4349 Q1670.15 38.8725 1667.85 35.7533 Q1665.54 32.5936 1660.72 32.5936 Q1655 32.5936 1651.64 36.4824 Q1648.28 40.3308 1648.28 46.9338 L1648.28 72.576 L1640.79 72.576 L1640.79 27.2059 L1648.28 27.2059 L1648.28 34.2544 Q1650.83 30.082 1654.4 28.0971 Q1657.96 26.1121 1662.86 26.1121 Q1667.8 26.1121 1671.25 28.6237 Q1674.73 31.1352 1676.39 35.9153 Z" fill="#000000" fill-rule="nonzero" fill-opacity="1" /><polyline clip-path="url(#clip541)" style="stroke:#000000; stroke-linecap:round; stroke-linejoin:round; stroke-width:4; stroke-opacity:1; fill:none" points="636.214,1423.18 649.632,1409.76 728.219,1331.18 764.777,1294.62 813.78,1245.61 854.27,1205.12 891.923,1167.47 939.19,1120.2 981.588,1077.81 1030.12,1029.27 1066.4,992.998 1112.79,946.599 1155.14,904.251 1203.34,856.053 1241.55,817.846 1289.02,770.378 1325.37,734.025 1376.62,682.773 1414.92,644.474 1458.48,600.918 1501.61,557.783 1549.07,510.327 1585.31,474.079 1631.06,428.337 1673.36,386.03 1717,342.398 1761.22,298.172 1807.4,251.991 1843.78,215.613 1926.63,132.767 1935.92,123.472 "/>
<polyline clip-path="url(#clip541)" style="stroke:#808080; stroke-linecap:round; stroke-linejoin:round; stroke-width:4; stroke-opacity:1; fill:none" stroke-dasharray="2, 4" points="-663.494,182.55 3235.63,182.55 "/>
<path clip-path="url(#clip541)" d="M695.292 1346.72 L691.532 1357.53 L680.076 1357.77 L689.212 1364.7 L685.884 1375.66 L695.292 1369.12 L704.7 1375.66 L701.372 1364.7 L710.508 1357.77 L699.052 1357.53 L695.292 1346.72 Z" fill="#ff0000" fill-rule="evenodd" fill-opacity="1" stroke="none"/>
<path clip-path="url(#clip541)" d="M695.292 1342.86 L691.532 1353.68 L680.076 1353.92 L689.212 1360.84 L685.884 1371.8 L695.292 1365.26 L704.7 1371.8 L701.372 1360.84 L710.508 1353.92 L699.052 1353.68 L695.292 1342.86 Z" fill="#ff0000" fill-rule="evenodd" fill-opacity="1" stroke="none"/>
<path clip-path="url(#clip541)" d="M695.292 1342.34 L691.532 1353.15 L680.076 1353.39 L689.212 1360.32 L685.884 1371.28 L695.292 1364.74 L704.7 1371.28 L701.372 1360.32 L710.508 1353.39 L699.052 1353.15 L695.292 1342.34 Z" fill="#ff0000" fill-rule="evenodd" fill-opacity="1" stroke="none"/>
<path clip-path="url(#clip541)" d="M695.292 1339.27 L691.532 1350.09 L680.076 1350.33 L689.212 1357.26 L685.884 1368.22 L695.292 1361.67 L704.7 1368.22 L701.372 1357.26 L710.508 1350.33 L699.052 1350.09 L695.292 1339.27 Z" fill="#ff0000" fill-rule="evenodd" fill-opacity="1" stroke="none"/>
<path clip-path="url(#clip541)" d="M695.292 1337.55 L691.532 1348.36 L680.076 1348.6 L689.212 1355.53 L685.884 1366.49 L695.292 1359.95 L704.7 1366.49 L701.372 1355.53 L710.508 1348.6 L699.052 1348.36 L695.292 1337.55 Z" fill="#ff0000" fill-rule="evenodd" fill-opacity="1" stroke="none"/>
<path clip-path="url(#clip541)" d="M695.292 1337.24 L691.532 1348.06 L680.076 1348.3 L689.212 1355.23 L685.884 1366.19 L695.292 1359.64 L704.7 1366.19 L701.372 1355.23 L710.508 1348.3 L699.052 1348.06 L695.292 1337.24 Z" fill="#ff0000" fill-rule="evenodd" fill-opacity="1" stroke="none"/>
<path clip-path="url(#clip541)" d="M695.292 1336.72 L691.532 1347.54 L680.076 1347.78 L689.212 1354.71 L685.884 1365.67 L695.292 1359.12 L704.7 1365.67 L701.372 1354.71 L710.508 1347.78 L699.052 1347.54 L695.292 1336.72 Z" fill="#ff0000" fill-rule="evenodd" fill-opacity="1" stroke="none"/>
<path clip-path="url(#clip541)" d="M695.292 1334.66 L691.532 1345.48 L680.076 1345.72 L689.212 1352.64 L685.884 1363.6 L695.292 1357.06 L704.7 1363.6 L701.372 1352.64 L710.508 1345.72 L699.052 1345.48 L695.292 1334.66 Z" fill="#ff0000" fill-rule="evenodd" fill-opacity="1" stroke="none"/>
<path clip-path="url(#clip541)" d="M695.292 1332.92 L691.532 1343.73 L680.076 1343.97 L689.212 1350.9 L685.884 1361.86 L695.292 1355.32 L704.7 1361.86 L701.372 1350.9 L710.508 1343.97 L699.052 1343.73 L695.292 1332.92 Z" fill="#ff0000" fill-rule="evenodd" fill-opacity="1" stroke="none"/>
<path clip-path="url(#clip541)" d="M695.292 1332.57 L691.532 1343.39 L680.076 1343.63 L689.212 1350.56 L685.884 1361.52 L695.292 1354.97 L704.7 1361.52 L701.372 1350.56 L710.508 1343.63 L699.052 1343.39 L695.292 1332.57 Z" fill="#ff0000" fill-rule="evenodd" fill-opacity="1" stroke="none"/>
<path clip-path="url(#clip541)" d="M695.292 1332.22 L691.532 1343.04 L680.076 1343.28 L689.212 1350.2 L685.884 1361.16 L695.292 1354.62 L704.7 1361.16 L701.372 1350.2 L710.508 1343.28 L699.052 1343.04 L695.292 1332.22 Z" fill="#ff0000" fill-rule="evenodd" fill-opacity="1" stroke="none"/>
<path clip-path="url(#clip541)" d="M695.292 1331.64 L691.532 1342.46 L680.076 1342.7 L689.212 1349.62 L685.884 1360.58 L695.292 1354.04 L704.7 1360.58 L701.372 1349.62 L710.508 1342.7 L699.052 1342.46 L695.292 1331.64 Z" fill="#ff0000" fill-rule="evenodd" fill-opacity="1" stroke="none"/>
<path clip-path="url(#clip541)" d="M695.292 1331.44 L691.532 1342.26 L680.076 1342.5 L689.212 1349.43 L685.884 1360.39 L695.292 1353.84 L704.7 1360.39 L701.372 1349.43 L710.508 1342.5 L699.052 1342.26 L695.292 1331.44 Z" fill="#ff0000" fill-rule="evenodd" fill-opacity="1" stroke="none"/>
<path clip-path="url(#clip541)" d="M695.292 1328.97 L691.532 1339.79 L680.076 1340.03 L689.212 1346.95 L685.884 1357.91 L695.292 1351.37 L704.7 1357.91 L701.372 1346.95 L710.508 1340.03 L699.052 1339.79 L695.292 1328.97 Z" fill="#ff0000" fill-rule="evenodd" fill-opacity="1" stroke="none"/>
<path clip-path="url(#clip541)" d="M695.292 1328.31 L691.532 1339.13 L680.076 1339.37 L689.212 1346.3 L685.884 1357.26 L695.292 1350.71 L704.7 1357.26 L701.372 1346.3 L710.508 1339.37 L699.052 1339.13 L695.292 1328.31 Z" fill="#ff0000" fill-rule="evenodd" fill-opacity="1" stroke="none"/>
<path clip-path="url(#clip541)" d="M695.292 1327.97 L691.532 1338.78 L680.076 1339.02 L689.212 1345.95 L685.884 1356.91 L695.292 1350.37 L704.7 1356.91 L701.372 1345.95 L710.508 1339.02 L699.052 1338.78 L695.292 1327.97 Z" fill="#ff0000" fill-rule="evenodd" fill-opacity="1" stroke="none"/>
<path clip-path="url(#clip541)" d="M695.292 1327.36 L691.532 1338.18 L680.076 1338.42 L689.212 1345.35 L685.884 1356.31 L695.292 1349.76 L704.7 1356.31 L701.372 1345.35 L710.508 1338.42 L699.052 1338.18 L695.292 1327.36 Z" fill="#ff0000" fill-rule="evenodd" fill-opacity="1" stroke="none"/>
<path clip-path="url(#clip541)" d="M695.292 1327.18 L691.532 1337.99 L680.076 1338.23 L689.212 1345.16 L685.884 1356.12 L695.292 1349.58 L704.7 1356.12 L701.372 1345.16 L710.508 1338.23 L699.052 1337.99 L695.292 1327.18 Z" fill="#ff0000" fill-rule="evenodd" fill-opacity="1" stroke="none"/>
<path clip-path="url(#clip541)" d="M695.292 1327.16 L691.532 1337.97 L680.076 1338.21 L689.212 1345.14 L685.884 1356.1 L695.292 1349.56 L704.7 1356.1 L701.372 1345.14 L710.508 1338.21 L699.052 1337.97 L695.292 1327.16 Z" fill="#ff0000" fill-rule="evenodd" fill-opacity="1" stroke="none"/>
<path clip-path="url(#clip541)" d="M695.292 1327.08 L691.532 1337.9 L680.076 1338.14 L689.212 1345.07 L685.884 1356.03 L695.292 1349.48 L704.7 1356.03 L701.372 1345.07 L710.508 1338.14 L699.052 1337.9 L695.292 1327.08 Z" fill="#ff0000" fill-rule="evenodd" fill-opacity="1" stroke="none"/>
<path clip-path="url(#clip541)" d="M695.292 1326.94 L691.532 1337.76 L680.076 1338 L689.212 1344.93 L685.884 1355.89 L695.292 1349.34 L704.7 1355.89 L701.372 1344.93 L710.508 1338 L699.052 1337.76 L695.292 1326.94 Z" fill="#ff0000" fill-rule="evenodd" fill-opacity="1" stroke="none"/>
<path clip-path="url(#clip541)" d="M695.292 1326 L691.532 1336.81 L680.076 1337.05 L689.212 1343.98 L685.884 1354.94 L695.292 1348.4 L704.7 1354.94 L701.372 1343.98 L710.508 1337.05 L699.052 1336.81 L695.292 1326 Z" fill="#ff0000" fill-rule="evenodd" fill-opacity="1" stroke="none"/>
<path clip-path="url(#clip541)" d="M695.292 1325.77 L691.532 1336.58 L680.076 1336.82 L689.212 1343.75 L685.884 1354.71 L695.292 1348.17 L704.7 1354.71 L701.372 1343.75 L710.508 1336.82 L699.052 1336.58 L695.292 1325.77 Z" fill="#ff0000" fill-rule="evenodd" fill-opacity="1" stroke="none"/>
<path clip-path="url(#clip541)" d="M695.292 1325.16 L691.532 1335.98 L680.076 1336.22 L689.212 1343.15 L685.884 1354.11 L695.292 1347.56 L704.7 1354.11 L701.372 1343.15 L710.508 1336.22 L699.052 1335.98 L695.292 1325.16 Z" fill="#ff0000" fill-rule="evenodd" fill-opacity="1" stroke="none"/>
<path clip-path="url(#clip541)" d="M695.292 1325.13 L691.532 1335.95 L680.076 1336.19 L689.212 1343.12 L685.884 1354.08 L695.292 1347.53 L704.7 1354.08 L701.372 1343.12 L710.508 1336.19 L699.052 1335.95 L695.292 1325.13 Z" fill="#ff0000" fill-rule="evenodd" fill-opacity="1" stroke="none"/>
<path clip-path="url(#clip541)" d="M695.292 1325.08 L691.532 1335.89 L680.076 1336.13 L689.212 1343.06 L685.884 1354.02 L695.292 1347.48 L704.7 1354.02 L701.372 1343.06 L710.508 1336.13 L699.052 1335.89 L695.292 1325.08 Z" fill="#ff0000" fill-rule="evenodd" fill-opacity="1" stroke="none"/>
<path clip-path="url(#clip541)" d="M695.292 1324.52 L691.532 1335.33 L680.076 1335.57 L689.212 1342.5 L685.884 1353.46 L695.292 1346.92 L704.7 1353.46 L701.372 1342.5 L710.508 1335.57 L699.052 1335.33 L695.292 1324.52 Z" fill="#ff0000" fill-rule="evenodd" fill-opacity="1" stroke="none"/>
<path clip-path="url(#clip541)" d="M695.292 1324.26 L691.532 1335.08 L680.076 1335.32 L689.212 1342.25 L685.884 1353.21 L695.292 1346.66 L704.7 1353.21 L701.372 1342.25 L710.508 1335.32 L699.052 1335.08 L695.292 1324.26 Z" fill="#ff0000" fill-rule="evenodd" fill-opacity="1" stroke="none"/>
<path clip-path="url(#clip541)" d="M695.292 1324.16 L691.532 1334.97 L680.076 1335.21 L689.212 1342.14 L685.884 1353.1 L695.292 1346.56 L704.7 1353.1 L701.372 1342.14 L710.508 1335.21 L699.052 1334.97 L695.292 1324.16 Z" fill="#ff0000" fill-rule="evenodd" fill-opacity="1" stroke="none"/>
<path clip-path="url(#clip541)" d="M695.292 1323.97 L691.532 1334.79 L680.076 1335.03 L689.212 1341.96 L685.884 1352.92 L695.292 1346.37 L704.7 1352.92 L701.372 1341.96 L710.508 1335.03 L699.052 1334.79 L695.292 1323.97 Z" fill="#ff0000" fill-rule="evenodd" fill-opacity="1" stroke="none"/>
<path clip-path="url(#clip541)" d="M695.292 1322.81 L691.532 1333.62 L680.076 1333.86 L689.212 1340.79 L685.884 1351.75 L695.292 1345.21 L704.7 1351.75 L701.372 1340.79 L710.508 1333.86 L699.052 1333.62 L695.292 1322.81 Z" fill="#ff0000" fill-rule="evenodd" fill-opacity="1" stroke="none"/>
<path clip-path="url(#clip541)" d="M695.292 1320.76 L691.532 1331.58 L680.076 1331.82 L689.212 1338.75 L685.884 1349.71 L695.292 1343.16 L704.7 1349.71 L701.372 1338.75 L710.508 1331.82 L699.052 1331.58 L695.292 1320.76 Z" fill="#ff0000" fill-rule="evenodd" fill-opacity="1" stroke="none"/>
<path clip-path="url(#clip541)" d="M695.292 1320.72 L691.532 1331.53 L680.076 1331.77 L689.212 1338.7 L685.884 1349.66 L695.292 1343.12 L704.7 1349.66 L701.372 1338.7 L710.508 1331.77 L699.052 1331.53 L695.292 1320.72 Z" fill="#ff0000" fill-rule="evenodd" fill-opacity="1" stroke="none"/>
<path clip-path="url(#clip541)" d="M695.292 1320.67 L691.532 1331.48 L680.076 1331.72 L689.212 1338.65 L685.884 1349.61 L695.292 1343.07 L704.7 1349.61 L701.372 1338.65 L710.508 1331.72 L699.052 1331.48 L695.292 1320.67 Z" fill="#ff0000" fill-rule="evenodd" fill-opacity="1" stroke="none"/>
<path clip-path="url(#clip541)" d="M695.292 1320.34 L691.532 1331.15 L680.076 1331.39 L689.212 1338.32 L685.884 1349.28 L695.292 1342.74 L704.7 1349.28 L701.372 1338.32 L710.508 1331.39 L699.052 1331.15 L695.292 1320.34 Z" fill="#ff0000" fill-rule="evenodd" fill-opacity="1" stroke="none"/>
<path clip-path="url(#clip541)" d="M695.292 1319.63 L691.532 1330.45 L680.076 1330.69 L689.212 1337.62 L685.884 1348.58 L695.292 1342.03 L704.7 1348.58 L701.372 1337.62 L710.508 1330.69 L699.052 1330.45 L695.292 1319.63 Z" fill="#ff0000" fill-rule="evenodd" fill-opacity="1" stroke="none"/>
<path clip-path="url(#clip541)" d="M695.292 1319.12 L691.532 1329.93 L680.076 1330.17 L689.212 1337.1 L685.884 1348.06 L695.292 1341.52 L704.7 1348.06 L701.372 1337.1 L710.508 1330.17 L699.052 1329.93 L695.292 1319.12 Z" fill="#ff0000" fill-rule="evenodd" fill-opacity="1" stroke="none"/>
<path clip-path="url(#clip541)" d="M695.292 1318.88 L691.532 1329.7 L680.076 1329.94 L689.212 1336.87 L685.884 1347.83 L695.292 1341.28 L704.7 1347.83 L701.372 1336.87 L710.508 1329.94 L699.052 1329.7 L695.292 1318.88 Z" fill="#ff0000" fill-rule="evenodd" fill-opacity="1" stroke="none"/>
<path clip-path="url(#clip541)" d="M695.292 1318.4 L691.532 1329.22 L680.076 1329.46 L689.212 1336.39 L685.884 1347.35 L695.292 1340.8 L704.7 1347.35 L701.372 1336.39 L710.508 1329.46 L699.052 1329.22 L695.292 1318.4 Z" fill="#ff0000" fill-rule="evenodd" fill-opacity="1" stroke="none"/>
<path clip-path="url(#clip541)" d="M695.292 1318.38 L691.532 1329.19 L680.076 1329.43 L689.212 1336.36 L685.884 1347.32 L695.292 1340.78 L704.7 1347.32 L701.372 1336.36 L710.508 1329.43 L699.052 1329.19 L695.292 1318.38 Z" fill="#ff0000" fill-rule="evenodd" fill-opacity="1" stroke="none"/>
<path clip-path="url(#clip541)" d="M695.292 1317.59 L691.532 1328.41 L680.076 1328.65 L689.212 1335.58 L685.884 1346.54 L695.292 1339.99 L704.7 1346.54 L701.372 1335.58 L710.508 1328.65 L699.052 1328.41 L695.292 1317.59 Z" fill="#ff0000" fill-rule="evenodd" fill-opacity="1" stroke="none"/>
<path clip-path="url(#clip541)" d="M695.292 1317.51 L691.532 1328.33 L680.076 1328.57 L689.212 1335.5 L685.884 1346.46 L695.292 1339.91 L704.7 1346.46 L701.372 1335.5 L710.508 1328.57 L699.052 1328.33 L695.292 1317.51 Z" fill="#ff0000" fill-rule="evenodd" fill-opacity="1" stroke="none"/>
<path clip-path="url(#clip541)" d="M695.292 1317.23 L691.532 1328.04 L680.076 1328.28 L689.212 1335.21 L685.884 1346.17 L695.292 1339.63 L704.7 1346.17 L701.372 1335.21 L710.508 1328.28 L699.052 1328.04 L695.292 1317.23 Z" fill="#ff0000" fill-rule="evenodd" fill-opacity="1" stroke="none"/>
<path clip-path="url(#clip541)" d="M695.292 1316.81 L691.532 1327.63 L680.076 1327.87 L689.212 1334.8 L685.884 1345.76 L695.292 1339.21 L704.7 1345.76 L701.372 1334.8 L710.508 1327.87 L699.052 1327.63 L695.292 1316.81 Z" fill="#ff0000" fill-rule="evenodd" fill-opacity="1" stroke="none"/>
<path clip-path="url(#clip541)" d="M695.292 1316.77 L691.532 1327.58 L680.076 1327.82 L689.212 1334.75 L685.884 1345.71 L695.292 1339.17 L704.7 1345.71 L701.372 1334.75 L710.508 1327.82 L699.052 1327.58 L695.292 1316.77 Z" fill="#ff0000" fill-rule="evenodd" fill-opacity="1" stroke="none"/>
<path clip-path="url(#clip541)" d="M695.292 1315.81 L691.532 1326.62 L680.076 1326.86 L689.212 1333.79 L685.884 1344.75 L695.292 1338.21 L704.7 1344.75 L701.372 1333.79 L710.508 1326.86 L699.052 1326.62 L695.292 1315.81 Z" fill="#ff0000" fill-rule="evenodd" fill-opacity="1" stroke="none"/>
<path clip-path="url(#clip541)" d="M695.292 1315.36 L691.532 1326.17 L680.076 1326.41 L689.212 1333.34 L685.884 1344.3 L695.292 1337.76 L704.7 1344.3 L701.372 1333.34 L710.508 1326.41 L699.052 1326.17 L695.292 1315.36 Z" fill="#ff0000" fill-rule="evenodd" fill-opacity="1" stroke="none"/>
<path clip-path="url(#clip541)" d="M695.292 1314.81 L691.532 1325.62 L680.076 1325.86 L689.212 1332.79 L685.884 1343.75 L695.292 1337.21 L704.7 1343.75 L701.372 1332.79 L710.508 1325.86 L699.052 1325.62 L695.292 1314.81 Z" fill="#ff0000" fill-rule="evenodd" fill-opacity="1" stroke="none"/>
<path clip-path="url(#clip541)" d="M695.292 1314.77 L691.532 1325.58 L680.076 1325.82 L689.212 1332.75 L685.884 1343.71 L695.292 1337.17 L704.7 1343.71 L701.372 1332.75 L710.508 1325.82 L699.052 1325.58 L695.292 1314.77 Z" fill="#ff0000" fill-rule="evenodd" fill-opacity="1" stroke="none"/>
<path clip-path="url(#clip541)" d="M695.292 1313.53 L691.532 1324.35 L680.076 1324.59 L689.212 1331.52 L685.884 1342.48 L695.292 1335.93 L704.7 1342.48 L701.372 1331.52 L710.508 1324.59 L699.052 1324.35 L695.292 1313.53 Z" fill="#ff0000" fill-rule="evenodd" fill-opacity="1" stroke="none"/>
<path clip-path="url(#clip541)" d="M695.292 1312.4 L691.532 1323.21 L680.076 1323.45 L689.212 1330.38 L685.884 1341.34 L695.292 1334.8 L704.7 1341.34 L701.372 1330.38 L710.508 1323.45 L699.052 1323.21 L695.292 1312.4 Z" fill="#ff0000" fill-rule="evenodd" fill-opacity="1" stroke="none"/>
<path clip-path="url(#clip541)" d="M695.292 1312.36 L691.532 1323.18 L680.076 1323.42 L689.212 1330.35 L685.884 1341.31 L695.292 1334.76 L704.7 1341.31 L701.372 1330.35 L710.508 1323.42 L699.052 1323.18 L695.292 1312.36 Z" fill="#ff0000" fill-rule="evenodd" fill-opacity="1" stroke="none"/>
<path clip-path="url(#clip541)" d="M695.292 1312.32 L691.532 1323.13 L680.076 1323.37 L689.212 1330.3 L685.884 1341.26 L695.292 1334.72 L704.7 1341.26 L701.372 1330.3 L710.508 1323.37 L699.052 1323.13 L695.292 1312.32 Z" fill="#ff0000" fill-rule="evenodd" fill-opacity="1" stroke="none"/>
<path clip-path="url(#clip541)" d="M695.292 1311.58 L691.532 1322.4 L680.076 1322.64 L689.212 1329.57 L685.884 1340.53 L695.292 1333.98 L704.7 1340.53 L701.372 1329.57 L710.508 1322.64 L699.052 1322.4 L695.292 1311.58 Z" fill="#ff0000" fill-rule="evenodd" fill-opacity="1" stroke="none"/>
<path clip-path="url(#clip541)" d="M695.292 1311.38 L691.532 1322.2 L680.076 1322.44 L689.212 1329.37 L685.884 1340.33 L695.292 1333.78 L704.7 1340.33 L701.372 1329.37 L710.508 1322.44 L699.052 1322.2 L695.292 1311.38 Z" fill="#ff0000" fill-rule="evenodd" fill-opacity="1" stroke="none"/>
<path clip-path="url(#clip541)" d="M695.292 1311.04 L691.532 1321.85 L680.076 1322.09 L689.212 1329.02 L685.884 1339.98 L695.292 1333.44 L704.7 1339.98 L701.372 1329.02 L710.508 1322.09 L699.052 1321.85 L695.292 1311.04 Z" fill="#ff0000" fill-rule="evenodd" fill-opacity="1" stroke="none"/>
<path clip-path="url(#clip541)" d="M695.292 1310.67 L691.532 1321.49 L680.076 1321.73 L689.212 1328.66 L685.884 1339.62 L695.292 1333.07 L704.7 1339.62 L701.372 1328.66 L710.508 1321.73 L699.052 1321.49 L695.292 1310.67 Z" fill="#ff0000" fill-rule="evenodd" fill-opacity="1" stroke="none"/>
<path clip-path="url(#clip541)" d="M695.292 1310.02 L691.532 1320.83 L680.076 1321.07 L689.212 1328 L685.884 1338.96 L695.292 1332.42 L704.7 1338.96 L701.372 1328 L710.508 1321.07 L699.052 1320.83 L695.292 1310.02 Z" fill="#ff0000" fill-rule="evenodd" fill-opacity="1" stroke="none"/>
<path clip-path="url(#clip541)" d="M695.292 1309.5 L691.532 1320.31 L680.076 1320.55 L689.212 1327.48 L685.884 1338.44 L695.292 1331.9 L704.7 1338.44 L701.372 1327.48 L710.508 1320.55 L699.052 1320.31 L695.292 1309.5 Z" fill="#ff0000" fill-rule="evenodd" fill-opacity="1" stroke="none"/>
<path clip-path="url(#clip541)" d="M695.292 1309.3 L691.532 1320.11 L680.076 1320.35 L689.212 1327.28 L685.884 1338.24 L695.292 1331.7 L704.7 1338.24 L701.372 1327.28 L710.508 1320.35 L699.052 1320.11 L695.292 1309.3 Z" fill="#ff0000" fill-rule="evenodd" fill-opacity="1" stroke="none"/>
<path clip-path="url(#clip541)" d="M695.292 1308.43 L691.532 1319.24 L680.076 1319.48 L689.212 1326.41 L685.884 1337.37 L695.292 1330.83 L704.7 1337.37 L701.372 1326.41 L710.508 1319.48 L699.052 1319.24 L695.292 1308.43 Z" fill="#ff0000" fill-rule="evenodd" fill-opacity="1" stroke="none"/>
<path clip-path="url(#clip541)" d="M695.292 1307.78 L691.532 1318.6 L680.076 1318.84 L689.212 1325.76 L685.884 1336.72 L695.292 1330.18 L704.7 1336.72 L701.372 1325.76 L710.508 1318.84 L699.052 1318.6 L695.292 1307.78 Z" fill="#ff0000" fill-rule="evenodd" fill-opacity="1" stroke="none"/>
<path clip-path="url(#clip541)" d="M695.292 1307.65 L691.532 1318.47 L680.076 1318.71 L689.212 1325.63 L685.884 1336.59 L695.292 1330.05 L704.7 1336.59 L701.372 1325.63 L710.508 1318.71 L699.052 1318.47 L695.292 1307.65 Z" fill="#ff0000" fill-rule="evenodd" fill-opacity="1" stroke="none"/>
<path clip-path="url(#clip541)" d="M695.292 1304.9 L691.532 1315.72 L680.076 1315.96 L689.212 1322.88 L685.884 1333.84 L695.292 1327.3 L704.7 1333.84 L701.372 1322.88 L710.508 1315.96 L699.052 1315.72 L695.292 1304.9 Z" fill="#ff0000" fill-rule="evenodd" fill-opacity="1" stroke="none"/>
<path clip-path="url(#clip541)" d="M695.292 1304.38 L691.532 1315.19 L680.076 1315.43 L689.212 1322.36 L685.884 1333.32 L695.292 1326.78 L704.7 1333.32 L701.372 1322.36 L710.508 1315.43 L699.052 1315.19 L695.292 1304.38 Z" fill="#ff0000" fill-rule="evenodd" fill-opacity="1" stroke="none"/>
<path clip-path="url(#clip541)" d="M695.292 1303.98 L691.532 1314.8 L680.076 1315.04 L689.212 1321.97 L685.884 1332.93 L695.292 1326.38 L704.7 1332.93 L701.372 1321.97 L710.508 1315.04 L699.052 1314.8 L695.292 1303.98 Z" fill="#ff0000" fill-rule="evenodd" fill-opacity="1" stroke="none"/>
<path clip-path="url(#clip541)" d="M695.292 1298.91 L691.532 1309.72 L680.076 1309.96 L689.212 1316.89 L685.884 1327.85 L695.292 1321.31 L704.7 1327.85 L701.372 1316.89 L710.508 1309.96 L699.052 1309.72 L695.292 1298.91 Z" fill="#ff0000" fill-rule="evenodd" fill-opacity="1" stroke="none"/>
<path clip-path="url(#clip541)" d="M695.292 1297.57 L691.532 1308.39 L680.076 1308.63 L689.212 1315.56 L685.884 1326.52 L695.292 1319.97 L704.7 1326.52 L701.372 1315.56 L710.508 1308.63 L699.052 1308.39 L695.292 1297.57 Z" fill="#ff0000" fill-rule="evenodd" fill-opacity="1" stroke="none"/>
<path clip-path="url(#clip541)" d="M695.292 1297.52 L691.532 1308.33 L680.076 1308.57 L689.212 1315.5 L685.884 1326.46 L695.292 1319.92 L704.7 1326.46 L701.372 1315.5 L710.508 1308.57 L699.052 1308.33 L695.292 1297.52 Z" fill="#ff0000" fill-rule="evenodd" fill-opacity="1" stroke="none"/>
<path clip-path="url(#clip541)" d="M695.292 1295.75 L691.532 1306.57 L680.076 1306.81 L689.212 1313.74 L685.884 1324.7 L695.292 1318.15 L704.7 1324.7 L701.372 1313.74 L710.508 1306.81 L699.052 1306.57 L695.292 1295.75 Z" fill="#ff0000" fill-rule="evenodd" fill-opacity="1" stroke="none"/>
<path clip-path="url(#clip541)" d="M695.292 1295.28 L691.532 1306.1 L680.076 1306.34 L689.212 1313.26 L685.884 1324.22 L695.292 1317.68 L704.7 1324.22 L701.372 1313.26 L710.508 1306.34 L699.052 1306.1 L695.292 1295.28 Z" fill="#ff0000" fill-rule="evenodd" fill-opacity="1" stroke="none"/>
<path clip-path="url(#clip541)" d="M695.292 1295.06 L691.532 1305.88 L680.076 1306.12 L689.212 1313.04 L685.884 1324 L695.292 1317.46 L704.7 1324 L701.372 1313.04 L710.508 1306.12 L699.052 1305.88 L695.292 1295.06 Z" fill="#ff0000" fill-rule="evenodd" fill-opacity="1" stroke="none"/>
<path clip-path="url(#clip541)" d="M695.292 1294.57 L691.532 1305.38 L680.076 1305.62 L689.212 1312.55 L685.884 1323.51 L695.292 1316.97 L704.7 1323.51 L701.372 1312.55 L710.508 1305.62 L699.052 1305.38 L695.292 1294.57 Z" fill="#ff0000" fill-rule="evenodd" fill-opacity="1" stroke="none"/>
<path clip-path="url(#clip541)" d="M695.292 1293.53 L691.532 1304.35 L680.076 1304.59 L689.212 1311.51 L685.884 1322.47 L695.292 1315.93 L704.7 1322.47 L701.372 1311.51 L710.508 1304.59 L699.052 1304.35 L695.292 1293.53 Z" fill="#ff0000" fill-rule="evenodd" fill-opacity="1" stroke="none"/>
<path clip-path="url(#clip541)" d="M695.292 1293.21 L691.532 1304.03 L680.076 1304.27 L689.212 1311.2 L685.884 1322.16 L695.292 1315.61 L704.7 1322.16 L701.372 1311.2 L710.508 1304.27 L699.052 1304.03 L695.292 1293.21 Z" fill="#ff0000" fill-rule="evenodd" fill-opacity="1" stroke="none"/>
<path clip-path="url(#clip541)" d="M695.292 1293.05 L691.532 1303.87 L680.076 1304.11 L689.212 1311.03 L685.884 1321.99 L695.292 1315.45 L704.7 1321.99 L701.372 1311.03 L710.508 1304.11 L699.052 1303.87 L695.292 1293.05 Z" fill="#ff0000" fill-rule="evenodd" fill-opacity="1" stroke="none"/>
<path clip-path="url(#clip541)" d="M695.292 1291.77 L691.532 1302.59 L680.076 1302.83 L689.212 1309.76 L685.884 1320.72 L695.292 1314.17 L704.7 1320.72 L701.372 1309.76 L710.508 1302.83 L699.052 1302.59 L695.292 1291.77 Z" fill="#ff0000" fill-rule="evenodd" fill-opacity="1" stroke="none"/>
<path clip-path="url(#clip541)" d="M695.292 1288.76 L691.532 1299.58 L680.076 1299.82 L689.212 1306.75 L685.884 1317.71 L695.292 1311.16 L704.7 1317.71 L701.372 1306.75 L710.508 1299.82 L699.052 1299.58 L695.292 1288.76 Z" fill="#ff0000" fill-rule="evenodd" fill-opacity="1" stroke="none"/>
<path clip-path="url(#clip541)" d="M695.292 1288.11 L691.532 1298.93 L680.076 1299.17 L689.212 1306.1 L685.884 1317.06 L695.292 1310.51 L704.7 1317.06 L701.372 1306.1 L710.508 1299.17 L699.052 1298.93 L695.292 1288.11 Z" fill="#ff0000" fill-rule="evenodd" fill-opacity="1" stroke="none"/>
<path clip-path="url(#clip541)" d="M695.292 1287.48 L691.532 1298.3 L680.076 1298.54 L689.212 1305.47 L685.884 1316.43 L695.292 1309.88 L704.7 1316.43 L701.372 1305.47 L710.508 1298.54 L699.052 1298.3 L695.292 1287.48 Z" fill="#ff0000" fill-rule="evenodd" fill-opacity="1" stroke="none"/>
<path clip-path="url(#clip541)" d="M695.292 1284.81 L691.532 1295.63 L680.076 1295.87 L689.212 1302.8 L685.884 1313.76 L695.292 1307.21 L704.7 1313.76 L701.372 1302.8 L710.508 1295.87 L699.052 1295.63 L695.292 1284.81 Z" fill="#ff0000" fill-rule="evenodd" fill-opacity="1" stroke="none"/>
<path clip-path="url(#clip541)" d="M695.292 1283.15 L691.532 1293.97 L680.076 1294.21 L689.212 1301.13 L685.884 1312.09 L695.292 1305.55 L704.7 1312.09 L701.372 1301.13 L710.508 1294.21 L699.052 1293.97 L695.292 1283.15 Z" fill="#ff0000" fill-rule="evenodd" fill-opacity="1" stroke="none"/>
<path clip-path="url(#clip541)" d="M695.292 1277.71 L691.532 1288.53 L680.076 1288.77 L689.212 1295.7 L685.884 1306.66 L695.292 1300.11 L704.7 1306.66 L701.372 1295.7 L710.508 1288.77 L699.052 1288.53 L695.292 1277.71 Z" fill="#ff0000" fill-rule="evenodd" fill-opacity="1" stroke="none"/>
<path clip-path="url(#clip541)" d="M695.292 1276.23 L691.532 1287.04 L680.076 1287.28 L689.212 1294.21 L685.884 1305.17 L695.292 1298.63 L704.7 1305.17 L701.372 1294.21 L710.508 1287.28 L699.052 1287.04 L695.292 1276.23 Z" fill="#ff0000" fill-rule="evenodd" fill-opacity="1" stroke="none"/>
<path clip-path="url(#clip541)" d="M695.292 1274.07 L691.532 1284.89 L680.076 1285.13 L689.212 1292.06 L685.884 1303.02 L695.292 1296.47 L704.7 1303.02 L701.372 1292.06 L710.508 1285.13 L699.052 1284.89 L695.292 1274.07 Z" fill="#ff0000" fill-rule="evenodd" fill-opacity="1" stroke="none"/>
<path clip-path="url(#clip541)" d="M695.292 1273.96 L691.532 1284.77 L680.076 1285.01 L689.212 1291.94 L685.884 1302.9 L695.292 1296.36 L704.7 1302.9 L701.372 1291.94 L710.508 1285.01 L699.052 1284.77 L695.292 1273.96 Z" fill="#ff0000" fill-rule="evenodd" fill-opacity="1" stroke="none"/>
<path clip-path="url(#clip541)" d="M695.292 1267.09 L691.532 1277.91 L680.076 1278.15 L689.212 1285.08 L685.884 1296.04 L695.292 1289.49 L704.7 1296.04 L701.372 1285.08 L710.508 1278.15 L699.052 1277.91 L695.292 1267.09 Z" fill="#ff0000" fill-rule="evenodd" fill-opacity="1" stroke="none"/>
<path clip-path="url(#clip541)" d="M695.292 1263.64 L691.532 1274.45 L680.076 1274.69 L689.212 1281.62 L685.884 1292.58 L695.292 1286.04 L704.7 1292.58 L701.372 1281.62 L710.508 1274.69 L699.052 1274.45 L695.292 1263.64 Z" fill="#ff0000" fill-rule="evenodd" fill-opacity="1" stroke="none"/>
<path clip-path="url(#clip541)" d="M695.292 1260.11 L691.532 1270.92 L680.076 1271.16 L689.212 1278.09 L685.884 1289.05 L695.292 1282.51 L704.7 1289.05 L701.372 1278.09 L710.508 1271.16 L699.052 1270.92 L695.292 1260.11 Z" fill="#ff0000" fill-rule="evenodd" fill-opacity="1" stroke="none"/>
<path clip-path="url(#clip541)" d="M695.292 1258.3 L691.532 1269.11 L680.076 1269.35 L689.212 1276.28 L685.884 1287.24 L695.292 1280.7 L704.7 1287.24 L701.372 1276.28 L710.508 1269.35 L699.052 1269.11 L695.292 1258.3 Z" fill="#ff0000" fill-rule="evenodd" fill-opacity="1" stroke="none"/>
<path clip-path="url(#clip541)" d="M695.292 1250.3 L691.532 1261.12 L680.076 1261.36 L689.212 1268.29 L685.884 1279.25 L695.292 1272.7 L704.7 1279.25 L701.372 1268.29 L710.508 1261.36 L699.052 1261.12 L695.292 1250.3 Z" fill="#ff0000" fill-rule="evenodd" fill-opacity="1" stroke="none"/>
<path clip-path="url(#clip541)" d="M695.292 1243.71 L691.532 1254.53 L680.076 1254.77 L689.212 1261.7 L685.884 1272.66 L695.292 1266.11 L704.7 1272.66 L701.372 1261.7 L710.508 1254.77 L699.052 1254.53 L695.292 1243.71 Z" fill="#ff0000" fill-rule="evenodd" fill-opacity="1" stroke="none"/>
<path clip-path="url(#clip541)" d="M695.292 1240.48 L691.532 1251.3 L680.076 1251.54 L689.212 1258.47 L685.884 1269.43 L695.292 1262.88 L704.7 1269.43 L701.372 1258.47 L710.508 1251.54 L699.052 1251.3 L695.292 1240.48 Z" fill="#ff0000" fill-rule="evenodd" fill-opacity="1" stroke="none"/>
<path clip-path="url(#clip541)" d="M695.292 1230.81 L691.532 1241.63 L680.076 1241.87 L689.212 1248.8 L685.884 1259.76 L695.292 1253.21 L704.7 1259.76 L701.372 1248.8 L710.508 1241.87 L699.052 1241.63 L695.292 1230.81 Z" fill="#ff0000" fill-rule="evenodd" fill-opacity="1" stroke="none"/>
<path clip-path="url(#clip541)" d="M695.292 1229.57 L691.532 1240.39 L680.076 1240.63 L689.212 1247.55 L685.884 1258.51 L695.292 1251.97 L704.7 1258.51 L701.372 1247.55 L710.508 1240.63 L699.052 1240.39 L695.292 1229.57 Z" fill="#ff0000" fill-rule="evenodd" fill-opacity="1" stroke="none"/>
<path clip-path="url(#clip541)" d="M695.292 1203.28 L691.532 1214.1 L680.076 1214.34 L689.212 1221.27 L685.884 1232.23 L695.292 1225.68 L704.7 1232.23 L701.372 1221.27 L710.508 1214.34 L699.052 1214.1 L695.292 1203.28 Z" fill="#ff0000" fill-rule="evenodd" fill-opacity="1" stroke="none"/>
<path clip-path="url(#clip541)" d="M695.292 1201.97 L691.532 1212.79 L680.076 1213.03 L689.212 1219.96 L685.884 1230.92 L695.292 1224.37 L704.7 1230.92 L701.372 1219.96 L710.508 1213.03 L699.052 1212.79 L695.292 1201.97 Z" fill="#ff0000" fill-rule="evenodd" fill-opacity="1" stroke="none"/>
<path clip-path="url(#clip541)" d="M695.292 1166.5 L691.532 1177.32 L680.076 1177.56 L689.212 1184.49 L685.884 1195.45 L695.292 1188.9 L704.7 1195.45 L701.372 1184.49 L710.508 1177.56 L699.052 1177.32 L695.292 1166.5 Z" fill="#ff0000" fill-rule="evenodd" fill-opacity="1" stroke="none"/>
<path clip-path="url(#clip541)" d="M695.292 1141.02 L691.532 1151.84 L680.076 1152.08 L689.212 1159 L685.884 1169.96 L695.292 1163.42 L704.7 1169.96 L701.372 1159 L710.508 1152.08 L699.052 1151.84 L695.292 1141.02 Z" fill="#ff0000" fill-rule="evenodd" fill-opacity="1" stroke="none"/>
<path clip-path="url(#clip541)" d="M695.292 166.55 L691.532 177.366 L680.076 177.606 L689.212 184.534 L685.884 195.494 L695.292 188.95 L704.7 195.494 L701.372 184.534 L710.508 177.606 L699.052 177.366 L695.292 166.55 Z" fill="#ff0000" fill-rule="evenodd" fill-opacity="1" stroke="none"/>
<path clip-path="url(#clip541)" d="M756.414 1279.96 L752.654 1290.78 L741.198 1291.02 L750.334 1297.95 L747.006 1308.91 L756.414 1302.36 L765.822 1308.91 L762.494 1297.95 L771.63 1291.02 L760.174 1290.78 L756.414 1279.96 Z" fill="#0000ff" fill-rule="evenodd" fill-opacity="1" stroke="none"/>
<path clip-path="url(#clip541)" d="M914.117 322.268 L910.357 333.084 L898.901 333.324 L908.037 340.252 L904.709 351.212 L914.117 344.668 L923.525 351.212 L920.197 340.252 L929.333 333.324 L917.877 333.084 L914.117 322.268 Z" fill="#0000ff" fill-rule="evenodd" fill-opacity="1" stroke="none"/>
<path clip-path="url(#clip541)" d="M1734.95 307.207 L1731.19 318.023 L1719.73 318.263 L1728.87 325.191 L1725.54 336.151 L1734.95 329.607 L1744.36 336.151 L1741.03 325.191 L1750.16 318.263 L1738.71 318.023 L1734.95 307.207 Z" fill="#008000" fill-rule="evenodd" fill-opacity="1" stroke="none"/>
<path clip-path="url(#clip541)" d="M1738.48 302.587 L1734.72 313.403 L1723.26 313.643 L1732.4 320.571 L1729.07 331.531 L1738.48 324.987 L1747.88 331.531 L1744.56 320.571 L1753.69 313.643 L1742.24 313.403 L1738.48 302.587 Z" fill="#008000" fill-rule="evenodd" fill-opacity="1" stroke="none"/>
<path clip-path="url(#clip541)" d="M1759.39 281.068 L1755.63 291.884 L1744.17 292.124 L1753.31 299.052 L1749.98 310.012 L1759.39 303.468 L1768.8 310.012 L1765.47 299.052 L1774.6 292.124 L1763.15 291.884 L1759.39 281.068 Z" fill="#008000" fill-rule="evenodd" fill-opacity="1" stroke="none"/>
<path clip-path="url(#clip541)" d="M1756.65 282.313 L1752.89 293.129 L1741.43 293.369 L1750.57 300.297 L1747.24 311.257 L1756.65 304.713 L1766.06 311.257 L1762.73 300.297 L1771.87 293.369 L1760.41 293.129 L1756.65 282.313 Z" fill="#008000" fill-rule="evenodd" fill-opacity="1" stroke="none"/>
<path clip-path="url(#clip541)" d="M1750.05 285.938 L1746.29 296.754 L1734.83 296.994 L1743.97 303.922 L1740.64 314.882 L1750.05 308.338 L1759.45 314.882 L1756.13 303.922 L1765.26 296.994 L1753.81 296.754 L1750.05 285.938 Z" fill="#008000" fill-rule="evenodd" fill-opacity="1" stroke="none"/>
<path clip-path="url(#clip541)" d="M1733.66 293.057 L1729.9 303.873 L1718.45 304.113 L1727.58 311.041 L1724.25 322.001 L1733.66 315.457 L1743.07 322.001 L1739.74 311.041 L1748.88 304.113 L1737.42 303.873 L1733.66 293.057 Z" fill="#008000" fill-rule="evenodd" fill-opacity="1" stroke="none"/>
<path clip-path="url(#clip541)" d="M1735.65 284.504 L1731.89 295.32 L1720.44 295.56 L1729.57 302.488 L1726.25 313.448 L1735.65 306.904 L1745.06 313.448 L1741.73 302.488 L1750.87 295.56 L1739.41 295.32 L1735.65 284.504 Z" fill="#008000" fill-rule="evenodd" fill-opacity="1" stroke="none"/>
<path clip-path="url(#clip541)" d="M1726.06 283.579 L1722.3 294.395 L1710.84 294.635 L1719.98 301.563 L1716.65 312.523 L1726.06 305.979 L1735.47 312.523 L1732.14 301.563 L1741.27 294.635 L1729.82 294.395 L1726.06 283.579 Z" fill="#008000" fill-rule="evenodd" fill-opacity="1" stroke="none"/>
<path clip-path="url(#clip541)" d="M1786.42 217.575 L1782.66 228.391 L1771.2 228.631 L1780.34 235.559 L1777.01 246.519 L1786.42 239.975 L1795.83 246.519 L1792.5 235.559 L1801.64 228.631 L1790.18 228.391 L1786.42 217.575 Z" fill="#800080" fill-rule="evenodd" fill-opacity="1" stroke="none"/>
<path clip-path="url(#clip540)" d="M1603.12 1379.86 L1864.81 1379.86 L1864.81 1120.66 L1603.12 1120.66  Z" fill="#ffffff" fill-rule="evenodd" fill-opacity="1"/>
<polyline clip-path="url(#clip540)" style="stroke:#000000; stroke-linecap:round; stroke-linejoin:round; stroke-width:4; stroke-opacity:1; fill:none" points="1603.12,1379.86 1864.81,1379.86 1864.81,1120.66 1603.12,1120.66 1603.12,1379.86 "/>
<path clip-path="url(#clip540)" d="M1697.93 1149.74 L1692.58 1165.12 L1676.29 1165.46 L1689.29 1175.32 L1684.55 1190.91 L1697.93 1181.6 L1711.31 1190.91 L1706.58 1175.32 L1719.57 1165.46 L1703.28 1165.12 L1697.93 1149.74 Z" fill="#ff0000" fill-rule="evenodd" fill-opacity="1" stroke="none"/>
<path clip-path="url(#clip540)" d="M1792.75 1155.22 L1797.42 1155.22 L1797.42 1169.38 L1814.42 1169.38 L1814.42 1155.22 L1819.09 1155.22 L1819.09 1189.78 L1814.42 1189.78 L1814.42 1173.32 L1797.42 1173.32 L1797.42 1189.78 L1792.75 1189.78 L1792.75 1155.22 Z" fill="#000000" fill-rule="nonzero" fill-opacity="1" /><path clip-path="url(#clip540)" d="M1836.94 1174.11 Q1835.78 1172.11 1833.44 1172.11 Q1831.11 1172.11 1829.95 1174.11 Q1828.77 1176.1 1828.77 1180.08 Q1828.77 1184.08 1829.95 1186.07 Q1831.11 1188.06 1833.44 1188.06 Q1835.78 1188.06 1836.94 1186.07 Q1838.12 1184.08 1838.12 1180.08 Q1838.12 1176.1 1836.94 1174.11 M1833.44 1170.05 Q1837.17 1170.05 1839.14 1172.62 Q1841.11 1175.19 1841.11 1180.08 Q1841.11 1184.98 1839.14 1187.55 Q1837.17 1190.12 1833.44 1190.12 Q1829.69 1190.12 1827.73 1187.55 Q1825.76 1184.98 1825.76 1180.08 Q1825.76 1175.19 1827.73 1172.62 Q1829.69 1170.05 1833.44 1170.05 Z" fill="#000000" fill-rule="nonzero" fill-opacity="1" /><path clip-path="url(#clip540)" d="M1697.93 1201.58 L1692.58 1216.96 L1676.29 1217.3 L1689.29 1227.16 L1684.55 1242.75 L1697.93 1233.44 L1711.31 1242.75 L1706.58 1227.16 L1719.57 1217.3 L1703.28 1216.96 L1697.93 1201.58 Z" fill="#0000ff" fill-rule="evenodd" fill-opacity="1" stroke="none"/>
<path clip-path="url(#clip540)" d="M1792.75 1207.06 L1797.42 1207.06 L1797.42 1221.22 L1814.42 1221.22 L1814.42 1207.06 L1819.09 1207.06 L1819.09 1241.62 L1814.42 1241.62 L1814.42 1225.16 L1797.42 1225.16 L1797.42 1241.62 L1792.75 1241.62 L1792.75 1207.06 Z" fill="#000000" fill-rule="nonzero" fill-opacity="1" /><path clip-path="url(#clip540)" d="M1827.36 1239.07 L1832.08 1239.07 L1832.08 1224.93 L1826.92 1225.88 L1826.92 1223.19 L1832.24 1222.29 L1835.41 1222.29 L1835.41 1239.07 L1840.16 1239.07 L1840.16 1241.62 L1827.36 1241.62 L1827.36 1239.07 Z" fill="#000000" fill-rule="nonzero" fill-opacity="1" /><path clip-path="url(#clip540)" d="M1697.93 1253.42 L1692.58 1268.8 L1676.29 1269.14 L1689.29 1279 L1684.55 1294.59 L1697.93 1285.28 L1711.31 1294.59 L1706.58 1279 L1719.57 1269.14 L1703.28 1268.8 L1697.93 1253.42 Z" fill="#008000" fill-rule="evenodd" fill-opacity="1" stroke="none"/>
<path clip-path="url(#clip540)" d="M1792.75 1258.9 L1797.42 1258.9 L1797.42 1273.06 L1814.42 1273.06 L1814.42 1258.9 L1819.09 1258.9 L1819.09 1293.46 L1814.42 1293.46 L1814.42 1277 L1797.42 1277 L1797.42 1293.46 L1792.75 1293.46 L1792.75 1258.9 Z" fill="#000000" fill-rule="nonzero" fill-opacity="1" /><path clip-path="url(#clip540)" d="M1829.95 1290.82 L1839.76 1290.82 L1839.76 1293.46 L1825.92 1293.46 L1825.92 1290.91 Q1826.71 1290.19 1828.17 1288.9 Q1836.13 1281.84 1836.13 1279.66 Q1836.13 1278.13 1834.92 1277.21 Q1833.72 1276.26 1831.75 1276.26 Q1830.55 1276.26 1829.14 1276.67 Q1827.73 1277.07 1826.06 1277.88 L1826.06 1275.03 Q1827.84 1274.38 1829.37 1274.06 Q1830.92 1273.73 1832.24 1273.73 Q1835.6 1273.73 1837.61 1275.26 Q1839.62 1276.79 1839.62 1279.29 Q1839.62 1282.51 1831.96 1289.08 Q1830.67 1290.19 1829.95 1290.82 Z" fill="#000000" fill-rule="nonzero" fill-opacity="1" /><path clip-path="url(#clip540)" d="M1697.93 1305.26 L1692.58 1320.64 L1676.29 1320.98 L1689.29 1330.84 L1684.55 1346.43 L1697.93 1337.12 L1711.31 1346.43 L1706.58 1330.84 L1719.57 1320.98 L1703.28 1320.64 L1697.93 1305.26 Z" fill="#800080" fill-rule="evenodd" fill-opacity="1" stroke="none"/>
<path clip-path="url(#clip540)" d="M1792.75 1310.74 L1797.42 1310.74 L1797.42 1324.9 L1814.42 1324.9 L1814.42 1310.74 L1819.09 1310.74 L1819.09 1345.3 L1814.42 1345.3 L1814.42 1328.84 L1797.42 1328.84 L1797.42 1345.3 L1792.75 1345.3 L1792.75 1310.74 Z" fill="#000000" fill-rule="nonzero" fill-opacity="1" /><path clip-path="url(#clip540)" d="M1835.87 1334.83 Q1838 1335.25 1839.16 1336.52 Q1840.34 1337.77 1840.34 1339.67 Q1840.34 1342.54 1838.14 1344.09 Q1835.94 1345.64 1831.85 1345.64 Q1830.53 1345.64 1829.07 1345.39 Q1827.63 1345.16 1826.01 1344.69 L1826.01 1341.89 Q1827.22 1342.52 1828.58 1342.82 Q1829.97 1343.12 1831.52 1343.12 Q1834.05 1343.12 1835.43 1342.22 Q1836.82 1341.29 1836.82 1339.67 Q1836.82 1337.96 1835.53 1337.08 Q1834.25 1336.2 1831.75 1336.2 L1829.76 1336.2 L1829.76 1333.7 L1831.94 1333.7 Q1834.11 1333.7 1835.23 1332.98 Q1836.36 1332.24 1836.36 1330.85 Q1836.36 1329.51 1835.2 1328.81 Q1834.05 1328.1 1831.85 1328.1 Q1830.92 1328.1 1829.74 1328.31 Q1828.56 1328.51 1826.68 1329.05 L1826.68 1326.38 Q1828.37 1325.99 1829.86 1325.78 Q1831.34 1325.57 1832.61 1325.57 Q1835.94 1325.57 1837.89 1326.94 Q1839.86 1328.31 1839.86 1330.6 Q1839.86 1332.19 1838.81 1333.31 Q1837.77 1334.42 1835.87 1334.83 Z" fill="#000000" fill-rule="nonzero" fill-opacity="1" /></svg>
