<?xml version="1.0" encoding="utf-8"?>
<svg xmlns="http://www.w3.org/2000/svg" xmlns:xlink="http://www.w3.org/1999/xlink" width="600" height="400" viewBox="0 0 2400 1600">
<defs>
  <clipPath id="clip450">
    <rect x="0" y="0" width="2400" height="1600"/>
  </clipPath>
</defs>
<path clip-path="url(#clip450)" d="M0 1600 L2400 1600 L2400 0 L0 0  Z" fill="#ffffff" fill-rule="evenodd" fill-opacity="1"/>
<defs>
  <clipPath id="clip451">
    <rect x="193" y="123" width="2160" height="1364"/>
  </clipPath>
</defs>
<path clip-path="url(#clip450)" d="M193.936 1486.45 L2352.76 1486.45 L2352.76 123.472 L193.936 123.472  Z" fill="#ffffff" fill-rule="evenodd" fill-opacity="1"/>
<polyline clip-path="url(#clip451)" style="stroke:#000000; stroke-linecap:round; stroke-linejoin:round; stroke-width:2; stroke-opacity:0.1; fill:none" points="310.048,1486.45 310.048,123.472 "/>
<polyline clip-path="url(#clip451)" style="stroke:#000000; stroke-linecap:round; stroke-linejoin:round; stroke-width:2; stroke-opacity:0.1; fill:none" points="623.229,1486.45 623.229,123.472 "/>
<polyline clip-path="url(#clip451)" style="stroke:#000000; stroke-linecap:round; stroke-linejoin:round; stroke-width:2; stroke-opacity:0.1; fill:none" points="936.409,1486.45 936.409,123.472 "/>
<polyline clip-path="url(#clip451)" style="stroke:#000000; stroke-linecap:round; stroke-linejoin:round; stroke-width:2; stroke-opacity:0.1; fill:none" points="1249.59,1486.45 1249.59,123.472 "/>
<polyline clip-path="url(#clip451)" style="stroke:#000000; stroke-linecap:round; stroke-linejoin:round; stroke-width:2; stroke-opacity:0.1; fill:none" points="1562.77,1486.45 1562.77,123.472 "/>
<polyline clip-path="url(#clip451)" style="stroke:#000000; stroke-linecap:round; stroke-linejoin:round; stroke-width:2; stroke-opacity:0.1; fill:none" points="1875.95,1486.45 1875.95,123.472 "/>
<polyline clip-path="url(#clip451)" style="stroke:#000000; stroke-linecap:round; stroke-linejoin:round; stroke-width:2; stroke-opacity:0.1; fill:none" points="2189.13,1486.45 2189.13,123.472 "/>
<polyline clip-path="url(#clip451)" style="stroke:#000000; stroke-linecap:round; stroke-linejoin:round; stroke-width:2; stroke-opacity:0.1; fill:none" points="193.936,1465.15 2352.76,1465.15 "/>
<polyline clip-path="url(#clip451)" style="stroke:#000000; stroke-linecap:round; stroke-linejoin:round; stroke-width:2; stroke-opacity:0.1; fill:none" points="193.936,1151.97 2352.76,1151.97 "/>
<polyline clip-path="url(#clip451)" style="stroke:#000000; stroke-linecap:round; stroke-linejoin:round; stroke-width:2; stroke-opacity:0.1; fill:none" points="193.936,838.785 2352.76,838.785 "/>
<polyline clip-path="url(#clip451)" style="stroke:#000000; stroke-linecap:round; stroke-linejoin:round; stroke-width:2; stroke-opacity:0.1; fill:none" points="193.936,525.604 2352.76,525.604 "/>
<polyline clip-path="url(#clip451)" style="stroke:#000000; stroke-linecap:round; stroke-linejoin:round; stroke-width:2; stroke-opacity:0.1; fill:none" points="193.936,212.424 2352.76,212.424 "/>
<polyline clip-path="url(#clip450)" style="stroke:#000000; stroke-linecap:round; stroke-linejoin:round; stroke-width:4; stroke-opacity:1; fill:none" points="193.936,1486.45 2352.76,1486.45 "/>
<polyline clip-path="url(#clip450)" style="stroke:#000000; stroke-linecap:round; stroke-linejoin:round; stroke-width:4; stroke-opacity:1; fill:none" points="310.048,1486.45 310.048,1467.55 "/>
<polyline clip-path="url(#clip450)" style="stroke:#000000; stroke-linecap:round; stroke-linejoin:round; stroke-width:4; stroke-opacity:1; fill:none" points="623.229,1486.45 623.229,1467.55 "/>
<polyline clip-path="url(#clip450)" style="stroke:#000000; stroke-linecap:round; stroke-linejoin:round; stroke-width:4; stroke-opacity:1; fill:none" points="936.409,1486.45 936.409,1467.55 "/>
<polyline clip-path="url(#clip450)" style="stroke:#000000; stroke-linecap:round; stroke-linejoin:round; stroke-width:4; stroke-opacity:1; fill:none" points="1249.59,1486.45 1249.59,1467.55 "/>
<polyline clip-path="url(#clip450)" style="stroke:#000000; stroke-linecap:round; stroke-linejoin:round; stroke-width:4; stroke-opacity:1; fill:none" points="1562.77,1486.45 1562.77,1467.55 "/>
<polyline clip-path="url(#clip450)" style="stroke:#000000; stroke-linecap:round; stroke-linejoin:round; stroke-width:4; stroke-opacity:1; fill:none" points="1875.95,1486.45 1875.95,1467.55 "/>
<polyline clip-path="url(#clip450)" style="stroke:#000000; stroke-linecap:round; stroke-linejoin:round; stroke-width:4; stroke-opacity:1; fill:none" points="2189.13,1486.45 2189.13,1467.55 "/>
<path clip-path="url(#clip450)" d="M257.074 1532.02 L286.75 1532.02 L286.75 1535.95 L257.074 1535.95 L257.074 1532.02 Z" fill="#000000" fill-rule="nonzero" fill-opacity="1" /><path clip-path="url(#clip450)" d="M297.653 1544.91 L305.291 1544.91 L305.291 1518.55 L296.981 1520.21 L296.981 1515.95 L305.245 1514.29 L309.921 1514.29 L309.921 1544.91 L317.56 1544.91 L317.56 1548.85 L297.653 1548.85 L297.653 1544.91 Z" fill="#000000" fill-rule="nonzero" fill-opacity="1" /><path clip-path="url(#clip450)" d="M327.004 1542.97 L331.888 1542.97 L331.888 1548.85 L327.004 1548.85 L327.004 1542.97 Z" fill="#000000" fill-rule="nonzero" fill-opacity="1" /><path clip-path="url(#clip450)" d="M342.12 1514.29 L360.476 1514.29 L360.476 1518.22 L346.402 1518.22 L346.402 1526.7 Q347.421 1526.35 348.439 1526.19 Q349.458 1526 350.476 1526 Q356.263 1526 359.643 1529.17 Q363.023 1532.34 363.023 1537.76 Q363.023 1543.34 359.55 1546.44 Q356.078 1549.52 349.759 1549.52 Q347.583 1549.52 345.314 1549.15 Q343.069 1548.78 340.662 1548.04 L340.662 1543.34 Q342.745 1544.47 344.967 1545.03 Q347.189 1545.58 349.666 1545.58 Q353.671 1545.58 356.009 1543.48 Q358.347 1541.37 358.347 1537.76 Q358.347 1534.15 356.009 1532.04 Q353.671 1529.94 349.666 1529.94 Q347.791 1529.94 345.916 1530.35 Q344.064 1530.77 342.12 1531.65 L342.12 1514.29 Z" fill="#000000" fill-rule="nonzero" fill-opacity="1" /><path clip-path="url(#clip450)" d="M569.757 1532.02 L599.433 1532.02 L599.433 1535.95 L569.757 1535.95 L569.757 1532.02 Z" fill="#000000" fill-rule="nonzero" fill-opacity="1" /><path clip-path="url(#clip450)" d="M610.335 1544.91 L617.974 1544.91 L617.974 1518.55 L609.664 1520.21 L609.664 1515.95 L617.928 1514.29 L622.604 1514.29 L622.604 1544.91 L630.243 1544.91 L630.243 1548.85 L610.335 1548.85 L610.335 1544.91 Z" fill="#000000" fill-rule="nonzero" fill-opacity="1" /><path clip-path="url(#clip450)" d="M639.687 1542.97 L644.571 1542.97 L644.571 1548.85 L639.687 1548.85 L639.687 1542.97 Z" fill="#000000" fill-rule="nonzero" fill-opacity="1" /><path clip-path="url(#clip450)" d="M664.756 1517.37 Q661.145 1517.37 659.317 1520.93 Q657.511 1524.47 657.511 1531.6 Q657.511 1538.71 659.317 1542.27 Q661.145 1545.82 664.756 1545.82 Q668.391 1545.82 670.196 1542.27 Q672.025 1538.71 672.025 1531.6 Q672.025 1524.47 670.196 1520.93 Q668.391 1517.37 664.756 1517.37 M664.756 1513.66 Q670.567 1513.66 673.622 1518.27 Q676.701 1522.85 676.701 1531.6 Q676.701 1540.33 673.622 1544.94 Q670.567 1549.52 664.756 1549.52 Q658.946 1549.52 655.868 1544.94 Q652.812 1540.33 652.812 1531.6 Q652.812 1522.85 655.868 1518.27 Q658.946 1513.66 664.756 1513.66 Z" fill="#000000" fill-rule="nonzero" fill-opacity="1" /><path clip-path="url(#clip450)" d="M883.435 1532.02 L913.111 1532.02 L913.111 1535.95 L883.435 1535.95 L883.435 1532.02 Z" fill="#000000" fill-rule="nonzero" fill-opacity="1" /><path clip-path="url(#clip450)" d="M933.203 1517.37 Q929.592 1517.37 927.764 1520.93 Q925.958 1524.47 925.958 1531.6 Q925.958 1538.71 927.764 1542.27 Q929.592 1545.82 933.203 1545.82 Q936.838 1545.82 938.643 1542.27 Q940.472 1538.71 940.472 1531.6 Q940.472 1524.47 938.643 1520.93 Q936.838 1517.37 933.203 1517.37 M933.203 1513.66 Q939.014 1513.66 942.069 1518.27 Q945.148 1522.85 945.148 1531.6 Q945.148 1540.33 942.069 1544.94 Q939.014 1549.52 933.203 1549.52 Q927.393 1549.52 924.315 1544.94 Q921.259 1540.33 921.259 1531.6 Q921.259 1522.85 924.315 1518.27 Q927.393 1513.66 933.203 1513.66 Z" fill="#000000" fill-rule="nonzero" fill-opacity="1" /><path clip-path="url(#clip450)" d="M953.365 1542.97 L958.25 1542.97 L958.25 1548.85 L953.365 1548.85 L953.365 1542.97 Z" fill="#000000" fill-rule="nonzero" fill-opacity="1" /><path clip-path="url(#clip450)" d="M968.481 1514.29 L986.837 1514.29 L986.837 1518.22 L972.763 1518.22 L972.763 1526.7 Q973.782 1526.35 974.8 1526.19 Q975.819 1526 976.837 1526 Q982.624 1526 986.004 1529.17 Q989.384 1532.34 989.384 1537.76 Q989.384 1543.34 985.911 1546.44 Q982.439 1549.52 976.12 1549.52 Q973.944 1549.52 971.675 1549.15 Q969.43 1548.78 967.023 1548.04 L967.023 1543.34 Q969.106 1544.47 971.328 1545.03 Q973.55 1545.58 976.027 1545.58 Q980.032 1545.58 982.37 1543.48 Q984.708 1541.37 984.708 1537.76 Q984.708 1534.15 982.37 1532.04 Q980.032 1529.94 976.027 1529.94 Q974.152 1529.94 972.277 1530.35 Q970.425 1530.77 968.481 1531.65 L968.481 1514.29 Z" fill="#000000" fill-rule="nonzero" fill-opacity="1" /><path clip-path="url(#clip450)" d="M1226.97 1517.37 Q1223.36 1517.37 1221.53 1520.93 Q1219.73 1524.47 1219.73 1531.6 Q1219.73 1538.71 1221.53 1542.27 Q1223.36 1545.82 1226.97 1545.82 Q1230.61 1545.82 1232.41 1542.27 Q1234.24 1538.71 1234.24 1531.6 Q1234.24 1524.47 1232.41 1520.93 Q1230.61 1517.37 1226.97 1517.37 M1226.97 1513.66 Q1232.78 1513.66 1235.84 1518.27 Q1238.92 1522.85 1238.92 1531.6 Q1238.92 1540.33 1235.84 1544.94 Q1232.78 1549.52 1226.97 1549.52 Q1221.16 1549.52 1218.09 1544.94 Q1215.03 1540.33 1215.03 1531.6 Q1215.03 1522.85 1218.09 1518.27 Q1221.16 1513.66 1226.97 1513.66 Z" fill="#000000" fill-rule="nonzero" fill-opacity="1" /><path clip-path="url(#clip450)" d="M1247.14 1542.97 L1252.02 1542.97 L1252.02 1548.85 L1247.14 1548.85 L1247.14 1542.97 Z" fill="#000000" fill-rule="nonzero" fill-opacity="1" /><path clip-path="url(#clip450)" d="M1272.21 1517.37 Q1268.59 1517.37 1266.77 1520.93 Q1264.96 1524.47 1264.96 1531.6 Q1264.96 1538.71 1266.77 1542.27 Q1268.59 1545.82 1272.21 1545.82 Q1275.84 1545.82 1277.65 1542.27 Q1279.47 1538.71 1279.47 1531.6 Q1279.47 1524.47 1277.65 1520.93 Q1275.84 1517.37 1272.21 1517.37 M1272.21 1513.66 Q1278.02 1513.66 1281.07 1518.27 Q1284.15 1522.85 1284.15 1531.6 Q1284.15 1540.33 1281.07 1544.94 Q1278.02 1549.52 1272.21 1549.52 Q1266.4 1549.52 1263.32 1544.94 Q1260.26 1540.33 1260.26 1531.6 Q1260.26 1522.85 1263.32 1518.27 Q1266.4 1513.66 1272.21 1513.66 Z" fill="#000000" fill-rule="nonzero" fill-opacity="1" /><path clip-path="url(#clip450)" d="M1540.65 1517.37 Q1537.04 1517.37 1535.21 1520.93 Q1533.41 1524.47 1533.41 1531.6 Q1533.41 1538.71 1535.21 1542.27 Q1537.04 1545.82 1540.65 1545.82 Q1544.29 1545.82 1546.09 1542.27 Q1547.92 1538.71 1547.92 1531.6 Q1547.92 1524.47 1546.09 1520.93 Q1544.29 1517.37 1540.65 1517.37 M1540.65 1513.66 Q1546.46 1513.66 1549.52 1518.27 Q1552.6 1522.85 1552.6 1531.6 Q1552.6 1540.33 1549.52 1544.94 Q1546.46 1549.52 1540.65 1549.52 Q1534.84 1549.52 1531.76 1544.94 Q1528.71 1540.33 1528.71 1531.6 Q1528.71 1522.85 1531.76 1518.27 Q1534.84 1513.66 1540.65 1513.66 Z" fill="#000000" fill-rule="nonzero" fill-opacity="1" /><path clip-path="url(#clip450)" d="M1560.81 1542.97 L1565.7 1542.97 L1565.7 1548.85 L1560.81 1548.85 L1560.81 1542.97 Z" fill="#000000" fill-rule="nonzero" fill-opacity="1" /><path clip-path="url(#clip450)" d="M1575.93 1514.29 L1594.29 1514.29 L1594.29 1518.22 L1580.21 1518.22 L1580.21 1526.7 Q1581.23 1526.35 1582.25 1526.19 Q1583.27 1526 1584.29 1526 Q1590.07 1526 1593.45 1529.17 Q1596.83 1532.34 1596.83 1537.76 Q1596.83 1543.34 1593.36 1546.44 Q1589.89 1549.52 1583.57 1549.52 Q1581.39 1549.52 1579.12 1549.15 Q1576.88 1548.78 1574.47 1548.04 L1574.47 1543.34 Q1576.56 1544.47 1578.78 1545.03 Q1581 1545.58 1583.48 1545.58 Q1587.48 1545.58 1589.82 1543.48 Q1592.16 1541.37 1592.16 1537.76 Q1592.16 1534.15 1589.82 1532.04 Q1587.48 1529.94 1583.48 1529.94 Q1581.6 1529.94 1579.73 1530.35 Q1577.87 1530.77 1575.93 1531.65 L1575.93 1514.29 Z" fill="#000000" fill-rule="nonzero" fill-opacity="1" /><path clip-path="url(#clip450)" d="M1843.1 1544.91 L1850.74 1544.91 L1850.74 1518.55 L1842.43 1520.21 L1842.43 1515.95 L1850.7 1514.29 L1855.37 1514.29 L1855.37 1544.91 L1863.01 1544.91 L1863.01 1548.85 L1843.1 1548.85 L1843.1 1544.91 Z" fill="#000000" fill-rule="nonzero" fill-opacity="1" /><path clip-path="url(#clip450)" d="M1872.46 1542.97 L1877.34 1542.97 L1877.34 1548.85 L1872.46 1548.85 L1872.46 1542.97 Z" fill="#000000" fill-rule="nonzero" fill-opacity="1" /><path clip-path="url(#clip450)" d="M1897.52 1517.37 Q1893.91 1517.37 1892.09 1520.93 Q1890.28 1524.47 1890.28 1531.6 Q1890.28 1538.71 1892.09 1542.27 Q1893.91 1545.82 1897.52 1545.82 Q1901.16 1545.82 1902.96 1542.27 Q1904.79 1538.71 1904.79 1531.6 Q1904.79 1524.47 1902.96 1520.93 Q1901.16 1517.37 1897.52 1517.37 M1897.52 1513.66 Q1903.34 1513.66 1906.39 1518.27 Q1909.47 1522.85 1909.47 1531.6 Q1909.47 1540.33 1906.39 1544.94 Q1903.34 1549.52 1897.52 1549.52 Q1891.71 1549.52 1888.64 1544.94 Q1885.58 1540.33 1885.58 1531.6 Q1885.58 1522.85 1888.64 1518.27 Q1891.71 1513.66 1897.52 1513.66 Z" fill="#000000" fill-rule="nonzero" fill-opacity="1" /><path clip-path="url(#clip450)" d="M2156.78 1544.91 L2164.42 1544.91 L2164.42 1518.55 L2156.11 1520.21 L2156.11 1515.95 L2164.37 1514.29 L2169.05 1514.29 L2169.05 1544.91 L2176.69 1544.91 L2176.69 1548.85 L2156.78 1548.85 L2156.78 1544.91 Z" fill="#000000" fill-rule="nonzero" fill-opacity="1" /><path clip-path="url(#clip450)" d="M2186.13 1542.97 L2191.02 1542.97 L2191.02 1548.85 L2186.13 1548.85 L2186.13 1542.97 Z" fill="#000000" fill-rule="nonzero" fill-opacity="1" /><path clip-path="url(#clip450)" d="M2201.25 1514.29 L2219.61 1514.29 L2219.61 1518.22 L2205.53 1518.22 L2205.53 1526.7 Q2206.55 1526.35 2207.57 1526.19 Q2208.59 1526 2209.61 1526 Q2215.39 1526 2218.77 1529.17 Q2222.15 1532.34 2222.15 1537.76 Q2222.15 1543.34 2218.68 1546.44 Q2215.21 1549.52 2208.89 1549.52 Q2206.71 1549.52 2204.44 1549.15 Q2202.2 1548.78 2199.79 1548.04 L2199.79 1543.34 Q2201.87 1544.47 2204.1 1545.03 Q2206.32 1545.58 2208.8 1545.58 Q2212.8 1545.58 2215.14 1543.48 Q2217.48 1541.37 2217.48 1537.76 Q2217.48 1534.15 2215.14 1532.04 Q2212.8 1529.94 2208.8 1529.94 Q2206.92 1529.94 2205.05 1530.35 Q2203.19 1530.77 2201.25 1531.65 L2201.25 1514.29 Z" fill="#000000" fill-rule="nonzero" fill-opacity="1" /><polyline clip-path="url(#clip450)" style="stroke:#000000; stroke-linecap:round; stroke-linejoin:round; stroke-width:4; stroke-opacity:1; fill:none" points="193.936,1486.45 193.936,123.472 "/>
<polyline clip-path="url(#clip450)" style="stroke:#000000; stroke-linecap:round; stroke-linejoin:round; stroke-width:4; stroke-opacity:1; fill:none" points="193.936,1465.15 212.834,1465.15 "/>
<polyline clip-path="url(#clip450)" style="stroke:#000000; stroke-linecap:round; stroke-linejoin:round; stroke-width:4; stroke-opacity:1; fill:none" points="193.936,1151.97 212.834,1151.97 "/>
<polyline clip-path="url(#clip450)" style="stroke:#000000; stroke-linecap:round; stroke-linejoin:round; stroke-width:4; stroke-opacity:1; fill:none" points="193.936,838.785 212.834,838.785 "/>
<polyline clip-path="url(#clip450)" style="stroke:#000000; stroke-linecap:round; stroke-linejoin:round; stroke-width:4; stroke-opacity:1; fill:none" points="193.936,525.604 212.834,525.604 "/>
<polyline clip-path="url(#clip450)" style="stroke:#000000; stroke-linecap:round; stroke-linejoin:round; stroke-width:4; stroke-opacity:1; fill:none" points="193.936,212.424 212.834,212.424 "/>
<path clip-path="url(#clip450)" d="M50.9921 1465.6 L80.6679 1465.6 L80.6679 1469.53 L50.9921 1469.53 L50.9921 1465.6 Z" fill="#000000" fill-rule="nonzero" fill-opacity="1" /><path clip-path="url(#clip450)" d="M91.5706 1478.49 L99.2095 1478.49 L99.2095 1452.13 L90.8993 1453.79 L90.8993 1449.53 L99.1632 1447.87 L103.839 1447.87 L103.839 1478.49 L111.478 1478.49 L111.478 1482.43 L91.5706 1482.43 L91.5706 1478.49 Z" fill="#000000" fill-rule="nonzero" fill-opacity="1" /><path clip-path="url(#clip450)" d="M120.922 1476.55 L125.807 1476.55 L125.807 1482.43 L120.922 1482.43 L120.922 1476.55 Z" fill="#000000" fill-rule="nonzero" fill-opacity="1" /><path clip-path="url(#clip450)" d="M145.992 1450.94 Q142.381 1450.94 140.552 1454.51 Q138.746 1458.05 138.746 1465.18 Q138.746 1472.29 140.552 1475.85 Q142.381 1479.39 145.992 1479.39 Q149.626 1479.39 151.431 1475.85 Q153.26 1472.29 153.26 1465.18 Q153.26 1458.05 151.431 1454.51 Q149.626 1450.94 145.992 1450.94 M145.992 1447.24 Q151.802 1447.24 154.857 1451.85 Q157.936 1456.43 157.936 1465.18 Q157.936 1473.91 154.857 1478.51 Q151.802 1483.1 145.992 1483.1 Q140.181 1483.1 137.103 1478.51 Q134.047 1473.91 134.047 1465.18 Q134.047 1456.43 137.103 1451.85 Q140.181 1447.24 145.992 1447.24 Z" fill="#000000" fill-rule="nonzero" fill-opacity="1" /><path clip-path="url(#clip450)" d="M51.9875 1152.42 L81.6633 1152.42 L81.6633 1156.35 L51.9875 1156.35 L51.9875 1152.42 Z" fill="#000000" fill-rule="nonzero" fill-opacity="1" /><path clip-path="url(#clip450)" d="M101.756 1137.76 Q98.1447 1137.76 96.316 1141.33 Q94.5104 1144.87 94.5104 1152 Q94.5104 1159.11 96.316 1162.67 Q98.1447 1166.21 101.756 1166.21 Q105.39 1166.21 107.196 1162.67 Q109.024 1159.11 109.024 1152 Q109.024 1144.87 107.196 1141.33 Q105.39 1137.76 101.756 1137.76 M101.756 1134.06 Q107.566 1134.06 110.621 1138.67 Q113.7 1143.25 113.7 1152 Q113.7 1160.73 110.621 1165.33 Q107.566 1169.92 101.756 1169.92 Q95.9456 1169.92 92.8669 1165.33 Q89.8114 1160.73 89.8114 1152 Q89.8114 1143.25 92.8669 1138.67 Q95.9456 1134.06 101.756 1134.06 Z" fill="#000000" fill-rule="nonzero" fill-opacity="1" /><path clip-path="url(#clip450)" d="M121.918 1163.37 L126.802 1163.37 L126.802 1169.25 L121.918 1169.25 L121.918 1163.37 Z" fill="#000000" fill-rule="nonzero" fill-opacity="1" /><path clip-path="url(#clip450)" d="M137.033 1134.69 L155.39 1134.69 L155.39 1138.62 L141.316 1138.62 L141.316 1147.09 Q142.334 1146.75 143.353 1146.58 Q144.371 1146.4 145.39 1146.4 Q151.177 1146.4 154.556 1149.57 Q157.936 1152.74 157.936 1158.16 Q157.936 1163.74 154.464 1166.84 Q150.992 1169.92 144.672 1169.92 Q142.496 1169.92 140.228 1169.55 Q137.982 1169.18 135.575 1168.44 L135.575 1163.74 Q137.658 1164.87 139.881 1165.43 Q142.103 1165.98 144.58 1165.98 Q148.584 1165.98 150.922 1163.88 Q153.26 1161.77 153.26 1158.16 Q153.26 1154.55 150.922 1152.44 Q148.584 1150.33 144.58 1150.33 Q142.705 1150.33 140.83 1150.75 Q138.978 1151.17 137.033 1152.05 L137.033 1134.69 Z" fill="#000000" fill-rule="nonzero" fill-opacity="1" /><path clip-path="url(#clip450)" d="M100.76 824.584 Q97.1493 824.584 95.3206 828.148 Q93.515 831.69 93.515 838.82 Q93.515 845.926 95.3206 849.491 Q97.1493 853.032 100.76 853.032 Q104.395 853.032 106.2 849.491 Q108.029 845.926 108.029 838.82 Q108.029 831.69 106.2 828.148 Q104.395 824.584 100.76 824.584 M100.76 820.88 Q106.571 820.88 109.626 825.486 Q112.705 830.07 112.705 838.82 Q112.705 847.546 109.626 852.153 Q106.571 856.736 100.76 856.736 Q94.9502 856.736 91.8715 852.153 Q88.816 847.546 88.816 838.82 Q88.816 830.07 91.8715 825.486 Q94.9502 820.88 100.76 820.88 Z" fill="#000000" fill-rule="nonzero" fill-opacity="1" /><path clip-path="url(#clip450)" d="M120.922 850.185 L125.807 850.185 L125.807 856.065 L120.922 856.065 L120.922 850.185 Z" fill="#000000" fill-rule="nonzero" fill-opacity="1" /><path clip-path="url(#clip450)" d="M145.992 824.584 Q142.381 824.584 140.552 828.148 Q138.746 831.69 138.746 838.82 Q138.746 845.926 140.552 849.491 Q142.381 853.032 145.992 853.032 Q149.626 853.032 151.431 849.491 Q153.26 845.926 153.26 838.82 Q153.26 831.69 151.431 828.148 Q149.626 824.584 145.992 824.584 M145.992 820.88 Q151.802 820.88 154.857 825.486 Q157.936 830.07 157.936 838.82 Q157.936 847.546 154.857 852.153 Q151.802 856.736 145.992 856.736 Q140.181 856.736 137.103 852.153 Q134.047 847.546 134.047 838.82 Q134.047 830.07 137.103 825.486 Q140.181 820.88 145.992 820.88 Z" fill="#000000" fill-rule="nonzero" fill-opacity="1" /><path clip-path="url(#clip450)" d="M101.756 511.403 Q98.1447 511.403 96.316 514.968 Q94.5104 518.509 94.5104 525.639 Q94.5104 532.745 96.316 536.31 Q98.1447 539.852 101.756 539.852 Q105.39 539.852 107.196 536.31 Q109.024 532.745 109.024 525.639 Q109.024 518.509 107.196 514.968 Q105.39 511.403 101.756 511.403 M101.756 507.699 Q107.566 507.699 110.621 512.306 Q113.7 516.889 113.7 525.639 Q113.7 534.366 110.621 538.972 Q107.566 543.556 101.756 543.556 Q95.9456 543.556 92.8669 538.972 Q89.8114 534.366 89.8114 525.639 Q89.8114 516.889 92.8669 512.306 Q95.9456 507.699 101.756 507.699 Z" fill="#000000" fill-rule="nonzero" fill-opacity="1" /><path clip-path="url(#clip450)" d="M121.918 537.005 L126.802 537.005 L126.802 542.884 L121.918 542.884 L121.918 537.005 Z" fill="#000000" fill-rule="nonzero" fill-opacity="1" /><path clip-path="url(#clip450)" d="M137.033 508.324 L155.39 508.324 L155.39 512.259 L141.316 512.259 L141.316 520.732 Q142.334 520.384 143.353 520.222 Q144.371 520.037 145.39 520.037 Q151.177 520.037 154.556 523.209 Q157.936 526.38 157.936 531.796 Q157.936 537.375 154.464 540.477 Q150.992 543.556 144.672 543.556 Q142.496 543.556 140.228 543.185 Q137.982 542.815 135.575 542.074 L135.575 537.375 Q137.658 538.509 139.881 539.065 Q142.103 539.62 144.58 539.62 Q148.584 539.62 150.922 537.514 Q153.26 535.408 153.26 531.796 Q153.26 528.185 150.922 526.079 Q148.584 523.972 144.58 523.972 Q142.705 523.972 140.83 524.389 Q138.978 524.806 137.033 525.685 L137.033 508.324 Z" fill="#000000" fill-rule="nonzero" fill-opacity="1" /><path clip-path="url(#clip450)" d="M91.5706 225.769 L99.2095 225.769 L99.2095 199.403 L90.8993 201.07 L90.8993 196.81 L99.1632 195.144 L103.839 195.144 L103.839 225.769 L111.478 225.769 L111.478 229.704 L91.5706 229.704 L91.5706 225.769 Z" fill="#000000" fill-rule="nonzero" fill-opacity="1" /><path clip-path="url(#clip450)" d="M120.922 223.824 L125.807 223.824 L125.807 229.704 L120.922 229.704 L120.922 223.824 Z" fill="#000000" fill-rule="nonzero" fill-opacity="1" /><path clip-path="url(#clip450)" d="M145.992 198.222 Q142.381 198.222 140.552 201.787 Q138.746 205.329 138.746 212.459 Q138.746 219.565 140.552 223.13 Q142.381 226.671 145.992 226.671 Q149.626 226.671 151.431 223.13 Q153.26 219.565 153.26 212.459 Q153.26 205.329 151.431 201.787 Q149.626 198.222 145.992 198.222 M145.992 194.519 Q151.802 194.519 154.857 199.125 Q157.936 203.709 157.936 212.459 Q157.936 221.185 154.857 225.792 Q151.802 230.375 145.992 230.375 Q140.181 230.375 137.103 225.792 Q134.047 221.185 134.047 212.459 Q134.047 203.709 137.103 199.125 Q140.181 194.519 145.992 194.519 Z" fill="#000000" fill-rule="nonzero" fill-opacity="1" /><path clip-path="url(#clip450)" d="M1035.86 12.096 L1046.88 12.096 L1073.7 62.6918 L1073.7 12.096 L1081.64 12.096 L1081.64 72.576 L1070.62 72.576 L1043.8 21.9802 L1043.8 72.576 L1035.86 72.576 L1035.86 12.096 Z" fill="#000000" fill-rule="nonzero" fill-opacity="1" /><path clip-path="url(#clip450)" d="M1115.18 32.4315 Q1109.18 32.4315 1105.7 37.1306 Q1102.22 41.7891 1102.22 49.9314 Q1102.22 58.0738 1105.66 62.7728 Q1109.14 67.4314 1115.18 67.4314 Q1121.13 67.4314 1124.62 62.7323 Q1128.1 58.0333 1128.1 49.9314 Q1128.1 41.8701 1124.62 37.1711 Q1121.13 32.4315 1115.18 32.4315 M1115.18 26.1121 Q1124.9 26.1121 1130.45 32.4315 Q1136 38.7509 1136 49.9314 Q1136 61.0714 1130.45 67.4314 Q1124.9 73.7508 1115.18 73.7508 Q1105.42 73.7508 1099.87 67.4314 Q1094.36 61.0714 1094.36 49.9314 Q1094.36 38.7509 1099.87 32.4315 Q1105.42 26.1121 1115.18 26.1121 Z" fill="#000000" fill-rule="nonzero" fill-opacity="1" /><path clip-path="url(#clip450)" d="M1148.36 27.2059 L1155.81 27.2059 L1155.81 72.576 L1148.36 72.576 L1148.36 27.2059 M1148.36 9.54393 L1155.81 9.54393 L1155.81 18.9825 L1148.36 18.9825 L1148.36 9.54393 Z" fill="#000000" fill-rule="nonzero" fill-opacity="1" /><path clip-path="url(#clip450)" d="M1200.33 28.5427 L1200.33 35.5912 Q1197.17 33.9709 1193.77 33.1607 Q1190.36 32.3505 1186.72 32.3505 Q1181.17 32.3505 1178.37 34.0519 Q1175.62 35.7533 1175.62 39.156 Q1175.62 41.7486 1177.6 43.2475 Q1179.59 44.7058 1185.58 46.0426 L1188.14 46.6097 Q1196.07 48.3111 1199.4 51.4303 Q1202.76 54.509 1202.76 60.0587 Q1202.76 66.3781 1197.74 70.0644 Q1192.75 73.7508 1184 73.7508 Q1180.36 73.7508 1176.39 73.0216 Q1172.46 72.3329 1168.08 70.9151 L1168.08 63.2184 Q1172.22 65.3654 1176.23 66.4591 Q1180.24 67.5124 1184.17 67.5124 Q1189.43 67.5124 1192.27 65.73 Q1195.1 63.9071 1195.1 60.6258 Q1195.1 57.5877 1193.04 55.9673 Q1191.01 54.3469 1184.08 52.8481 L1181.49 52.2405 Q1174.56 50.7821 1171.49 47.7845 Q1168.41 44.7463 1168.41 39.4801 Q1168.41 33.0797 1172.94 29.5959 Q1177.48 26.1121 1185.83 26.1121 Q1189.96 26.1121 1193.6 26.7198 Q1197.25 27.3274 1200.33 28.5427 Z" fill="#000000" fill-rule="nonzero" fill-opacity="1" /><path clip-path="url(#clip450)" d="M1233.51 76.7889 Q1230.35 84.8907 1227.35 87.3618 Q1224.35 89.8329 1219.33 89.8329 L1213.37 89.8329 L1213.37 83.5945 L1217.75 83.5945 Q1220.83 83.5945 1222.53 82.1361 Q1224.23 80.6778 1226.29 75.2496 L1227.63 71.8468 L1209.28 27.2059 L1217.18 27.2059 L1231.36 62.6918 L1245.54 27.2059 L1253.44 27.2059 L1233.51 76.7889 Z" fill="#000000" fill-rule="nonzero" fill-opacity="1" /><path clip-path="url(#clip450)" d="M1335.71 16.7545 L1335.71 25.383 Q1331.58 21.5346 1326.88 19.6307 Q1322.22 17.7268 1316.95 17.7268 Q1306.58 17.7268 1301.07 24.0867 Q1295.57 30.4061 1295.57 42.3968 Q1295.57 54.3469 1301.07 60.7069 Q1306.58 67.0263 1316.95 67.0263 Q1322.22 67.0263 1326.88 65.1223 Q1331.58 63.2184 1335.71 59.3701 L1335.71 67.9175 Q1331.42 70.8341 1326.6 72.2924 Q1321.82 73.7508 1316.47 73.7508 Q1302.74 73.7508 1294.84 65.3654 Q1286.94 56.9395 1286.94 42.3968 Q1286.94 27.8135 1294.84 19.4281 Q1302.74 11.0023 1316.47 11.0023 Q1321.9 11.0023 1326.68 12.4606 Q1331.5 13.8784 1335.71 16.7545 Z" fill="#000000" fill-rule="nonzero" fill-opacity="1" /><path clip-path="url(#clip450)" d="M1348.02 27.2059 L1355.48 27.2059 L1355.48 72.576 L1348.02 72.576 L1348.02 27.2059 M1348.02 9.54393 L1355.48 9.54393 L1355.48 18.9825 L1348.02 18.9825 L1348.02 9.54393 Z" fill="#000000" fill-rule="nonzero" fill-opacity="1" /><path clip-path="url(#clip450)" d="M1397.36 34.1734 Q1396.11 33.4443 1394.61 33.1202 Q1393.15 32.7556 1391.37 32.7556 Q1385.05 32.7556 1381.65 36.8875 Q1378.28 40.9789 1378.28 48.6757 L1378.28 72.576 L1370.79 72.576 L1370.79 27.2059 L1378.28 27.2059 L1378.28 34.2544 Q1380.63 30.1225 1384.4 28.1376 Q1388.17 26.1121 1393.56 26.1121 Q1394.33 26.1121 1395.26 26.2337 Q1396.19 26.3147 1397.32 26.5172 L1397.36 34.1734 Z" fill="#000000" fill-rule="nonzero" fill-opacity="1" /><path clip-path="url(#clip450)" d="M1436.01 28.9478 L1436.01 35.9153 Q1432.85 34.1734 1429.65 33.3227 Q1426.49 32.4315 1423.25 32.4315 Q1416 32.4315 1411.99 37.0496 Q1407.98 41.6271 1407.98 49.9314 Q1407.98 58.2358 1411.99 62.8538 Q1416 67.4314 1423.25 67.4314 Q1426.49 67.4314 1429.65 66.5807 Q1432.85 65.6895 1436.01 63.9476 L1436.01 70.8341 Q1432.89 72.2924 1429.53 73.0216 Q1426.21 73.7508 1422.44 73.7508 Q1412.19 73.7508 1406.15 67.3098 Q1400.12 60.8689 1400.12 49.9314 Q1400.12 38.832 1406.2 32.472 Q1412.31 26.1121 1422.93 26.1121 Q1426.37 26.1121 1429.65 26.8413 Q1432.93 27.5299 1436.01 28.9478 Z" fill="#000000" fill-rule="nonzero" fill-opacity="1" /><path clip-path="url(#clip450)" d="M1448.97 9.54393 L1456.43 9.54393 L1456.43 72.576 L1448.97 72.576 L1448.97 9.54393 Z" fill="#000000" fill-rule="nonzero" fill-opacity="1" /><path clip-path="url(#clip450)" d="M1510.83 48.0275 L1510.83 51.6733 L1476.56 51.6733 Q1477.05 59.3701 1481.18 63.421 Q1485.35 67.4314 1492.76 67.4314 Q1497.06 67.4314 1501.07 66.3781 Q1505.12 65.3249 1509.09 63.2184 L1509.09 70.267 Q1505.08 71.9684 1500.86 72.8596 Q1496.65 73.7508 1492.32 73.7508 Q1481.46 73.7508 1475.1 67.4314 Q1468.78 61.1119 1468.78 50.3365 Q1468.78 39.1965 1474.78 32.6746 Q1480.81 26.1121 1491.02 26.1121 Q1500.18 26.1121 1505.48 32.0264 Q1510.83 37.9003 1510.83 48.0275 M1503.38 45.84 Q1503.3 39.7232 1499.93 36.0774 Q1496.61 32.4315 1491.1 32.4315 Q1484.86 32.4315 1481.1 35.9558 Q1477.37 39.4801 1476.8 45.8805 L1503.38 45.84 Z" fill="#000000" fill-rule="nonzero" fill-opacity="1" /><circle clip-path="url(#clip451)" cx="1631.16" cy="1352.07" r="14.4" fill="#009af9" fill-rule="evenodd" fill-opacity="1" stroke="#000000" stroke-opacity="1" stroke-width="3.2"/>
<circle clip-path="url(#clip451)" cx="628.798" cy="783.134" r="14.4" fill="#009af9" fill-rule="evenodd" fill-opacity="1" stroke="#000000" stroke-opacity="1" stroke-width="3.2"/>
<circle clip-path="url(#clip451)" cx="708.47" cy="491.637" r="14.4" fill="#009af9" fill-rule="evenodd" fill-opacity="1" stroke="#000000" stroke-opacity="1" stroke-width="3.2"/>
<circle clip-path="url(#clip451)" cx="1451.37" cy="223.143" r="14.4" fill="#009af9" fill-rule="evenodd" fill-opacity="1" stroke="#000000" stroke-opacity="1" stroke-width="3.2"/>
<circle clip-path="url(#clip451)" cx="743.935" cy="490.93" r="14.4" fill="#009af9" fill-rule="evenodd" fill-opacity="1" stroke="#000000" stroke-opacity="1" stroke-width="3.2"/>
<circle clip-path="url(#clip451)" cx="1421.01" cy="1418.19" r="14.4" fill="#009af9" fill-rule="evenodd" fill-opacity="1" stroke="#000000" stroke-opacity="1" stroke-width="3.2"/>
<circle clip-path="url(#clip451)" cx="732.521" cy="493.151" r="14.4" fill="#009af9" fill-rule="evenodd" fill-opacity="1" stroke="#000000" stroke-opacity="1" stroke-width="3.2"/>
<circle clip-path="url(#clip451)" cx="711.111" cy="1026.55" r="14.4" fill="#009af9" fill-rule="evenodd" fill-opacity="1" stroke="#000000" stroke-opacity="1" stroke-width="3.2"/>
<circle clip-path="url(#clip451)" cx="1593.3" cy="1362.6" r="14.4" fill="#009af9" fill-rule="evenodd" fill-opacity="1" stroke="#000000" stroke-opacity="1" stroke-width="3.2"/>
<circle clip-path="url(#clip451)" cx="1709" cy="1215.02" r="14.4" fill="#009af9" fill-rule="evenodd" fill-opacity="1" stroke="#000000" stroke-opacity="1" stroke-width="3.2"/>
<circle clip-path="url(#clip451)" cx="1853.71" cy="946.298" r="14.4" fill="#009af9" fill-rule="evenodd" fill-opacity="1" stroke="#000000" stroke-opacity="1" stroke-width="3.2"/>
<circle clip-path="url(#clip451)" cx="910.909" cy="1274.32" r="14.4" fill="#009af9" fill-rule="evenodd" fill-opacity="1" stroke="#000000" stroke-opacity="1" stroke-width="3.2"/>
<circle clip-path="url(#clip451)" cx="760.053" cy="428.091" r="14.4" fill="#009af9" fill-rule="evenodd" fill-opacity="1" stroke="#000000" stroke-opacity="1" stroke-width="3.2"/>
<circle clip-path="url(#clip451)" cx="1890.27" cy="1052.15" r="14.4" fill="#009af9" fill-rule="evenodd" fill-opacity="1" stroke="#000000" stroke-opacity="1" stroke-width="3.2"/>
<circle clip-path="url(#clip451)" cx="1868.93" cy="621.753" r="14.4" fill="#009af9" fill-rule="evenodd" fill-opacity="1" stroke="#000000" stroke-opacity="1" stroke-width="3.2"/>
<circle clip-path="url(#clip451)" cx="743.975" cy="1125.55" r="14.4" fill="#009af9" fill-rule="evenodd" fill-opacity="1" stroke="#000000" stroke-opacity="1" stroke-width="3.2"/>
<circle clip-path="url(#clip451)" cx="1686.68" cy="1295.78" r="14.4" fill="#009af9" fill-rule="evenodd" fill-opacity="1" stroke="#000000" stroke-opacity="1" stroke-width="3.2"/>
<circle clip-path="url(#clip451)" cx="1182.73" cy="1421.71" r="14.4" fill="#009af9" fill-rule="evenodd" fill-opacity="1" stroke="#000000" stroke-opacity="1" stroke-width="3.2"/>
<circle clip-path="url(#clip451)" cx="681.043" cy="748.914" r="14.4" fill="#009af9" fill-rule="evenodd" fill-opacity="1" stroke="#000000" stroke-opacity="1" stroke-width="3.2"/>
<circle clip-path="url(#clip451)" cx="1784.09" cy="1190.41" r="14.4" fill="#009af9" fill-rule="evenodd" fill-opacity="1" stroke="#000000" stroke-opacity="1" stroke-width="3.2"/>
<circle clip-path="url(#clip451)" cx="903.851" cy="293.947" r="14.4" fill="#009af9" fill-rule="evenodd" fill-opacity="1" stroke="#000000" stroke-opacity="1" stroke-width="3.2"/>
<circle clip-path="url(#clip451)" cx="942.296" cy="1329.53" r="14.4" fill="#009af9" fill-rule="evenodd" fill-opacity="1" stroke="#000000" stroke-opacity="1" stroke-width="3.2"/>
<circle clip-path="url(#clip451)" cx="707.502" cy="619.583" r="14.4" fill="#009af9" fill-rule="evenodd" fill-opacity="1" stroke="#000000" stroke-opacity="1" stroke-width="3.2"/>
<circle clip-path="url(#clip451)" cx="842.845" cy="315.723" r="14.4" fill="#009af9" fill-rule="evenodd" fill-opacity="1" stroke="#000000" stroke-opacity="1" stroke-width="3.2"/>
<circle clip-path="url(#clip451)" cx="1868.35" cy="675.725" r="14.4" fill="#009af9" fill-rule="evenodd" fill-opacity="1" stroke="#000000" stroke-opacity="1" stroke-width="3.2"/>
<circle clip-path="url(#clip451)" cx="718.137" cy="1126.24" r="14.4" fill="#009af9" fill-rule="evenodd" fill-opacity="1" stroke="#000000" stroke-opacity="1" stroke-width="3.2"/>
<circle clip-path="url(#clip451)" cx="922.871" cy="1339.03" r="14.4" fill="#009af9" fill-rule="evenodd" fill-opacity="1" stroke="#000000" stroke-opacity="1" stroke-width="3.2"/>
<circle clip-path="url(#clip451)" cx="1697.67" cy="1257.69" r="14.4" fill="#009af9" fill-rule="evenodd" fill-opacity="1" stroke="#000000" stroke-opacity="1" stroke-width="3.2"/>
<circle clip-path="url(#clip451)" cx="1002.18" cy="270.183" r="14.4" fill="#009af9" fill-rule="evenodd" fill-opacity="1" stroke="#000000" stroke-opacity="1" stroke-width="3.2"/>
<circle clip-path="url(#clip451)" cx="1880.15" cy="720.07" r="14.4" fill="#009af9" fill-rule="evenodd" fill-opacity="1" stroke="#000000" stroke-opacity="1" stroke-width="3.2"/>
<circle clip-path="url(#clip451)" cx="1162.1" cy="162.047" r="14.4" fill="#009af9" fill-rule="evenodd" fill-opacity="1" stroke="#000000" stroke-opacity="1" stroke-width="3.2"/>
<circle clip-path="url(#clip451)" cx="1077.71" cy="1363.97" r="14.4" fill="#009af9" fill-rule="evenodd" fill-opacity="1" stroke="#000000" stroke-opacity="1" stroke-width="3.2"/>
<circle clip-path="url(#clip451)" cx="1765.87" cy="1222.98" r="14.4" fill="#009af9" fill-rule="evenodd" fill-opacity="1" stroke="#000000" stroke-opacity="1" stroke-width="3.2"/>
<circle clip-path="url(#clip451)" cx="1695.85" cy="355.14" r="14.4" fill="#009af9" fill-rule="evenodd" fill-opacity="1" stroke="#000000" stroke-opacity="1" stroke-width="3.2"/>
<circle clip-path="url(#clip451)" cx="1383.37" cy="1429.93" r="14.4" fill="#009af9" fill-rule="evenodd" fill-opacity="1" stroke="#000000" stroke-opacity="1" stroke-width="3.2"/>
<circle clip-path="url(#clip451)" cx="1457.02" cy="1441.69" r="14.4" fill="#009af9" fill-rule="evenodd" fill-opacity="1" stroke="#000000" stroke-opacity="1" stroke-width="3.2"/>
<circle clip-path="url(#clip451)" cx="785.5" cy="456.146" r="14.4" fill="#009af9" fill-rule="evenodd" fill-opacity="1" stroke="#000000" stroke-opacity="1" stroke-width="3.2"/>
<circle clip-path="url(#clip451)" cx="1882.72" cy="1030.61" r="14.4" fill="#009af9" fill-rule="evenodd" fill-opacity="1" stroke="#000000" stroke-opacity="1" stroke-width="3.2"/>
<circle clip-path="url(#clip451)" cx="1151.69" cy="201.227" r="14.4" fill="#009af9" fill-rule="evenodd" fill-opacity="1" stroke="#000000" stroke-opacity="1" stroke-width="3.2"/>
<circle clip-path="url(#clip451)" cx="1748.16" cy="1228.26" r="14.4" fill="#009af9" fill-rule="evenodd" fill-opacity="1" stroke="#000000" stroke-opacity="1" stroke-width="3.2"/>
<circle clip-path="url(#clip451)" cx="1322.45" cy="207.204" r="14.4" fill="#009af9" fill-rule="evenodd" fill-opacity="1" stroke="#000000" stroke-opacity="1" stroke-width="3.2"/>
<circle clip-path="url(#clip451)" cx="652.164" cy="904.636" r="14.4" fill="#009af9" fill-rule="evenodd" fill-opacity="1" stroke="#000000" stroke-opacity="1" stroke-width="3.2"/>
<circle clip-path="url(#clip451)" cx="684.605" cy="759.422" r="14.4" fill="#009af9" fill-rule="evenodd" fill-opacity="1" stroke="#000000" stroke-opacity="1" stroke-width="3.2"/>
<circle clip-path="url(#clip451)" cx="940.188" cy="1351.74" r="14.4" fill="#009af9" fill-rule="evenodd" fill-opacity="1" stroke="#000000" stroke-opacity="1" stroke-width="3.2"/>
<circle clip-path="url(#clip451)" cx="905.921" cy="1326.31" r="14.4" fill="#009af9" fill-rule="evenodd" fill-opacity="1" stroke="#000000" stroke-opacity="1" stroke-width="3.2"/>
<circle clip-path="url(#clip451)" cx="1917.89" cy="785.763" r="14.4" fill="#009af9" fill-rule="evenodd" fill-opacity="1" stroke="#000000" stroke-opacity="1" stroke-width="3.2"/>
<circle clip-path="url(#clip451)" cx="1522.48" cy="241.525" r="14.4" fill="#009af9" fill-rule="evenodd" fill-opacity="1" stroke="#000000" stroke-opacity="1" stroke-width="3.2"/>
<circle clip-path="url(#clip451)" cx="1906.65" cy="924.749" r="14.4" fill="#009af9" fill-rule="evenodd" fill-opacity="1" stroke="#000000" stroke-opacity="1" stroke-width="3.2"/>
<circle clip-path="url(#clip451)" cx="819.762" cy="380.016" r="14.4" fill="#009af9" fill-rule="evenodd" fill-opacity="1" stroke="#000000" stroke-opacity="1" stroke-width="3.2"/>
<circle clip-path="url(#clip451)" cx="674.773" cy="926.216" r="14.4" fill="#009af9" fill-rule="evenodd" fill-opacity="1" stroke="#000000" stroke-opacity="1" stroke-width="3.2"/>
<circle clip-path="url(#clip451)" cx="1370.83" cy="214.607" r="14.4" fill="#009af9" fill-rule="evenodd" fill-opacity="1" stroke="#000000" stroke-opacity="1" stroke-width="3.2"/>
<circle clip-path="url(#clip451)" cx="1846.34" cy="621.972" r="14.4" fill="#009af9" fill-rule="evenodd" fill-opacity="1" stroke="#000000" stroke-opacity="1" stroke-width="3.2"/>
<circle clip-path="url(#clip451)" cx="809.843" cy="361.072" r="14.4" fill="#009af9" fill-rule="evenodd" fill-opacity="1" stroke="#000000" stroke-opacity="1" stroke-width="3.2"/>
<circle clip-path="url(#clip451)" cx="1779.63" cy="421.162" r="14.4" fill="#009af9" fill-rule="evenodd" fill-opacity="1" stroke="#000000" stroke-opacity="1" stroke-width="3.2"/>
<circle clip-path="url(#clip451)" cx="1236.48" cy="1447.87" r="14.4" fill="#009af9" fill-rule="evenodd" fill-opacity="1" stroke="#000000" stroke-opacity="1" stroke-width="3.2"/>
<circle clip-path="url(#clip451)" cx="1630.15" cy="1319.49" r="14.4" fill="#009af9" fill-rule="evenodd" fill-opacity="1" stroke="#000000" stroke-opacity="1" stroke-width="3.2"/>
<circle clip-path="url(#clip451)" cx="778.669" cy="417.528" r="14.4" fill="#009af9" fill-rule="evenodd" fill-opacity="1" stroke="#000000" stroke-opacity="1" stroke-width="3.2"/>
<circle clip-path="url(#clip451)" cx="913.289" cy="1279.12" r="14.4" fill="#009af9" fill-rule="evenodd" fill-opacity="1" stroke="#000000" stroke-opacity="1" stroke-width="3.2"/>
<circle clip-path="url(#clip451)" cx="1752.38" cy="1212.59" r="14.4" fill="#009af9" fill-rule="evenodd" fill-opacity="1" stroke="#000000" stroke-opacity="1" stroke-width="3.2"/>
<circle clip-path="url(#clip451)" cx="1756.37" cy="1246.74" r="14.4" fill="#009af9" fill-rule="evenodd" fill-opacity="1" stroke="#000000" stroke-opacity="1" stroke-width="3.2"/>
<circle clip-path="url(#clip451)" cx="1898.57" cy="920.738" r="14.4" fill="#009af9" fill-rule="evenodd" fill-opacity="1" stroke="#000000" stroke-opacity="1" stroke-width="3.2"/>
<circle clip-path="url(#clip451)" cx="918.372" cy="1358.05" r="14.4" fill="#009af9" fill-rule="evenodd" fill-opacity="1" stroke="#000000" stroke-opacity="1" stroke-width="3.2"/>
<circle clip-path="url(#clip451)" cx="1447.99" cy="1410.97" r="14.4" fill="#009af9" fill-rule="evenodd" fill-opacity="1" stroke="#000000" stroke-opacity="1" stroke-width="3.2"/>
<circle clip-path="url(#clip451)" cx="1915.51" cy="826.231" r="14.4" fill="#009af9" fill-rule="evenodd" fill-opacity="1" stroke="#000000" stroke-opacity="1" stroke-width="3.2"/>
<circle clip-path="url(#clip451)" cx="940.82" cy="307.706" r="14.4" fill="#009af9" fill-rule="evenodd" fill-opacity="1" stroke="#000000" stroke-opacity="1" stroke-width="3.2"/>
<circle clip-path="url(#clip451)" cx="1407.51" cy="1444.83" r="14.4" fill="#009af9" fill-rule="evenodd" fill-opacity="1" stroke="#000000" stroke-opacity="1" stroke-width="3.2"/>
<circle clip-path="url(#clip451)" cx="1878.74" cy="704.266" r="14.4" fill="#009af9" fill-rule="evenodd" fill-opacity="1" stroke="#000000" stroke-opacity="1" stroke-width="3.2"/>
<circle clip-path="url(#clip451)" cx="1914.77" cy="815.469" r="14.4" fill="#009af9" fill-rule="evenodd" fill-opacity="1" stroke="#000000" stroke-opacity="1" stroke-width="3.2"/>
<circle clip-path="url(#clip451)" cx="682.707" cy="857.395" r="14.4" fill="#009af9" fill-rule="evenodd" fill-opacity="1" stroke="#000000" stroke-opacity="1" stroke-width="3.2"/>
<circle clip-path="url(#clip451)" cx="1902.26" cy="704.671" r="14.4" fill="#009af9" fill-rule="evenodd" fill-opacity="1" stroke="#000000" stroke-opacity="1" stroke-width="3.2"/>
<circle clip-path="url(#clip451)" cx="1880.38" cy="836.369" r="14.4" fill="#009af9" fill-rule="evenodd" fill-opacity="1" stroke="#000000" stroke-opacity="1" stroke-width="3.2"/>
<circle clip-path="url(#clip451)" cx="1799.03" cy="1150" r="14.4" fill="#009af9" fill-rule="evenodd" fill-opacity="1" stroke="#000000" stroke-opacity="1" stroke-width="3.2"/>
<circle clip-path="url(#clip451)" cx="1916.02" cy="814.793" r="14.4" fill="#009af9" fill-rule="evenodd" fill-opacity="1" stroke="#000000" stroke-opacity="1" stroke-width="3.2"/>
<circle clip-path="url(#clip451)" cx="1888.52" cy="986.916" r="14.4" fill="#009af9" fill-rule="evenodd" fill-opacity="1" stroke="#000000" stroke-opacity="1" stroke-width="3.2"/>
<circle clip-path="url(#clip451)" cx="1407.11" cy="217.005" r="14.4" fill="#009af9" fill-rule="evenodd" fill-opacity="1" stroke="#000000" stroke-opacity="1" stroke-width="3.2"/>
<circle clip-path="url(#clip451)" cx="890.093" cy="1303.23" r="14.4" fill="#009af9" fill-rule="evenodd" fill-opacity="1" stroke="#000000" stroke-opacity="1" stroke-width="3.2"/>
<circle clip-path="url(#clip451)" cx="1786.92" cy="1156.47" r="14.4" fill="#009af9" fill-rule="evenodd" fill-opacity="1" stroke="#000000" stroke-opacity="1" stroke-width="3.2"/>
<circle clip-path="url(#clip451)" cx="970.277" cy="1343.28" r="14.4" fill="#009af9" fill-rule="evenodd" fill-opacity="1" stroke="#000000" stroke-opacity="1" stroke-width="3.2"/>
<circle clip-path="url(#clip451)" cx="686.092" cy="1006.65" r="14.4" fill="#009af9" fill-rule="evenodd" fill-opacity="1" stroke="#000000" stroke-opacity="1" stroke-width="3.2"/>
<circle clip-path="url(#clip451)" cx="835.83" cy="384.995" r="14.4" fill="#009af9" fill-rule="evenodd" fill-opacity="1" stroke="#000000" stroke-opacity="1" stroke-width="3.2"/>
<circle clip-path="url(#clip451)" cx="1393.29" cy="224.045" r="14.4" fill="#009af9" fill-rule="evenodd" fill-opacity="1" stroke="#000000" stroke-opacity="1" stroke-width="3.2"/>
<circle clip-path="url(#clip451)" cx="1223.77" cy="1406.99" r="14.4" fill="#009af9" fill-rule="evenodd" fill-opacity="1" stroke="#000000" stroke-opacity="1" stroke-width="3.2"/>
<circle clip-path="url(#clip451)" cx="1052.49" cy="248.696" r="14.4" fill="#009af9" fill-rule="evenodd" fill-opacity="1" stroke="#000000" stroke-opacity="1" stroke-width="3.2"/>
<circle clip-path="url(#clip451)" cx="808.393" cy="423.639" r="14.4" fill="#009af9" fill-rule="evenodd" fill-opacity="1" stroke="#000000" stroke-opacity="1" stroke-width="3.2"/>
<circle clip-path="url(#clip451)" cx="683.29" cy="949.154" r="14.4" fill="#009af9" fill-rule="evenodd" fill-opacity="1" stroke="#000000" stroke-opacity="1" stroke-width="3.2"/>
<circle clip-path="url(#clip451)" cx="1358.8" cy="197.913" r="14.4" fill="#009af9" fill-rule="evenodd" fill-opacity="1" stroke="#000000" stroke-opacity="1" stroke-width="3.2"/>
<circle clip-path="url(#clip451)" cx="698.7" cy="546.538" r="14.4" fill="#009af9" fill-rule="evenodd" fill-opacity="1" stroke="#000000" stroke-opacity="1" stroke-width="3.2"/>
<circle clip-path="url(#clip451)" cx="1857.51" cy="1009.31" r="14.4" fill="#009af9" fill-rule="evenodd" fill-opacity="1" stroke="#000000" stroke-opacity="1" stroke-width="3.2"/>
<circle clip-path="url(#clip451)" cx="1214.5" cy="1439.72" r="14.4" fill="#009af9" fill-rule="evenodd" fill-opacity="1" stroke="#000000" stroke-opacity="1" stroke-width="3.2"/>
<circle clip-path="url(#clip451)" cx="877.309" cy="338.302" r="14.4" fill="#009af9" fill-rule="evenodd" fill-opacity="1" stroke="#000000" stroke-opacity="1" stroke-width="3.2"/>
<circle clip-path="url(#clip451)" cx="1028.73" cy="1401.89" r="14.4" fill="#009af9" fill-rule="evenodd" fill-opacity="1" stroke="#000000" stroke-opacity="1" stroke-width="3.2"/>
<circle clip-path="url(#clip451)" cx="1536.19" cy="260.574" r="14.4" fill="#009af9" fill-rule="evenodd" fill-opacity="1" stroke="#000000" stroke-opacity="1" stroke-width="3.2"/>
<circle clip-path="url(#clip451)" cx="649.608" cy="725.97" r="14.4" fill="#009af9" fill-rule="evenodd" fill-opacity="1" stroke="#000000" stroke-opacity="1" stroke-width="3.2"/>
<circle clip-path="url(#clip451)" cx="1173.58" cy="218.742" r="14.4" fill="#009af9" fill-rule="evenodd" fill-opacity="1" stroke="#000000" stroke-opacity="1" stroke-width="3.2"/>
<circle clip-path="url(#clip451)" cx="1529.46" cy="1372.92" r="14.4" fill="#009af9" fill-rule="evenodd" fill-opacity="1" stroke="#000000" stroke-opacity="1" stroke-width="3.2"/>
<circle clip-path="url(#clip451)" cx="1790.73" cy="1121.57" r="14.4" fill="#009af9" fill-rule="evenodd" fill-opacity="1" stroke="#000000" stroke-opacity="1" stroke-width="3.2"/>
<circle clip-path="url(#clip451)" cx="733.207" cy="558.392" r="14.4" fill="#009af9" fill-rule="evenodd" fill-opacity="1" stroke="#000000" stroke-opacity="1" stroke-width="3.2"/>
<circle clip-path="url(#clip451)" cx="1820.31" cy="1080.92" r="14.4" fill="#009af9" fill-rule="evenodd" fill-opacity="1" stroke="#000000" stroke-opacity="1" stroke-width="3.2"/>
<circle clip-path="url(#clip451)" cx="1608.1" cy="1330.53" r="14.4" fill="#009af9" fill-rule="evenodd" fill-opacity="1" stroke="#000000" stroke-opacity="1" stroke-width="3.2"/>
<circle clip-path="url(#clip451)" cx="1462.04" cy="1444.78" r="14.4" fill="#009af9" fill-rule="evenodd" fill-opacity="1" stroke="#000000" stroke-opacity="1" stroke-width="3.2"/>
</svg>
